M48
;Layer_Color=9474304
;FILE_FORMAT=4:4
METRIC,LZ
T10F00S00C5.0800
%
G90
G05
T10
G00X00905048Y-00024893
M15
G01X00909895Y-00023393
G01X00914347Y-0002096
G01X00918227Y-0001769
G01X00921379Y-00013715
G01X00923678Y-00009192
G01X00925033Y-00004302
G01X009254Y0
G01X009254Y012
G01X00924893Y01205048
G01X00923393Y01209895
G01X0092096Y01214347
G01X0091769Y01218227
G01X00913715Y01221379
G01X00909192Y01223678
G01X00904302Y01225033
G01X009Y012254
G01X0Y012254
G01X-00005048Y01224893
G01X-00009895Y01223393
G01X-00014347Y0122096
G01X-00018227Y0121769
G01X-00021379Y01213715
G01X-00023678Y01209192
G01X-00025033Y01204302
G01X-000254Y012
G01X-000254Y0
G01X-00024893Y-00005048
G01X-00023393Y-00009895
G01X-0002096Y-00014347
G01X-0001769Y-00018227
G01X-00013715Y-00021379
G01X-00009192Y-00023678
G01X-00004302Y-00025033
G01X0Y-000254
G01X009Y-000254
G01X00905048Y-00024893
M16
M17
M30
