M48
;Layer_Color=9474304
;FILE_FORMAT=4:4
METRIC,LZ
;TYPE=PLATED
T1F00S00C0.5000
T2F00S00C0.6000
T3F00S00C0.7000
T4F00S00C0.7112
T5F00S00C0.8000
T6F00S00C1.1000
T7F00S00C1.2000
T8F00S00C1.3000
T9F00S00C2.5000
;TYPE=NON_PLATED
%
T01
X004011Y007
X004138
X004265
X004392
X004519
X004646
X004773
X0049
X005027
X005154
X005281
X005408
X005535
T02
X00883Y00205
T03
X00595Y00032
X00594Y00053
Y00072
Y00094
X00603Y00115
X00611Y00018
X00631Y00017
X00653Y00018
X00673
X00693Y00019
X00713
X00732
X00751
X00772Y00027
X00785Y00044
Y00065
Y00085
X00781Y00112
X00764Y00121
X00745Y0012
X00579Y00648
T04
X00572Y00194
X00593999Y0023
X0062Y00266
X00655Y00292
X00637999Y00311999
X00687999Y00302999
X00705Y00321
X00714999Y00285999
X00733Y00284
X00753Y00251
X00756Y00234
X00698Y00245
X00693099Y0021385
X00681Y00183
X00664Y00177
X00641Y00203
X00611Y00388
X00622Y00401
X00596Y00379
X00577Y00357
X00537Y00327
X00476Y00345
X00446Y00299
X00462Y00268
X00462Y00248
X00504Y00208
X00044Y00706
X00029Y00695
X00013Y00694
X0043Y00634
X00419Y00619
X00064Y01117
T05
X003541Y00064
X003795
X004049
X004303
X004557
X004811
X005065
X005319
X0082975Y000745
X0085515
Y000999
X0082975
Y001253
X0085515
Y000491
X0082975
Y001507
X0085515
T06
X006516Y00403
X007024
T07
X000323Y000937
Y001191
X000577
Y000937
Y001445
Y001699
Y001953
Y002207
Y002461
Y002715
Y002969
Y003223
Y003477
Y003731
Y003985
Y004239
Y004493
Y004747
Y005001
Y005255
X000323
Y005001
Y004747
Y004493
Y004239
Y003985
Y003731
Y003477
Y003223
Y002969
Y002715
Y002461
Y002207
Y001953
Y001699
Y001445
Y005509
Y005763
X000577
Y005509
X00843Y00622
Y006474
T08
X00827Y00252
Y002774
Y003028
Y003282
Y003536
Y00379
T09
X00816Y00505
X00867Y00525
M30
