%FSLAX44Y44*%
%MOMM*%
G71*
G01*
G75*
G04 Layer_Color=8388736*
%ADD10R,1.0000X1.0000*%
%ADD11R,1.0000X1.0000*%
%ADD12R,0.5500X1.5000*%
%ADD13R,1.5000X0.5500*%
%ADD14R,2.0000X5.5000*%
%ADD15R,0.7600X1.7800*%
%ADD16R,0.7200X1.7800*%
%ADD17R,4.3000X2.6000*%
%ADD18R,5.7000X5.5000*%
%ADD19C,0.5000*%
%ADD20C,0.3000*%
%ADD21C,2.0000*%
%ADD22C,0.9000*%
%ADD23C,1.4000*%
%ADD24C,0.5400*%
%ADD25C,0.2540*%
%ADD26C,1.0000*%
%ADD27C,0.4000*%
%ADD28C,1.8000*%
%ADD29C,0.9000*%
%ADD30C,1.3000*%
%ADD31C,1.7000*%
%ADD32C,3.0000*%
%ADD33C,1.2700*%
%ADD34C,1.0000*%
%ADD35R,1.0000X1.4000*%
%ADD36R,1.2032X1.2032*%
%ADD37R,1.2032X1.2032*%
%ADD38R,0.7532X1.7032*%
%ADD39R,1.7032X0.7532*%
%ADD40R,2.2032X5.7032*%
%ADD41R,0.9632X1.9832*%
%ADD42R,0.9232X1.9832*%
%ADD43R,4.5032X2.8032*%
%ADD44R,5.9032X5.7032*%
%ADD45C,2.0032*%
%ADD46C,1.1032*%
%ADD47C,1.5032*%
%ADD48C,1.9032*%
%ADD49C,3.2032*%
%ADD50C,1.4732*%
%ADD51C,1.2032*%
G36*
X734430Y476389D02*
Y476333D01*
X734319Y476111D01*
X734208Y475834D01*
X734041Y475389D01*
X733875Y474889D01*
X733652Y474334D01*
X733375Y473723D01*
X733152Y473056D01*
X732541Y471667D01*
X731986Y470279D01*
X731653Y469612D01*
X731375Y469001D01*
X731153Y468445D01*
X730875Y468001D01*
Y467945D01*
X730819Y467890D01*
X730708Y467723D01*
X730597Y467501D01*
X730208Y466945D01*
X729764Y466279D01*
X729208Y465501D01*
X728542Y464779D01*
X727820Y464057D01*
X727042Y463446D01*
X726931Y463390D01*
X726653Y463224D01*
X726209Y462946D01*
X725598Y462724D01*
X724820Y462446D01*
X723931Y462168D01*
X722987Y462002D01*
X721876Y461946D01*
X721542D01*
X721154Y462002D01*
X720709Y462057D01*
X720098Y462113D01*
X719376Y462279D01*
X718654Y462446D01*
X717821Y462724D01*
X717098Y468612D01*
X717210D01*
X717432Y468501D01*
X717821Y468445D01*
X718321Y468334D01*
X718876Y468223D01*
X719487Y468112D01*
X720098Y468056D01*
X720654Y468001D01*
X720987D01*
X721376Y468056D01*
X721876Y468112D01*
X722376Y468168D01*
X722931Y468334D01*
X723487Y468501D01*
X723987Y468723D01*
X724042Y468779D01*
X724209Y468834D01*
X724431Y469001D01*
X724709Y469223D01*
X725042Y469501D01*
X725431Y469834D01*
X726097Y470667D01*
X726153Y470723D01*
X726209Y470890D01*
X726375Y471167D01*
X726542Y471612D01*
X726820Y472223D01*
X727153Y473056D01*
X727320Y473556D01*
X727542Y474111D01*
X727764Y474723D01*
X727986Y475389D01*
X728042Y475500D01*
X728153Y475778D01*
X728319Y476278D01*
X728597Y476945D01*
X714543Y514163D01*
X721209D01*
X728931Y492609D01*
Y492554D01*
X728986Y492443D01*
X729097Y492221D01*
X729208Y491887D01*
X729319Y491498D01*
X729486Y491054D01*
X729653Y490554D01*
X729875Y489999D01*
X730264Y488721D01*
X730764Y487221D01*
X731208Y485666D01*
X731653Y483999D01*
Y484055D01*
X731708Y484221D01*
X731764Y484444D01*
X731875Y484721D01*
X731930Y485110D01*
X732097Y485610D01*
X732208Y486110D01*
X732375Y486666D01*
X732764Y487943D01*
X733208Y489388D01*
X733708Y490887D01*
X734263Y492443D01*
X742262Y514163D01*
X748540D01*
X734430Y476389D01*
D02*
G37*
G36*
X629663Y499609D02*
X599222D01*
Y505664D01*
X629663D01*
Y499609D01*
D02*
G37*
G36*
X854306Y514940D02*
X854806D01*
X855862Y514829D01*
X857084Y514718D01*
X858362Y514496D01*
X859639Y514218D01*
X860806Y513829D01*
X860861D01*
X860917Y513774D01*
X861084Y513718D01*
X861306Y513607D01*
X861806Y513385D01*
X862472Y513052D01*
X863194Y512663D01*
X863917Y512163D01*
X864583Y511608D01*
X865194Y510997D01*
X865250Y510941D01*
X865416Y510719D01*
X865694Y510330D01*
X865972Y509830D01*
X866305Y509219D01*
X866638Y508497D01*
X866972Y507663D01*
X867194Y506719D01*
Y506664D01*
X867250Y506386D01*
X867305Y505997D01*
X867361Y505386D01*
X867416Y504608D01*
X867472Y503608D01*
Y502997D01*
X867527Y502386D01*
Y501720D01*
Y500942D01*
Y492554D01*
Y492443D01*
Y492165D01*
Y491721D01*
Y491165D01*
Y490443D01*
Y489665D01*
X867583Y488777D01*
Y487888D01*
X867638Y485999D01*
Y485055D01*
X867694Y484166D01*
X867749Y483333D01*
X867805Y482611D01*
X867861Y481944D01*
X867916Y481444D01*
Y481333D01*
X867972Y481055D01*
X868083Y480611D01*
X868250Y480000D01*
X868472Y479333D01*
X868749Y478611D01*
X869083Y477778D01*
X869472Y477000D01*
X862917D01*
X862861Y477111D01*
X862750Y477333D01*
X862583Y477778D01*
X862417Y478333D01*
X862195Y479000D01*
X861972Y479777D01*
X861806Y480666D01*
X861695Y481666D01*
X861639Y481611D01*
X861528Y481555D01*
X861361Y481388D01*
X861084Y481166D01*
X860750Y480944D01*
X860417Y480611D01*
X859528Y480000D01*
X858473Y479278D01*
X857362Y478555D01*
X856140Y477944D01*
X854918Y477389D01*
X854862D01*
X854751Y477333D01*
X854584Y477278D01*
X854362Y477222D01*
X854084Y477111D01*
X853695Y477000D01*
X852862Y476778D01*
X851807Y476556D01*
X850640Y476333D01*
X849362Y476222D01*
X847974Y476167D01*
X847363D01*
X846974Y476222D01*
X846474Y476278D01*
X845863Y476333D01*
X845196Y476389D01*
X844530Y476556D01*
X842974Y476889D01*
X841419Y477389D01*
X840697Y477722D01*
X839919Y478167D01*
X839252Y478611D01*
X838586Y479111D01*
X838530Y479166D01*
X838419Y479278D01*
X838308Y479444D01*
X838086Y479666D01*
X837808Y479944D01*
X837530Y480333D01*
X837253Y480722D01*
X836975Y481222D01*
X836364Y482277D01*
X835808Y483610D01*
X835586Y484333D01*
X835475Y485110D01*
X835364Y485943D01*
X835308Y486777D01*
Y486832D01*
Y486888D01*
Y487221D01*
X835364Y487777D01*
X835475Y488443D01*
X835586Y489221D01*
X835808Y490054D01*
X836142Y490887D01*
X836531Y491776D01*
X836586Y491887D01*
X836753Y492165D01*
X837030Y492554D01*
X837419Y493110D01*
X837864Y493665D01*
X838419Y494276D01*
X839030Y494832D01*
X839752Y495387D01*
X839864Y495443D01*
X840141Y495609D01*
X840530Y495887D01*
X841086Y496165D01*
X841752Y496498D01*
X842530Y496831D01*
X843419Y497165D01*
X844307Y497442D01*
X844419D01*
X844641Y497553D01*
X845085Y497609D01*
X845696Y497776D01*
X846474Y497887D01*
X847474Y498053D01*
X848585Y498220D01*
X849918Y498387D01*
X850029D01*
X850251Y498442D01*
X850640Y498498D01*
X851140Y498553D01*
X851807Y498664D01*
X852529Y498775D01*
X853307Y498887D01*
X854195Y498998D01*
X856029Y499331D01*
X857862Y499720D01*
X858751Y499942D01*
X859639Y500164D01*
X860417Y500387D01*
X861139Y500609D01*
Y500664D01*
Y500831D01*
Y501053D01*
X861195Y501275D01*
Y501831D01*
Y502053D01*
Y502220D01*
Y502275D01*
Y502386D01*
Y502608D01*
Y502831D01*
X861084Y503497D01*
X860972Y504330D01*
X860750Y505219D01*
X860417Y506108D01*
X859973Y506941D01*
X859361Y507608D01*
X859250Y507719D01*
X859139Y507830D01*
X858917Y507941D01*
X858639Y508108D01*
X858362Y508274D01*
X857584Y508719D01*
X856584Y509108D01*
X855362Y509441D01*
X853918Y509663D01*
X852251Y509774D01*
X851529D01*
X851140Y509719D01*
X850751D01*
X849751Y509608D01*
X848696Y509385D01*
X847641Y509108D01*
X846585Y508719D01*
X845696Y508219D01*
X845585Y508163D01*
X845363Y507941D01*
X844974Y507497D01*
X844530Y506941D01*
X844030Y506219D01*
X843474Y505219D01*
X843030Y504108D01*
X842808Y503442D01*
X842586Y502720D01*
X836419Y503553D01*
Y503608D01*
X836475Y503719D01*
X836531Y503942D01*
X836586Y504219D01*
X836697Y504553D01*
X836808Y504942D01*
X837086Y505830D01*
X837475Y506830D01*
X837919Y507886D01*
X838475Y508941D01*
X839141Y509885D01*
Y509941D01*
X839252Y509997D01*
X839530Y510274D01*
X839975Y510719D01*
X840586Y511274D01*
X841363Y511885D01*
X842308Y512496D01*
X843419Y513107D01*
X844696Y513663D01*
X844752D01*
X844863Y513718D01*
X845085Y513774D01*
X845363Y513885D01*
X845696Y513996D01*
X846085Y514107D01*
X846585Y514218D01*
X847141Y514329D01*
X847696Y514441D01*
X848363Y514552D01*
X849807Y514774D01*
X851418Y514940D01*
X853140Y514996D01*
X853918D01*
X854306Y514940D01*
D02*
G37*
G36*
X1173885Y477000D02*
X1168274D01*
Y482444D01*
X1168218Y482388D01*
X1168052Y482166D01*
X1167830Y481888D01*
X1167496Y481444D01*
X1167052Y481000D01*
X1166496Y480444D01*
X1165885Y479889D01*
X1165163Y479333D01*
X1164330Y478722D01*
X1163441Y478167D01*
X1162497Y477611D01*
X1161441Y477167D01*
X1160275Y476722D01*
X1159108Y476445D01*
X1157831Y476222D01*
X1156442Y476167D01*
X1155886D01*
X1155275Y476222D01*
X1154442Y476333D01*
X1153498Y476445D01*
X1152442Y476667D01*
X1151387Y477000D01*
X1150276Y477389D01*
X1150220D01*
X1150165Y477444D01*
X1149831Y477611D01*
X1149332Y477889D01*
X1148665Y478278D01*
X1147998Y478722D01*
X1147276Y479278D01*
X1146609Y479889D01*
X1146054Y480555D01*
X1145999Y480666D01*
X1145832Y480888D01*
X1145610Y481333D01*
X1145332Y481888D01*
X1144999Y482555D01*
X1144665Y483333D01*
X1144388Y484221D01*
X1144110Y485221D01*
Y485332D01*
X1144054Y485555D01*
X1143999Y486055D01*
X1143943Y486666D01*
X1143888Y487499D01*
X1143832Y488499D01*
X1143776Y489721D01*
Y491110D01*
Y514163D01*
X1150054D01*
Y493554D01*
Y493498D01*
Y493332D01*
Y493110D01*
Y492776D01*
Y492332D01*
Y491887D01*
X1150109Y490887D01*
Y489776D01*
X1150220Y488666D01*
X1150276Y487666D01*
X1150331Y487221D01*
X1150387Y486888D01*
X1150443Y486777D01*
X1150498Y486499D01*
X1150665Y485999D01*
X1150942Y485444D01*
X1151276Y484832D01*
X1151720Y484221D01*
X1152276Y483555D01*
X1152942Y482999D01*
X1153053Y482944D01*
X1153276Y482777D01*
X1153720Y482555D01*
X1154275Y482333D01*
X1154942Y482055D01*
X1155775Y481833D01*
X1156720Y481666D01*
X1157719Y481611D01*
X1158219D01*
X1158719Y481666D01*
X1159442Y481777D01*
X1160275Y481944D01*
X1161164Y482222D01*
X1162052Y482555D01*
X1162997Y483055D01*
X1163052D01*
X1163108Y483111D01*
X1163386Y483333D01*
X1163830Y483666D01*
X1164386Y484110D01*
X1164941Y484666D01*
X1165552Y485332D01*
X1166107Y486110D01*
X1166552Y486999D01*
Y487054D01*
X1166607Y487110D01*
X1166663Y487277D01*
X1166719Y487443D01*
X1166774Y487721D01*
X1166885Y488054D01*
X1166996Y488388D01*
X1167107Y488832D01*
X1167274Y489888D01*
X1167441Y491110D01*
X1167552Y492554D01*
X1167607Y494220D01*
Y514163D01*
X1173885D01*
Y477000D01*
D02*
G37*
G36*
X1124112Y514940D02*
X1124612Y514885D01*
X1125223Y514829D01*
X1125889Y514718D01*
X1126612Y514607D01*
X1128167Y514218D01*
X1129834Y513663D01*
X1130667Y513330D01*
X1131500Y512941D01*
X1132278Y512441D01*
X1133000Y511885D01*
X1133055Y511830D01*
X1133167Y511719D01*
X1133389Y511552D01*
X1133611Y511330D01*
X1133944Y510997D01*
X1134277Y510608D01*
X1134666Y510163D01*
X1135055Y509663D01*
X1135500Y509052D01*
X1135888Y508441D01*
X1136333Y507719D01*
X1136722Y506941D01*
X1137055Y506108D01*
X1137388Y505219D01*
X1137721Y504219D01*
X1137944Y503219D01*
X1131833Y502275D01*
Y502331D01*
X1131778Y502442D01*
X1131722Y502608D01*
X1131667Y502886D01*
X1131444Y503553D01*
X1131111Y504386D01*
X1130667Y505275D01*
X1130167Y506219D01*
X1129500Y507108D01*
X1128723Y507886D01*
X1128611Y507997D01*
X1128334Y508219D01*
X1127834Y508497D01*
X1127223Y508886D01*
X1126445Y509219D01*
X1125556Y509552D01*
X1124501Y509774D01*
X1123390Y509830D01*
X1122945D01*
X1122612Y509774D01*
X1122168Y509719D01*
X1121723Y509663D01*
X1120612Y509385D01*
X1119390Y508997D01*
X1118779Y508719D01*
X1118112Y508386D01*
X1117501Y507997D01*
X1116835Y507497D01*
X1116224Y506997D01*
X1115668Y506386D01*
X1115613Y506330D01*
X1115557Y506219D01*
X1115390Y506053D01*
X1115224Y505719D01*
X1115002Y505386D01*
X1114724Y504942D01*
X1114446Y504386D01*
X1114224Y503775D01*
X1113946Y503053D01*
X1113669Y502275D01*
X1113391Y501386D01*
X1113168Y500387D01*
X1113002Y499331D01*
X1112835Y498220D01*
X1112780Y496942D01*
X1112724Y495609D01*
Y495554D01*
Y495276D01*
Y494887D01*
X1112780Y494387D01*
X1112835Y493776D01*
X1112891Y493054D01*
X1112946Y492276D01*
X1113057Y491443D01*
X1113391Y489665D01*
X1113946Y487832D01*
X1114224Y486999D01*
X1114613Y486166D01*
X1115057Y485388D01*
X1115557Y484721D01*
X1115613Y484666D01*
X1115668Y484555D01*
X1115835Y484388D01*
X1116057Y484221D01*
X1116390Y483944D01*
X1116724Y483666D01*
X1117113Y483333D01*
X1117557Y483055D01*
X1118668Y482388D01*
X1119946Y481888D01*
X1120668Y481666D01*
X1121390Y481499D01*
X1122223Y481388D01*
X1123056Y481333D01*
X1123390D01*
X1123668Y481388D01*
X1124001D01*
X1124334Y481444D01*
X1125223Y481611D01*
X1126167Y481888D01*
X1127223Y482277D01*
X1128223Y482833D01*
X1129222Y483555D01*
X1129278Y483610D01*
X1129333Y483666D01*
X1129611Y483999D01*
X1130056Y484555D01*
X1130278Y484888D01*
X1130556Y485277D01*
X1130833Y485777D01*
X1131111Y486277D01*
X1131333Y486832D01*
X1131611Y487499D01*
X1131833Y488166D01*
X1132056Y488943D01*
X1132222Y489721D01*
X1132389Y490610D01*
X1138555Y489776D01*
Y489721D01*
X1138499Y489499D01*
X1138444Y489165D01*
X1138333Y488721D01*
X1138166Y488166D01*
X1137999Y487555D01*
X1137777Y486888D01*
X1137499Y486110D01*
X1136833Y484555D01*
X1136388Y483722D01*
X1135888Y482888D01*
X1135388Y482055D01*
X1134777Y481222D01*
X1134055Y480500D01*
X1133333Y479777D01*
X1133278Y479722D01*
X1133167Y479611D01*
X1132889Y479444D01*
X1132611Y479222D01*
X1132167Y478944D01*
X1131722Y478611D01*
X1131111Y478333D01*
X1130500Y478000D01*
X1129778Y477611D01*
X1129000Y477333D01*
X1128167Y477000D01*
X1127278Y476722D01*
X1126278Y476500D01*
X1125278Y476333D01*
X1124223Y476222D01*
X1123112Y476167D01*
X1122779D01*
X1122390Y476222D01*
X1121834D01*
X1121223Y476333D01*
X1120446Y476445D01*
X1119612Y476556D01*
X1118724Y476778D01*
X1117779Y477056D01*
X1116779Y477389D01*
X1115779Y477778D01*
X1114724Y478278D01*
X1113724Y478833D01*
X1112724Y479500D01*
X1111780Y480222D01*
X1110891Y481111D01*
X1110835Y481166D01*
X1110669Y481333D01*
X1110447Y481611D01*
X1110169Y482055D01*
X1109836Y482555D01*
X1109447Y483166D01*
X1109002Y483944D01*
X1108614Y484777D01*
X1108169Y485721D01*
X1107725Y486777D01*
X1107336Y487943D01*
X1107002Y489221D01*
X1106725Y490610D01*
X1106503Y492110D01*
X1106336Y493721D01*
X1106280Y495387D01*
Y495443D01*
Y495665D01*
Y495998D01*
X1106336Y496387D01*
Y496942D01*
X1106392Y497553D01*
X1106447Y498220D01*
X1106503Y498998D01*
X1106780Y500609D01*
X1107114Y502386D01*
X1107558Y504219D01*
X1108225Y505942D01*
Y505997D01*
X1108336Y506164D01*
X1108447Y506386D01*
X1108614Y506664D01*
X1108836Y507052D01*
X1109058Y507497D01*
X1109725Y508497D01*
X1110558Y509552D01*
X1111613Y510719D01*
X1112835Y511774D01*
X1114279Y512719D01*
X1114335D01*
X1114446Y512830D01*
X1114668Y512941D01*
X1115002Y513052D01*
X1115390Y513274D01*
X1115835Y513441D01*
X1116335Y513663D01*
X1116890Y513885D01*
X1117557Y514052D01*
X1118224Y514274D01*
X1119723Y514663D01*
X1121390Y514885D01*
X1123112Y514996D01*
X1123723D01*
X1124112Y514940D01*
D02*
G37*
G36*
X1197937D02*
X1198215D01*
X1198549Y514885D01*
X1199382Y514718D01*
X1200382Y514496D01*
X1201437Y514107D01*
X1202659Y513607D01*
X1203881Y512941D01*
X1201659Y507108D01*
X1201548Y507164D01*
X1201271Y507330D01*
X1200826Y507552D01*
X1200215Y507830D01*
X1199548Y508052D01*
X1198771Y508274D01*
X1197937Y508441D01*
X1197049Y508497D01*
X1196715D01*
X1196327Y508441D01*
X1195827Y508330D01*
X1195216Y508163D01*
X1194604Y507941D01*
X1193994Y507663D01*
X1193327Y507219D01*
X1193271Y507164D01*
X1193049Y506997D01*
X1192771Y506719D01*
X1192438Y506330D01*
X1192049Y505830D01*
X1191660Y505275D01*
X1191327Y504553D01*
X1190994Y503775D01*
Y503719D01*
X1190938Y503608D01*
X1190883Y503442D01*
X1190827Y503219D01*
X1190772Y502886D01*
X1190660Y502497D01*
X1190494Y501609D01*
X1190327Y500498D01*
X1190161Y499276D01*
X1190050Y497887D01*
X1189994Y496442D01*
Y477000D01*
X1183717D01*
Y514163D01*
X1189383D01*
Y508552D01*
X1189494Y508663D01*
X1189605Y508886D01*
X1189772Y509108D01*
X1190161Y509830D01*
X1190716Y510608D01*
X1191327Y511496D01*
X1191994Y512385D01*
X1192660Y513107D01*
X1193049Y513441D01*
X1193382Y513718D01*
X1193493Y513774D01*
X1193716Y513941D01*
X1194105Y514107D01*
X1194549Y514385D01*
X1195160Y514607D01*
X1195827Y514774D01*
X1196604Y514940D01*
X1197382Y514996D01*
X1197715D01*
X1197937Y514940D01*
D02*
G37*
G36*
X1277318Y477000D02*
X1271486D01*
Y481666D01*
X1271430Y481611D01*
X1271319Y481444D01*
X1271097Y481166D01*
X1270819Y480833D01*
X1270430Y480388D01*
X1269986Y479944D01*
X1269486Y479444D01*
X1268875Y478944D01*
X1268152Y478389D01*
X1267375Y477889D01*
X1266542Y477444D01*
X1265597Y477056D01*
X1264542Y476667D01*
X1263486Y476389D01*
X1262320Y476222D01*
X1261042Y476167D01*
X1260598D01*
X1260264Y476222D01*
X1259876D01*
X1259431Y476278D01*
X1258931Y476389D01*
X1258376Y476500D01*
X1257098Y476778D01*
X1255709Y477222D01*
X1254321Y477833D01*
X1253598Y478167D01*
X1252876Y478611D01*
X1252821Y478666D01*
X1252710Y478722D01*
X1252543Y478889D01*
X1252265Y479055D01*
X1251932Y479333D01*
X1251599Y479611D01*
X1250765Y480388D01*
X1249821Y481333D01*
X1248877Y482499D01*
X1247932Y483888D01*
X1247099Y485444D01*
Y485499D01*
X1246988Y485666D01*
X1246933Y485888D01*
X1246766Y486221D01*
X1246655Y486610D01*
X1246488Y487110D01*
X1246266Y487721D01*
X1246099Y488332D01*
X1245933Y489054D01*
X1245710Y489832D01*
X1245544Y490665D01*
X1245433Y491554D01*
X1245210Y493443D01*
X1245099Y495498D01*
Y495554D01*
Y495776D01*
Y496054D01*
X1245155Y496442D01*
Y496942D01*
X1245210Y497498D01*
X1245266Y498164D01*
X1245322Y498887D01*
X1245544Y500442D01*
X1245877Y502108D01*
X1246321Y503886D01*
X1246933Y505608D01*
Y505664D01*
X1247044Y505830D01*
X1247155Y506053D01*
X1247266Y506386D01*
X1247488Y506719D01*
X1247710Y507164D01*
X1248321Y508163D01*
X1249099Y509330D01*
X1250043Y510441D01*
X1251154Y511552D01*
X1252487Y512552D01*
X1252543Y512607D01*
X1252654Y512663D01*
X1252876Y512774D01*
X1253154Y512941D01*
X1253487Y513107D01*
X1253932Y513330D01*
X1254376Y513552D01*
X1254932Y513774D01*
X1256154Y514218D01*
X1257542Y514607D01*
X1259098Y514885D01*
X1259931Y514996D01*
X1261320D01*
X1261986Y514940D01*
X1262764Y514829D01*
X1263708Y514663D01*
X1264708Y514385D01*
X1265764Y514052D01*
X1266764Y513552D01*
X1266819D01*
X1266875Y513496D01*
X1267208Y513274D01*
X1267653Y512996D01*
X1268264Y512552D01*
X1268930Y511996D01*
X1269652Y511385D01*
X1270375Y510663D01*
X1271041Y509830D01*
Y528273D01*
X1277318D01*
Y477000D01*
D02*
G37*
G36*
X695601Y514940D02*
X696045D01*
X697101Y514829D01*
X698267Y514663D01*
X699600Y514441D01*
X700878Y514163D01*
X702156Y513718D01*
X702211D01*
X702322Y513663D01*
X702489Y513607D01*
X702711Y513496D01*
X703267Y513218D01*
X704044Y512830D01*
X704822Y512330D01*
X705600Y511719D01*
X706377Y511052D01*
X707044Y510274D01*
X707100Y510163D01*
X707322Y509885D01*
X707599Y509385D01*
X707933Y508774D01*
X708322Y507941D01*
X708655Y506941D01*
X708988Y505830D01*
X709266Y504553D01*
X703100Y503719D01*
Y503775D01*
Y503831D01*
X702989Y504164D01*
X702878Y504719D01*
X702655Y505330D01*
X702322Y506053D01*
X701878Y506775D01*
X701322Y507497D01*
X700656Y508163D01*
X700545Y508219D01*
X700267Y508441D01*
X699822Y508719D01*
X699211Y508997D01*
X698378Y509330D01*
X697378Y509552D01*
X696267Y509774D01*
X694934Y509830D01*
X694212D01*
X693879Y509774D01*
X693490D01*
X692545Y509663D01*
X691546Y509497D01*
X690490Y509219D01*
X689546Y508886D01*
X689157Y508663D01*
X688768Y508386D01*
X688712Y508330D01*
X688490Y508108D01*
X688213Y507830D01*
X687879Y507441D01*
X687490Y506941D01*
X687213Y506330D01*
X686991Y505719D01*
X686935Y504997D01*
Y504942D01*
Y504775D01*
X686991Y504553D01*
X687046Y504275D01*
X687268Y503553D01*
X687435Y503164D01*
X687657Y502775D01*
X687713Y502720D01*
X687824Y502608D01*
X687990Y502442D01*
X688268Y502220D01*
X688601Y501942D01*
X689046Y501664D01*
X689546Y501386D01*
X690101Y501109D01*
X690157D01*
X690323Y501053D01*
X690657Y500942D01*
X691157Y500775D01*
X691490Y500664D01*
X691879Y500553D01*
X692323Y500442D01*
X692823Y500275D01*
X693434Y500109D01*
X694101Y499942D01*
X694823Y499720D01*
X695656Y499498D01*
X695712D01*
X695934Y499442D01*
X696267Y499331D01*
X696767Y499220D01*
X697267Y499053D01*
X697878Y498887D01*
X698600Y498664D01*
X699323Y498442D01*
X700878Y497998D01*
X702378Y497498D01*
X703100Y497276D01*
X703766Y496998D01*
X704378Y496776D01*
X704933Y496553D01*
X704989D01*
X705044Y496498D01*
X705378Y496331D01*
X705877Y496109D01*
X706433Y495720D01*
X707100Y495276D01*
X707822Y494720D01*
X708488Y494054D01*
X709099Y493276D01*
X709155Y493165D01*
X709322Y492887D01*
X709599Y492443D01*
X709877Y491776D01*
X710155Y490999D01*
X710433Y490110D01*
X710599Y489054D01*
X710655Y487888D01*
Y487832D01*
Y487721D01*
Y487555D01*
Y487332D01*
X710544Y486721D01*
X710433Y485943D01*
X710210Y485055D01*
X709877Y484055D01*
X709377Y482999D01*
X708766Y481944D01*
Y481888D01*
X708655Y481833D01*
X708433Y481499D01*
X707988Y481000D01*
X707433Y480388D01*
X706655Y479666D01*
X705766Y478944D01*
X704711Y478278D01*
X703489Y477667D01*
X703433D01*
X703322Y477611D01*
X703156Y477556D01*
X702878Y477444D01*
X702544Y477333D01*
X702156Y477167D01*
X701711Y477056D01*
X701211Y476945D01*
X700045Y476667D01*
X698711Y476389D01*
X697267Y476222D01*
X695656Y476167D01*
X694934D01*
X694434Y476222D01*
X693879Y476278D01*
X693157Y476333D01*
X692379Y476389D01*
X691546Y476556D01*
X689768Y476889D01*
X687879Y477389D01*
X686991Y477722D01*
X686102Y478167D01*
X685324Y478611D01*
X684546Y479111D01*
X684491Y479166D01*
X684380Y479278D01*
X684213Y479444D01*
X683935Y479666D01*
X683658Y480000D01*
X683324Y480388D01*
X682935Y480833D01*
X682546Y481333D01*
X682102Y481944D01*
X681713Y482611D01*
X681324Y483333D01*
X680936Y484166D01*
X680602Y484999D01*
X680269Y485943D01*
X679991Y486999D01*
X679769Y488054D01*
X685991Y489054D01*
Y488999D01*
X686046Y488888D01*
Y488721D01*
X686102Y488443D01*
X686157Y488110D01*
X686268Y487777D01*
X686546Y486943D01*
X686935Y485999D01*
X687435Y484999D01*
X688046Y484110D01*
X688879Y483277D01*
X688935D01*
X688990Y483222D01*
X689324Y482999D01*
X689879Y482666D01*
X690657Y482333D01*
X691601Y481944D01*
X692768Y481666D01*
X694101Y481444D01*
X695601Y481333D01*
X696045D01*
X696323Y481388D01*
X696712D01*
X697101Y481444D01*
X698045Y481555D01*
X699100Y481777D01*
X700211Y482055D01*
X701211Y482499D01*
X702100Y483055D01*
X702211Y483111D01*
X702433Y483388D01*
X702767Y483722D01*
X703156Y484221D01*
X703544Y484832D01*
X703878Y485555D01*
X704100Y486332D01*
X704211Y487221D01*
Y487332D01*
Y487555D01*
X704100Y487999D01*
X703989Y488443D01*
X703766Y488999D01*
X703433Y489554D01*
X702933Y490110D01*
X702322Y490610D01*
X702267Y490665D01*
X702045Y490776D01*
X701656Y490943D01*
X701378Y491054D01*
X701045Y491165D01*
X700600Y491332D01*
X700156Y491498D01*
X699656Y491665D01*
X699045Y491832D01*
X698378Y492054D01*
X697600Y492276D01*
X696767Y492498D01*
X695878Y492721D01*
X695823D01*
X695601Y492776D01*
X695212Y492887D01*
X694767Y492998D01*
X694212Y493165D01*
X693545Y493332D01*
X692823Y493554D01*
X692046Y493776D01*
X690490Y494276D01*
X688879Y494776D01*
X688102Y494998D01*
X687435Y495276D01*
X686768Y495554D01*
X686213Y495776D01*
X686157D01*
X686102Y495831D01*
X685768Y495998D01*
X685324Y496276D01*
X684713Y496720D01*
X684046Y497220D01*
X683380Y497776D01*
X682713Y498498D01*
X682158Y499276D01*
X682102Y499387D01*
X681935Y499664D01*
X681713Y500164D01*
X681491Y500775D01*
X681269Y501497D01*
X681047Y502331D01*
X680880Y503275D01*
X680824Y504275D01*
Y504330D01*
Y504386D01*
Y504719D01*
X680880Y505164D01*
X680991Y505775D01*
X681102Y506497D01*
X681269Y507275D01*
X681547Y508108D01*
X681935Y508886D01*
X681991Y508997D01*
X682158Y509219D01*
X682380Y509608D01*
X682769Y510108D01*
X683158Y510663D01*
X683713Y511274D01*
X684324Y511830D01*
X685046Y512385D01*
X685102Y512441D01*
X685324Y512552D01*
X685657Y512774D01*
X686102Y512996D01*
X686657Y513274D01*
X687324Y513607D01*
X688157Y513941D01*
X689046Y514218D01*
X689101D01*
X689157Y514274D01*
X689490Y514329D01*
X689990Y514441D01*
X690712Y514607D01*
X691490Y514774D01*
X692434Y514885D01*
X693434Y514940D01*
X694490Y514996D01*
X695212D01*
X695601Y514940D01*
D02*
G37*
G36*
X890581D02*
X891025D01*
X892080Y514829D01*
X893247Y514663D01*
X894580Y514441D01*
X895858Y514163D01*
X897135Y513718D01*
X897191D01*
X897302Y513663D01*
X897469Y513607D01*
X897691Y513496D01*
X898246Y513218D01*
X899024Y512830D01*
X899802Y512330D01*
X900580Y511719D01*
X901357Y511052D01*
X902024Y510274D01*
X902079Y510163D01*
X902301Y509885D01*
X902579Y509385D01*
X902913Y508774D01*
X903301Y507941D01*
X903635Y506941D01*
X903968Y505830D01*
X904246Y504553D01*
X898080Y503719D01*
Y503775D01*
Y503831D01*
X897969Y504164D01*
X897858Y504719D01*
X897635Y505330D01*
X897302Y506053D01*
X896858Y506775D01*
X896302Y507497D01*
X895636Y508163D01*
X895524Y508219D01*
X895247Y508441D01*
X894802Y508719D01*
X894191Y508997D01*
X893358Y509330D01*
X892358Y509552D01*
X891247Y509774D01*
X889914Y509830D01*
X889192D01*
X888858Y509774D01*
X888470D01*
X887525Y509663D01*
X886525Y509497D01*
X885470Y509219D01*
X884526Y508886D01*
X884137Y508663D01*
X883748Y508386D01*
X883692Y508330D01*
X883470Y508108D01*
X883192Y507830D01*
X882859Y507441D01*
X882470Y506941D01*
X882193Y506330D01*
X881970Y505719D01*
X881915Y504997D01*
Y504942D01*
Y504775D01*
X881970Y504553D01*
X882026Y504275D01*
X882248Y503553D01*
X882415Y503164D01*
X882637Y502775D01*
X882692Y502720D01*
X882803Y502608D01*
X882970Y502442D01*
X883248Y502220D01*
X883581Y501942D01*
X884026Y501664D01*
X884526Y501386D01*
X885081Y501109D01*
X885137D01*
X885303Y501053D01*
X885637Y500942D01*
X886136Y500775D01*
X886470Y500664D01*
X886859Y500553D01*
X887303Y500442D01*
X887803Y500275D01*
X888414Y500109D01*
X889081Y499942D01*
X889803Y499720D01*
X890636Y499498D01*
X890692D01*
X890914Y499442D01*
X891247Y499331D01*
X891747Y499220D01*
X892247Y499053D01*
X892858Y498887D01*
X893580Y498664D01*
X894302Y498442D01*
X895858Y497998D01*
X897358Y497498D01*
X898080Y497276D01*
X898746Y496998D01*
X899357Y496776D01*
X899913Y496553D01*
X899968D01*
X900024Y496498D01*
X900357Y496331D01*
X900857Y496109D01*
X901413Y495720D01*
X902079Y495276D01*
X902801Y494720D01*
X903468Y494054D01*
X904079Y493276D01*
X904135Y493165D01*
X904301Y492887D01*
X904579Y492443D01*
X904857Y491776D01*
X905135Y490999D01*
X905412Y490110D01*
X905579Y489054D01*
X905635Y487888D01*
Y487832D01*
Y487721D01*
Y487555D01*
Y487332D01*
X905523Y486721D01*
X905412Y485943D01*
X905190Y485055D01*
X904857Y484055D01*
X904357Y482999D01*
X903746Y481944D01*
Y481888D01*
X903635Y481833D01*
X903412Y481499D01*
X902968Y481000D01*
X902413Y480388D01*
X901635Y479666D01*
X900746Y478944D01*
X899691Y478278D01*
X898469Y477667D01*
X898413D01*
X898302Y477611D01*
X898135Y477556D01*
X897858Y477444D01*
X897524Y477333D01*
X897135Y477167D01*
X896691Y477056D01*
X896191Y476945D01*
X895024Y476667D01*
X893691Y476389D01*
X892247Y476222D01*
X890636Y476167D01*
X889914D01*
X889414Y476222D01*
X888858Y476278D01*
X888136Y476333D01*
X887359Y476389D01*
X886525Y476556D01*
X884748Y476889D01*
X882859Y477389D01*
X881970Y477722D01*
X881081Y478167D01*
X880304Y478611D01*
X879526Y479111D01*
X879471Y479166D01*
X879359Y479278D01*
X879193Y479444D01*
X878915Y479666D01*
X878637Y480000D01*
X878304Y480388D01*
X877915Y480833D01*
X877526Y481333D01*
X877082Y481944D01*
X876693Y482611D01*
X876304Y483333D01*
X875915Y484166D01*
X875582Y484999D01*
X875249Y485943D01*
X874971Y486999D01*
X874749Y488054D01*
X880970Y489054D01*
Y488999D01*
X881026Y488888D01*
Y488721D01*
X881081Y488443D01*
X881137Y488110D01*
X881248Y487777D01*
X881526Y486943D01*
X881915Y485999D01*
X882415Y484999D01*
X883026Y484110D01*
X883859Y483277D01*
X883914D01*
X883970Y483222D01*
X884303Y482999D01*
X884859Y482666D01*
X885637Y482333D01*
X886581Y481944D01*
X887747Y481666D01*
X889081Y481444D01*
X890581Y481333D01*
X891025D01*
X891303Y481388D01*
X891692D01*
X892080Y481444D01*
X893025Y481555D01*
X894080Y481777D01*
X895191Y482055D01*
X896191Y482499D01*
X897080Y483055D01*
X897191Y483111D01*
X897413Y483388D01*
X897746Y483722D01*
X898135Y484221D01*
X898524Y484832D01*
X898857Y485555D01*
X899080Y486332D01*
X899191Y487221D01*
Y487332D01*
Y487555D01*
X899080Y487999D01*
X898969Y488443D01*
X898746Y488999D01*
X898413Y489554D01*
X897913Y490110D01*
X897302Y490610D01*
X897246Y490665D01*
X897024Y490776D01*
X896635Y490943D01*
X896358Y491054D01*
X896024Y491165D01*
X895580Y491332D01*
X895136Y491498D01*
X894636Y491665D01*
X894025Y491832D01*
X893358Y492054D01*
X892580Y492276D01*
X891747Y492498D01*
X890858Y492721D01*
X890803D01*
X890581Y492776D01*
X890192Y492887D01*
X889747Y492998D01*
X889192Y493165D01*
X888525Y493332D01*
X887803Y493554D01*
X887025Y493776D01*
X885470Y494276D01*
X883859Y494776D01*
X883081Y494998D01*
X882415Y495276D01*
X881748Y495554D01*
X881193Y495776D01*
X881137D01*
X881081Y495831D01*
X880748Y495998D01*
X880304Y496276D01*
X879693Y496720D01*
X879026Y497220D01*
X878360Y497776D01*
X877693Y498498D01*
X877137Y499276D01*
X877082Y499387D01*
X876915Y499664D01*
X876693Y500164D01*
X876471Y500775D01*
X876249Y501497D01*
X876026Y502331D01*
X875860Y503275D01*
X875804Y504275D01*
Y504330D01*
Y504386D01*
Y504719D01*
X875860Y505164D01*
X875971Y505775D01*
X876082Y506497D01*
X876249Y507275D01*
X876526Y508108D01*
X876915Y508886D01*
X876971Y508997D01*
X877137Y509219D01*
X877360Y509608D01*
X877748Y510108D01*
X878137Y510663D01*
X878693Y511274D01*
X879304Y511830D01*
X880026Y512385D01*
X880082Y512441D01*
X880304Y512552D01*
X880637Y512774D01*
X881081Y512996D01*
X881637Y513274D01*
X882304Y513607D01*
X883137Y513941D01*
X884026Y514218D01*
X884081D01*
X884137Y514274D01*
X884470Y514329D01*
X884970Y514441D01*
X885692Y514607D01*
X886470Y514774D01*
X887414Y514885D01*
X888414Y514940D01*
X889470Y514996D01*
X890192D01*
X890581Y514940D01*
D02*
G37*
G36*
X829420Y522217D02*
X801645D01*
Y506330D01*
X825698D01*
Y500275D01*
X801645D01*
Y477000D01*
X794868D01*
Y528273D01*
X829420D01*
Y522217D01*
D02*
G37*
G36*
X762760Y477000D02*
Y476945D01*
Y476833D01*
Y476611D01*
Y476333D01*
X762705Y476000D01*
Y475611D01*
X762594Y474723D01*
X762427Y473723D01*
X762149Y472667D01*
X761816Y471612D01*
X761316Y470612D01*
X761261Y470501D01*
X761038Y470223D01*
X760705Y469779D01*
X760261Y469223D01*
X759650Y468612D01*
X758872Y468001D01*
X757928Y467390D01*
X756872Y466834D01*
X755150Y469501D01*
X755261Y469556D01*
X755483Y469667D01*
X755817Y469890D01*
X756261Y470167D01*
X756761Y470556D01*
X757261Y471001D01*
X757705Y471501D01*
X758094Y472112D01*
X758150Y472167D01*
X758261Y472445D01*
X758428Y472834D01*
X758594Y473389D01*
X758761Y474056D01*
X758928Y474889D01*
X759094Y475889D01*
X759150Y477000D01*
X755594D01*
Y484166D01*
X762760D01*
Y477000D01*
D02*
G37*
G36*
X971183Y529050D02*
X971628Y528995D01*
X972128Y528939D01*
X972739Y528828D01*
X973350Y528717D01*
X974738Y528328D01*
X975405Y528050D01*
X976183Y527772D01*
X976849Y527384D01*
X977571Y526939D01*
X978238Y526439D01*
X978905Y525884D01*
X978960Y525828D01*
X979071Y525717D01*
X979238Y525550D01*
X979460Y525328D01*
X979682Y524995D01*
X979960Y524606D01*
X980293Y524217D01*
X980627Y523717D01*
X981238Y522551D01*
X981793Y521273D01*
X981960Y520495D01*
X982127Y519773D01*
X982238Y518940D01*
X982293Y518107D01*
Y518051D01*
Y517774D01*
X982238Y517385D01*
X982127Y516885D01*
X982016Y516274D01*
X981793Y515552D01*
X981460Y514718D01*
X981071Y513829D01*
X980571Y512885D01*
X979905Y511885D01*
X979127Y510830D01*
X978183Y509774D01*
X977072Y508719D01*
X975738Y507663D01*
X974239Y506608D01*
X973405Y506108D01*
X972516Y505608D01*
X981793Y493943D01*
Y493998D01*
X981849Y494109D01*
X981960Y494276D01*
X982071Y494498D01*
X982182Y494776D01*
X982349Y495165D01*
X982682Y495998D01*
X983071Y497053D01*
X983460Y498276D01*
X983904Y499664D01*
X984238Y501109D01*
X990792Y499720D01*
Y499664D01*
X990737Y499442D01*
X990626Y499053D01*
X990459Y498609D01*
X990292Y498053D01*
X990070Y497387D01*
X989848Y496609D01*
X989570Y495831D01*
X988904Y494109D01*
X988126Y492221D01*
X987237Y490443D01*
X986737Y489554D01*
X986182Y488721D01*
X986237Y488666D01*
X986348Y488499D01*
X986515Y488277D01*
X986793Y487943D01*
X987126Y487555D01*
X987570Y487054D01*
X988015Y486555D01*
X988515Y485943D01*
X989737Y484721D01*
X991070Y483388D01*
X992626Y482055D01*
X994236Y480833D01*
X990015Y475834D01*
X989959Y475889D01*
X989848Y475945D01*
X989626Y476111D01*
X989348Y476278D01*
X989015Y476556D01*
X988570Y476833D01*
X988126Y477222D01*
X987570Y477611D01*
X987015Y478111D01*
X986404Y478611D01*
X985737Y479222D01*
X985071Y479889D01*
X984349Y480555D01*
X983626Y481333D01*
X982904Y482111D01*
X982127Y482999D01*
X982071Y482944D01*
X981960Y482833D01*
X981793Y482666D01*
X981571Y482444D01*
X981293Y482166D01*
X980960Y481833D01*
X980127Y481055D01*
X979127Y480222D01*
X977960Y479389D01*
X976683Y478555D01*
X975350Y477833D01*
X975294D01*
X975183Y477778D01*
X974961Y477667D01*
X974738Y477556D01*
X974350Y477444D01*
X973961Y477333D01*
X973516Y477167D01*
X972961Y477000D01*
X971794Y476722D01*
X970461Y476445D01*
X968961Y476222D01*
X967406Y476167D01*
X967073D01*
X966628Y476222D01*
X966128Y476278D01*
X965462Y476333D01*
X964684Y476445D01*
X963795Y476611D01*
X962906Y476833D01*
X961906Y477111D01*
X960907Y477444D01*
X959851Y477889D01*
X958796Y478389D01*
X957796Y479000D01*
X956796Y479722D01*
X955796Y480500D01*
X954907Y481444D01*
X954852Y481499D01*
X954741Y481666D01*
X954574Y481888D01*
X954352Y482222D01*
X954018Y482611D01*
X953741Y483111D01*
X953407Y483666D01*
X953074Y484277D01*
X952685Y484944D01*
X952352Y485721D01*
X951796Y487332D01*
X951519Y488221D01*
X951352Y489165D01*
X951241Y490110D01*
X951185Y491110D01*
Y491165D01*
Y491332D01*
Y491554D01*
X951241Y491943D01*
X951296Y492332D01*
X951352Y492832D01*
X951463Y493387D01*
X951574Y493998D01*
X951908Y495276D01*
X952463Y496720D01*
X952852Y497498D01*
X953241Y498220D01*
X953685Y498942D01*
X954241Y499664D01*
X954296Y499720D01*
X954407Y499831D01*
X954574Y500053D01*
X954796Y500331D01*
X955129Y500664D01*
X955518Y501053D01*
X956018Y501442D01*
X956518Y501942D01*
X957129Y502442D01*
X957796Y502997D01*
X958573Y503553D01*
X959407Y504108D01*
X960295Y504719D01*
X961240Y505275D01*
X962295Y505830D01*
X963406Y506386D01*
X963351Y506441D01*
X963240Y506553D01*
X963073Y506775D01*
X962851Y507052D01*
X962573Y507386D01*
X962240Y507775D01*
X961518Y508719D01*
X960740Y509719D01*
X959962Y510774D01*
X959296Y511830D01*
X958740Y512830D01*
Y512885D01*
X958684Y512941D01*
X958573Y513274D01*
X958351Y513718D01*
X958185Y514385D01*
X957962Y515107D01*
X957740Y515940D01*
X957629Y516774D01*
X957573Y517663D01*
Y517718D01*
Y517885D01*
Y518107D01*
X957629Y518440D01*
X957685Y518829D01*
X957740Y519329D01*
X957851Y519829D01*
X958018Y520384D01*
X958462Y521662D01*
X958740Y522329D01*
X959073Y522995D01*
X959518Y523662D01*
X960018Y524328D01*
X960573Y524995D01*
X961184Y525662D01*
X961240Y525717D01*
X961351Y525828D01*
X961573Y525995D01*
X961851Y526217D01*
X962184Y526439D01*
X962629Y526773D01*
X963129Y527050D01*
X963684Y527384D01*
X964295Y527717D01*
X965017Y527995D01*
X965739Y528328D01*
X966573Y528550D01*
X967406Y528772D01*
X968350Y528939D01*
X969295Y529050D01*
X970294Y529106D01*
X970794D01*
X971183Y529050D01*
D02*
G37*
G36*
X1171552Y69498D02*
X1176941D01*
Y64054D01*
X1171552D01*
Y54000D01*
X1157887D01*
Y64054D01*
X1140000D01*
Y69998D01*
X1162387Y102106D01*
X1171552D01*
Y69498D01*
D02*
G37*
G36*
X1204604Y102828D02*
X1205271Y102773D01*
X1205993Y102662D01*
X1206882Y102550D01*
X1207771Y102439D01*
X1208771Y102217D01*
X1209771Y101939D01*
X1210826Y101662D01*
X1211881Y101273D01*
X1212937Y100884D01*
X1213992Y100329D01*
X1214992Y99773D01*
X1215937Y99106D01*
X1215992Y99051D01*
X1216159Y98940D01*
X1216381Y98718D01*
X1216714Y98440D01*
X1217103Y98051D01*
X1217492Y97607D01*
X1217936Y97051D01*
X1218436Y96496D01*
X1218881Y95829D01*
X1219325Y95107D01*
X1219714Y94274D01*
X1220103Y93440D01*
X1220436Y92496D01*
X1220658Y91552D01*
X1220825Y90496D01*
X1220881Y89441D01*
Y89385D01*
Y89163D01*
X1220825Y88774D01*
X1220714Y88274D01*
X1220603Y87608D01*
X1220381Y86885D01*
X1220047Y85997D01*
X1219658Y85052D01*
X1219158Y83997D01*
X1218492Y82886D01*
X1217714Y81664D01*
X1216714Y80386D01*
X1215603Y79053D01*
X1214270Y77609D01*
X1212770Y76220D01*
X1211937Y75442D01*
X1211048Y74720D01*
X1206715Y71220D01*
X1201882Y67165D01*
X1201771Y67110D01*
X1201605Y66999D01*
X1201438Y66832D01*
X1201105Y66610D01*
X1200716Y66332D01*
X1200216Y65999D01*
X1199605Y65554D01*
X1220492D01*
Y54000D01*
X1184551D01*
Y60777D01*
X1184606Y60833D01*
X1184773Y60999D01*
X1184995Y61277D01*
X1185329Y61610D01*
X1185717Y62055D01*
X1186217Y62610D01*
X1186829Y63221D01*
X1187439Y63888D01*
X1188162Y64666D01*
X1188939Y65443D01*
X1189773Y66332D01*
X1190661Y67221D01*
X1192606Y69165D01*
X1194661Y71165D01*
X1194717Y71220D01*
X1194828Y71332D01*
X1194994Y71498D01*
X1195217Y71720D01*
X1195494Y71998D01*
X1195828Y72331D01*
X1196661Y73165D01*
X1197661Y74220D01*
X1198716Y75387D01*
X1199883Y76664D01*
X1201105Y78109D01*
X1202271Y79553D01*
X1203438Y81108D01*
X1204493Y82664D01*
X1205493Y84219D01*
X1206327Y85719D01*
X1206660Y86497D01*
X1206937Y87219D01*
X1207160Y87941D01*
X1207326Y88608D01*
X1207438Y89274D01*
X1207493Y89885D01*
Y89996D01*
Y90274D01*
X1207438Y90663D01*
X1207382Y91218D01*
X1207271Y91885D01*
X1207104Y92607D01*
X1206937Y93385D01*
X1206660Y94218D01*
X1206271Y95051D01*
X1205826Y95829D01*
X1205271Y96551D01*
X1204604Y97218D01*
X1203827Y97773D01*
X1202882Y98162D01*
X1201827Y98440D01*
X1200605Y98551D01*
X1200272D01*
X1199827Y98495D01*
X1199327Y98384D01*
X1198661Y98218D01*
X1197994Y97995D01*
X1197216Y97662D01*
X1196494Y97218D01*
X1195716Y96662D01*
X1194939Y95996D01*
X1194272Y95162D01*
X1193606Y94107D01*
X1193106Y92940D01*
X1192661Y91496D01*
X1192550Y90718D01*
X1192439Y89885D01*
X1192328Y88996D01*
Y88052D01*
Y87941D01*
Y87774D01*
Y87608D01*
X1192383Y87052D01*
X1192495Y86274D01*
X1192606Y85274D01*
X1192828Y84108D01*
X1193106Y82719D01*
X1193494Y81108D01*
X1186051Y82886D01*
Y82941D01*
X1185995Y83053D01*
Y83219D01*
X1185940Y83441D01*
X1185773Y84052D01*
X1185662Y84830D01*
X1185495Y85663D01*
X1185329Y86552D01*
X1185273Y87441D01*
X1185218Y88219D01*
Y88274D01*
Y88385D01*
Y88608D01*
X1185273Y88830D01*
Y89163D01*
X1185329Y89552D01*
X1185495Y90496D01*
X1185773Y91607D01*
X1186162Y92885D01*
X1186717Y94163D01*
X1187495Y95551D01*
X1187940Y96218D01*
X1188439Y96940D01*
X1188995Y97607D01*
X1189661Y98273D01*
X1190328Y98884D01*
X1191106Y99495D01*
X1191939Y100051D01*
X1192883Y100606D01*
X1193828Y101106D01*
X1194939Y101551D01*
X1196105Y101939D01*
X1197327Y102273D01*
X1198716Y102550D01*
X1200160Y102717D01*
X1201660Y102828D01*
X1203327Y102884D01*
X1204049D01*
X1204604Y102828D01*
D02*
G37*
G36*
X1084227Y514940D02*
X1084727D01*
X1085394Y514829D01*
X1086116Y514718D01*
X1086949Y514552D01*
X1087838Y514385D01*
X1088782Y514107D01*
X1089726Y513774D01*
X1090782Y513330D01*
X1091782Y512830D01*
X1092782Y512274D01*
X1093782Y511552D01*
X1094782Y510774D01*
X1095670Y509885D01*
X1095726Y509830D01*
X1095893Y509663D01*
X1096115Y509385D01*
X1096393Y508941D01*
X1096781Y508441D01*
X1097170Y507830D01*
X1097615Y507052D01*
X1098059Y506219D01*
X1098448Y505275D01*
X1098892Y504219D01*
X1099281Y503053D01*
X1099670Y501775D01*
X1099948Y500387D01*
X1100170Y498887D01*
X1100337Y497331D01*
X1100392Y495665D01*
Y495554D01*
Y495276D01*
Y494720D01*
X1100337Y493998D01*
X1072617D01*
Y493943D01*
Y493721D01*
X1072673Y493387D01*
X1072728Y492998D01*
X1072784Y492443D01*
X1072895Y491887D01*
X1073006Y491221D01*
X1073173Y490499D01*
X1073617Y488999D01*
X1074228Y487388D01*
X1074617Y486666D01*
X1075006Y485888D01*
X1075506Y485221D01*
X1076061Y484555D01*
X1076117Y484499D01*
X1076228Y484444D01*
X1076395Y484277D01*
X1076617Y484055D01*
X1076950Y483833D01*
X1077283Y483555D01*
X1077728Y483222D01*
X1078228Y482944D01*
X1079339Y482333D01*
X1080672Y481833D01*
X1081394Y481611D01*
X1082172Y481499D01*
X1083005Y481388D01*
X1083838Y481333D01*
X1084172D01*
X1084394Y481388D01*
X1085060Y481444D01*
X1085894Y481555D01*
X1086782Y481777D01*
X1087782Y482111D01*
X1088782Y482499D01*
X1089726Y483111D01*
X1089782D01*
X1089838Y483222D01*
X1090115Y483444D01*
X1090560Y483888D01*
X1091115Y484555D01*
X1091726Y485332D01*
X1092393Y486388D01*
X1093059Y487610D01*
X1093615Y488999D01*
X1100170Y488166D01*
Y488110D01*
X1100114Y487888D01*
X1100003Y487610D01*
X1099837Y487221D01*
X1099670Y486721D01*
X1099448Y486166D01*
X1099170Y485555D01*
X1098892Y484888D01*
X1098114Y483499D01*
X1097115Y482000D01*
X1096504Y481277D01*
X1095893Y480555D01*
X1095226Y479889D01*
X1094448Y479278D01*
X1094393Y479222D01*
X1094282Y479166D01*
X1094004Y479000D01*
X1093726Y478778D01*
X1093282Y478555D01*
X1092782Y478278D01*
X1092226Y478000D01*
X1091560Y477722D01*
X1090837Y477444D01*
X1090004Y477167D01*
X1089171Y476889D01*
X1088227Y476667D01*
X1087227Y476445D01*
X1086171Y476278D01*
X1085005Y476222D01*
X1083838Y476167D01*
X1083505D01*
X1083061Y476222D01*
X1082505D01*
X1081783Y476333D01*
X1081005Y476445D01*
X1080116Y476611D01*
X1079172Y476778D01*
X1078172Y477056D01*
X1077117Y477389D01*
X1076006Y477778D01*
X1074950Y478278D01*
X1073839Y478833D01*
X1072839Y479500D01*
X1071840Y480277D01*
X1070895Y481166D01*
X1070840Y481222D01*
X1070673Y481388D01*
X1070451Y481666D01*
X1070173Y482111D01*
X1069784Y482611D01*
X1069395Y483222D01*
X1068951Y483944D01*
X1068562Y484777D01*
X1068118Y485721D01*
X1067673Y486777D01*
X1067284Y487943D01*
X1066896Y489221D01*
X1066618Y490554D01*
X1066396Y491998D01*
X1066229Y493554D01*
X1066173Y495220D01*
Y495331D01*
Y495609D01*
X1066229Y496109D01*
Y496776D01*
X1066340Y497553D01*
X1066451Y498442D01*
X1066562Y499498D01*
X1066785Y500553D01*
X1067007Y501720D01*
X1067340Y502886D01*
X1067729Y504108D01*
X1068173Y505330D01*
X1068729Y506497D01*
X1069395Y507663D01*
X1070117Y508774D01*
X1070951Y509774D01*
X1071006Y509830D01*
X1071173Y509997D01*
X1071451Y510274D01*
X1071840Y510608D01*
X1072284Y510997D01*
X1072895Y511441D01*
X1073561Y511885D01*
X1074339Y512385D01*
X1075173Y512885D01*
X1076117Y513330D01*
X1077172Y513774D01*
X1078283Y514163D01*
X1079505Y514496D01*
X1080727Y514774D01*
X1082116Y514940D01*
X1083505Y514996D01*
X1083838D01*
X1084227Y514940D01*
D02*
G37*
G36*
X633885Y477000D02*
X595000D01*
Y483055D01*
X633885D01*
Y477000D01*
D02*
G37*
G36*
X659327Y514940D02*
X659827D01*
X660882Y514829D01*
X662104Y514718D01*
X663382Y514496D01*
X664660Y514218D01*
X665826Y513829D01*
X665882D01*
X665937Y513774D01*
X666104Y513718D01*
X666326Y513607D01*
X666826Y513385D01*
X667493Y513052D01*
X668215Y512663D01*
X668937Y512163D01*
X669603Y511608D01*
X670214Y510997D01*
X670270Y510941D01*
X670437Y510719D01*
X670714Y510330D01*
X670992Y509830D01*
X671325Y509219D01*
X671659Y508497D01*
X671992Y507663D01*
X672214Y506719D01*
Y506664D01*
X672270Y506386D01*
X672325Y505997D01*
X672381Y505386D01*
X672436Y504608D01*
X672492Y503608D01*
Y502997D01*
X672548Y502386D01*
Y501720D01*
Y500942D01*
Y492554D01*
Y492443D01*
Y492165D01*
Y491721D01*
Y491165D01*
Y490443D01*
Y489665D01*
X672603Y488777D01*
Y487888D01*
X672659Y485999D01*
Y485055D01*
X672714Y484166D01*
X672770Y483333D01*
X672825Y482611D01*
X672881Y481944D01*
X672936Y481444D01*
Y481333D01*
X672992Y481055D01*
X673103Y480611D01*
X673270Y480000D01*
X673492Y479333D01*
X673770Y478611D01*
X674103Y477778D01*
X674492Y477000D01*
X667937D01*
X667881Y477111D01*
X667770Y477333D01*
X667604Y477778D01*
X667437Y478333D01*
X667215Y479000D01*
X666992Y479777D01*
X666826Y480666D01*
X666715Y481666D01*
X666659Y481611D01*
X666548Y481555D01*
X666382Y481388D01*
X666104Y481166D01*
X665770Y480944D01*
X665437Y480611D01*
X664548Y480000D01*
X663493Y479278D01*
X662382Y478555D01*
X661160Y477944D01*
X659938Y477389D01*
X659882D01*
X659771Y477333D01*
X659604Y477278D01*
X659382Y477222D01*
X659105Y477111D01*
X658716Y477000D01*
X657882Y476778D01*
X656827Y476556D01*
X655660Y476333D01*
X654383Y476222D01*
X652994Y476167D01*
X652383D01*
X651994Y476222D01*
X651494Y476278D01*
X650883Y476333D01*
X650217Y476389D01*
X649550Y476556D01*
X647995Y476889D01*
X646439Y477389D01*
X645717Y477722D01*
X644939Y478167D01*
X644273Y478611D01*
X643606Y479111D01*
X643550Y479166D01*
X643439Y479278D01*
X643328Y479444D01*
X643106Y479666D01*
X642828Y479944D01*
X642551Y480333D01*
X642273Y480722D01*
X641995Y481222D01*
X641384Y482277D01*
X640829Y483610D01*
X640606Y484333D01*
X640495Y485110D01*
X640384Y485943D01*
X640329Y486777D01*
Y486832D01*
Y486888D01*
Y487221D01*
X640384Y487777D01*
X640495Y488443D01*
X640606Y489221D01*
X640829Y490054D01*
X641162Y490887D01*
X641551Y491776D01*
X641606Y491887D01*
X641773Y492165D01*
X642051Y492554D01*
X642439Y493110D01*
X642884Y493665D01*
X643439Y494276D01*
X644051Y494832D01*
X644773Y495387D01*
X644884Y495443D01*
X645162Y495609D01*
X645550Y495887D01*
X646106Y496165D01*
X646772Y496498D01*
X647550Y496831D01*
X648439Y497165D01*
X649328Y497442D01*
X649439D01*
X649661Y497553D01*
X650105Y497609D01*
X650716Y497776D01*
X651494Y497887D01*
X652494Y498053D01*
X653605Y498220D01*
X654938Y498387D01*
X655049D01*
X655272Y498442D01*
X655660Y498498D01*
X656160Y498553D01*
X656827Y498664D01*
X657549Y498775D01*
X658327Y498887D01*
X659216Y498998D01*
X661049Y499331D01*
X662882Y499720D01*
X663771Y499942D01*
X664660Y500164D01*
X665437Y500387D01*
X666159Y500609D01*
Y500664D01*
Y500831D01*
Y501053D01*
X666215Y501275D01*
Y501831D01*
Y502053D01*
Y502220D01*
Y502275D01*
Y502386D01*
Y502608D01*
Y502831D01*
X666104Y503497D01*
X665993Y504330D01*
X665770Y505219D01*
X665437Y506108D01*
X664993Y506941D01*
X664382Y507608D01*
X664271Y507719D01*
X664159Y507830D01*
X663937Y507941D01*
X663660Y508108D01*
X663382Y508274D01*
X662604Y508719D01*
X661604Y509108D01*
X660382Y509441D01*
X658938Y509663D01*
X657271Y509774D01*
X656549D01*
X656160Y509719D01*
X655771D01*
X654772Y509608D01*
X653716Y509385D01*
X652661Y509108D01*
X651605Y508719D01*
X650716Y508219D01*
X650605Y508163D01*
X650383Y507941D01*
X649994Y507497D01*
X649550Y506941D01*
X649050Y506219D01*
X648494Y505219D01*
X648050Y504108D01*
X647828Y503442D01*
X647606Y502720D01*
X641440Y503553D01*
Y503608D01*
X641495Y503719D01*
X641551Y503942D01*
X641606Y504219D01*
X641717Y504553D01*
X641829Y504942D01*
X642106Y505830D01*
X642495Y506830D01*
X642940Y507886D01*
X643495Y508941D01*
X644162Y509885D01*
Y509941D01*
X644273Y509997D01*
X644550Y510274D01*
X644995Y510719D01*
X645606Y511274D01*
X646384Y511885D01*
X647328Y512496D01*
X648439Y513107D01*
X649717Y513663D01*
X649772D01*
X649883Y513718D01*
X650105Y513774D01*
X650383Y513885D01*
X650716Y513996D01*
X651105Y514107D01*
X651605Y514218D01*
X652161Y514329D01*
X652716Y514441D01*
X653383Y514552D01*
X654827Y514774D01*
X656438Y514940D01*
X658160Y514996D01*
X658938D01*
X659327Y514940D01*
D02*
G37*
G36*
X1223546D02*
X1224046D01*
X1224713Y514829D01*
X1225435Y514718D01*
X1226268Y514552D01*
X1227157Y514385D01*
X1228101Y514107D01*
X1229045Y513774D01*
X1230101Y513330D01*
X1231101Y512830D01*
X1232101Y512274D01*
X1233101Y511552D01*
X1234100Y510774D01*
X1234989Y509885D01*
X1235045Y509830D01*
X1235211Y509663D01*
X1235434Y509385D01*
X1235711Y508941D01*
X1236100Y508441D01*
X1236489Y507830D01*
X1236934Y507052D01*
X1237378Y506219D01*
X1237767Y505275D01*
X1238211Y504219D01*
X1238600Y503053D01*
X1238989Y501775D01*
X1239267Y500387D01*
X1239489Y498887D01*
X1239655Y497331D01*
X1239711Y495665D01*
Y495554D01*
Y495276D01*
Y494720D01*
X1239655Y493998D01*
X1211936D01*
Y493943D01*
Y493721D01*
X1211992Y493387D01*
X1212047Y492998D01*
X1212103Y492443D01*
X1212214Y491887D01*
X1212325Y491221D01*
X1212492Y490499D01*
X1212936Y488999D01*
X1213547Y487388D01*
X1213936Y486666D01*
X1214325Y485888D01*
X1214825Y485221D01*
X1215380Y484555D01*
X1215436Y484499D01*
X1215547Y484444D01*
X1215714Y484277D01*
X1215936Y484055D01*
X1216269Y483833D01*
X1216602Y483555D01*
X1217047Y483222D01*
X1217547Y482944D01*
X1218658Y482333D01*
X1219991Y481833D01*
X1220713Y481611D01*
X1221491Y481499D01*
X1222324Y481388D01*
X1223157Y481333D01*
X1223490D01*
X1223713Y481388D01*
X1224379Y481444D01*
X1225212Y481555D01*
X1226101Y481777D01*
X1227101Y482111D01*
X1228101Y482499D01*
X1229045Y483111D01*
X1229101D01*
X1229156Y483222D01*
X1229434Y483444D01*
X1229879Y483888D01*
X1230434Y484555D01*
X1231045Y485332D01*
X1231712Y486388D01*
X1232378Y487610D01*
X1232934Y488999D01*
X1239489Y488166D01*
Y488110D01*
X1239433Y487888D01*
X1239322Y487610D01*
X1239156Y487221D01*
X1238989Y486721D01*
X1238767Y486166D01*
X1238489Y485555D01*
X1238211Y484888D01*
X1237433Y483499D01*
X1236433Y482000D01*
X1235823Y481277D01*
X1235211Y480555D01*
X1234545Y479889D01*
X1233767Y479278D01*
X1233712Y479222D01*
X1233600Y479166D01*
X1233323Y479000D01*
X1233045Y478778D01*
X1232601Y478555D01*
X1232101Y478278D01*
X1231545Y478000D01*
X1230879Y477722D01*
X1230156Y477444D01*
X1229323Y477167D01*
X1228490Y476889D01*
X1227546Y476667D01*
X1226546Y476445D01*
X1225490Y476278D01*
X1224324Y476222D01*
X1223157Y476167D01*
X1222824D01*
X1222379Y476222D01*
X1221824D01*
X1221102Y476333D01*
X1220324Y476445D01*
X1219435Y476611D01*
X1218491Y476778D01*
X1217491Y477056D01*
X1216436Y477389D01*
X1215325Y477778D01*
X1214269Y478278D01*
X1213158Y478833D01*
X1212158Y479500D01*
X1211158Y480277D01*
X1210214Y481166D01*
X1210158Y481222D01*
X1209992Y481388D01*
X1209770Y481666D01*
X1209492Y482111D01*
X1209103Y482611D01*
X1208714Y483222D01*
X1208270Y483944D01*
X1207881Y484777D01*
X1207437Y485721D01*
X1206992Y486777D01*
X1206603Y487943D01*
X1206215Y489221D01*
X1205937Y490554D01*
X1205714Y491998D01*
X1205548Y493554D01*
X1205492Y495220D01*
Y495331D01*
Y495609D01*
X1205548Y496109D01*
Y496776D01*
X1205659Y497553D01*
X1205770Y498442D01*
X1205881Y499498D01*
X1206103Y500553D01*
X1206326Y501720D01*
X1206659Y502886D01*
X1207048Y504108D01*
X1207492Y505330D01*
X1208048Y506497D01*
X1208714Y507663D01*
X1209436Y508774D01*
X1210270Y509774D01*
X1210325Y509830D01*
X1210492Y509997D01*
X1210770Y510274D01*
X1211158Y510608D01*
X1211603Y510997D01*
X1212214Y511441D01*
X1212880Y511885D01*
X1213658Y512385D01*
X1214491Y512885D01*
X1215436Y513330D01*
X1216491Y513774D01*
X1217602Y514163D01*
X1218824Y514496D01*
X1220046Y514774D01*
X1221435Y514940D01*
X1222824Y514996D01*
X1223157D01*
X1223546Y514940D01*
D02*
G37*
G36*
X920411Y514163D02*
X926799D01*
Y509274D01*
X920411D01*
Y487499D01*
Y487443D01*
Y487388D01*
Y487054D01*
Y486610D01*
X920466Y486055D01*
Y485499D01*
X920577Y484944D01*
X920633Y484444D01*
X920744Y484055D01*
Y483999D01*
X920800Y483944D01*
X921022Y483610D01*
X921355Y483222D01*
X921799Y482833D01*
X921855D01*
X921966Y482777D01*
X922133Y482722D01*
X922355Y482611D01*
X922688Y482555D01*
X923022Y482444D01*
X923466Y482388D01*
X924410D01*
X924744Y482444D01*
X925133D01*
X925632Y482499D01*
X926188Y482555D01*
X926799Y482611D01*
X927632Y477056D01*
X927521D01*
X927188Y476945D01*
X926688Y476889D01*
X926021Y476778D01*
X925299Y476667D01*
X924521Y476611D01*
X922855Y476500D01*
X922299D01*
X921688Y476556D01*
X920911Y476611D01*
X920022Y476778D01*
X919133Y476945D01*
X918300Y477222D01*
X917522Y477556D01*
X917467Y477611D01*
X917244Y477778D01*
X916911Y478000D01*
X916467Y478333D01*
X916022Y478722D01*
X915578Y479222D01*
X915189Y479777D01*
X914856Y480388D01*
X914800Y480500D01*
X914745Y480777D01*
X914689Y481000D01*
X914634Y481277D01*
X914578Y481611D01*
X914522Y482000D01*
X914411Y482444D01*
X914356Y482999D01*
X914300Y483610D01*
X914245Y484277D01*
X914189Y485055D01*
Y485888D01*
X914134Y486832D01*
Y487832D01*
Y509274D01*
X909467D01*
Y514163D01*
X914134D01*
Y523329D01*
X920411Y527106D01*
Y514163D01*
D02*
G37*
G36*
X1233368Y604500D02*
X1234201Y604361D01*
X1235243Y604083D01*
X1236423Y603736D01*
X1237673Y603250D01*
X1239062Y602625D01*
X1234687Y592555D01*
X1234548Y592625D01*
X1234270Y592694D01*
X1233854Y592902D01*
X1233229Y593111D01*
X1231979Y593458D01*
X1231354Y593527D01*
X1230729Y593597D01*
X1230243D01*
X1229757Y593458D01*
X1229132Y593319D01*
X1228437Y593041D01*
X1227743Y592625D01*
X1227048Y592069D01*
X1226423Y591305D01*
Y591236D01*
X1226354Y591166D01*
X1226215Y590958D01*
X1226076Y590680D01*
X1225937Y590264D01*
X1225729Y589847D01*
X1225521Y589222D01*
X1225382Y588597D01*
X1225173Y587833D01*
X1224965Y586930D01*
X1224757Y585958D01*
X1224618Y584847D01*
X1224479Y583666D01*
X1224340Y582347D01*
X1224271Y580889D01*
Y579291D01*
Y567000D01*
X1210104D01*
Y603736D01*
X1223298D01*
Y597763D01*
X1223368Y597833D01*
X1223507Y598041D01*
X1223646Y598319D01*
X1223993Y599013D01*
X1224479Y599847D01*
X1225104Y600680D01*
X1225729Y601583D01*
X1226423Y602416D01*
X1227187Y603041D01*
X1227257Y603111D01*
X1227534Y603250D01*
X1227951Y603527D01*
X1228576Y603805D01*
X1229270Y604083D01*
X1230173Y604361D01*
X1231145Y604500D01*
X1232187Y604569D01*
X1232743D01*
X1233368Y604500D01*
D02*
G37*
G36*
X790595D02*
X791151D01*
X791706Y604430D01*
X792470Y604291D01*
X793234Y604083D01*
X794068Y603875D01*
X794970Y603527D01*
X795943Y603180D01*
X796845Y602694D01*
X797818Y602138D01*
X798720Y601513D01*
X799623Y600750D01*
X800526Y599847D01*
X801290Y598875D01*
X801359Y598805D01*
X801498Y598597D01*
X801637Y598319D01*
X801915Y597902D01*
X802262Y597347D01*
X802609Y596652D01*
X802956Y595888D01*
X803373Y595055D01*
X803720Y594083D01*
X804067Y593041D01*
X804415Y591861D01*
X804762Y590611D01*
X805040Y589361D01*
X805179Y587972D01*
X805317Y586514D01*
X805387Y584986D01*
Y584916D01*
Y584569D01*
Y584083D01*
X805317Y583458D01*
X805248Y582694D01*
X805179Y581861D01*
X805040Y580819D01*
X804831Y579778D01*
X804276Y577555D01*
X803929Y576375D01*
X803512Y575194D01*
X803026Y574083D01*
X802401Y572972D01*
X801706Y571931D01*
X800942Y570958D01*
X800873Y570889D01*
X800734Y570750D01*
X800526Y570542D01*
X800179Y570194D01*
X799692Y569847D01*
X799206Y569431D01*
X798581Y569014D01*
X797887Y568597D01*
X797123Y568111D01*
X796290Y567694D01*
X795387Y567278D01*
X794415Y566931D01*
X793373Y566583D01*
X792262Y566375D01*
X791081Y566236D01*
X789831Y566167D01*
X789276D01*
X788651Y566236D01*
X787887Y566306D01*
X786915Y566445D01*
X785943Y566653D01*
X784901Y566931D01*
X783859Y567278D01*
X783720Y567347D01*
X783443Y567486D01*
X782887Y567764D01*
X782262Y568111D01*
X781568Y568597D01*
X780734Y569153D01*
X779970Y569778D01*
X779137Y570542D01*
Y553042D01*
X764901D01*
Y603736D01*
X778095D01*
Y598319D01*
X778234Y598388D01*
X778582Y598805D01*
X779068Y599430D01*
X779762Y600125D01*
X780526Y600888D01*
X781359Y601652D01*
X782193Y602347D01*
X783095Y602902D01*
X783165D01*
X783234Y602972D01*
X783651Y603180D01*
X784276Y603458D01*
X785109Y603736D01*
X786081Y604013D01*
X787262Y604291D01*
X788512Y604500D01*
X789901Y604569D01*
X790248D01*
X790595Y604500D01*
D02*
G37*
G36*
X1017815D02*
X1019204D01*
X1020870Y604361D01*
X1022537Y604222D01*
X1024204Y604083D01*
X1025731Y603805D01*
X1025940D01*
X1026079Y603736D01*
X1026356Y603666D01*
X1027120Y603458D01*
X1028023Y603180D01*
X1028995Y602763D01*
X1030106Y602277D01*
X1031148Y601652D01*
X1032190Y600888D01*
X1032259Y600819D01*
X1032467Y600611D01*
X1032815Y600263D01*
X1033231Y599708D01*
X1033648Y599083D01*
X1034134Y598319D01*
X1034620Y597486D01*
X1035037Y596444D01*
X1035106Y596305D01*
X1035176Y595958D01*
X1035384Y595402D01*
X1035592Y594708D01*
X1035731Y593875D01*
X1035940Y592972D01*
X1036009Y592000D01*
X1036078Y591027D01*
Y574778D01*
Y574639D01*
Y574361D01*
Y573875D01*
X1036148Y573319D01*
Y572625D01*
X1036217Y572000D01*
X1036287Y571306D01*
X1036356Y570681D01*
Y570611D01*
X1036426Y570403D01*
X1036495Y570125D01*
X1036703Y569708D01*
X1036842Y569153D01*
X1037120Y568528D01*
X1037467Y567764D01*
X1037814Y567000D01*
X1024620D01*
Y567070D01*
X1024481Y567208D01*
X1024342Y567486D01*
X1024204Y567764D01*
X1023787Y568528D01*
X1023509Y569153D01*
Y569222D01*
Y569292D01*
X1023440Y569500D01*
X1023370Y569708D01*
X1023301Y570056D01*
X1023231Y570472D01*
X1023162Y570958D01*
X1023092Y571514D01*
X1022954Y571375D01*
X1022606Y571097D01*
X1022051Y570611D01*
X1021356Y570056D01*
X1020523Y569361D01*
X1019551Y568736D01*
X1018579Y568181D01*
X1017537Y567694D01*
X1017468D01*
X1017398Y567625D01*
X1017190Y567556D01*
X1016843Y567486D01*
X1016495Y567347D01*
X1016079Y567208D01*
X1015037Y566931D01*
X1013787Y566653D01*
X1012329Y566375D01*
X1010662Y566236D01*
X1008857Y566167D01*
X1008232D01*
X1007746Y566236D01*
X1007259D01*
X1006565Y566306D01*
X1005107Y566514D01*
X1003509Y566931D01*
X1001843Y567417D01*
X1000246Y568181D01*
X999551Y568597D01*
X998857Y569153D01*
X998787Y569222D01*
X998718Y569292D01*
X998301Y569708D01*
X997815Y570333D01*
X997190Y571236D01*
X996565Y572347D01*
X996010Y573597D01*
X995593Y575056D01*
X995523Y575819D01*
X995454Y576653D01*
Y576722D01*
Y576861D01*
Y577069D01*
X995523Y577347D01*
X995593Y578111D01*
X995732Y579083D01*
X996079Y580194D01*
X996496Y581375D01*
X997051Y582486D01*
X997885Y583528D01*
X998023Y583666D01*
X998371Y583944D01*
X998648Y584222D01*
X998996Y584430D01*
X999482Y584708D01*
X999968Y585055D01*
X1000523Y585403D01*
X1001218Y585680D01*
X1001982Y586028D01*
X1002746Y586375D01*
X1003718Y586722D01*
X1004690Y587000D01*
X1005801Y587277D01*
X1006982Y587555D01*
X1007051D01*
X1007329Y587625D01*
X1007746Y587694D01*
X1008301Y587833D01*
X1008926Y587972D01*
X1009620Y588111D01*
X1011287Y588458D01*
X1013023Y588805D01*
X1014690Y589152D01*
X1015523Y589361D01*
X1016218Y589500D01*
X1016843Y589639D01*
X1017329Y589777D01*
X1017468D01*
X1017745Y589916D01*
X1018231Y590055D01*
X1018856Y590264D01*
X1019620Y590541D01*
X1020454Y590819D01*
X1021356Y591166D01*
X1022329Y591514D01*
Y591652D01*
Y591930D01*
X1022259Y592416D01*
X1022190Y592902D01*
X1022051Y593527D01*
X1021842Y594152D01*
X1021565Y594639D01*
X1021217Y595125D01*
X1021148Y595194D01*
X1021009Y595264D01*
X1020731Y595472D01*
X1020315Y595680D01*
X1019829Y595819D01*
X1019134Y596027D01*
X1018370Y596097D01*
X1017398Y596166D01*
X1016843D01*
X1016218Y596097D01*
X1015454Y596027D01*
X1014620Y595888D01*
X1013718Y595680D01*
X1012884Y595402D01*
X1012190Y595055D01*
X1012120Y594986D01*
X1011982Y594847D01*
X1011704Y594639D01*
X1011426Y594291D01*
X1011079Y593875D01*
X1010732Y593319D01*
X1010384Y592625D01*
X1010037Y591791D01*
X996565Y593250D01*
Y593319D01*
X996635Y593389D01*
X996704Y593805D01*
X996843Y594430D01*
X997121Y595264D01*
X997398Y596097D01*
X997746Y597000D01*
X998232Y597902D01*
X998718Y598736D01*
X998787Y598805D01*
X998996Y599083D01*
X999343Y599500D01*
X999759Y599986D01*
X1000384Y600541D01*
X1001079Y601097D01*
X1001912Y601722D01*
X1002884Y602277D01*
X1002954Y602347D01*
X1003232Y602486D01*
X1003648Y602694D01*
X1004273Y602902D01*
X1005037Y603180D01*
X1005940Y603458D01*
X1007051Y603736D01*
X1008232Y603944D01*
X1008370D01*
X1008579Y604013D01*
X1008857D01*
X1009551Y604152D01*
X1010454Y604291D01*
X1011495Y604361D01*
X1012745Y604500D01*
X1014134Y604569D01*
X1017190D01*
X1017815Y604500D01*
D02*
G37*
G36*
X989135D02*
X989968Y604361D01*
X991010Y604083D01*
X992190Y603736D01*
X993440Y603250D01*
X994829Y602625D01*
X990454Y592555D01*
X990315Y592625D01*
X990037Y592694D01*
X989621Y592902D01*
X988996Y593111D01*
X987746Y593458D01*
X987121Y593527D01*
X986496Y593597D01*
X986010D01*
X985524Y593458D01*
X984899Y593319D01*
X984204Y593041D01*
X983510Y592625D01*
X982815Y592069D01*
X982190Y591305D01*
Y591236D01*
X982121Y591166D01*
X981982Y590958D01*
X981843Y590680D01*
X981704Y590264D01*
X981496Y589847D01*
X981287Y589222D01*
X981149Y588597D01*
X980940Y587833D01*
X980732Y586930D01*
X980524Y585958D01*
X980385Y584847D01*
X980246Y583666D01*
X980107Y582347D01*
X980038Y580889D01*
Y579291D01*
Y567000D01*
X965871D01*
Y603736D01*
X979065D01*
Y597763D01*
X979135Y597833D01*
X979274Y598041D01*
X979413Y598319D01*
X979760Y599013D01*
X980246Y599847D01*
X980871Y600680D01*
X981496Y601583D01*
X982190Y602416D01*
X982954Y603041D01*
X983024Y603111D01*
X983301Y603250D01*
X983718Y603527D01*
X984343Y603805D01*
X985037Y604083D01*
X985940Y604361D01*
X986912Y604500D01*
X987954Y604569D01*
X988510D01*
X989135Y604500D01*
D02*
G37*
G36*
X1110939D02*
X1112397Y604430D01*
X1113994Y604291D01*
X1115591Y604152D01*
X1117119Y603875D01*
X1117814Y603736D01*
X1118439Y603527D01*
X1118508D01*
X1118577Y603458D01*
X1118994Y603319D01*
X1119550Y603111D01*
X1120244Y602763D01*
X1121077Y602347D01*
X1121980Y601791D01*
X1122813Y601166D01*
X1123647Y600402D01*
X1123716Y600333D01*
X1123994Y600055D01*
X1124411Y599569D01*
X1124897Y598944D01*
X1125452Y598111D01*
X1126077Y597138D01*
X1126633Y595958D01*
X1127188Y594708D01*
X1113855Y593389D01*
Y593458D01*
X1113786Y593666D01*
X1113647Y594014D01*
X1113439Y594361D01*
X1112883Y595194D01*
X1112466Y595611D01*
X1112050Y595958D01*
X1111980Y596027D01*
X1111772Y596166D01*
X1111425Y596305D01*
X1110939Y596583D01*
X1110314Y596791D01*
X1109619Y596930D01*
X1108855Y597069D01*
X1108022Y597138D01*
X1107605D01*
X1107189Y597069D01*
X1106703Y597000D01*
X1105522Y596791D01*
X1104967Y596513D01*
X1104480Y596236D01*
X1104411Y596166D01*
X1104342Y596097D01*
X1103994Y595680D01*
X1103578Y595055D01*
X1103508Y594639D01*
X1103439Y594222D01*
Y594152D01*
Y594014D01*
X1103508Y593736D01*
X1103647Y593458D01*
X1103786Y593111D01*
X1103994Y592764D01*
X1104342Y592416D01*
X1104828Y592139D01*
X1104897D01*
X1105105Y592000D01*
X1105522Y591861D01*
X1106078Y591722D01*
X1106911Y591514D01*
X1107953Y591305D01*
X1108578Y591236D01*
X1109272Y591097D01*
X1110036Y591027D01*
X1110869Y590889D01*
X1111147D01*
X1111564Y590819D01*
X1112050Y590750D01*
X1112605Y590680D01*
X1113300Y590541D01*
X1113994Y590472D01*
X1114827Y590333D01*
X1116494Y589986D01*
X1118230Y589639D01*
X1119897Y589152D01*
X1120591Y588944D01*
X1121286Y588666D01*
X1121355D01*
X1121425Y588597D01*
X1121841Y588389D01*
X1122466Y588111D01*
X1123230Y587625D01*
X1124133Y587069D01*
X1124966Y586375D01*
X1125800Y585541D01*
X1126563Y584639D01*
X1126633Y584500D01*
X1126841Y584153D01*
X1127188Y583666D01*
X1127536Y582903D01*
X1127813Y582069D01*
X1128161Y581097D01*
X1128369Y580055D01*
X1128438Y578875D01*
Y578736D01*
Y578319D01*
X1128369Y577694D01*
X1128230Y576930D01*
X1127952Y575958D01*
X1127605Y574917D01*
X1127119Y573806D01*
X1126494Y572694D01*
X1126425Y572556D01*
X1126147Y572208D01*
X1125661Y571653D01*
X1125036Y570958D01*
X1124133Y570194D01*
X1123091Y569431D01*
X1121841Y568597D01*
X1120383Y567903D01*
X1120313D01*
X1120175Y567833D01*
X1119966Y567764D01*
X1119619Y567625D01*
X1119202Y567486D01*
X1118716Y567347D01*
X1118091Y567208D01*
X1117466Y567070D01*
X1116702Y566861D01*
X1115869Y566722D01*
X1114897Y566583D01*
X1113925Y566445D01*
X1112814Y566306D01*
X1111702Y566236D01*
X1110452Y566167D01*
X1108161D01*
X1107467Y566236D01*
X1106703D01*
X1105730Y566306D01*
X1104689Y566375D01*
X1103578Y566514D01*
X1101217Y566861D01*
X1098856Y567347D01*
X1097675Y567694D01*
X1096633Y568042D01*
X1095661Y568528D01*
X1094758Y569014D01*
X1094689Y569083D01*
X1094550Y569153D01*
X1094342Y569292D01*
X1094064Y569569D01*
X1093369Y570194D01*
X1092467Y571097D01*
X1091564Y572278D01*
X1090661Y573667D01*
X1089897Y575333D01*
X1089620Y576236D01*
X1089342Y577208D01*
X1103300Y578528D01*
X1103369Y578389D01*
X1103439Y578111D01*
X1103647Y577694D01*
X1103925Y577139D01*
X1104272Y576583D01*
X1104619Y575958D01*
X1105105Y575403D01*
X1105661Y574917D01*
X1105730Y574847D01*
X1105939Y574778D01*
X1106286Y574569D01*
X1106772Y574431D01*
X1107397Y574222D01*
X1108092Y574014D01*
X1108994Y573944D01*
X1109897Y573875D01*
X1110383D01*
X1110869Y573944D01*
X1111494Y574014D01*
X1112189Y574153D01*
X1112952Y574361D01*
X1113647Y574639D01*
X1114272Y575056D01*
X1114341Y575125D01*
X1114480Y575194D01*
X1114689Y575403D01*
X1114897Y575681D01*
X1115314Y576375D01*
X1115452Y576792D01*
X1115522Y577278D01*
Y577347D01*
Y577555D01*
X1115452Y577833D01*
X1115314Y578180D01*
X1115105Y578528D01*
X1114827Y578944D01*
X1114411Y579291D01*
X1113855Y579639D01*
X1113786D01*
X1113577Y579778D01*
X1113230Y579916D01*
X1112675Y580055D01*
X1111911Y580264D01*
X1111425Y580403D01*
X1110869Y580541D01*
X1110175Y580680D01*
X1109480Y580819D01*
X1108717Y580958D01*
X1107814Y581097D01*
X1107744D01*
X1107467Y581166D01*
X1107119Y581236D01*
X1106633Y581305D01*
X1106008Y581444D01*
X1105314Y581583D01*
X1103786Y581861D01*
X1102119Y582208D01*
X1100383Y582625D01*
X1099619Y582833D01*
X1098856Y583041D01*
X1098161Y583250D01*
X1097606Y583458D01*
X1097467Y583528D01*
X1097119Y583666D01*
X1096633Y583944D01*
X1095939Y584361D01*
X1095175Y584847D01*
X1094411Y585472D01*
X1093578Y586236D01*
X1092814Y587139D01*
X1092744Y587277D01*
X1092536Y587625D01*
X1092189Y588111D01*
X1091842Y588875D01*
X1091494Y589708D01*
X1091147Y590750D01*
X1090939Y591861D01*
X1090869Y593041D01*
Y593111D01*
Y593180D01*
Y593389D01*
X1090939Y593666D01*
X1091008Y594361D01*
X1091147Y595194D01*
X1091356Y596166D01*
X1091772Y597208D01*
X1092258Y598319D01*
X1092953Y599291D01*
X1093022Y599430D01*
X1093369Y599708D01*
X1093786Y600194D01*
X1094481Y600750D01*
X1095244Y601444D01*
X1096286Y602069D01*
X1097397Y602694D01*
X1098717Y603250D01*
X1098786D01*
X1098925Y603319D01*
X1099133Y603388D01*
X1099411Y603458D01*
X1099758Y603527D01*
X1100244Y603666D01*
X1100800Y603805D01*
X1101355Y603944D01*
X1102050Y604013D01*
X1102814Y604152D01*
X1103647Y604291D01*
X1104550Y604361D01*
X1106494Y604500D01*
X1108717Y604569D01*
X1110314D01*
X1110939Y604500D01*
D02*
G37*
G36*
X1071842D02*
X1072328Y604430D01*
X1072884Y604361D01*
X1074203Y604152D01*
X1075661Y603736D01*
X1077189Y603111D01*
X1077953Y602694D01*
X1078717Y602208D01*
X1079411Y601652D01*
X1080036Y601027D01*
X1080106Y600958D01*
X1080175Y600888D01*
X1080314Y600680D01*
X1080592Y600402D01*
X1080800Y599986D01*
X1081078Y599569D01*
X1081425Y599013D01*
X1081703Y598388D01*
X1082050Y597694D01*
X1082328Y596861D01*
X1082606Y596027D01*
X1082883Y595055D01*
X1083092Y594014D01*
X1083231Y592902D01*
X1083300Y591652D01*
X1083370Y590333D01*
Y567000D01*
X1069203D01*
Y587139D01*
Y587208D01*
Y587277D01*
Y587694D01*
X1069134Y588319D01*
X1069064Y589083D01*
X1068856Y589847D01*
X1068648Y590680D01*
X1068300Y591444D01*
X1067884Y592069D01*
X1067814Y592139D01*
X1067675Y592277D01*
X1067398Y592555D01*
X1066981Y592833D01*
X1066425Y593041D01*
X1065870Y593319D01*
X1065106Y593458D01*
X1064273Y593527D01*
X1063856D01*
X1063370Y593458D01*
X1062814Y593319D01*
X1062120Y593041D01*
X1061425Y592694D01*
X1060731Y592208D01*
X1060106Y591583D01*
X1060036Y591514D01*
X1059898Y591236D01*
X1059620Y590680D01*
X1059342Y589986D01*
X1059064Y589014D01*
X1058786Y587833D01*
X1058648Y586375D01*
X1058578Y585541D01*
Y584639D01*
Y567000D01*
X1044481D01*
Y603736D01*
X1057606D01*
Y597694D01*
X1057675Y597763D01*
X1057745Y597833D01*
X1058092Y598319D01*
X1058717Y598944D01*
X1059411Y599708D01*
X1060314Y600611D01*
X1061356Y601444D01*
X1062398Y602277D01*
X1063509Y602972D01*
X1063578D01*
X1063648Y603041D01*
X1064064Y603250D01*
X1064689Y603458D01*
X1065592Y603805D01*
X1066634Y604083D01*
X1067884Y604291D01*
X1069342Y604500D01*
X1070870Y604569D01*
X1071425D01*
X1071842Y604500D01*
D02*
G37*
G36*
X713444D02*
X714277Y604361D01*
X715319Y604083D01*
X716499Y603736D01*
X717661Y603284D01*
X717471Y603736D01*
X732332D01*
X739902Y579222D01*
X746985Y603736D01*
X760873D01*
X746221Y564500D01*
Y564431D01*
X746082Y564222D01*
X745943Y563875D01*
X745804Y563458D01*
X745596Y562903D01*
X745318Y562278D01*
X744624Y560889D01*
X743860Y559361D01*
X743027Y557903D01*
X742124Y556514D01*
X741638Y555959D01*
X741152Y555472D01*
X741082Y555403D01*
X741013Y555334D01*
X740735Y555195D01*
X740457Y554986D01*
X740040Y554709D01*
X739624Y554431D01*
X738999Y554153D01*
X738374Y553806D01*
X737610Y553528D01*
X736777Y553181D01*
X735874Y552903D01*
X734902Y552695D01*
X733791Y552417D01*
X732610Y552278D01*
X731360Y552209D01*
X729971Y552139D01*
X729068D01*
X728652Y552209D01*
X728166D01*
X727679Y552278D01*
X727054D01*
X726291Y552347D01*
X725527Y552417D01*
X724693Y552486D01*
X723791Y552556D01*
X722749Y552695D01*
X721707Y552834D01*
X720527Y552972D01*
X719485Y562833D01*
X719555D01*
X719624Y562764D01*
X720041Y562695D01*
X720596Y562556D01*
X721430Y562347D01*
X722471Y562139D01*
X723582Y562000D01*
X724832Y561931D01*
X726221Y561861D01*
X726638D01*
X727124Y561931D01*
X727679Y562000D01*
X728304Y562139D01*
X728999Y562347D01*
X729624Y562625D01*
X730249Y563042D01*
X730318Y563111D01*
X730527Y563250D01*
X730804Y563528D01*
X731152Y563945D01*
X731568Y564500D01*
X731985Y565195D01*
X732471Y566028D01*
X732888Y567000D01*
X718527Y601219D01*
X714763Y592555D01*
X714624Y592625D01*
X714346Y592694D01*
X713930Y592902D01*
X713305Y593111D01*
X712055Y593458D01*
X711430Y593527D01*
X710805Y593597D01*
X710319D01*
X709832Y593458D01*
X709207Y593319D01*
X708513Y593041D01*
X707819Y592625D01*
X707124Y592069D01*
X706499Y591305D01*
Y591236D01*
X706430Y591166D01*
X706291Y590958D01*
X706152Y590680D01*
X706013Y590264D01*
X705805Y589847D01*
X705596Y589222D01*
X705458Y588597D01*
X705249Y587833D01*
X705041Y586930D01*
X704833Y585958D01*
X704694Y584847D01*
X704555Y583666D01*
X704416Y582347D01*
X704346Y580889D01*
Y579291D01*
Y567000D01*
X690180D01*
Y603736D01*
X703374D01*
Y597763D01*
X703444Y597833D01*
X703583Y598041D01*
X703721Y598319D01*
X704069Y599013D01*
X704555Y599847D01*
X705180Y600680D01*
X705805Y601583D01*
X706499Y602416D01*
X707263Y603041D01*
X707332Y603111D01*
X707610Y603250D01*
X708027Y603527D01*
X708652Y603805D01*
X709346Y604083D01*
X710249Y604361D01*
X711221Y604500D01*
X712263Y604569D01*
X712819D01*
X713444Y604500D01*
D02*
G37*
G36*
X661222Y618527D02*
X661986Y618458D01*
X662958Y618388D01*
X664000Y618249D01*
X665111Y618111D01*
X667541Y617624D01*
X670041Y616930D01*
X671291Y616513D01*
X672472Y616027D01*
X673652Y615402D01*
X674694Y614708D01*
X674763Y614638D01*
X674972Y614499D01*
X675249Y614291D01*
X675597Y613944D01*
X676083Y613597D01*
X676569Y613041D01*
X677124Y612486D01*
X677749Y611791D01*
X678444Y610958D01*
X679138Y610055D01*
X679763Y609083D01*
X680458Y608041D01*
X681152Y606861D01*
X681777Y605611D01*
X682333Y604222D01*
X682888Y602763D01*
X669069Y599708D01*
Y599777D01*
X668930Y600055D01*
X668791Y600472D01*
X668583Y601027D01*
X668097Y602138D01*
X667819Y602625D01*
X667541Y603111D01*
X667472Y603180D01*
X667333Y603388D01*
X667055Y603736D01*
X666638Y604152D01*
X666152Y604569D01*
X665597Y605055D01*
X664972Y605472D01*
X664277Y605888D01*
X664208Y605958D01*
X663930Y606027D01*
X663583Y606166D01*
X663027Y606375D01*
X662402Y606583D01*
X661708Y606722D01*
X660875Y606791D01*
X660041Y606861D01*
X659555D01*
X659139Y606791D01*
X658722Y606722D01*
X658236Y606652D01*
X656986Y606305D01*
X655666Y605819D01*
X655041Y605472D01*
X654347Y605055D01*
X653652Y604569D01*
X653027Y603944D01*
X652403Y603319D01*
X651847Y602555D01*
Y602486D01*
X651778Y602416D01*
X651639Y602208D01*
X651500Y601930D01*
X651361Y601583D01*
X651153Y601166D01*
X650944Y600680D01*
X650805Y600125D01*
X650597Y599430D01*
X650389Y598736D01*
X650180Y597902D01*
X650042Y597000D01*
X649903Y596027D01*
X649764Y594916D01*
X649694Y593805D01*
Y592555D01*
Y592486D01*
Y592208D01*
Y591791D01*
X649764Y591166D01*
Y590541D01*
X649833Y589708D01*
X649903Y588875D01*
X650042Y587972D01*
X650319Y586028D01*
X650736Y584153D01*
X651014Y583250D01*
X651361Y582416D01*
X651778Y581653D01*
X652194Y581028D01*
X652333Y580889D01*
X652680Y580541D01*
X653236Y580055D01*
X654069Y579500D01*
X655111Y578944D01*
X656361Y578458D01*
X657750Y578111D01*
X658583Y578041D01*
X659416Y577972D01*
X659833D01*
X660180Y578041D01*
X660944Y578111D01*
X661986Y578319D01*
X663097Y578597D01*
X664208Y579014D01*
X665250Y579639D01*
X666222Y580472D01*
X666361Y580611D01*
X666638Y580958D01*
X667055Y581514D01*
X667541Y582347D01*
X668097Y583389D01*
X668652Y584639D01*
X669208Y586097D01*
X669625Y587833D01*
X683374Y583666D01*
Y583597D01*
X683305Y583389D01*
X683235Y583111D01*
X683097Y582694D01*
X682958Y582208D01*
X682749Y581653D01*
X682333Y580264D01*
X681708Y578736D01*
X680944Y577139D01*
X680041Y575472D01*
X678999Y573944D01*
Y573875D01*
X678861Y573806D01*
X678722Y573597D01*
X678444Y573319D01*
X677819Y572625D01*
X676986Y571792D01*
X675874Y570819D01*
X674624Y569847D01*
X673166Y568944D01*
X671569Y568111D01*
X671499D01*
X671361Y568042D01*
X671152Y567903D01*
X670805Y567833D01*
X670319Y567694D01*
X669833Y567486D01*
X669208Y567347D01*
X668513Y567139D01*
X667750Y566931D01*
X666916Y566792D01*
X665944Y566653D01*
X664972Y566445D01*
X663930Y566375D01*
X662750Y566236D01*
X660319Y566167D01*
X659555D01*
X658930Y566236D01*
X658236D01*
X657402Y566306D01*
X656500Y566375D01*
X655527Y566445D01*
X653375Y566722D01*
X651153Y567139D01*
X648861Y567764D01*
X647819Y568111D01*
X646778Y568528D01*
X646708D01*
X646569Y568667D01*
X646292Y568806D01*
X645875Y569014D01*
X645458Y569292D01*
X644903Y569639D01*
X644347Y570056D01*
X643722Y570472D01*
X643028Y571028D01*
X642264Y571653D01*
X641569Y572347D01*
X640806Y573111D01*
X639972Y573944D01*
X639208Y574917D01*
X638514Y575889D01*
X637750Y577000D01*
X637681Y577069D01*
X637611Y577278D01*
X637403Y577625D01*
X637194Y578111D01*
X636917Y578666D01*
X636569Y579430D01*
X636222Y580264D01*
X635875Y581236D01*
X635528Y582278D01*
X635181Y583458D01*
X634903Y584708D01*
X634556Y586097D01*
X634347Y587555D01*
X634139Y589083D01*
X634069Y590750D01*
X634000Y592486D01*
Y592555D01*
Y592625D01*
Y593041D01*
X634069Y593666D01*
X634139Y594569D01*
X634208Y595611D01*
X634347Y596791D01*
X634556Y598180D01*
X634833Y599638D01*
X635181Y601166D01*
X635597Y602694D01*
X636153Y604361D01*
X636847Y605958D01*
X637611Y607486D01*
X638444Y609013D01*
X639486Y610472D01*
X640667Y611791D01*
X640736Y611861D01*
X641014Y612069D01*
X641361Y612416D01*
X641917Y612833D01*
X642611Y613388D01*
X643444Y613944D01*
X644417Y614569D01*
X645528Y615194D01*
X646778Y615819D01*
X648236Y616444D01*
X649764Y616999D01*
X651500Y617555D01*
X653305Y617972D01*
X655250Y618319D01*
X657402Y618527D01*
X659625Y618597D01*
X660527D01*
X661222Y618527D01*
D02*
G37*
G36*
X632996Y522217D02*
X595889D01*
Y528273D01*
X632996D01*
Y522217D01*
D02*
G37*
G36*
X829137Y603736D02*
X836914D01*
Y593389D01*
X829137D01*
Y580403D01*
Y580333D01*
Y580055D01*
Y579639D01*
X829206Y579153D01*
X829345Y578111D01*
X829414Y577625D01*
X829553Y577278D01*
X829623Y577208D01*
X829692Y577139D01*
X829900Y576930D01*
X830109Y576722D01*
X830456Y576514D01*
X830873Y576375D01*
X831359Y576236D01*
X831984Y576167D01*
X832262D01*
X832609Y576236D01*
X833095Y576306D01*
X833720Y576375D01*
X834484Y576514D01*
X835386Y576722D01*
X836359Y577000D01*
X837400Y567278D01*
X837331D01*
X837192Y567208D01*
X836914D01*
X836497Y567139D01*
X836011Y567000D01*
X835525Y566931D01*
X834900Y566861D01*
X834206Y566722D01*
X832678Y566514D01*
X831012Y566375D01*
X829345Y566236D01*
X827609Y566167D01*
X826775D01*
X826359Y566236D01*
X825803D01*
X824692Y566306D01*
X823442Y566514D01*
X822192Y566722D01*
X820942Y567070D01*
X819901Y567486D01*
X819762Y567556D01*
X819484Y567764D01*
X819067Y568042D01*
X818512Y568458D01*
X817887Y569083D01*
X817262Y569778D01*
X816706Y570542D01*
X816220Y571514D01*
X816151Y571653D01*
X816012Y572069D01*
X815942Y572347D01*
X815873Y572694D01*
X815734Y573181D01*
X815665Y573667D01*
X815526Y574292D01*
X815387Y574917D01*
X815317Y575681D01*
X815248Y576444D01*
X815178Y577347D01*
X815109Y578319D01*
X815040Y579361D01*
Y580472D01*
Y593389D01*
X809831D01*
Y603736D01*
X815040D01*
Y610472D01*
X829137Y617763D01*
Y603736D01*
D02*
G37*
G36*
X1040454Y529106D02*
X1041065Y529050D01*
X1041676Y528995D01*
X1042398Y528939D01*
X1043953Y528717D01*
X1045676Y528384D01*
X1047398Y527884D01*
X1049064Y527273D01*
X1049120D01*
X1049231Y527161D01*
X1049509Y527106D01*
X1049786Y526939D01*
X1050119Y526717D01*
X1050564Y526495D01*
X1051508Y525939D01*
X1052619Y525162D01*
X1053730Y524217D01*
X1054786Y523162D01*
X1055730Y521884D01*
X1055786Y521829D01*
X1055841Y521718D01*
X1055952Y521551D01*
X1056119Y521273D01*
X1056285Y520940D01*
X1056508Y520551D01*
X1056674Y520051D01*
X1056952Y519551D01*
X1057396Y518385D01*
X1057785Y516996D01*
X1058119Y515496D01*
X1058285Y513829D01*
X1051786Y513330D01*
Y513385D01*
X1051730Y513552D01*
Y513774D01*
X1051675Y514107D01*
X1051564Y514552D01*
X1051453Y514996D01*
X1051119Y516051D01*
X1050675Y517218D01*
X1050008Y518440D01*
X1049231Y519607D01*
X1048731Y520107D01*
X1048175Y520607D01*
X1048120Y520662D01*
X1048064Y520718D01*
X1047842Y520829D01*
X1047620Y520995D01*
X1047287Y521162D01*
X1046898Y521384D01*
X1046453Y521606D01*
X1045953Y521884D01*
X1045342Y522106D01*
X1044676Y522329D01*
X1043953Y522551D01*
X1043176Y522718D01*
X1042287Y522884D01*
X1041343Y522995D01*
X1040343Y523106D01*
X1038732D01*
X1038287Y523051D01*
X1037787D01*
X1037232Y522995D01*
X1036565Y522940D01*
X1035899Y522829D01*
X1034399Y522551D01*
X1032955Y522162D01*
X1031566Y521606D01*
X1030899Y521218D01*
X1030344Y520829D01*
X1030288D01*
X1030233Y520718D01*
X1029899Y520440D01*
X1029455Y519940D01*
X1028955Y519273D01*
X1028455Y518496D01*
X1028011Y517551D01*
X1027677Y516552D01*
X1027622Y515996D01*
X1027566Y515385D01*
Y515329D01*
Y515274D01*
X1027622Y514940D01*
X1027677Y514441D01*
X1027788Y513829D01*
X1028066Y513107D01*
X1028400Y512330D01*
X1028844Y511608D01*
X1029510Y510885D01*
X1029622Y510830D01*
X1029733Y510719D01*
X1029955Y510552D01*
X1030233Y510385D01*
X1030566Y510219D01*
X1031010Y509997D01*
X1031510Y509719D01*
X1032121Y509441D01*
X1032843Y509163D01*
X1033677Y508886D01*
X1034621Y508552D01*
X1035732Y508219D01*
X1036899Y507886D01*
X1038232Y507497D01*
X1039732Y507164D01*
X1039843D01*
X1040121Y507108D01*
X1040509Y506997D01*
X1041065Y506830D01*
X1041731Y506719D01*
X1042509Y506497D01*
X1043342Y506330D01*
X1044231Y506053D01*
X1046120Y505553D01*
X1048009Y505053D01*
X1048897Y504775D01*
X1049675Y504497D01*
X1050453Y504219D01*
X1051064Y503942D01*
X1051119D01*
X1051286Y503831D01*
X1051508Y503719D01*
X1051786Y503553D01*
X1052175Y503386D01*
X1052619Y503108D01*
X1053564Y502497D01*
X1054675Y501775D01*
X1055730Y500886D01*
X1056786Y499831D01*
X1057230Y499276D01*
X1057674Y498720D01*
Y498664D01*
X1057785Y498553D01*
X1057896Y498387D01*
X1058008Y498164D01*
X1058174Y497887D01*
X1058341Y497498D01*
X1058785Y496609D01*
X1059174Y495554D01*
X1059507Y494332D01*
X1059730Y492943D01*
X1059841Y491443D01*
Y491387D01*
Y491276D01*
Y491054D01*
X1059785Y490776D01*
Y490387D01*
X1059730Y489999D01*
X1059563Y488943D01*
X1059285Y487777D01*
X1058841Y486499D01*
X1058230Y485166D01*
X1057896Y484444D01*
X1057452Y483777D01*
Y483722D01*
X1057341Y483610D01*
X1057230Y483444D01*
X1057008Y483166D01*
X1056508Y482555D01*
X1055730Y481722D01*
X1054786Y480833D01*
X1053619Y479889D01*
X1052286Y479000D01*
X1050731Y478167D01*
X1050675D01*
X1050508Y478055D01*
X1050286Y478000D01*
X1049953Y477833D01*
X1049564Y477722D01*
X1049064Y477556D01*
X1048509Y477333D01*
X1047842Y477167D01*
X1047175Y477000D01*
X1046398Y476778D01*
X1044731Y476500D01*
X1042898Y476278D01*
X1040898Y476167D01*
X1040232D01*
X1039732Y476222D01*
X1039121D01*
X1038454Y476278D01*
X1037676Y476333D01*
X1036788Y476445D01*
X1034954Y476667D01*
X1033010Y477000D01*
X1031066Y477500D01*
X1029177Y478167D01*
X1029122D01*
X1028955Y478278D01*
X1028733Y478389D01*
X1028400Y478555D01*
X1028011Y478778D01*
X1027566Y479000D01*
X1026511Y479666D01*
X1025344Y480500D01*
X1024122Y481555D01*
X1022900Y482777D01*
X1021845Y484221D01*
X1021789Y484277D01*
X1021734Y484388D01*
X1021622Y484610D01*
X1021456Y484944D01*
X1021234Y485332D01*
X1021011Y485777D01*
X1020734Y486332D01*
X1020511Y486943D01*
X1020234Y487555D01*
X1020012Y488277D01*
X1019567Y489888D01*
X1019234Y491610D01*
X1019123Y492554D01*
X1019067Y493498D01*
X1025455Y494054D01*
Y493998D01*
Y493887D01*
X1025511Y493665D01*
X1025566Y493387D01*
X1025622Y493054D01*
X1025678Y492721D01*
X1025900Y491776D01*
X1026178Y490776D01*
X1026511Y489721D01*
X1026955Y488666D01*
X1027511Y487666D01*
X1027566Y487555D01*
X1027844Y487277D01*
X1028233Y486832D01*
X1028788Y486277D01*
X1029510Y485610D01*
X1030399Y484999D01*
X1031455Y484333D01*
X1032677Y483722D01*
X1032732D01*
X1032843Y483666D01*
X1033010Y483610D01*
X1033288Y483499D01*
X1033621Y483388D01*
X1034010Y483222D01*
X1034454Y483111D01*
X1034954Y482999D01*
X1036121Y482722D01*
X1037510Y482444D01*
X1038954Y482277D01*
X1040565Y482222D01*
X1041232D01*
X1041565Y482277D01*
X1041954D01*
X1042842Y482388D01*
X1043898Y482499D01*
X1045064Y482666D01*
X1046231Y482944D01*
X1047342Y483333D01*
X1047398D01*
X1047453Y483388D01*
X1047620Y483444D01*
X1047842Y483555D01*
X1048342Y483833D01*
X1049008Y484166D01*
X1049731Y484610D01*
X1050508Y485166D01*
X1051175Y485777D01*
X1051786Y486499D01*
X1051842Y486610D01*
X1052008Y486832D01*
X1052286Y487277D01*
X1052564Y487832D01*
X1052786Y488499D01*
X1053064Y489221D01*
X1053230Y490054D01*
X1053286Y490887D01*
Y490943D01*
Y490999D01*
Y491276D01*
X1053230Y491776D01*
X1053119Y492332D01*
X1052953Y492998D01*
X1052675Y493721D01*
X1052342Y494443D01*
X1051842Y495109D01*
X1051786Y495165D01*
X1051564Y495387D01*
X1051230Y495720D01*
X1050731Y496165D01*
X1050119Y496609D01*
X1049286Y497109D01*
X1048342Y497609D01*
X1047231Y498109D01*
X1047120Y498164D01*
X1047009Y498220D01*
X1046786Y498276D01*
X1046564Y498331D01*
X1046231Y498442D01*
X1045787Y498609D01*
X1045342Y498720D01*
X1044731Y498887D01*
X1044120Y499109D01*
X1043342Y499276D01*
X1042509Y499498D01*
X1041565Y499775D01*
X1040565Y499998D01*
X1039398Y500331D01*
X1038121Y500609D01*
X1038065D01*
X1037843Y500664D01*
X1037454Y500775D01*
X1037010Y500886D01*
X1036399Y501053D01*
X1035732Y501220D01*
X1035066Y501442D01*
X1034288Y501664D01*
X1032621Y502164D01*
X1031010Y502720D01*
X1030233Y502997D01*
X1029510Y503275D01*
X1028844Y503553D01*
X1028288Y503831D01*
X1028233D01*
X1028122Y503942D01*
X1027955Y504053D01*
X1027677Y504164D01*
X1027011Y504553D01*
X1026233Y505108D01*
X1025289Y505830D01*
X1024400Y506608D01*
X1023511Y507552D01*
X1022789Y508552D01*
Y508608D01*
X1022734Y508663D01*
X1022622Y508830D01*
X1022511Y509052D01*
X1022234Y509663D01*
X1021900Y510441D01*
X1021567Y511385D01*
X1021289Y512496D01*
X1021067Y513718D01*
X1021011Y514996D01*
Y515052D01*
Y515163D01*
Y515385D01*
X1021067Y515663D01*
Y515996D01*
X1021123Y516385D01*
X1021289Y517385D01*
X1021567Y518496D01*
X1021900Y519662D01*
X1022456Y520940D01*
X1023178Y522217D01*
Y522273D01*
X1023289Y522384D01*
X1023400Y522551D01*
X1023567Y522773D01*
X1024122Y523384D01*
X1024844Y524162D01*
X1025733Y524995D01*
X1026844Y525828D01*
X1028122Y526661D01*
X1029622Y527384D01*
X1029677D01*
X1029788Y527439D01*
X1030066Y527550D01*
X1030344Y527661D01*
X1030733Y527772D01*
X1031233Y527939D01*
X1031788Y528106D01*
X1032399Y528273D01*
X1033066Y528439D01*
X1033788Y528606D01*
X1035343Y528884D01*
X1037121Y529106D01*
X1039010Y529161D01*
X1039954D01*
X1040454Y529106D01*
D02*
G37*
G36*
X1151285Y618527D02*
X1151841D01*
X1152466Y618458D01*
X1153230D01*
X1153994Y618388D01*
X1154896Y618319D01*
X1155869Y618249D01*
X1156910Y618111D01*
X1158021Y617972D01*
X1159202Y617833D01*
X1160521Y617694D01*
X1158924Y609222D01*
X1158785D01*
X1158508Y609291D01*
X1158021Y609361D01*
X1157466Y609430D01*
X1156841Y609500D01*
X1156146Y609569D01*
X1155452Y609638D01*
X1154202D01*
X1153785Y609569D01*
X1152883Y609361D01*
X1152466Y609152D01*
X1152119Y608944D01*
X1151980Y608805D01*
X1151633Y608458D01*
X1151285Y607833D01*
X1151077Y607416D01*
X1150938Y606930D01*
Y606861D01*
Y606791D01*
X1150869Y606583D01*
Y606236D01*
Y605819D01*
X1150799Y605263D01*
Y604569D01*
Y603736D01*
X1157535D01*
Y593389D01*
X1150799D01*
Y567000D01*
X1136702D01*
Y593389D01*
X1131424D01*
Y603736D01*
X1136702D01*
Y605333D01*
Y605472D01*
Y605750D01*
Y606236D01*
X1136772Y606791D01*
Y607555D01*
X1136911Y608388D01*
X1136980Y609361D01*
X1137119Y610333D01*
Y610472D01*
X1137188Y610819D01*
X1137327Y611305D01*
X1137535Y611930D01*
X1137744Y612625D01*
X1138091Y613319D01*
X1138438Y614013D01*
X1138924Y614708D01*
X1138994Y614777D01*
X1139202Y614986D01*
X1139480Y615333D01*
X1139897Y615680D01*
X1140452Y616166D01*
X1141077Y616583D01*
X1141841Y617069D01*
X1142674Y617486D01*
X1142813Y617555D01*
X1143160Y617694D01*
X1143716Y617833D01*
X1144480Y618041D01*
X1145452Y618249D01*
X1146702Y618458D01*
X1148091Y618527D01*
X1149758Y618597D01*
X1150799D01*
X1151285Y618527D01*
D02*
G37*
G36*
X959621Y605263D02*
X943649D01*
Y567000D01*
X927955D01*
Y605263D01*
X911983D01*
Y617763D01*
X959621D01*
Y605263D01*
D02*
G37*
G36*
X1183021Y604500D02*
X1183646D01*
X1184410Y604430D01*
X1185313Y604361D01*
X1186216Y604291D01*
X1188160Y603944D01*
X1190243Y603527D01*
X1192257Y602972D01*
X1193229Y602555D01*
X1194132Y602138D01*
X1194202D01*
X1194340Y602000D01*
X1194549Y601861D01*
X1194896Y601722D01*
X1195729Y601166D01*
X1196702Y600402D01*
X1197813Y599430D01*
X1198993Y598250D01*
X1200104Y596791D01*
X1201076Y595194D01*
Y595125D01*
X1201215Y594986D01*
X1201285Y594708D01*
X1201493Y594361D01*
X1201632Y593944D01*
X1201840Y593389D01*
X1202049Y592764D01*
X1202326Y592000D01*
X1202535Y591236D01*
X1202743Y590333D01*
X1202951Y589361D01*
X1203160Y588319D01*
X1203299Y587208D01*
X1203438Y585958D01*
X1203507Y584708D01*
Y583389D01*
Y581861D01*
X1175243D01*
Y581791D01*
Y581722D01*
X1175313Y581305D01*
X1175452Y580680D01*
X1175591Y579986D01*
X1175868Y579153D01*
X1176146Y578319D01*
X1176563Y577486D01*
X1177049Y576792D01*
X1177118Y576722D01*
X1177396Y576444D01*
X1177882Y576028D01*
X1178507Y575611D01*
X1179271Y575194D01*
X1180174Y574778D01*
X1181216Y574500D01*
X1182396Y574431D01*
X1182743D01*
X1183160Y574500D01*
X1183646Y574569D01*
X1184271Y574639D01*
X1184966Y574847D01*
X1185660Y575056D01*
X1186354Y575403D01*
X1186424Y575472D01*
X1186563Y575542D01*
X1186771Y575681D01*
X1187118Y575958D01*
X1187466Y576306D01*
X1187882Y576722D01*
X1188368Y577208D01*
X1188854Y577764D01*
X1202743Y576514D01*
X1202674Y576444D01*
X1202604Y576306D01*
X1202396Y575958D01*
X1202188Y575611D01*
X1201840Y575125D01*
X1201493Y574639D01*
X1200590Y573458D01*
X1199479Y572139D01*
X1198160Y570819D01*
X1196632Y569569D01*
X1195868Y569014D01*
X1195035Y568528D01*
X1194965D01*
X1194827Y568458D01*
X1194549Y568319D01*
X1194202Y568181D01*
X1193715Y567972D01*
X1193160Y567764D01*
X1192465Y567556D01*
X1191702Y567347D01*
X1190868Y567139D01*
X1189896Y566931D01*
X1188854Y566722D01*
X1187674Y566514D01*
X1186424Y566375D01*
X1185104Y566236D01*
X1183646Y566167D01*
X1180938D01*
X1180313Y566236D01*
X1179618Y566306D01*
X1178785D01*
X1177952Y566445D01*
X1176077Y566653D01*
X1174202Y567000D01*
X1172327Y567486D01*
X1171424Y567833D01*
X1170591Y568181D01*
X1170521D01*
X1170382Y568250D01*
X1170174Y568389D01*
X1169896Y568597D01*
X1169132Y569083D01*
X1168160Y569778D01*
X1167049Y570681D01*
X1165938Y571792D01*
X1164757Y573181D01*
X1163646Y574708D01*
Y574778D01*
X1163508Y574917D01*
X1163369Y575194D01*
X1163230Y575542D01*
X1163021Y575958D01*
X1162813Y576444D01*
X1162535Y577069D01*
X1162327Y577694D01*
X1162049Y578458D01*
X1161771Y579291D01*
X1161355Y581097D01*
X1161077Y583111D01*
X1160938Y585264D01*
Y585333D01*
Y585680D01*
X1161008Y586097D01*
Y586722D01*
X1161077Y587416D01*
X1161216Y588250D01*
X1161424Y589222D01*
X1161633Y590264D01*
X1161910Y591305D01*
X1162258Y592486D01*
X1162744Y593597D01*
X1163230Y594777D01*
X1163855Y595958D01*
X1164619Y597069D01*
X1165452Y598180D01*
X1166424Y599222D01*
X1166494Y599291D01*
X1166702Y599430D01*
X1166980Y599708D01*
X1167466Y600055D01*
X1168021Y600472D01*
X1168646Y600888D01*
X1169480Y601375D01*
X1170382Y601930D01*
X1171424Y602416D01*
X1172535Y602902D01*
X1173855Y603319D01*
X1175174Y603736D01*
X1176632Y604083D01*
X1178230Y604361D01*
X1179896Y604500D01*
X1181702Y604569D01*
X1182466D01*
X1183021Y604500D01*
D02*
G37*
G36*
X863928D02*
X864692D01*
X865594Y604361D01*
X866705Y604222D01*
X867817Y604013D01*
X869136Y603736D01*
X870455Y603388D01*
X871775Y602972D01*
X873164Y602486D01*
X874553Y601861D01*
X875941Y601097D01*
X877191Y600263D01*
X878441Y599222D01*
X879553Y598111D01*
X879622Y598041D01*
X879761Y597902D01*
X879969Y597555D01*
X880247Y597208D01*
X880594Y596722D01*
X881011Y596097D01*
X881428Y595402D01*
X881844Y594639D01*
X882261Y593736D01*
X882678Y592764D01*
X883094Y591722D01*
X883441Y590611D01*
X883719Y589430D01*
X883928Y588180D01*
X884066Y586861D01*
X884136Y585472D01*
Y585403D01*
Y585125D01*
X884066Y584639D01*
Y584083D01*
X883997Y583319D01*
X883858Y582486D01*
X883650Y581514D01*
X883441Y580541D01*
X883094Y579430D01*
X882747Y578319D01*
X882261Y577139D01*
X881705Y575958D01*
X881080Y574847D01*
X880316Y573667D01*
X879414Y572556D01*
X878441Y571514D01*
X878372Y571444D01*
X878164Y571306D01*
X877886Y571028D01*
X877400Y570681D01*
X876844Y570264D01*
X876150Y569847D01*
X875316Y569361D01*
X874414Y568875D01*
X873372Y568319D01*
X872192Y567833D01*
X870872Y567417D01*
X869483Y567000D01*
X868025Y566653D01*
X866428Y566375D01*
X864692Y566236D01*
X862886Y566167D01*
X862053D01*
X861428Y566236D01*
X860664Y566306D01*
X859761Y566375D01*
X858789Y566514D01*
X857747Y566722D01*
X855456Y567278D01*
X854275Y567625D01*
X853095Y568042D01*
X851845Y568528D01*
X850733Y569153D01*
X849553Y569847D01*
X848511Y570611D01*
X848442Y570681D01*
X848233Y570889D01*
X847886Y571167D01*
X847470Y571653D01*
X846983Y572208D01*
X846428Y572833D01*
X845803Y573667D01*
X845178Y574500D01*
X844553Y575542D01*
X843928Y576653D01*
X843372Y577833D01*
X842886Y579153D01*
X842470Y580541D01*
X842122Y582000D01*
X841914Y583597D01*
X841845Y585264D01*
Y585333D01*
Y585611D01*
X841914Y586097D01*
Y586652D01*
X842053Y587347D01*
X842122Y588180D01*
X842331Y589152D01*
X842539Y590125D01*
X842817Y591236D01*
X843234Y592347D01*
X843650Y593458D01*
X844206Y594639D01*
X844831Y595819D01*
X845595Y596930D01*
X846497Y598041D01*
X847470Y599083D01*
X847539Y599152D01*
X847747Y599291D01*
X848095Y599569D01*
X848511Y599916D01*
X849067Y600333D01*
X849761Y600819D01*
X850595Y601305D01*
X851567Y601861D01*
X852608Y602347D01*
X853720Y602833D01*
X855039Y603319D01*
X856358Y603736D01*
X857886Y604083D01*
X859414Y604361D01*
X861081Y604500D01*
X862886Y604569D01*
X863372D01*
X863928Y604500D01*
D02*
G37*
%LPC*%
G36*
X1182257Y596236D02*
X1182118D01*
X1181702Y596166D01*
X1181077Y596097D01*
X1180313Y595888D01*
X1179480Y595611D01*
X1178577Y595125D01*
X1177743Y594430D01*
X1176910Y593527D01*
X1176841Y593458D01*
X1176702Y593250D01*
X1176493Y592833D01*
X1176216Y592277D01*
X1175938Y591583D01*
X1175660Y590750D01*
X1175382Y589777D01*
X1175243Y588597D01*
X1189202D01*
Y588666D01*
Y588805D01*
X1189132Y589014D01*
Y589291D01*
X1188993Y589986D01*
X1188785Y590889D01*
X1188507Y591791D01*
X1188091Y592764D01*
X1187604Y593666D01*
X1186979Y594430D01*
X1186910Y594500D01*
X1186632Y594708D01*
X1186285Y594986D01*
X1185729Y595333D01*
X1185035Y595680D01*
X1184202Y595958D01*
X1183299Y596166D01*
X1182257Y596236D01*
D02*
G37*
G36*
X1158109Y87885D02*
X1146222Y69498D01*
X1158109D01*
Y87885D01*
D02*
G37*
G36*
X966684Y502331D02*
X966628Y502275D01*
X966461Y502220D01*
X966184Y502053D01*
X965851Y501831D01*
X965406Y501553D01*
X964962Y501220D01*
X963906Y500498D01*
X962740Y499609D01*
X961573Y498664D01*
X960573Y497664D01*
X960129Y497165D01*
X959740Y496665D01*
Y496609D01*
X959684Y496553D01*
X959462Y496220D01*
X959184Y495720D01*
X958851Y495054D01*
X958518Y494276D01*
X958240Y493387D01*
X958018Y492443D01*
X957962Y491498D01*
Y491443D01*
Y491387D01*
Y491165D01*
X958018Y490943D01*
Y490665D01*
X958074Y490332D01*
X958296Y489554D01*
X958573Y488554D01*
X959018Y487443D01*
X959629Y486277D01*
X959962Y485666D01*
X960407Y485055D01*
X960462Y484999D01*
X960518Y484888D01*
X960684Y484721D01*
X960851Y484555D01*
X961129Y484277D01*
X961462Y483999D01*
X962240Y483388D01*
X963240Y482777D01*
X964462Y482222D01*
X965128Y482055D01*
X965851Y481888D01*
X966628Y481777D01*
X967461Y481722D01*
X967739D01*
X967961Y481777D01*
X968517Y481833D01*
X969239Y481944D01*
X970128Y482166D01*
X971128Y482444D01*
X972183Y482888D01*
X973294Y483444D01*
X973350D01*
X973405Y483555D01*
X973572Y483610D01*
X973794Y483777D01*
X974350Y484166D01*
X975072Y484666D01*
X975794Y485332D01*
X976627Y486110D01*
X977405Y486999D01*
X978127Y487999D01*
X966684Y502331D01*
D02*
G37*
G36*
X1022329Y584430D02*
X1022190Y584361D01*
X1021842Y584291D01*
X1021217Y584083D01*
X1020454Y583805D01*
X1019551Y583528D01*
X1018509Y583180D01*
X1017398Y582903D01*
X1016218Y582555D01*
X1016148D01*
X1016009Y582486D01*
X1015801Y582416D01*
X1015523Y582347D01*
X1014759Y582139D01*
X1013926Y581861D01*
X1012954Y581514D01*
X1012051Y581166D01*
X1011287Y580750D01*
X1011009Y580541D01*
X1010732Y580333D01*
X1010662Y580264D01*
X1010523Y580125D01*
X1010384Y579916D01*
X1010176Y579569D01*
X1009759Y578805D01*
X1009620Y578319D01*
X1009551Y577764D01*
Y577694D01*
Y577486D01*
X1009620Y577208D01*
X1009690Y576792D01*
X1009829Y576375D01*
X1010037Y575889D01*
X1010315Y575472D01*
X1010662Y575056D01*
X1010732Y574986D01*
X1010870Y574917D01*
X1011148Y574708D01*
X1011565Y574569D01*
X1012051Y574361D01*
X1012607Y574153D01*
X1013301Y574083D01*
X1014134Y574014D01*
X1014551D01*
X1014968Y574083D01*
X1015593Y574153D01*
X1016218Y574292D01*
X1016982Y574500D01*
X1017745Y574778D01*
X1018509Y575125D01*
X1018579Y575194D01*
X1018856Y575333D01*
X1019204Y575542D01*
X1019690Y575889D01*
X1020106Y576306D01*
X1020592Y576722D01*
X1021079Y577278D01*
X1021426Y577833D01*
X1021495Y577903D01*
X1021565Y578111D01*
X1021704Y578528D01*
X1021912Y579014D01*
X1022051Y579639D01*
X1022190Y580333D01*
X1022259Y581166D01*
X1022329Y582139D01*
Y584430D01*
D02*
G37*
G36*
X1083505Y509830D02*
X1083061D01*
X1082783Y509774D01*
X1082394Y509719D01*
X1082005Y509663D01*
X1080950Y509441D01*
X1079839Y509108D01*
X1078561Y508608D01*
X1077950Y508274D01*
X1077339Y507886D01*
X1076728Y507386D01*
X1076172Y506886D01*
X1076117Y506830D01*
X1076061Y506775D01*
X1075895Y506608D01*
X1075728Y506386D01*
X1075506Y506053D01*
X1075228Y505719D01*
X1074950Y505330D01*
X1074672Y504831D01*
X1074395Y504330D01*
X1074117Y503719D01*
X1073561Y502386D01*
X1073173Y500886D01*
X1073062Y500053D01*
X1072951Y499164D01*
X1093726D01*
Y499220D01*
Y499387D01*
X1093671Y499609D01*
X1093615Y499942D01*
X1093559Y500331D01*
X1093504Y500775D01*
X1093282Y501775D01*
X1092948Y502942D01*
X1092560Y504108D01*
X1092004Y505219D01*
X1091338Y506164D01*
X1091282Y506219D01*
X1091226Y506330D01*
X1091004Y506497D01*
X1090782Y506719D01*
X1090504Y506997D01*
X1090115Y507330D01*
X1089671Y507663D01*
X1089227Y507997D01*
X1088671Y508330D01*
X1088060Y508663D01*
X1086727Y509274D01*
X1086005Y509497D01*
X1085227Y509663D01*
X1084394Y509774D01*
X1083505Y509830D01*
D02*
G37*
G36*
X969961Y523940D02*
X969517D01*
X969072Y523829D01*
X968461Y523717D01*
X967795Y523551D01*
X967073Y523217D01*
X966350Y522829D01*
X965684Y522273D01*
X965628Y522217D01*
X965406Y521995D01*
X965184Y521606D01*
X964851Y521162D01*
X964573Y520551D01*
X964295Y519884D01*
X964073Y519107D01*
X964017Y518218D01*
Y518162D01*
Y517996D01*
X964073Y517774D01*
Y517496D01*
X964184Y517107D01*
X964295Y516663D01*
X964406Y516218D01*
X964628Y515718D01*
X964684Y515663D01*
X964740Y515496D01*
X964906Y515218D01*
X965073Y514885D01*
X965350Y514496D01*
X965684Y513996D01*
X966017Y513496D01*
X966461Y512941D01*
X969295Y509719D01*
X969350Y509774D01*
X969461Y509830D01*
X969683Y509941D01*
X969961Y510108D01*
X970683Y510552D01*
X971516Y511163D01*
X972405Y511774D01*
X973294Y512496D01*
X974072Y513218D01*
X974350Y513607D01*
X974627Y513941D01*
X974683Y514052D01*
X974794Y514274D01*
X975016Y514663D01*
X975238Y515107D01*
X975461Y515718D01*
X975683Y516385D01*
X975794Y517163D01*
X975849Y517940D01*
Y517996D01*
Y518051D01*
Y518385D01*
X975738Y518885D01*
X975627Y519496D01*
X975405Y520162D01*
X975127Y520884D01*
X974683Y521606D01*
X974127Y522273D01*
X974072Y522329D01*
X973850Y522551D01*
X973461Y522829D01*
X972961Y523106D01*
X972405Y523440D01*
X971683Y523662D01*
X970850Y523884D01*
X969961Y523940D01*
D02*
G37*
G36*
X1222824Y509830D02*
X1222379D01*
X1222102Y509774D01*
X1221713Y509719D01*
X1221324Y509663D01*
X1220269Y509441D01*
X1219158Y509108D01*
X1217880Y508608D01*
X1217269Y508274D01*
X1216658Y507886D01*
X1216047Y507386D01*
X1215491Y506886D01*
X1215436Y506830D01*
X1215380Y506775D01*
X1215213Y506608D01*
X1215047Y506386D01*
X1214825Y506053D01*
X1214547Y505719D01*
X1214269Y505330D01*
X1213991Y504831D01*
X1213714Y504330D01*
X1213436Y503719D01*
X1212880Y502386D01*
X1212492Y500886D01*
X1212381Y500053D01*
X1212269Y499164D01*
X1233045D01*
Y499220D01*
Y499387D01*
X1232990Y499609D01*
X1232934Y499942D01*
X1232878Y500331D01*
X1232823Y500775D01*
X1232601Y501775D01*
X1232267Y502942D01*
X1231879Y504108D01*
X1231323Y505219D01*
X1230656Y506164D01*
X1230601Y506219D01*
X1230545Y506330D01*
X1230323Y506497D01*
X1230101Y506719D01*
X1229823Y506997D01*
X1229434Y507330D01*
X1228990Y507663D01*
X1228546Y507997D01*
X1227990Y508330D01*
X1227379Y508663D01*
X1226046Y509274D01*
X1225324Y509497D01*
X1224546Y509663D01*
X1223713Y509774D01*
X1222824Y509830D01*
D02*
G37*
G36*
X863025Y594847D02*
X862886D01*
X862539Y594777D01*
X861983Y594708D01*
X861219Y594569D01*
X860456Y594222D01*
X859622Y593805D01*
X858719Y593250D01*
X857956Y592416D01*
X857886Y592277D01*
X857678Y592000D01*
X857331Y591444D01*
X856983Y590611D01*
X856567Y589639D01*
X856289Y588389D01*
X856011Y586930D01*
X855942Y585264D01*
Y585194D01*
Y585055D01*
Y584778D01*
Y584430D01*
X856011Y584083D01*
X856081Y583597D01*
X856219Y582486D01*
X856428Y581305D01*
X856775Y580125D01*
X857261Y578944D01*
X857886Y577972D01*
X857956Y577903D01*
X858233Y577625D01*
X858719Y577278D01*
X859275Y576861D01*
X860039Y576375D01*
X860872Y576028D01*
X861844Y575750D01*
X862956Y575681D01*
X863094D01*
X863442Y575750D01*
X863997Y575819D01*
X864761Y575958D01*
X865525Y576236D01*
X866358Y576653D01*
X867192Y577208D01*
X867955Y577972D01*
X868025Y578111D01*
X868303Y578389D01*
X868580Y578944D01*
X868997Y579778D01*
X869344Y580819D01*
X869692Y582069D01*
X869900Y583597D01*
X869969Y585403D01*
Y585472D01*
Y585611D01*
Y585889D01*
Y586166D01*
X869900Y587000D01*
X869692Y588041D01*
X869483Y589222D01*
X869136Y590402D01*
X868650Y591514D01*
X867955Y592486D01*
X867886Y592555D01*
X867608Y592833D01*
X867192Y593250D01*
X866567Y593666D01*
X865872Y594083D01*
X865039Y594500D01*
X864067Y594777D01*
X863025Y594847D01*
D02*
G37*
G36*
X785318Y594222D02*
X784901D01*
X784345Y594083D01*
X783720Y593944D01*
X783026Y593666D01*
X782262Y593319D01*
X781498Y592764D01*
X780804Y592069D01*
X780734Y592000D01*
X780526Y591652D01*
X780248Y591166D01*
X779901Y590472D01*
X779554Y589500D01*
X779276Y588319D01*
X779068Y586930D01*
X778998Y585264D01*
Y585194D01*
Y585055D01*
Y584847D01*
Y584569D01*
X779068Y583805D01*
X779207Y582833D01*
X779415Y581791D01*
X779762Y580680D01*
X780179Y579708D01*
X780804Y578805D01*
X780873Y578736D01*
X781151Y578458D01*
X781568Y578180D01*
X782123Y577764D01*
X782748Y577416D01*
X783581Y577069D01*
X784484Y576792D01*
X785456Y576722D01*
X785873D01*
X786359Y576861D01*
X786915Y577000D01*
X787609Y577208D01*
X788304Y577555D01*
X788998Y578041D01*
X789623Y578736D01*
X789693Y578805D01*
X789901Y579153D01*
X790179Y579639D01*
X790456Y580333D01*
X790734Y581305D01*
X791012Y582486D01*
X791220Y583875D01*
X791290Y585541D01*
Y585611D01*
Y585750D01*
Y585958D01*
Y586305D01*
X791220Y587069D01*
X791081Y588041D01*
X790873Y589083D01*
X790526Y590194D01*
X790109Y591166D01*
X789554Y592069D01*
X789484Y592139D01*
X789276Y592416D01*
X788859Y592764D01*
X788373Y593180D01*
X787748Y593527D01*
X787054Y593875D01*
X786220Y594152D01*
X785318Y594222D01*
D02*
G37*
G36*
X666215Y495665D02*
X666159D01*
X666048Y495609D01*
X665826Y495554D01*
X665548Y495443D01*
X665215Y495276D01*
X664771Y495165D01*
X664215Y494998D01*
X663660Y494832D01*
X662937Y494665D01*
X662160Y494443D01*
X661327Y494276D01*
X660382Y494054D01*
X659382Y493832D01*
X658327Y493665D01*
X657160Y493443D01*
X655883Y493276D01*
X655716D01*
X655494Y493221D01*
X655272Y493165D01*
X654549Y493054D01*
X653716Y492887D01*
X652827Y492721D01*
X651938Y492498D01*
X651105Y492276D01*
X650383Y491998D01*
X650328Y491943D01*
X650105Y491887D01*
X649828Y491721D01*
X649494Y491498D01*
X649050Y491165D01*
X648661Y490832D01*
X648272Y490443D01*
X647883Y489943D01*
X647828Y489888D01*
X647772Y489721D01*
X647606Y489443D01*
X647495Y489054D01*
X647328Y488610D01*
X647161Y488110D01*
X647106Y487555D01*
X647050Y486943D01*
Y486832D01*
X647106Y486555D01*
X647161Y486055D01*
X647272Y485499D01*
X647495Y484832D01*
X647828Y484110D01*
X648328Y483444D01*
X648939Y482777D01*
X649050Y482722D01*
X649272Y482499D01*
X649717Y482277D01*
X650328Y481944D01*
X651105Y481666D01*
X652105Y481388D01*
X653216Y481166D01*
X654494Y481111D01*
X655105D01*
X655438Y481166D01*
X655827Y481222D01*
X656660Y481333D01*
X657716Y481499D01*
X658771Y481777D01*
X659882Y482166D01*
X660993Y482666D01*
X661049D01*
X661104Y482722D01*
X661438Y482944D01*
X661937Y483333D01*
X662604Y483833D01*
X663271Y484444D01*
X663937Y485221D01*
X664604Y486055D01*
X665159Y487054D01*
X665215Y487166D01*
X665326Y487443D01*
X665493Y487943D01*
X665659Y488610D01*
X665826Y489499D01*
X665993Y490610D01*
X666104Y491887D01*
X666159Y493332D01*
X666215Y495665D01*
D02*
G37*
G36*
X1261375Y509774D02*
X1260987D01*
X1260653Y509719D01*
X1260320Y509663D01*
X1259876Y509608D01*
X1258931Y509330D01*
X1257820Y508941D01*
X1257209Y508663D01*
X1256598Y508330D01*
X1256043Y507941D01*
X1255432Y507441D01*
X1254876Y506941D01*
X1254321Y506330D01*
X1254265Y506275D01*
X1254210Y506164D01*
X1254043Y505942D01*
X1253876Y505664D01*
X1253654Y505330D01*
X1253432Y504831D01*
X1253210Y504330D01*
X1252932Y503664D01*
X1252654Y502997D01*
X1252432Y502164D01*
X1252210Y501275D01*
X1251988Y500331D01*
X1251821Y499220D01*
X1251654Y498109D01*
X1251599Y496831D01*
X1251543Y495498D01*
Y495443D01*
Y495165D01*
Y494832D01*
X1251599Y494332D01*
X1251654Y493721D01*
X1251710Y493054D01*
X1251821Y492332D01*
X1251932Y491498D01*
X1252265Y489776D01*
X1252821Y487999D01*
X1253154Y487166D01*
X1253543Y486332D01*
X1254043Y485555D01*
X1254543Y484832D01*
X1254598Y484777D01*
X1254654Y484666D01*
X1254876Y484499D01*
X1255098Y484277D01*
X1255376Y483999D01*
X1255709Y483722D01*
X1256543Y483111D01*
X1257598Y482444D01*
X1258820Y481888D01*
X1259487Y481666D01*
X1260153Y481499D01*
X1260875Y481388D01*
X1261653Y481333D01*
X1262042D01*
X1262375Y481388D01*
X1262709Y481444D01*
X1263153Y481499D01*
X1264097Y481777D01*
X1265208Y482166D01*
X1265819Y482444D01*
X1266375Y482722D01*
X1266986Y483111D01*
X1267597Y483555D01*
X1268152Y484055D01*
X1268708Y484666D01*
X1268764Y484721D01*
X1268819Y484832D01*
X1268986Y484999D01*
X1269152Y485332D01*
X1269375Y485666D01*
X1269652Y486110D01*
X1269930Y486610D01*
X1270208Y487221D01*
X1270430Y487888D01*
X1270708Y488666D01*
X1270985Y489554D01*
X1271208Y490443D01*
X1271374Y491443D01*
X1271541Y492554D01*
X1271597Y493721D01*
X1271652Y494998D01*
Y495109D01*
Y495331D01*
Y495720D01*
X1271597Y496220D01*
X1271541Y496887D01*
X1271486Y497609D01*
X1271430Y498387D01*
X1271263Y499276D01*
X1270930Y501053D01*
X1270375Y502942D01*
X1270041Y503831D01*
X1269652Y504664D01*
X1269208Y505442D01*
X1268652Y506164D01*
X1268597Y506219D01*
X1268541Y506330D01*
X1268375Y506497D01*
X1268152Y506719D01*
X1267819Y506997D01*
X1267486Y507330D01*
X1266653Y507997D01*
X1265597Y508608D01*
X1264320Y509219D01*
X1263653Y509441D01*
X1262931Y509608D01*
X1262153Y509719D01*
X1261375Y509774D01*
D02*
G37*
G36*
X861195Y495665D02*
X861139D01*
X861028Y495609D01*
X860806Y495554D01*
X860528Y495443D01*
X860195Y495276D01*
X859750Y495165D01*
X859195Y494998D01*
X858639Y494832D01*
X857917Y494665D01*
X857140Y494443D01*
X856306Y494276D01*
X855362Y494054D01*
X854362Y493832D01*
X853307Y493665D01*
X852140Y493443D01*
X850862Y493276D01*
X850696D01*
X850473Y493221D01*
X850251Y493165D01*
X849529Y493054D01*
X848696Y492887D01*
X847807Y492721D01*
X846918Y492498D01*
X846085Y492276D01*
X845363Y491998D01*
X845307Y491943D01*
X845085Y491887D01*
X844808Y491721D01*
X844474Y491498D01*
X844030Y491165D01*
X843641Y490832D01*
X843252Y490443D01*
X842863Y489943D01*
X842808Y489888D01*
X842752Y489721D01*
X842586Y489443D01*
X842474Y489054D01*
X842308Y488610D01*
X842141Y488110D01*
X842085Y487555D01*
X842030Y486943D01*
Y486832D01*
X842085Y486555D01*
X842141Y486055D01*
X842252Y485499D01*
X842474Y484832D01*
X842808Y484110D01*
X843308Y483444D01*
X843919Y482777D01*
X844030Y482722D01*
X844252Y482499D01*
X844696Y482277D01*
X845307Y481944D01*
X846085Y481666D01*
X847085Y481388D01*
X848196Y481166D01*
X849474Y481111D01*
X850085D01*
X850418Y481166D01*
X850807Y481222D01*
X851640Y481333D01*
X852695Y481499D01*
X853751Y481777D01*
X854862Y482166D01*
X855973Y482666D01*
X856029D01*
X856084Y482722D01*
X856417Y482944D01*
X856917Y483333D01*
X857584Y483833D01*
X858251Y484444D01*
X858917Y485221D01*
X859584Y486055D01*
X860139Y487054D01*
X860195Y487166D01*
X860306Y487443D01*
X860472Y487943D01*
X860639Y488610D01*
X860806Y489499D01*
X860972Y490610D01*
X861084Y491887D01*
X861139Y493332D01*
X861195Y495665D01*
D02*
G37*
%LPD*%
D19*
X709658Y396987D02*
X683000D01*
Y357000D01*
X709658D01*
X683000Y376993D02*
X696329D01*
X722987Y357000D02*
Y363665D01*
X729652D01*
Y357000D01*
X722987D01*
X796297D02*
Y396987D01*
X809626Y383658D01*
X822955Y396987D01*
Y357000D01*
X856277D02*
X842948D01*
X836284Y363665D01*
Y376993D01*
X842948Y383658D01*
X856277D01*
X862942Y376993D01*
Y370329D01*
X836284D01*
X876271Y383658D02*
Y357000D01*
Y370329D01*
X882935Y376993D01*
X889600Y383658D01*
X896264D01*
X922922D02*
X936251D01*
X942916Y376993D01*
Y357000D01*
X922922D01*
X916258Y363665D01*
X922922Y370329D01*
X942916D01*
X956245Y396987D02*
Y357000D01*
X976238D01*
X982903Y363665D01*
Y370329D01*
Y376993D01*
X976238Y383658D01*
X956245D01*
X1016226Y357000D02*
X1002896D01*
X996232Y363665D01*
Y376993D01*
X1002896Y383658D01*
X1016226D01*
X1022890Y376993D01*
Y370329D01*
X996232D01*
X1042884Y390323D02*
Y383658D01*
X1036219D01*
X1049548D01*
X1042884D01*
Y363665D01*
X1049548Y357000D01*
X687000Y293000D02*
Y319658D01*
X700329Y332987D01*
X713658Y319658D01*
Y293000D01*
Y312994D01*
X687000D01*
X726987Y293000D02*
Y299664D01*
X733652D01*
Y293000D01*
X726987D01*
X826955Y326323D02*
X820290Y332987D01*
X806961D01*
X800297Y326323D01*
Y299664D01*
X806961Y293000D01*
X820290D01*
X826955Y299664D01*
X846948Y319658D02*
X860277D01*
X866942Y312994D01*
Y293000D01*
X846948D01*
X840284Y299664D01*
X846948Y306329D01*
X866942D01*
X880271Y293000D02*
X893600D01*
X886935D01*
Y332987D01*
X880271D01*
X913593Y293000D02*
X926922D01*
X920258D01*
Y332987D01*
X913593D01*
X966909Y293000D02*
X953580D01*
X946916Y299664D01*
Y312994D01*
X953580Y319658D01*
X966909D01*
X973574Y312994D01*
Y306329D01*
X946916D01*
X986903Y279671D02*
X993568D01*
X1000232Y286336D01*
Y319658D01*
X1033555D02*
X1046884D01*
X1053548Y312994D01*
Y293000D01*
X1033555D01*
X1026890Y299664D01*
X1033555Y306329D01*
X1053548D01*
X690000Y267987D02*
Y228000D01*
X716658D01*
X729987D02*
Y234664D01*
X736652D01*
Y228000D01*
X729987D01*
X829955Y267987D02*
X803297D01*
Y247994D01*
X816626D01*
X803297D01*
Y228000D01*
X843284Y254658D02*
Y234664D01*
X849948Y228000D01*
X869942D01*
Y254658D01*
X883271Y214671D02*
X889935D01*
X896600Y221336D01*
Y254658D01*
X923258Y228000D02*
X936587D01*
X929922D01*
Y254658D01*
X923258D01*
X956581Y228000D02*
Y254658D01*
X963245D01*
X969910Y247994D01*
Y228000D01*
Y247994D01*
X976574Y254658D01*
X983239Y247994D01*
Y228000D01*
X1003232D02*
X1016561D01*
X1023226Y234664D01*
Y247994D01*
X1016561Y254658D01*
X1003232D01*
X996568Y247994D01*
Y234664D01*
X1003232Y228000D01*
X1043219Y261323D02*
Y254658D01*
X1036555D01*
X1049884D01*
X1043219D01*
Y234664D01*
X1049884Y228000D01*
X1076542D02*
X1089871D01*
X1096535Y234664D01*
Y247994D01*
X1089871Y254658D01*
X1076542D01*
X1069877Y247994D01*
Y234664D01*
X1076542Y228000D01*
X719658Y198987D02*
X706329D01*
X712993D01*
Y165665D01*
X706329Y159000D01*
X699665D01*
X693000Y165665D01*
X732987Y159000D02*
Y165665D01*
X739652D01*
Y159000D01*
X732987D01*
X806297D02*
Y198987D01*
X819626Y185658D01*
X832955Y198987D01*
Y159000D01*
X846284Y185658D02*
Y165665D01*
X852948Y159000D01*
X872942D01*
Y185658D01*
X886271D02*
Y159000D01*
Y172329D01*
X892935Y178993D01*
X899600Y185658D01*
X906264D01*
X932922Y192323D02*
Y185658D01*
X926258D01*
X939587D01*
X932922D01*
Y165665D01*
X939587Y159000D01*
X979574D02*
X966245D01*
X959581Y165665D01*
Y178993D01*
X966245Y185658D01*
X979574D01*
X986238Y178993D01*
Y172329D01*
X959581D01*
D36*
X861000Y1039000D02*
D03*
Y1020000D02*
D03*
X669000Y1295000D02*
D03*
Y1314000D02*
D03*
X1088000Y1331000D02*
D03*
Y1312000D02*
D03*
X642000Y729000D02*
D03*
Y710000D02*
D03*
X756000Y729000D02*
D03*
Y710000D02*
D03*
X741000Y729000D02*
D03*
Y710000D02*
D03*
X726000Y729000D02*
D03*
Y710000D02*
D03*
X711000Y729000D02*
D03*
Y710000D02*
D03*
X695000Y729000D02*
D03*
Y710000D02*
D03*
X680000Y729000D02*
D03*
Y710000D02*
D03*
X617000D02*
D03*
Y729000D02*
D03*
X600000Y710000D02*
D03*
Y729000D02*
D03*
X287000Y1267000D02*
D03*
Y1286000D02*
D03*
X219000Y1259000D02*
D03*
Y1278000D02*
D03*
X592000Y1297000D02*
D03*
Y1278000D02*
D03*
X677000Y1113000D02*
D03*
Y1132000D02*
D03*
D37*
X1068000Y1268000D02*
D03*
X1049000D02*
D03*
X1131000D02*
D03*
X1112000D02*
D03*
X784000Y1244000D02*
D03*
X765000D02*
D03*
X784000Y1221000D02*
D03*
X765000D02*
D03*
X519000Y1284000D02*
D03*
X500000D02*
D03*
X518000Y1096000D02*
D03*
X499000D02*
D03*
D38*
X709000Y1155000D02*
D03*
X701000D02*
D03*
X653000Y1154870D02*
D03*
X693000Y1155000D02*
D03*
X661000D02*
D03*
X669000D02*
D03*
X677000D02*
D03*
X685000D02*
D03*
X645000D02*
D03*
X637000D02*
D03*
X629000D02*
D03*
X709000Y1269000D02*
D03*
X701000D02*
D03*
X653000D02*
D03*
X693000D02*
D03*
X661000D02*
D03*
X669000D02*
D03*
X677000D02*
D03*
X685000D02*
D03*
X645000D02*
D03*
X637000D02*
D03*
X629000D02*
D03*
D39*
X726000Y1172000D02*
D03*
Y1180000D02*
D03*
Y1188000D02*
D03*
Y1228000D02*
D03*
Y1220000D02*
D03*
Y1212000D02*
D03*
Y1204000D02*
D03*
Y1236000D02*
D03*
Y1196000D02*
D03*
Y1244000D02*
D03*
Y1252000D02*
D03*
X612000D02*
D03*
Y1244000D02*
D03*
Y1196000D02*
D03*
Y1236000D02*
D03*
Y1204000D02*
D03*
Y1212000D02*
D03*
Y1220000D02*
D03*
Y1228000D02*
D03*
Y1188000D02*
D03*
Y1180000D02*
D03*
Y1172000D02*
D03*
D40*
X519000Y1145000D02*
D03*
Y1240000D02*
D03*
D41*
X790000Y1055800D02*
D03*
X802700D02*
D03*
X815400D02*
D03*
X828100D02*
D03*
X790000Y1003285D02*
D03*
X802700Y1003280D02*
D03*
X828100D02*
D03*
D42*
X815400D02*
D03*
D43*
X218000Y1366000D02*
D03*
Y1320300D02*
D03*
D44*
X284650Y1343150D02*
D03*
D45*
X1184000Y1268000D02*
D03*
Y1242600D02*
D03*
Y1217200D02*
D03*
Y1191800D02*
D03*
Y1166400D02*
D03*
Y1141000D02*
D03*
D46*
X756200Y750000D02*
D03*
X730800D02*
D03*
X743500D02*
D03*
X718100D02*
D03*
X705400D02*
D03*
X692700D02*
D03*
X680000D02*
D03*
X667300D02*
D03*
X654600D02*
D03*
X641900D02*
D03*
X629200D02*
D03*
X616500D02*
D03*
X603800D02*
D03*
D47*
X586500Y45000D02*
D03*
X688100D02*
D03*
X662700D02*
D03*
X561100D02*
D03*
X611900D02*
D03*
X637300D02*
D03*
X713500D02*
D03*
X738900D02*
D03*
X1178750Y953500D02*
D03*
X1204150D02*
D03*
X1178750Y978900D02*
D03*
X1204150D02*
D03*
Y1004300D02*
D03*
X1178750D02*
D03*
X1204150Y1029700D02*
D03*
X1178750D02*
D03*
X1204150Y928100D02*
D03*
X1178750D02*
D03*
D48*
X97700Y616300D02*
D03*
X72300D02*
D03*
Y590900D02*
D03*
X97700D02*
D03*
X72300Y565500D02*
D03*
X97700D02*
D03*
X72300Y540100D02*
D03*
X97700D02*
D03*
X72300Y514700D02*
D03*
X97700D02*
D03*
X72300Y489300D02*
D03*
X97700D02*
D03*
X72300Y463900D02*
D03*
X97700D02*
D03*
X72300Y438500D02*
D03*
X97700D02*
D03*
X72300Y413100D02*
D03*
X97700D02*
D03*
Y387700D02*
D03*
X72300D02*
D03*
X97700Y362300D02*
D03*
X72300D02*
D03*
X97700Y336900D02*
D03*
X72300D02*
D03*
X97700Y311500D02*
D03*
X72300D02*
D03*
X97700Y286100D02*
D03*
X72300D02*
D03*
X97700Y260700D02*
D03*
X72300D02*
D03*
X97700Y235300D02*
D03*
X72300D02*
D03*
X97700Y209900D02*
D03*
X72300D02*
D03*
X97700Y184500D02*
D03*
X72300D02*
D03*
X97700Y159100D02*
D03*
X72300D02*
D03*
X97700Y133700D02*
D03*
X72300D02*
D03*
X227000Y1013600D02*
D03*
Y1039000D02*
D03*
D49*
X108000Y1366000D02*
D03*
X128000Y1315000D02*
D03*
D50*
X748000Y688000D02*
D03*
X707000D02*
D03*
X690000D02*
D03*
X672000D02*
D03*
X655000D02*
D03*
X551000Y898000D02*
D03*
X663000Y1123000D02*
D03*
X738000Y1114000D02*
D03*
X710000Y1137000D02*
D03*
X620000Y1286000D02*
D03*
X652000Y1290000D02*
D03*
X635000Y1298000D02*
D03*
X626000Y952000D02*
D03*
X727000Y688000D02*
D03*
X782500Y1205000D02*
D03*
X626000Y688000D02*
D03*
X520000Y814000D02*
D03*
X527999Y830998D02*
D03*
X536999Y848998D02*
D03*
X543999Y864998D02*
D03*
X567000Y1270000D02*
D03*
X566000Y907000D02*
D03*
X593999Y1087998D02*
D03*
X578000Y919000D02*
D03*
X428000Y963000D02*
D03*
X410000Y979000D02*
D03*
X179000Y1235000D02*
D03*
X469000Y1001000D02*
D03*
X460000Y1026000D02*
D03*
X584000Y1053000D02*
D03*
X1037000Y1331000D02*
D03*
X707000Y1230000D02*
D03*
X393000Y1193000D02*
D03*
X702000Y1175000D02*
D03*
X646000Y1054000D02*
D03*
X645000Y1137000D02*
D03*
X612000Y1267000D02*
D03*
X571000Y1253000D02*
D03*
X578150Y1236850D02*
D03*
X592000Y1227000D02*
D03*
X256000Y1236000D02*
D03*
X638000Y1338000D02*
D03*
X1040000Y1258000D02*
D03*
X723000Y1076000D02*
D03*
X701000Y1194000D02*
D03*
X749998Y1126998D02*
D03*
X737000Y1155000D02*
D03*
X750000Y1199000D02*
D03*
X752000Y1182000D02*
D03*
X825000Y1198000D02*
D03*
X693000Y1217000D02*
D03*
X643000Y1182000D02*
D03*
X739000Y1282000D02*
D03*
X637000Y1197000D02*
D03*
X634000Y1220000D02*
D03*
X1078000Y1189000D02*
D03*
X554000Y878000D02*
D03*
D51*
X460000Y1111000D02*
D03*
Y1163000D02*
D03*
Y1128000D02*
D03*
Y1146000D02*
D03*
Y1193000D02*
D03*
X486000Y1069000D02*
D03*
X472000Y1080000D02*
D03*
X502000Y1068000D02*
D03*
X460000Y1223000D02*
D03*
Y1237000D02*
D03*
Y1250000D02*
D03*
Y1264000D02*
D03*
X483000Y1304000D02*
D03*
X539000Y1306000D02*
D03*
X471000Y1297000D02*
D03*
X460000Y1210000D02*
D03*
Y1177000D02*
D03*
X461000Y1090000D02*
D03*
X462000Y1288000D02*
D03*
X460000Y1276000D02*
D03*
X525000Y1305000D02*
D03*
X512500Y1305000D02*
D03*
X497000Y1305000D02*
D03*
M02*
