%FSLAX44Y44*%
%MOMM*%
G71*
G01*
G75*
G04 Layer_Physical_Order=2*
G04 Layer_Color=16711680*
%ADD10R,1.0000X1.0000*%
%ADD11R,1.0000X1.0000*%
%ADD12R,0.5500X1.5000*%
%ADD13R,1.5000X0.5500*%
%ADD14R,2.0000X5.5000*%
%ADD15R,0.7600X1.7800*%
%ADD16R,0.7200X1.7800*%
%ADD17R,4.3000X2.6000*%
%ADD18R,5.7000X5.5000*%
%ADD19C,0.5000*%
%ADD20C,0.3000*%
%ADD21C,2.0000*%
%ADD22C,0.9000*%
%ADD23C,1.4000*%
%ADD24C,0.5400*%
%ADD25C,0.2540*%
%ADD26C,1.0000*%
%ADD27C,0.4000*%
%ADD28C,1.8000*%
%ADD29C,0.9000*%
%ADD30C,1.3000*%
%ADD31C,1.7000*%
%ADD32C,3.0000*%
%ADD33C,1.2700*%
%ADD34C,1.0000*%
%ADD35R,1.0000X1.4000*%
G36*
X1300000Y2000D02*
X1300000Y0D01*
X0D01*
Y1400000D01*
X0Y1400000D01*
X1258814D01*
X1259643Y1398000D01*
X1256000Y1394357D01*
X1254000Y1395186D01*
Y1396000D01*
X1240000D01*
Y1382000D01*
X1254000D01*
Y1385212D01*
X1256000D01*
X1256000Y1385212D01*
X1258679Y1386321D01*
X1259152Y1386795D01*
X1261000Y1386029D01*
Y1379758D01*
X1256031Y1374788D01*
X1254000D01*
Y1378000D01*
X1240000D01*
Y1364000D01*
X1254000D01*
Y1367212D01*
X1257600D01*
X1257600Y1367212D01*
X1260279Y1368321D01*
X1264358Y1372400D01*
X1275000D01*
Y1372400D01*
X1276000D01*
Y1372400D01*
X1290000D01*
Y1390400D01*
X1286208D01*
X1286004Y1390894D01*
X1285679Y1391679D01*
X1285679Y1391679D01*
X1279358Y1398000D01*
X1280186Y1400000D01*
X1300000D01*
Y2000D01*
D02*
G37*
%LPC*%
G36*
X97700Y602265D02*
X89664Y598936D01*
X86335Y590900D01*
X89664Y582864D01*
X97700Y579535D01*
X105736Y582864D01*
X109065Y590900D01*
X105736Y598936D01*
X97700Y602265D01*
D02*
G37*
G36*
X72300Y627665D02*
X64264Y624336D01*
X60935Y616300D01*
X64264Y608264D01*
X72300Y604935D01*
X80336Y608264D01*
X83665Y616300D01*
X80336Y624336D01*
X72300Y627665D01*
D02*
G37*
G36*
Y602265D02*
X64264Y598936D01*
X60935Y590900D01*
X64264Y582864D01*
X72300Y579535D01*
X80336Y582864D01*
X83665Y590900D01*
X80336Y598936D01*
X72300Y602265D01*
D02*
G37*
G36*
X71030Y576923D02*
X63850Y573950D01*
X60876Y566770D01*
X71030D01*
Y576923D01*
D02*
G37*
G36*
X73570D02*
Y566770D01*
X83723D01*
X80750Y573950D01*
X73570Y576923D01*
D02*
G37*
G36*
X97700Y627665D02*
X89664Y624336D01*
X86335Y616300D01*
X89664Y608264D01*
X97700Y604935D01*
X105736Y608264D01*
X109065Y616300D01*
X105736Y624336D01*
X97700Y627665D01*
D02*
G37*
G36*
X736105Y686730D02*
X728270D01*
Y678904D01*
X733804Y681196D01*
X735981Y686451D01*
D01*
X736020Y686544D01*
X736105Y686730D01*
D02*
G37*
G36*
X746730D02*
X738895D01*
X738980Y686544D01*
X739019Y686451D01*
Y686451D01*
X741196Y681196D01*
X746730Y678904D01*
Y686730D01*
D02*
G37*
G36*
X653730D02*
X645904D01*
X648196Y681196D01*
X653730Y678904D01*
Y686730D01*
D02*
G37*
G36*
X624730D02*
X616904D01*
X619196Y681196D01*
X624730Y678904D01*
Y686730D01*
D02*
G37*
G36*
X635096D02*
X627270D01*
Y678904D01*
X632804Y681196D01*
X635096Y686730D01*
D02*
G37*
G36*
X97700Y576865D02*
X89664Y573536D01*
X86335Y565500D01*
X89664Y557464D01*
X97700Y554135D01*
X105736Y557464D01*
X109065Y565500D01*
X105736Y573536D01*
X97700Y576865D01*
D02*
G37*
G36*
X72300Y500665D02*
X64264Y497336D01*
X60935Y489300D01*
X64264Y481264D01*
X72300Y477935D01*
X80336Y481264D01*
X83665Y489300D01*
X80336Y497336D01*
X72300Y500665D01*
D02*
G37*
G36*
X97700D02*
X89664Y497336D01*
X86335Y489300D01*
X89664Y481264D01*
X97700Y477935D01*
X105736Y481264D01*
X109065Y489300D01*
X105736Y497336D01*
X97700Y500665D01*
D02*
G37*
G36*
X73570Y475323D02*
Y465170D01*
X83723D01*
X80750Y472350D01*
X73570Y475323D01*
D02*
G37*
G36*
X97700Y475265D02*
X89664Y471936D01*
X86335Y463900D01*
X89664Y455864D01*
X97700Y452535D01*
X105736Y455864D01*
X109065Y463900D01*
X105736Y471936D01*
X97700Y475265D01*
D02*
G37*
G36*
X71030Y475323D02*
X63850Y472350D01*
X60876Y465170D01*
X71030D01*
Y475323D01*
D02*
G37*
G36*
X72300Y526065D02*
X64264Y522736D01*
X60935Y514700D01*
X64264Y506664D01*
X72300Y503335D01*
X80336Y506664D01*
X83665Y514700D01*
X80336Y522736D01*
X72300Y526065D01*
D02*
G37*
G36*
X71030Y564230D02*
X60876D01*
X63850Y557050D01*
X71030Y554076D01*
Y564230D01*
D02*
G37*
G36*
X83723D02*
X73570D01*
Y554076D01*
X80750Y557050D01*
X83723Y564230D01*
D02*
G37*
G36*
X97700Y551465D02*
X89664Y548136D01*
X86335Y540100D01*
X89664Y532064D01*
X97700Y528735D01*
X105736Y532064D01*
X109065Y540100D01*
X105736Y548136D01*
X97700Y551465D01*
D02*
G37*
G36*
Y526065D02*
X89664Y522736D01*
X86335Y514700D01*
X89664Y506664D01*
X97700Y503335D01*
X105736Y506664D01*
X109065Y514700D01*
X105736Y522736D01*
X97700Y526065D01*
D02*
G37*
G36*
X72300Y551465D02*
X64264Y548136D01*
X60935Y540100D01*
X64264Y532064D01*
X72300Y528735D01*
X80336Y532064D01*
X83665Y540100D01*
X80336Y548136D01*
X72300Y551465D01*
D02*
G37*
G36*
X757096Y686730D02*
X749270D01*
Y678904D01*
X754804Y681196D01*
X757096Y686730D01*
D02*
G37*
G36*
X1204150Y962700D02*
X1197644Y960006D01*
X1194950Y953500D01*
X1197644Y946994D01*
X1204150Y944300D01*
X1210656Y946994D01*
X1213350Y953500D01*
X1210656Y960006D01*
X1204150Y962700D01*
D02*
G37*
G36*
X1178750Y988100D02*
X1172244Y985406D01*
X1169550Y978900D01*
X1172244Y972394D01*
X1178750Y969700D01*
X1185256Y972394D01*
X1187950Y978900D01*
X1185256Y985406D01*
X1178750Y988100D01*
D02*
G37*
G36*
Y962700D02*
X1172244Y960006D01*
X1169550Y953500D01*
X1172244Y946994D01*
X1178750Y944300D01*
X1185256Y946994D01*
X1187950Y953500D01*
X1185256Y960006D01*
X1178750Y962700D01*
D02*
G37*
G36*
Y937300D02*
X1172244Y934606D01*
X1169550Y928100D01*
X1172244Y921594D01*
X1178750Y918900D01*
X1185256Y921594D01*
X1187950Y928100D01*
X1185256Y934606D01*
X1178750Y937300D01*
D02*
G37*
G36*
X1204150D02*
X1197644Y934606D01*
X1194950Y928100D01*
X1197644Y921594D01*
X1204150Y918900D01*
X1210656Y921594D01*
X1213350Y928100D01*
X1210656Y934606D01*
X1204150Y937300D01*
D02*
G37*
G36*
Y988100D02*
X1197644Y985406D01*
X1194950Y978900D01*
X1197644Y972394D01*
X1204150Y969700D01*
X1210656Y972394D01*
X1213350Y978900D01*
X1210656Y985406D01*
X1204150Y988100D01*
D02*
G37*
G36*
X225730Y1012330D02*
X215576D01*
X218550Y1005150D01*
X225730Y1002177D01*
Y1012330D01*
D02*
G37*
G36*
X238424D02*
X228270D01*
Y1002177D01*
X235450Y1005150D01*
X238424Y1012330D01*
D02*
G37*
G36*
X1204150Y1013500D02*
X1197644Y1010806D01*
X1194950Y1004300D01*
X1197644Y997794D01*
X1204150Y995100D01*
X1210656Y997794D01*
X1213350Y1004300D01*
X1210656Y1010806D01*
X1204150Y1013500D01*
D02*
G37*
G36*
X469000Y1010038D02*
X462609Y1007391D01*
X459962Y1001000D01*
X461040Y998398D01*
X432724Y970081D01*
X428000Y972038D01*
X421609Y969391D01*
X418962Y963000D01*
X421609Y956609D01*
X428000Y953962D01*
X434391Y956609D01*
X437038Y963000D01*
X436839Y963481D01*
X466398Y993040D01*
X469000Y991962D01*
X475391Y994609D01*
X478038Y1001000D01*
X475391Y1007391D01*
X469000Y1010038D01*
D02*
G37*
G36*
X1178750Y1013500D02*
X1172244Y1010806D01*
X1169550Y1004300D01*
X1172244Y997794D01*
X1178750Y995100D01*
X1185256Y997794D01*
X1187950Y1004300D01*
X1185256Y1010806D01*
X1178750Y1013500D01*
D02*
G37*
G36*
X653330Y757094D02*
X649212Y755388D01*
X648958Y754775D01*
X646958D01*
X646875Y754975D01*
X641900Y757036D01*
X636925Y754975D01*
X636842Y754775D01*
X634842D01*
X634588Y755388D01*
X630470Y757094D01*
Y750000D01*
Y742906D01*
X634588Y744612D01*
X634842Y745225D01*
X636842D01*
X636925Y745025D01*
X641900Y742964D01*
X646875Y745025D01*
X646958Y745225D01*
X648958D01*
X649212Y744612D01*
X653330Y742906D01*
Y750000D01*
Y757094D01*
D02*
G37*
G36*
X653730Y697096D02*
X648196Y694804D01*
X645904Y689270D01*
X653730D01*
Y697096D01*
D02*
G37*
G36*
X728270D02*
Y689270D01*
X736105D01*
X736020Y689456D01*
X735981Y689549D01*
Y689549D01*
X733804Y694804D01*
X728270Y697096D01*
D02*
G37*
G36*
X627270D02*
Y689270D01*
X635096D01*
X632804Y694804D01*
X627270Y697096D01*
D02*
G37*
G36*
X737471Y688224D02*
Y687776D01*
X737529D01*
Y688224D01*
X737471D01*
D02*
G37*
G36*
X624730Y697096D02*
X619196Y694804D01*
X616904Y689270D01*
X624730D01*
Y697096D01*
D02*
G37*
G36*
X746730D02*
X741196Y694804D01*
X739019Y689549D01*
D01*
X738980Y689456D01*
X738895Y689270D01*
X746730D01*
Y697096D01*
D02*
G37*
G36*
X705730D02*
X700196Y694804D01*
X699500Y693124D01*
X697500D01*
X696804Y694804D01*
X691270Y697096D01*
Y688000D01*
Y678904D01*
X696804Y681196D01*
X697500Y682876D01*
X699500D01*
X700196Y681196D01*
X705730Y678904D01*
Y688000D01*
Y697096D01*
D02*
G37*
G36*
X670730D02*
X665196Y694804D01*
X664500Y693124D01*
X662500D01*
X661804Y694804D01*
X656270Y697096D01*
Y688000D01*
Y678904D01*
X661804Y681196D01*
X662500Y682876D01*
X664500D01*
X665196Y681196D01*
X670730Y678904D01*
Y688000D01*
Y697096D01*
D02*
G37*
G36*
X688730D02*
X683196Y694804D01*
X682000Y691917D01*
X680000D01*
X678804Y694804D01*
X673270Y697096D01*
Y688000D01*
Y678904D01*
X678804Y681196D01*
X680000Y684083D01*
X682000D01*
X683196Y681196D01*
X688730Y678904D01*
Y688000D01*
Y697096D01*
D02*
G37*
G36*
X749270D02*
Y689270D01*
X757096D01*
X754804Y694804D01*
X749270Y697096D01*
D02*
G37*
G36*
X725730D02*
X720196Y694804D01*
X718082Y689702D01*
X715918D01*
X713804Y694804D01*
X708270Y697096D01*
Y688000D01*
Y678904D01*
X713804Y681196D01*
X715918Y686298D01*
X718082D01*
X720196Y681196D01*
X725730Y678904D01*
Y688000D01*
Y697096D01*
D02*
G37*
G36*
X83723Y462630D02*
X73570D01*
Y452477D01*
X80750Y455450D01*
X83723Y462630D01*
D02*
G37*
G36*
X72300Y195865D02*
X64264Y192536D01*
X60935Y184500D01*
X64264Y176464D01*
X72300Y173135D01*
X80336Y176464D01*
X83665Y184500D01*
X80336Y192536D01*
X72300Y195865D01*
D02*
G37*
G36*
X97700D02*
X89664Y192536D01*
X86335Y184500D01*
X89664Y176464D01*
X97700Y173135D01*
X105736Y176464D01*
X109065Y184500D01*
X105736Y192536D01*
X97700Y195865D01*
D02*
G37*
G36*
Y170465D02*
X89664Y167136D01*
X86335Y159100D01*
X89664Y151064D01*
X97700Y147735D01*
X105736Y151064D01*
X109065Y159100D01*
X105736Y167136D01*
X97700Y170465D01*
D02*
G37*
G36*
X98970Y145124D02*
Y134970D01*
X109123D01*
X106150Y142150D01*
X98970Y145124D01*
D02*
G37*
G36*
X72300Y170465D02*
X64264Y167136D01*
X60935Y159100D01*
X64264Y151064D01*
X72300Y147735D01*
X80336Y151064D01*
X83665Y159100D01*
X80336Y167136D01*
X72300Y170465D01*
D02*
G37*
G36*
X71030Y208630D02*
X60876D01*
X63850Y201450D01*
X71030Y198477D01*
Y208630D01*
D02*
G37*
G36*
X73570Y221324D02*
Y211170D01*
X83723D01*
X80750Y218350D01*
X73570Y221324D01*
D02*
G37*
G36*
X72300Y246665D02*
X64264Y243336D01*
X60935Y235300D01*
X64264Y227264D01*
X72300Y223935D01*
X80336Y227264D01*
X83665Y235300D01*
X80336Y243336D01*
X72300Y246665D01*
D02*
G37*
G36*
X71030Y221324D02*
X63850Y218350D01*
X60876Y211170D01*
X71030D01*
Y221324D01*
D02*
G37*
G36*
X83723Y208630D02*
X73570D01*
Y198477D01*
X80750Y201450D01*
X83723Y208630D01*
D02*
G37*
G36*
X97700Y221265D02*
X89664Y217936D01*
X86335Y209900D01*
X89664Y201864D01*
X97700Y198535D01*
X105736Y201864D01*
X109065Y209900D01*
X105736Y217936D01*
X97700Y221265D01*
D02*
G37*
G36*
X96430Y145124D02*
X89250Y142150D01*
X86277Y134970D01*
X96430D01*
Y145124D01*
D02*
G37*
G36*
X637300Y54200D02*
X630794Y51506D01*
X628100Y45000D01*
X630794Y38494D01*
X637300Y35800D01*
X643806Y38494D01*
X646500Y45000D01*
X643806Y51506D01*
X637300Y54200D01*
D02*
G37*
G36*
X662700D02*
X656194Y51506D01*
X653500Y45000D01*
X656194Y38494D01*
X662700Y35800D01*
X669206Y38494D01*
X671900Y45000D01*
X669206Y51506D01*
X662700Y54200D01*
D02*
G37*
G36*
X611900D02*
X605394Y51506D01*
X602700Y45000D01*
X605394Y38494D01*
X611900Y35800D01*
X618406Y38494D01*
X621100Y45000D01*
X618406Y51506D01*
X611900Y54200D01*
D02*
G37*
G36*
X561100D02*
X554594Y51506D01*
X551900Y45000D01*
X554594Y38494D01*
X561100Y35800D01*
X567606Y38494D01*
X570300Y45000D01*
X567606Y51506D01*
X561100Y54200D01*
D02*
G37*
G36*
X586500D02*
X579994Y51506D01*
X577300Y45000D01*
X579994Y38494D01*
X586500Y35800D01*
X593006Y38494D01*
X595700Y45000D01*
X593006Y51506D01*
X586500Y54200D01*
D02*
G37*
G36*
X688100D02*
X681594Y51506D01*
X678900Y45000D01*
X681594Y38494D01*
X688100Y35800D01*
X694606Y38494D01*
X697300Y45000D01*
X694606Y51506D01*
X688100Y54200D01*
D02*
G37*
G36*
X109123Y132430D02*
X98970D01*
Y122276D01*
X106150Y125250D01*
X109123Y132430D01*
D02*
G37*
G36*
X72300Y145065D02*
X64264Y141736D01*
X60935Y133700D01*
X64264Y125664D01*
X72300Y122335D01*
X80336Y125664D01*
X83665Y133700D01*
X80336Y141736D01*
X72300Y145065D01*
D02*
G37*
G36*
X96430Y132430D02*
X86277D01*
X89250Y125250D01*
X96430Y122276D01*
Y132430D01*
D02*
G37*
G36*
X713500Y54200D02*
X706994Y51506D01*
X704300Y45000D01*
X706994Y38494D01*
X713500Y35800D01*
X720006Y38494D01*
X722700Y45000D01*
X720006Y51506D01*
X713500Y54200D01*
D02*
G37*
G36*
X738900D02*
X732394Y51506D01*
X729700Y45000D01*
X732394Y38494D01*
X738900Y35800D01*
X745406Y38494D01*
X748100Y45000D01*
X745406Y51506D01*
X738900Y54200D01*
D02*
G37*
G36*
X97700Y246665D02*
X89664Y243336D01*
X86335Y235300D01*
X89664Y227264D01*
X97700Y223935D01*
X105736Y227264D01*
X109065Y235300D01*
X105736Y243336D01*
X97700Y246665D01*
D02*
G37*
G36*
Y399065D02*
X89664Y395736D01*
X86335Y387700D01*
X89664Y379664D01*
X97700Y376335D01*
X105736Y379664D01*
X109065Y387700D01*
X105736Y395736D01*
X97700Y399065D01*
D02*
G37*
G36*
X71030Y399123D02*
X63850Y396150D01*
X60876Y388970D01*
X71030D01*
Y399123D01*
D02*
G37*
G36*
X83723Y386430D02*
X73570D01*
Y376277D01*
X80750Y379250D01*
X83723Y386430D01*
D02*
G37*
G36*
X97700Y373665D02*
X89664Y370336D01*
X86335Y362300D01*
X89664Y354264D01*
X97700Y350935D01*
X105736Y354264D01*
X109065Y362300D01*
X105736Y370336D01*
X97700Y373665D01*
D02*
G37*
G36*
X71030Y386430D02*
X60876D01*
X63850Y379250D01*
X71030Y376277D01*
Y386430D01*
D02*
G37*
G36*
X73570Y399123D02*
Y388970D01*
X83723D01*
X80750Y396150D01*
X73570Y399123D01*
D02*
G37*
G36*
X97700Y449865D02*
X89664Y446536D01*
X86335Y438500D01*
X89664Y430464D01*
X97700Y427135D01*
X105736Y430464D01*
X109065Y438500D01*
X105736Y446536D01*
X97700Y449865D01*
D02*
G37*
G36*
X71030Y462630D02*
X60876D01*
X63850Y455450D01*
X71030Y452477D01*
Y462630D01*
D02*
G37*
G36*
X72300Y449865D02*
X64264Y446536D01*
X60935Y438500D01*
X64264Y430464D01*
X72300Y427135D01*
X80336Y430464D01*
X83665Y438500D01*
X80336Y446536D01*
X72300Y449865D01*
D02*
G37*
G36*
Y424465D02*
X64264Y421136D01*
X60935Y413100D01*
X64264Y405064D01*
X72300Y401735D01*
X80336Y405064D01*
X83665Y413100D01*
X80336Y421136D01*
X72300Y424465D01*
D02*
G37*
G36*
X97700D02*
X89664Y421136D01*
X86335Y413100D01*
X89664Y405064D01*
X97700Y401735D01*
X105736Y405064D01*
X109065Y413100D01*
X105736Y421136D01*
X97700Y424465D01*
D02*
G37*
G36*
X72300Y373665D02*
X64264Y370336D01*
X60935Y362300D01*
X64264Y354264D01*
X72300Y350935D01*
X80336Y354264D01*
X83665Y362300D01*
X80336Y370336D01*
X72300Y373665D01*
D02*
G37*
G36*
X97700Y297465D02*
X89664Y294136D01*
X86335Y286100D01*
X89664Y278064D01*
X97700Y274735D01*
X105736Y278064D01*
X109065Y286100D01*
X105736Y294136D01*
X97700Y297465D01*
D02*
G37*
G36*
X96430Y310230D02*
X86277D01*
X89250Y303050D01*
X96430Y300077D01*
Y310230D01*
D02*
G37*
G36*
X72300Y297465D02*
X64264Y294136D01*
X60935Y286100D01*
X64264Y278064D01*
X72300Y274735D01*
X80336Y278064D01*
X83665Y286100D01*
X80336Y294136D01*
X72300Y297465D01*
D02*
G37*
G36*
Y272065D02*
X64264Y268736D01*
X60935Y260700D01*
X64264Y252664D01*
X72300Y249335D01*
X80336Y252664D01*
X83665Y260700D01*
X80336Y268736D01*
X72300Y272065D01*
D02*
G37*
G36*
X97700D02*
X89664Y268736D01*
X86335Y260700D01*
X89664Y252664D01*
X97700Y249335D01*
X105736Y252664D01*
X109065Y260700D01*
X105736Y268736D01*
X97700Y272065D01*
D02*
G37*
G36*
X109123Y310230D02*
X98970D01*
Y300077D01*
X106150Y303050D01*
X109123Y310230D01*
D02*
G37*
G36*
X72300Y348265D02*
X64264Y344936D01*
X60935Y336900D01*
X64264Y328864D01*
X72300Y325535D01*
X80336Y328864D01*
X83665Y336900D01*
X80336Y344936D01*
X72300Y348265D01*
D02*
G37*
G36*
X97700D02*
X89664Y344936D01*
X86335Y336900D01*
X89664Y328864D01*
X97700Y325535D01*
X105736Y328864D01*
X109065Y336900D01*
X105736Y344936D01*
X97700Y348265D01*
D02*
G37*
G36*
X98970Y322924D02*
Y312770D01*
X109123D01*
X106150Y319950D01*
X98970Y322924D01*
D02*
G37*
G36*
X72300Y322865D02*
X64264Y319536D01*
X60935Y311500D01*
X64264Y303464D01*
X72300Y300135D01*
X80336Y303464D01*
X83665Y311500D01*
X80336Y319536D01*
X72300Y322865D01*
D02*
G37*
G36*
X96430Y322924D02*
X89250Y319950D01*
X86277Y312770D01*
X96430D01*
Y322924D01*
D02*
G37*
G36*
X225730Y1025023D02*
X218550Y1022050D01*
X215576Y1014870D01*
X225730D01*
Y1025023D01*
D02*
G37*
G36*
X1038730Y1267096D02*
X1033196Y1264804D01*
X1030904Y1259270D01*
X1038730D01*
Y1267096D01*
D02*
G37*
G36*
X1041270D02*
Y1259270D01*
X1049096D01*
X1046804Y1264804D01*
X1041270Y1267096D01*
D02*
G37*
G36*
X418270Y1264635D02*
Y1258270D01*
X424635D01*
X422771Y1262771D01*
X418270Y1264635D01*
D02*
G37*
G36*
X424635Y1255730D02*
X418270D01*
Y1249365D01*
X422771Y1251229D01*
X424635Y1255730D01*
D02*
G37*
G36*
X415730Y1264635D02*
X411229Y1262771D01*
X409365Y1258270D01*
X415730D01*
Y1264635D01*
D02*
G37*
G36*
Y1274730D02*
X409365D01*
X411229Y1270229D01*
X415730Y1268365D01*
Y1274730D01*
D02*
G37*
G36*
X465730Y1302730D02*
X459365D01*
X459427Y1302581D01*
X459427Y1302581D01*
X461229Y1298229D01*
X465730Y1296365D01*
Y1302730D01*
D02*
G37*
G36*
X507635D02*
X501270D01*
Y1296365D01*
X505771Y1298229D01*
X507573Y1302581D01*
X507573Y1302581D01*
X507635Y1302730D01*
D02*
G37*
G36*
X418730Y1300635D02*
X414229Y1298771D01*
X412365Y1294270D01*
X418730D01*
Y1300635D01*
D02*
G37*
G36*
X424635Y1274730D02*
X418270D01*
Y1268365D01*
X422771Y1270229D01*
X424635Y1274730D01*
D02*
G37*
G36*
X427635Y1291730D02*
X412365D01*
X414229Y1287229D01*
X417175Y1286009D01*
X416705Y1284039D01*
X411229Y1281771D01*
X409365Y1277270D01*
X424635D01*
X422771Y1281771D01*
X419825Y1282991D01*
X420295Y1284961D01*
X425771Y1287229D01*
X427635Y1291730D01*
D02*
G37*
G36*
X180270Y1244096D02*
Y1236270D01*
X188096D01*
X185804Y1241804D01*
X180270Y1244096D01*
D02*
G37*
G36*
X254730Y1245096D02*
X249196Y1242804D01*
X246904Y1237270D01*
X254730D01*
Y1245096D01*
D02*
G37*
G36*
X177730Y1244096D02*
X172196Y1241804D01*
X169904Y1236270D01*
X177730D01*
Y1244096D01*
D02*
G37*
G36*
X424635Y1234730D02*
X418270D01*
Y1228365D01*
X422771Y1230229D01*
X424635Y1234730D01*
D02*
G37*
G36*
X1276000Y1364000D02*
X1275227D01*
X1275000D01*
X1275000D01*
X1273000Y1364000D01*
X1261000D01*
Y1357788D01*
X1255000D01*
Y1361000D01*
X1241000D01*
Y1347000D01*
X1255000D01*
Y1350212D01*
X1261000D01*
Y1346000D01*
X1270630D01*
X1271395Y1344152D01*
X1265278Y1338036D01*
X1041834D01*
X1037000Y1340038D01*
X1030609Y1337391D01*
X1027962Y1331000D01*
X1030609Y1324609D01*
X1037000Y1321962D01*
X1041834Y1323965D01*
X1268192D01*
X1268192Y1323964D01*
X1273167Y1326025D01*
X1287975Y1340833D01*
X1287975Y1340833D01*
X1289005Y1343320D01*
X1290036Y1345808D01*
X1290036Y1345808D01*
Y1355000D01*
X1290000Y1355086D01*
Y1364000D01*
X1277000D01*
X1276000Y1364000D01*
D02*
G37*
G36*
X257270Y1245096D02*
Y1237270D01*
X265096D01*
X262804Y1242804D01*
X257270Y1245096D01*
D02*
G37*
G36*
X1049096Y1256730D02*
X1041270D01*
Y1248904D01*
X1046804Y1251196D01*
X1049096Y1256730D01*
D02*
G37*
G36*
X415730Y1255730D02*
X409365D01*
X411229Y1251229D01*
X415730Y1249365D01*
Y1255730D01*
D02*
G37*
G36*
X1038730Y1256730D02*
X1030904D01*
X1033196Y1251196D01*
X1038730Y1248904D01*
Y1256730D01*
D02*
G37*
G36*
X415730Y1243635D02*
X411229Y1241771D01*
X409365Y1237270D01*
X415730D01*
Y1243635D01*
D02*
G37*
G36*
X418270D02*
Y1237270D01*
X424635D01*
X422771Y1241771D01*
X418270Y1243635D01*
D02*
G37*
G36*
X456645Y1303730D02*
X450270D01*
Y1297365D01*
X454771Y1299229D01*
X456426Y1303226D01*
X456442Y1303264D01*
X456645Y1303730D01*
D02*
G37*
G36*
X537730Y1313635D02*
X533229Y1311771D01*
X531365Y1307270D01*
X537730D01*
Y1313635D01*
D02*
G37*
G36*
X540270D02*
Y1307270D01*
X546635D01*
X544771Y1311771D01*
X540270Y1313635D01*
D02*
G37*
G36*
X481730Y1311635D02*
X477229Y1309771D01*
X476000Y1306803D01*
X474000D01*
X472771Y1309771D01*
X468270Y1311635D01*
Y1304000D01*
Y1296365D01*
X472771Y1298229D01*
X474000Y1301197D01*
X476000D01*
X477229Y1298229D01*
X481730Y1296365D01*
Y1304000D01*
Y1311635D01*
D02*
G37*
G36*
X519270Y1312635D02*
Y1306270D01*
X525635D01*
X523771Y1310771D01*
X519270Y1312635D01*
D02*
G37*
G36*
X447730D02*
X443229Y1310771D01*
X441375Y1306295D01*
X439211D01*
X437771Y1309771D01*
X433270Y1311635D01*
Y1304000D01*
Y1296365D01*
X437771Y1298229D01*
X439625Y1302705D01*
X441790D01*
X443229Y1299229D01*
X447730Y1297365D01*
Y1305000D01*
Y1312635D01*
D02*
G37*
G36*
X636730Y1336730D02*
X628904D01*
X631196Y1331196D01*
X636730Y1328904D01*
Y1336730D01*
D02*
G37*
G36*
X106730Y1364730D02*
X90369D01*
X91478Y1359156D01*
X95354Y1353354D01*
X101156Y1349478D01*
X106730Y1348369D01*
Y1364730D01*
D02*
G37*
G36*
X125631D02*
X109270D01*
Y1348369D01*
X114844Y1349478D01*
X120646Y1353354D01*
X124522Y1359156D01*
X125631Y1364730D01*
D02*
G37*
G36*
X639270Y1347096D02*
Y1339270D01*
X647096D01*
X644804Y1344804D01*
X639270Y1347096D01*
D02*
G37*
G36*
X647096Y1336730D02*
X639270D01*
Y1328904D01*
X644804Y1331196D01*
X647096Y1336730D01*
D02*
G37*
G36*
X636730Y1347096D02*
X631196Y1344804D01*
X628904Y1339270D01*
X636730D01*
Y1347096D01*
D02*
G37*
G36*
X537730Y1304730D02*
X531365D01*
X533229Y1300229D01*
X537730Y1298365D01*
Y1304730D01*
D02*
G37*
G36*
X430730Y1302730D02*
X424365D01*
X424971Y1301267D01*
X423440Y1299736D01*
X421270Y1300635D01*
Y1294270D01*
X427635D01*
X427029Y1295733D01*
X428560Y1297264D01*
X430730Y1296365D01*
Y1302730D01*
D02*
G37*
G36*
X128000Y1332333D02*
X121367Y1331014D01*
X115744Y1327256D01*
X111986Y1321633D01*
X110667Y1315000D01*
X111986Y1308367D01*
X115744Y1302744D01*
X121367Y1298986D01*
X128000Y1297667D01*
X134633Y1298986D01*
X140256Y1302744D01*
X144014Y1308367D01*
X145333Y1315000D01*
X144014Y1321633D01*
X140256Y1327256D01*
X134633Y1331014D01*
X128000Y1332333D01*
D02*
G37*
G36*
X516730Y1303730D02*
X510355D01*
X510558Y1303264D01*
X510574Y1303226D01*
X510574Y1303226D01*
X512229Y1299229D01*
X516730Y1297365D01*
Y1303730D01*
D02*
G37*
G36*
X525635D02*
X519270D01*
Y1297365D01*
X523771Y1299229D01*
X525635Y1303730D01*
D02*
G37*
G36*
X430730Y1311635D02*
X426229Y1309771D01*
X424365Y1305270D01*
X430730D01*
Y1311635D01*
D02*
G37*
G36*
X450270Y1312635D02*
Y1306270D01*
X456635D01*
X456573Y1306419D01*
X456573Y1306419D01*
X454771Y1310771D01*
X450270Y1312635D01*
D02*
G37*
G36*
X516730D02*
X512229Y1310771D01*
X510427Y1306419D01*
X510427Y1306419D01*
X510365Y1306270D01*
X516730D01*
Y1312635D01*
D02*
G37*
G36*
X498730Y1311635D02*
X494229Y1309771D01*
X492582Y1305795D01*
X490418D01*
X488771Y1309771D01*
X484270Y1311635D01*
Y1304000D01*
Y1296365D01*
X488771Y1298229D01*
X490418Y1302205D01*
X492582D01*
X494229Y1298229D01*
X498730Y1296365D01*
Y1304000D01*
Y1311635D01*
D02*
G37*
G36*
X465730D02*
X461229Y1309771D01*
X459574Y1305774D01*
X459558Y1305736D01*
X459355Y1305270D01*
X465730D01*
Y1311635D01*
D02*
G37*
G36*
X501270D02*
Y1305270D01*
X507645D01*
X507442Y1305736D01*
X507426Y1305774D01*
X507426Y1305774D01*
X505771Y1309771D01*
X501270Y1311635D01*
D02*
G37*
G36*
X415730Y1234730D02*
X409365D01*
X411229Y1230229D01*
X415730Y1228365D01*
Y1234730D01*
D02*
G37*
G36*
X470730Y1078730D02*
X464365D01*
X466229Y1074229D01*
X470730Y1072365D01*
Y1078730D01*
D02*
G37*
G36*
X479635D02*
X473270D01*
Y1072365D01*
X477771Y1074229D01*
X479635Y1078730D01*
D02*
G37*
G36*
X484730Y1076635D02*
X480229Y1074771D01*
X478365Y1070270D01*
X484730D01*
Y1076635D01*
D02*
G37*
G36*
X1235000Y1396000D02*
X1221000D01*
Y1393788D01*
X797000D01*
X797000Y1393788D01*
X795106Y1393004D01*
X794321Y1392679D01*
X794321Y1392679D01*
X631321Y1229679D01*
X630446Y1227566D01*
X627609Y1226391D01*
X624962Y1220000D01*
X627609Y1213609D01*
X634000Y1210962D01*
X640391Y1213609D01*
X643038Y1220000D01*
X640391Y1226391D01*
X640118Y1227761D01*
X798569Y1386212D01*
X1221000D01*
Y1382000D01*
X1235000D01*
Y1396000D01*
D02*
G37*
G36*
X503270Y1075635D02*
Y1069270D01*
X509635D01*
X507771Y1073771D01*
X503270Y1075635D01*
D02*
G37*
G36*
X470730Y1087635D02*
X466229Y1085771D01*
X464365Y1081270D01*
X470730D01*
Y1087635D01*
D02*
G37*
G36*
X467635Y1126730D02*
X452365D01*
X454229Y1122229D01*
X458205Y1120582D01*
Y1118418D01*
X454229Y1116771D01*
X452365Y1112270D01*
X467635D01*
X465771Y1116771D01*
X461795Y1118418D01*
Y1120582D01*
X465771Y1122229D01*
X467635Y1126730D01*
D02*
G37*
G36*
X1235000Y1378000D02*
X1221000D01*
Y1374788D01*
X796000D01*
X796000Y1374788D01*
X794106Y1374004D01*
X793321Y1373679D01*
X793321Y1373679D01*
X654321Y1234679D01*
X653212Y1232000D01*
X653212Y1232000D01*
Y1214569D01*
X642431Y1203788D01*
X637000Y1206038D01*
X630609Y1203391D01*
X627962Y1197000D01*
X630609Y1190609D01*
X635208Y1188704D01*
X635974Y1186856D01*
X633962Y1182000D01*
X636609Y1175609D01*
X643000Y1172962D01*
X646032Y1174218D01*
X647165Y1172522D01*
X585136Y1110494D01*
X583288Y1111259D01*
Y1191700D01*
X582179Y1194379D01*
X582179Y1194379D01*
X566458Y1210100D01*
X579569Y1223212D01*
X584531D01*
X585609Y1220609D01*
X592000Y1217962D01*
X598391Y1220609D01*
X601038Y1227000D01*
X598391Y1233391D01*
X592000Y1236038D01*
X588200Y1234464D01*
X586785Y1235878D01*
X587188Y1236850D01*
X584541Y1243241D01*
X578951Y1245556D01*
X578113Y1246122D01*
X577858Y1247736D01*
X580038Y1253000D01*
X577391Y1259391D01*
X572912Y1261246D01*
Y1263411D01*
X573391Y1263609D01*
X575680Y1269135D01*
X577886Y1269757D01*
X583321Y1264321D01*
X583321Y1264321D01*
X586000Y1263212D01*
X604531D01*
X605609Y1260609D01*
X612000Y1257962D01*
X618391Y1260609D01*
X621038Y1267000D01*
X618391Y1273391D01*
X612000Y1276038D01*
X605609Y1273391D01*
X604531Y1270788D01*
X587569D01*
X578146Y1280212D01*
X578974Y1282212D01*
X612531D01*
X613609Y1279609D01*
X620000Y1276962D01*
X626391Y1279609D01*
X629038Y1286000D01*
X627223Y1290383D01*
X628935Y1291474D01*
X635000Y1288962D01*
X641391Y1291609D01*
X642376Y1293988D01*
X644682Y1294330D01*
X644731Y1294271D01*
X642962Y1290000D01*
X645609Y1283609D01*
X652000Y1280962D01*
X658391Y1283609D01*
X661038Y1290000D01*
X658391Y1296391D01*
X654133Y1298154D01*
X641759Y1310529D01*
X639080Y1311638D01*
X639080Y1311638D01*
X620849D01*
X620849Y1311638D01*
X618955Y1310854D01*
X618170Y1310529D01*
X618170Y1310529D01*
X608430Y1300788D01*
X548000D01*
X548000Y1300788D01*
X546995Y1300372D01*
X545464Y1301903D01*
X546635Y1304730D01*
X540270D01*
Y1298365D01*
X541822Y1299008D01*
X542954Y1297312D01*
X513321Y1267679D01*
X512212Y1265000D01*
X512212Y1265000D01*
Y817017D01*
X510962Y814000D01*
X513609Y807609D01*
X520000Y804962D01*
X526391Y807609D01*
X529038Y814000D01*
X526391Y820391D01*
X521646Y822356D01*
X521647Y822427D01*
X523680Y823749D01*
X527999Y821960D01*
X534390Y824607D01*
X537037Y830998D01*
X534390Y837389D01*
X528549Y839808D01*
X524788Y843569D01*
Y852241D01*
X526636Y853006D01*
X528747Y850896D01*
X527961Y848998D01*
X530608Y842607D01*
X536999Y839960D01*
X543390Y842607D01*
X546037Y848998D01*
X543918Y854112D01*
X543990Y855756D01*
X545012Y856380D01*
X550390Y858607D01*
X553037Y864998D01*
X551856Y867850D01*
X553270Y869265D01*
X554000Y868962D01*
X560391Y871609D01*
X563038Y878000D01*
X560391Y884391D01*
X554000Y887038D01*
X552002Y886210D01*
X551038Y887180D01*
X551648Y889230D01*
X557391Y891609D01*
X560038Y898000D01*
X559905Y898322D01*
X561435Y899853D01*
X566000Y897962D01*
X572391Y900609D01*
X575038Y907000D01*
X573943Y909642D01*
X575358Y911057D01*
X578000Y909962D01*
X584391Y912609D01*
X587038Y919000D01*
X584391Y925391D01*
X581788Y926469D01*
Y941908D01*
X581788Y941908D01*
X581234Y943248D01*
X580679Y944587D01*
X580679Y944587D01*
X576288Y948977D01*
Y1045317D01*
X578288Y1046328D01*
X584000Y1043962D01*
X590391Y1046609D01*
X593038Y1053000D01*
X590391Y1059391D01*
X585938Y1061235D01*
Y1080664D01*
X587938Y1081470D01*
X593999Y1078960D01*
X600390Y1081607D01*
X603037Y1087998D01*
X600390Y1094389D01*
X597787Y1095467D01*
Y1099001D01*
X597787Y1099001D01*
X597076Y1100718D01*
X634114Y1137757D01*
X636028Y1136842D01*
X638609Y1130609D01*
X641212Y1129531D01*
Y1061055D01*
X639609Y1060391D01*
X636962Y1054000D01*
X639609Y1047609D01*
X646000Y1044962D01*
X652391Y1047609D01*
X655038Y1054000D01*
X652391Y1060391D01*
X648788Y1061883D01*
Y1129531D01*
X651391Y1130609D01*
X654038Y1137000D01*
X651391Y1143391D01*
X645158Y1145972D01*
X644243Y1147886D01*
X690114Y1193757D01*
X692320Y1193135D01*
X694609Y1187609D01*
X700002Y1185375D01*
Y1183211D01*
X695609Y1181391D01*
X692962Y1175000D01*
X694040Y1172398D01*
X673321Y1151679D01*
X672212Y1149000D01*
X672212Y1149000D01*
Y1127807D01*
X670212Y1127409D01*
X669391Y1129391D01*
X663000Y1132038D01*
X656609Y1129391D01*
X653962Y1123000D01*
X656609Y1116609D01*
X658129Y1115980D01*
Y991018D01*
X627520Y960408D01*
X626000Y961038D01*
X619609Y958391D01*
X616962Y952000D01*
X619609Y945609D01*
X626000Y942962D01*
X632391Y945609D01*
X635038Y952000D01*
X634408Y953520D01*
X666444Y985556D01*
X667871Y989000D01*
Y1115980D01*
X669391Y1116609D01*
X670212Y1118591D01*
X672212Y1118193D01*
Y926569D01*
X601121Y855479D01*
X600012Y852800D01*
X600012Y852800D01*
Y755466D01*
X598825Y754975D01*
X596764Y750000D01*
X598825Y745025D01*
X603800Y742964D01*
X608775Y745025D01*
X609150Y745931D01*
X611150D01*
X611525Y745025D01*
X616500Y742964D01*
X621475Y745025D01*
X621558Y745225D01*
X623558D01*
X623812Y744612D01*
X627930Y742906D01*
Y750000D01*
Y757094D01*
X623812Y755388D01*
X623558Y754775D01*
X621558D01*
X621475Y754975D01*
X620288Y755466D01*
Y845931D01*
X688679Y914321D01*
X688679Y914321D01*
X689004Y915106D01*
X689788Y917000D01*
X689788Y917000D01*
Y1114431D01*
X705276Y1129919D01*
X710000Y1127962D01*
X716129Y1130501D01*
X718129Y1129734D01*
Y1122617D01*
X717279Y1120565D01*
Y1082668D01*
X716609Y1082391D01*
X713962Y1076000D01*
X716609Y1069609D01*
X723000Y1066962D01*
X729391Y1069609D01*
X732038Y1076000D01*
X729391Y1082391D01*
X727021Y1083372D01*
Y1101309D01*
X728868Y1102074D01*
X752412Y1078531D01*
Y755466D01*
X751225Y754975D01*
X750850Y754069D01*
X748850D01*
X748475Y754975D01*
X743500Y757036D01*
X738525Y754975D01*
X738150Y754069D01*
X736150D01*
X735775Y754975D01*
X730800Y757036D01*
X725825Y754975D01*
X725450Y754069D01*
X723450D01*
X723075Y754975D01*
X718100Y757036D01*
X713125Y754975D01*
X712750Y754069D01*
X710750D01*
X710375Y754975D01*
X705400Y757036D01*
X700425Y754975D01*
X700050Y754069D01*
X698050D01*
X697675Y754975D01*
X692700Y757036D01*
X687725Y754975D01*
X687350Y754069D01*
X685350D01*
X684975Y754975D01*
X680000Y757036D01*
X675025Y754975D01*
X674650Y754069D01*
X672650D01*
X672275Y754975D01*
X667300Y757036D01*
X662325Y754975D01*
X662242Y754775D01*
X660242D01*
X659988Y755388D01*
X655870Y757094D01*
Y750000D01*
Y742906D01*
X659988Y744612D01*
X660242Y745225D01*
X662242D01*
X662325Y745025D01*
X667300Y742964D01*
X672275Y745025D01*
X672650Y745931D01*
X674650D01*
X675025Y745025D01*
X680000Y742964D01*
X684975Y745025D01*
X685350Y745931D01*
X687350D01*
X687725Y745025D01*
X692700Y742964D01*
X697675Y745025D01*
X698050Y745931D01*
X700050D01*
X700425Y745025D01*
X705400Y742964D01*
X710375Y745025D01*
X710750Y745931D01*
X712750D01*
X713125Y745025D01*
X718100Y742964D01*
X723075Y745025D01*
X723450Y745931D01*
X725450D01*
X725825Y745025D01*
X730800Y742964D01*
X735775Y745025D01*
X736150Y745931D01*
X738150D01*
X738525Y745025D01*
X743500Y742964D01*
X748475Y745025D01*
X748850Y745931D01*
X750850D01*
X751225Y745025D01*
X756200Y742964D01*
X761175Y745025D01*
X763235Y750000D01*
X761175Y754975D01*
X759988Y755466D01*
Y1080100D01*
X758879Y1082779D01*
X758879Y1082779D01*
X738543Y1103114D01*
X739078Y1105408D01*
X744391Y1107609D01*
X745469Y1110212D01*
X1204000D01*
X1204000Y1110212D01*
X1206679Y1111321D01*
X1223679Y1128321D01*
X1223679Y1128321D01*
X1224788Y1131000D01*
Y1175000D01*
X1224788Y1175000D01*
X1224004Y1176894D01*
X1223679Y1177679D01*
X1223679Y1177679D01*
X1206879Y1194479D01*
X1204200Y1195588D01*
X1204200Y1195588D01*
X1194337D01*
X1192419Y1200219D01*
X1185403Y1203125D01*
Y1205290D01*
X1192832Y1208368D01*
X1195965Y1215930D01*
X1172035D01*
X1175168Y1208368D01*
X1182598Y1205290D01*
Y1203125D01*
X1175581Y1200219D01*
X1172094Y1191800D01*
X1175581Y1183381D01*
X1183371Y1180154D01*
Y1178046D01*
X1175581Y1174819D01*
X1172094Y1166400D01*
X1174012Y1161769D01*
X1144031Y1131788D01*
X757052D01*
X756389Y1133389D01*
X749998Y1136036D01*
X743608Y1133389D01*
X740960Y1126998D01*
X742553Y1123152D01*
X741139Y1121738D01*
X738000Y1123038D01*
X735601Y1122044D01*
X733938Y1123156D01*
Y1145065D01*
X735938Y1146402D01*
X737000Y1145962D01*
X743391Y1148609D01*
X746038Y1155000D01*
X743391Y1161391D01*
X737000Y1164038D01*
X730609Y1161391D01*
X729871Y1159608D01*
X727871Y1160006D01*
Y1172000D01*
X726444Y1175444D01*
X709408Y1192480D01*
X710038Y1194000D01*
X707391Y1200391D01*
X701865Y1202680D01*
X701243Y1204886D01*
X709679Y1213321D01*
X709679Y1213321D01*
X710788Y1216000D01*
Y1222531D01*
X713391Y1223609D01*
X716038Y1230000D01*
X713391Y1236391D01*
X707000Y1239038D01*
X700609Y1236391D01*
X697962Y1230000D01*
X699888Y1225350D01*
X698358Y1223819D01*
X693000Y1226038D01*
X686609Y1223391D01*
X683962Y1217000D01*
X686212Y1211569D01*
X652478Y1177835D01*
X650782Y1178968D01*
X652038Y1182000D01*
X650960Y1184603D01*
X664679Y1198321D01*
X664679Y1198321D01*
X665004Y1199106D01*
X665788Y1201000D01*
X665788Y1201000D01*
Y1220431D01*
X728114Y1282757D01*
X730028Y1281842D01*
X732609Y1275609D01*
X739000Y1272962D01*
X745391Y1275609D01*
X746469Y1278212D01*
X1168431D01*
X1174012Y1272631D01*
X1172094Y1268000D01*
X1175581Y1259581D01*
X1182737Y1256617D01*
X1182737Y1256617D01*
X1183371Y1256354D01*
Y1256313D01*
Y1256190D01*
X1183371Y1255982D01*
Y1254618D01*
X1183371Y1254410D01*
Y1254287D01*
Y1254246D01*
X1182737Y1253983D01*
Y1253983D01*
X1175581Y1251019D01*
X1172094Y1242600D01*
X1175581Y1234181D01*
X1182598Y1231275D01*
Y1229110D01*
X1175168Y1226032D01*
X1172035Y1218470D01*
X1195965D01*
X1192832Y1226032D01*
X1185403Y1229110D01*
Y1231275D01*
X1192419Y1234181D01*
X1195906Y1242600D01*
X1192419Y1251019D01*
X1185263Y1253983D01*
X1185263Y1253983D01*
X1184629Y1254246D01*
Y1254287D01*
Y1254410D01*
X1184629Y1254618D01*
Y1255982D01*
X1184629Y1256190D01*
Y1256313D01*
Y1256354D01*
X1185263Y1256617D01*
Y1256617D01*
X1192419Y1259581D01*
X1195906Y1268000D01*
X1192419Y1276419D01*
X1184000Y1279906D01*
X1179369Y1277988D01*
X1172679Y1284679D01*
X1170000Y1285788D01*
X1170000Y1285788D01*
X746469D01*
X745391Y1288391D01*
X739158Y1290972D01*
X738243Y1292886D01*
X796569Y1351212D01*
X1222000D01*
Y1347000D01*
X1236000D01*
Y1361000D01*
X1222000D01*
Y1358788D01*
X795000D01*
X795000Y1358788D01*
X793106Y1358004D01*
X792321Y1357679D01*
X792321Y1357679D01*
X663057Y1228414D01*
X661122Y1229167D01*
X660964Y1230607D01*
X797569Y1367212D01*
X1221000D01*
Y1364000D01*
X1235000D01*
Y1378000D01*
D02*
G37*
G36*
X467635Y1109730D02*
X461270D01*
Y1103365D01*
X465771Y1105229D01*
X467635Y1109730D01*
D02*
G37*
G36*
X473270Y1087635D02*
Y1081270D01*
X479635D01*
X477771Y1085771D01*
X473270Y1087635D01*
D02*
G37*
G36*
X458730Y1109730D02*
X452365D01*
X454229Y1105229D01*
X458730Y1103365D01*
Y1109730D01*
D02*
G37*
G36*
X1213409Y1028430D02*
X1205420D01*
Y1020441D01*
X1211069Y1022781D01*
X1213409Y1028430D01*
D02*
G37*
G36*
X1178750Y1038900D02*
X1172244Y1036206D01*
X1169550Y1029700D01*
X1172244Y1023194D01*
X1178750Y1020500D01*
X1185256Y1023194D01*
X1187950Y1029700D01*
X1185256Y1036206D01*
X1178750Y1038900D01*
D02*
G37*
G36*
X1202880Y1028430D02*
X1194891D01*
X1197231Y1022781D01*
X1202880Y1020441D01*
Y1028430D01*
D02*
G37*
G36*
X228270Y1025023D02*
Y1014870D01*
X238424D01*
X235450Y1022050D01*
X228270Y1025023D01*
D02*
G37*
G36*
X460000Y1035038D02*
X453609Y1032391D01*
X450962Y1026000D01*
X452040Y1023398D01*
X414724Y986081D01*
X410000Y988038D01*
X403609Y985391D01*
X400962Y979000D01*
X403609Y972609D01*
X410000Y969962D01*
X416391Y972609D01*
X419038Y979000D01*
X418839Y979481D01*
X457397Y1018040D01*
X460000Y1016962D01*
X466391Y1019609D01*
X469038Y1026000D01*
X466391Y1032391D01*
X460000Y1035038D01*
D02*
G37*
G36*
X1202880Y1038959D02*
X1197231Y1036619D01*
X1194891Y1030970D01*
X1202880D01*
Y1038959D01*
D02*
G37*
G36*
X509635Y1066730D02*
X503270D01*
Y1060365D01*
X507771Y1062229D01*
X509635Y1066730D01*
D02*
G37*
G36*
X484730Y1067730D02*
X478365D01*
X480229Y1063229D01*
X484730Y1061365D01*
Y1067730D01*
D02*
G37*
G36*
X487270Y1076635D02*
Y1069000D01*
Y1061365D01*
X491771Y1063229D01*
X492710Y1065498D01*
X494875D01*
X496229Y1062229D01*
X500730Y1060365D01*
Y1068000D01*
Y1075635D01*
X496229Y1073771D01*
X495289Y1071502D01*
X493125D01*
X491771Y1074771D01*
X487270Y1076635D01*
D02*
G37*
G36*
X1205420Y1038959D02*
Y1030970D01*
X1213409D01*
X1211069Y1036619D01*
X1205420Y1038959D01*
D02*
G37*
G36*
X393000Y1202038D02*
X386609Y1199391D01*
X385148Y1195863D01*
X236943Y1047658D01*
X235036Y1047036D01*
X227000Y1050365D01*
X218964Y1047036D01*
X215635Y1039000D01*
X218964Y1030964D01*
X227000Y1027635D01*
X235036Y1030964D01*
X235227Y1031423D01*
X239000D01*
X244358Y1033643D01*
X395863Y1185148D01*
X399391Y1186609D01*
X402038Y1193000D01*
X399391Y1199391D01*
X393000Y1202038D01*
D02*
G37*
G36*
X458730Y1135635D02*
X458583Y1135574D01*
X458583D01*
X454229Y1133771D01*
X452365Y1129270D01*
X458730D01*
Y1135635D01*
D02*
G37*
G36*
X106730Y1383631D02*
X101156Y1382522D01*
X95354Y1378646D01*
X91478Y1372844D01*
X90369Y1367270D01*
X106730D01*
Y1383631D01*
D02*
G37*
G36*
X430730Y1224730D02*
X424365D01*
X426229Y1220229D01*
X430730Y1218365D01*
Y1224730D01*
D02*
G37*
G36*
X433270Y1233635D02*
Y1226000D01*
Y1218365D01*
X435536Y1219303D01*
X436839Y1218000D01*
X439229Y1212229D01*
X443730Y1210365D01*
Y1218000D01*
Y1225635D01*
X441465Y1224697D01*
X440161Y1226000D01*
X437771Y1231771D01*
X433270Y1233635D01*
D02*
G37*
G36*
X453273Y1216730D02*
X446270D01*
Y1210365D01*
X448647Y1211349D01*
X449727Y1210270D01*
X456730D01*
Y1216635D01*
X454353Y1215650D01*
X453273Y1216730D01*
D02*
G37*
G36*
X459270Y1216635D02*
Y1210270D01*
X465635D01*
X463771Y1214771D01*
X459270Y1216635D01*
D02*
G37*
G36*
X446270Y1225635D02*
Y1219270D01*
X452635D01*
X450771Y1223771D01*
X446270Y1225635D01*
D02*
G37*
G36*
X265096Y1234730D02*
X257270D01*
Y1226904D01*
X262804Y1229196D01*
X265096Y1234730D01*
D02*
G37*
G36*
X430730Y1233635D02*
X426229Y1231771D01*
X424365Y1227270D01*
X430730D01*
Y1233635D01*
D02*
G37*
G36*
X254730Y1234730D02*
X246904D01*
X249196Y1229196D01*
X254730Y1226904D01*
Y1234730D01*
D02*
G37*
G36*
X177730Y1233730D02*
X169904D01*
X172196Y1228196D01*
X177730Y1225904D01*
Y1233730D01*
D02*
G37*
G36*
X188096D02*
X180270D01*
Y1225904D01*
X185804Y1228196D01*
X188096Y1233730D01*
D02*
G37*
G36*
X467635Y1161730D02*
X452365D01*
X454229Y1157229D01*
X458205Y1155582D01*
Y1153418D01*
X454229Y1151771D01*
X452365Y1147270D01*
X467635D01*
X465771Y1151771D01*
X461795Y1153418D01*
Y1155582D01*
X465771Y1157229D01*
X467635Y1161730D01*
D02*
G37*
G36*
X468635Y1176730D02*
X453365D01*
X455229Y1172229D01*
X456489Y1171707D01*
Y1169707D01*
X454229Y1168771D01*
X452365Y1164270D01*
X467635D01*
X465771Y1168771D01*
X464511Y1169293D01*
Y1171293D01*
X466771Y1172229D01*
X468635Y1176730D01*
D02*
G37*
G36*
X467635Y1144730D02*
X461270D01*
Y1138365D01*
X461417Y1138426D01*
X461417D01*
X465771Y1140229D01*
X467635Y1144730D01*
D02*
G37*
G36*
X461270Y1135635D02*
Y1129270D01*
X467635D01*
X465771Y1133771D01*
X461417Y1135574D01*
D01*
X461270Y1135635D01*
D02*
G37*
G36*
X458730Y1144730D02*
X452365D01*
X454229Y1140229D01*
X458583Y1138426D01*
D01*
X458730Y1138365D01*
Y1144730D01*
D02*
G37*
G36*
X109270Y1383631D02*
Y1367270D01*
X125631D01*
X124522Y1372844D01*
X120646Y1378646D01*
X114844Y1382522D01*
X109270Y1383631D01*
D02*
G37*
G36*
X781230Y1214096D02*
X775696Y1211804D01*
X773404Y1206270D01*
X781230D01*
Y1214096D01*
D02*
G37*
G36*
X783770D02*
Y1206270D01*
X791596D01*
X789304Y1211804D01*
X783770Y1214096D01*
D02*
G37*
G36*
X465635Y1207730D02*
X450365D01*
X452229Y1203229D01*
X455998Y1201668D01*
Y1199503D01*
X454229Y1198771D01*
X452365Y1194270D01*
X467635D01*
X465771Y1198771D01*
X462002Y1200332D01*
Y1202497D01*
X463771Y1203229D01*
X465635Y1207730D01*
D02*
G37*
G36*
X467635Y1191730D02*
X452365D01*
X454229Y1187229D01*
X456489Y1186293D01*
Y1184293D01*
X455229Y1183771D01*
X453365Y1179270D01*
X468635D01*
X466771Y1183771D01*
X464511Y1184707D01*
Y1186707D01*
X465771Y1187229D01*
X467635Y1191730D01*
D02*
G37*
G36*
X750000Y1208038D02*
X743609Y1205391D01*
X740962Y1199000D01*
X743609Y1192609D01*
X747287Y1191086D01*
Y1189086D01*
X745609Y1188391D01*
X742962Y1182000D01*
X745609Y1175609D01*
X752000Y1172962D01*
X758391Y1175609D01*
X760812Y1181454D01*
X763719Y1184362D01*
X1070883D01*
X1071609Y1182609D01*
X1078000Y1179962D01*
X1084391Y1182609D01*
X1087038Y1189000D01*
X1084391Y1195391D01*
X1078000Y1198038D01*
X1071609Y1195391D01*
X1070179Y1191938D01*
X833327D01*
X832216Y1193601D01*
X834038Y1198000D01*
X831391Y1204391D01*
X825000Y1207038D01*
X818609Y1204391D01*
X816368Y1198980D01*
X791429D01*
X790318Y1200642D01*
X791596Y1203730D01*
X773404D01*
X774682Y1200642D01*
X773571Y1198980D01*
X765143D01*
X762061Y1202061D01*
X759000Y1203329D01*
X757245D01*
X756391Y1205391D01*
X750000Y1208038D01*
D02*
G37*
%LPD*%
G36*
X1217212Y1173431D02*
Y1132569D01*
X1202431Y1117788D01*
X754811D01*
X754413Y1119788D01*
X756389Y1120607D01*
X757882Y1124212D01*
X1145600D01*
X1145600Y1124212D01*
X1148279Y1125321D01*
X1179369Y1156412D01*
X1182737Y1155017D01*
X1182737Y1155017D01*
X1183371Y1154754D01*
Y1154713D01*
Y1154590D01*
X1183371Y1154382D01*
Y1153018D01*
X1183371Y1152810D01*
Y1152687D01*
Y1152646D01*
X1182737Y1152383D01*
Y1152383D01*
X1175581Y1149419D01*
X1172094Y1141000D01*
X1175581Y1132581D01*
X1184000Y1129094D01*
X1192419Y1132581D01*
X1195906Y1141000D01*
X1192419Y1149419D01*
X1185263Y1152383D01*
X1185263Y1152383D01*
X1184629Y1152646D01*
Y1152687D01*
Y1152810D01*
X1184629Y1153018D01*
Y1154382D01*
X1184629Y1154590D01*
Y1154713D01*
Y1154754D01*
X1185263Y1155017D01*
Y1155017D01*
X1192419Y1157981D01*
X1195906Y1166400D01*
X1192419Y1174819D01*
X1184629Y1178046D01*
Y1180154D01*
X1192419Y1183381D01*
X1194337Y1188012D01*
X1202631D01*
X1217212Y1173431D01*
D02*
G37*
G36*
X557978Y1208492D02*
X558421Y1207421D01*
X575712Y1190131D01*
Y1098048D01*
X569821Y1092158D01*
X568712Y1089479D01*
X568712Y1089479D01*
Y947408D01*
X568712Y947408D01*
X569821Y944729D01*
X574212Y940339D01*
Y926469D01*
X571609Y925391D01*
X568962Y919000D01*
X570056Y916358D01*
X568642Y914943D01*
X566000Y916038D01*
X563398Y914960D01*
X552788Y925569D01*
Y1206131D01*
X555619Y1208961D01*
X557978Y1208492D01*
D02*
G37*
G36*
X718129Y1169983D02*
Y1144266D01*
X716129Y1143499D01*
X710000Y1146038D01*
X703609Y1143391D01*
X700962Y1137000D01*
X701161Y1136519D01*
X683321Y1118679D01*
X682212Y1116000D01*
X682212Y1116000D01*
Y918569D01*
X613821Y850179D01*
X612712Y847500D01*
X612712Y847500D01*
Y755466D01*
X611525Y754975D01*
X611150Y754069D01*
X609150D01*
X608775Y754975D01*
X607588Y755466D01*
Y851231D01*
X678679Y922321D01*
X678679Y922321D01*
X679788Y925000D01*
Y1147431D01*
X699398Y1167040D01*
X702000Y1165962D01*
X708391Y1168609D01*
X710817Y1174466D01*
X712886Y1175226D01*
X718129Y1169983D01*
D02*
G37*
G36*
X563263Y1260658D02*
X564095Y1258149D01*
X561962Y1253000D01*
X563040Y1250397D01*
X542636Y1229994D01*
X540788Y1230759D01*
Y1238431D01*
X563088Y1260731D01*
X563263Y1260658D01*
D02*
G37*
G36*
X570199Y1244294D02*
X571292Y1242114D01*
X569112Y1236850D01*
X570190Y1234248D01*
X548636Y1212694D01*
X546788Y1213459D01*
Y1223431D01*
X568397Y1245040D01*
X570199Y1244294D01*
D02*
G37*
D11*
X1228000Y1389000D02*
D03*
X1247000D02*
D03*
X1228000Y1371000D02*
D03*
X1247000D02*
D03*
X1229000Y1354000D02*
D03*
X1248000D02*
D03*
D19*
X663000Y989000D02*
Y1123000D01*
X626000Y952000D02*
X663000Y989000D01*
X722150Y1076850D02*
Y1120565D01*
Y1076850D02*
X723000Y1076000D01*
Y1121415D02*
Y1172000D01*
X722150Y1120565D02*
X723000Y1121415D01*
X667000Y752000D02*
X669000Y750000D01*
X607000Y689000D02*
X629200Y711200D01*
Y750000D01*
X640000Y691800D02*
X654600Y706400D01*
Y750000D01*
X645000Y1055000D02*
X646000Y1054000D01*
X701000Y1194000D02*
X723000Y1172000D01*
X1019000Y1218000D02*
X1040000Y1239000D01*
Y1258000D01*
D20*
X543000Y904000D02*
X551000Y896000D01*
Y898000D01*
X728150Y1108150D02*
X756200Y1080100D01*
X1204000Y1114000D02*
X1221000Y1131000D01*
X728150Y1108150D02*
Y1118080D01*
X730150Y1120080D02*
Y1148150D01*
X728150Y1118080D02*
X730150Y1120080D01*
X738000Y1114000D02*
X1204000D01*
X707000Y1137000D02*
X710000D01*
X686000Y1116000D02*
X707000Y1137000D01*
X609999Y1297000D02*
X620849Y1307850D01*
X629080Y1300850D02*
X635000Y1294930D01*
X639080Y1307850D02*
X656466Y1290464D01*
X620849Y1307850D02*
X639080D01*
X656466Y1288464D02*
Y1290464D01*
X635000Y1294930D02*
Y1298000D01*
X616500Y750000D02*
Y847500D01*
X686000Y917000D01*
X603800Y750000D02*
Y852800D01*
X676000Y925000D01*
X516000Y814000D02*
Y1265000D01*
Y814000D02*
X520000D01*
X527999Y830998D02*
X527999Y830998D01*
X527999Y830998D02*
Y835001D01*
X521000Y842000D02*
X527999Y835001D01*
X536002Y848998D02*
X536999D01*
X527000Y858000D02*
X536002Y848998D01*
X543999Y864998D02*
Y868001D01*
X532000Y880000D02*
X543999Y868001D01*
X532000Y880000D02*
Y1248930D01*
X562920Y1279850D01*
X527000Y858000D02*
Y1259000D01*
X537000Y1240000D02*
X567000Y1270000D01*
X573500Y1279500D02*
X586000Y1267000D01*
X554000Y1286000D02*
X620000D01*
X527000Y1259000D02*
X554000Y1286000D01*
X573500Y1279500D02*
X573850Y1279850D01*
X562920D02*
X573850D01*
X521000Y842000D02*
Y1260071D01*
X537000Y895000D02*
Y1240000D01*
X543000Y1225000D02*
X571000Y1253000D01*
X543000Y904000D02*
Y1225000D01*
X549000Y924000D02*
X566000Y907000D01*
X549000Y924000D02*
Y1207700D01*
X578150Y1236850D01*
X572500Y1089479D02*
X579500Y1096479D01*
X572500Y947408D02*
Y1089479D01*
X561100Y1210100D02*
X579500Y1191700D01*
Y1096479D02*
Y1191700D01*
X582150Y1054850D02*
Y1092058D01*
X572500Y947408D02*
X578000Y941908D01*
Y919000D02*
Y941908D01*
X593999Y1087998D02*
Y1099001D01*
X592000Y1101000D02*
X593999Y1099001D01*
X584500Y1104500D02*
X693000Y1213000D01*
X584500Y1094408D02*
Y1104500D01*
X582150Y1092058D02*
X584500Y1094408D01*
X428000Y963000D02*
X431000D01*
X469000Y1001000D01*
X410000Y979000D02*
X413000D01*
X460000Y1026000D01*
X582150Y1054850D02*
X584000Y1053000D01*
X592000Y1101000D02*
X707000Y1216000D01*
X795000Y1355000D02*
X1229000D01*
X662000Y1222000D02*
X795000Y1355000D01*
X797000Y1390000D02*
X1228000D01*
X634000Y1227000D02*
X797000Y1390000D01*
X1267000Y1354000D02*
X1268000Y1355000D01*
X1248000Y1354000D02*
X1267000D01*
X1257600Y1371000D02*
X1268000Y1381400D01*
X1247000Y1371000D02*
X1257600D01*
X1283000Y1381400D02*
Y1389000D01*
X1276000Y1396000D02*
X1283000Y1389000D01*
X1263000Y1396000D02*
X1276000D01*
X1256000Y1389000D02*
X1263000Y1396000D01*
X1247000Y1389000D02*
X1256000D01*
X657000Y1232000D02*
X796000Y1371000D01*
X1228000D01*
X707000Y1216000D02*
Y1230000D01*
X756200Y750000D02*
Y1080100D01*
X686000Y917000D02*
Y1116000D01*
X645000Y1055000D02*
Y1137000D01*
X516000Y1265000D02*
X548000Y1297000D01*
X609999D01*
X521000Y1260071D02*
X552929Y1292000D01*
X612070D01*
X620920Y1300850D01*
X629080D01*
X586000Y1267000D02*
X612000D01*
X578000Y1227000D02*
X592000D01*
X561100Y1210100D02*
X578000Y1227000D01*
X749998Y1126998D02*
X751001Y1128000D01*
X1184000Y1191800D02*
X1204200D01*
X1221000Y1175000D01*
Y1131000D02*
Y1175000D01*
X751001Y1128000D02*
X1145600D01*
X1184000Y1166400D01*
X737000Y1155000D02*
Y1155995D01*
X730150Y1148150D02*
X737000Y1155000D01*
X693000Y1213000D02*
Y1217000D01*
X676000Y925000D02*
Y1149000D01*
X702000Y1175000D01*
X643000Y1182000D02*
X662000Y1201000D01*
X739000Y1282000D02*
X1170000D01*
X1184000Y1268000D01*
X662000Y1201000D02*
Y1222000D01*
X637000Y1197000D02*
X641000D01*
X657000Y1213000D01*
Y1232000D01*
X634000Y1220000D02*
Y1227000D01*
X752000Y1182000D02*
X754000Y1180000D01*
X1077150Y1188150D02*
X1078000Y1189000D01*
X762150Y1188150D02*
X1077150D01*
X754000Y1180000D02*
X762150Y1188150D01*
X537000Y895000D02*
X554000Y878000D01*
D22*
X1184000Y1217200D02*
X1207800D01*
X1229000Y1196000D01*
Y1047000D02*
Y1196000D01*
X1211700Y1029700D02*
X1229000Y1047000D01*
X1204150Y1029700D02*
X1211700D01*
X1283000Y1345808D02*
Y1355000D01*
X1268192Y1331000D02*
X1283000Y1345808D01*
X1037000Y1331000D02*
X1268192D01*
X1132200Y1217200D02*
X1184000D01*
D23*
X438000Y688000D02*
X626000D01*
X727000D01*
X756500D01*
X72100Y209900D02*
X72300D01*
X138000Y988000D02*
X438000Y688000D01*
X138000Y1063000D02*
X187400Y1013600D01*
X106000Y1095000D02*
X138000Y1063000D01*
Y988000D02*
Y1063000D01*
X106000Y1272000D02*
X143000Y1235000D01*
X77000Y1301000D02*
X106000Y1272000D01*
Y1095000D02*
Y1272000D01*
X179000Y1235000D02*
X255000D01*
X143000D02*
X179000D01*
X77000Y1301000D02*
Y1335000D01*
X108000Y1366000D01*
X26000Y593000D02*
Y1336000D01*
Y485000D02*
Y593000D01*
X53500Y565500D02*
X72300D01*
X26000Y593000D02*
X53500Y565500D01*
X26000Y408000D02*
Y485000D01*
Y115000D02*
Y408000D01*
X46300Y387700D02*
X72300D01*
X26000Y408000D02*
X46300Y387700D01*
X47100Y463900D02*
X72300D01*
X26000Y485000D02*
X47100Y463900D01*
X26200Y256000D02*
X72300Y209900D01*
X80000Y96000D02*
X119000D01*
X45000D02*
X80000D01*
X97700Y113700D01*
Y133700D01*
Y311500D02*
X111500D01*
X140000Y283000D01*
Y117000D02*
Y283000D01*
X119000Y96000D02*
X140000Y117000D01*
X26000Y115000D02*
X45000Y96000D01*
X26000Y1336000D02*
X56000Y1366000D01*
X108000D01*
X187400Y1013600D02*
X227000D01*
X539000Y1306000D02*
X553000Y1320000D01*
X256000Y1236000D02*
X460000D01*
X553000Y1320000D02*
X620000D01*
X638000Y1338000D01*
X802000Y1218000D02*
X1130000D01*
D26*
X782500Y1205000D02*
X795500Y1218000D01*
X239000Y1039000D02*
X393000Y1193000D01*
X227000Y1039000D02*
X239000D01*
D27*
X750000Y1199000D02*
X759000D01*
X763350Y1194650D01*
X821650D01*
X825000Y1198000D01*
D28*
X1184000Y1268000D02*
D03*
Y1242600D02*
D03*
Y1217200D02*
D03*
Y1191800D02*
D03*
Y1166400D02*
D03*
Y1141000D02*
D03*
D29*
X756200Y750000D02*
D03*
X730800D02*
D03*
X743500D02*
D03*
X718100D02*
D03*
X705400D02*
D03*
X692700D02*
D03*
X680000D02*
D03*
X667300D02*
D03*
X654600D02*
D03*
X641900D02*
D03*
X629200D02*
D03*
X616500D02*
D03*
X603800D02*
D03*
D30*
X586500Y45000D02*
D03*
X688100D02*
D03*
X662700D02*
D03*
X561100D02*
D03*
X611900D02*
D03*
X637300D02*
D03*
X713500D02*
D03*
X738900D02*
D03*
X1178750Y953500D02*
D03*
X1204150D02*
D03*
X1178750Y978900D02*
D03*
X1204150D02*
D03*
Y1004300D02*
D03*
X1178750D02*
D03*
X1204150Y1029700D02*
D03*
X1178750D02*
D03*
X1204150Y928100D02*
D03*
X1178750D02*
D03*
D31*
X97700Y616300D02*
D03*
X72300D02*
D03*
Y590900D02*
D03*
X97700D02*
D03*
X72300Y565500D02*
D03*
X97700D02*
D03*
X72300Y540100D02*
D03*
X97700D02*
D03*
X72300Y514700D02*
D03*
X97700D02*
D03*
X72300Y489300D02*
D03*
X97700D02*
D03*
X72300Y463900D02*
D03*
X97700D02*
D03*
X72300Y438500D02*
D03*
X97700D02*
D03*
X72300Y413100D02*
D03*
X97700D02*
D03*
Y387700D02*
D03*
X72300D02*
D03*
X97700Y362300D02*
D03*
X72300D02*
D03*
X97700Y336900D02*
D03*
X72300D02*
D03*
X97700Y311500D02*
D03*
X72300D02*
D03*
X97700Y286100D02*
D03*
X72300D02*
D03*
X97700Y260700D02*
D03*
X72300D02*
D03*
X97700Y235300D02*
D03*
X72300D02*
D03*
X97700Y209900D02*
D03*
X72300D02*
D03*
X97700Y184500D02*
D03*
X72300D02*
D03*
X97700Y159100D02*
D03*
X72300D02*
D03*
X97700Y133700D02*
D03*
X72300D02*
D03*
X227000Y1013600D02*
D03*
Y1039000D02*
D03*
D32*
X108000Y1366000D02*
D03*
X128000Y1315000D02*
D03*
D33*
X748000Y688000D02*
D03*
X707000D02*
D03*
X690000D02*
D03*
X672000D02*
D03*
X655000D02*
D03*
X551000Y898000D02*
D03*
X663000Y1123000D02*
D03*
X738000Y1114000D02*
D03*
X710000Y1137000D02*
D03*
X620000Y1286000D02*
D03*
X652000Y1290000D02*
D03*
X635000Y1298000D02*
D03*
X626000Y952000D02*
D03*
X727000Y688000D02*
D03*
X782500Y1205000D02*
D03*
X626000Y688000D02*
D03*
X520000Y814000D02*
D03*
X527999Y830998D02*
D03*
X536999Y848998D02*
D03*
X543999Y864998D02*
D03*
X567000Y1270000D02*
D03*
X566000Y907000D02*
D03*
X593999Y1087998D02*
D03*
X578000Y919000D02*
D03*
X428000Y963000D02*
D03*
X410000Y979000D02*
D03*
X179000Y1235000D02*
D03*
X469000Y1001000D02*
D03*
X460000Y1026000D02*
D03*
X584000Y1053000D02*
D03*
X1037000Y1331000D02*
D03*
X707000Y1230000D02*
D03*
X393000Y1193000D02*
D03*
X702000Y1175000D02*
D03*
X646000Y1054000D02*
D03*
X645000Y1137000D02*
D03*
X612000Y1267000D02*
D03*
X571000Y1253000D02*
D03*
X578150Y1236850D02*
D03*
X592000Y1227000D02*
D03*
X256000Y1236000D02*
D03*
X638000Y1338000D02*
D03*
X1040000Y1258000D02*
D03*
X723000Y1076000D02*
D03*
X701000Y1194000D02*
D03*
X749998Y1126998D02*
D03*
X737000Y1155000D02*
D03*
X750000Y1199000D02*
D03*
X752000Y1182000D02*
D03*
X825000Y1198000D02*
D03*
X693000Y1217000D02*
D03*
X643000Y1182000D02*
D03*
X739000Y1282000D02*
D03*
X637000Y1197000D02*
D03*
X634000Y1220000D02*
D03*
X1078000Y1189000D02*
D03*
X554000Y878000D02*
D03*
D34*
X460000Y1111000D02*
D03*
Y1163000D02*
D03*
Y1128000D02*
D03*
Y1146000D02*
D03*
Y1193000D02*
D03*
X486000Y1069000D02*
D03*
X472000Y1080000D02*
D03*
X502000Y1068000D02*
D03*
X460000Y1223000D02*
D03*
Y1237000D02*
D03*
Y1250000D02*
D03*
Y1264000D02*
D03*
X483000Y1304000D02*
D03*
X539000Y1306000D02*
D03*
X471000Y1297000D02*
D03*
X460000Y1210000D02*
D03*
Y1177000D02*
D03*
X461000Y1090000D02*
D03*
X462000Y1288000D02*
D03*
X460000Y1276000D02*
D03*
X525000Y1305000D02*
D03*
X512500Y1305000D02*
D03*
X497000Y1305000D02*
D03*
D35*
X1268000Y1355000D02*
D03*
X1283000D02*
D03*
Y1381400D02*
D03*
X1268000D02*
D03*
M02*
