%FSLAX44Y44*%
%MOMM*%
G71*
G01*
G75*
G04 Layer_Color=32896*
%ADD10R,1.0000X1.0000*%
%ADD11R,1.0000X1.0000*%
%ADD12R,0.5500X1.5000*%
%ADD13R,1.5000X0.5500*%
%ADD14R,2.0000X5.5000*%
%ADD15R,0.7600X1.7800*%
%ADD16R,0.7200X1.7800*%
%ADD17R,4.3000X2.6000*%
%ADD18R,5.7000X5.5000*%
%ADD19C,0.9000*%
%ADD20C,2.0000*%
%ADD21C,1.4000*%
%ADD22C,0.5000*%
%ADD23C,0.3000*%
%ADD24C,0.5400*%
%ADD25C,1.0000*%
%ADD26C,0.4000*%
%ADD27C,0.2540*%
%ADD28R,1.8500X1.8500*%
%ADD29C,1.8500*%
%ADD30C,1.8000*%
%ADD31C,0.9000*%
%ADD32C,1.3000*%
%ADD33C,1.7000*%
%ADD34C,3.0000*%
%ADD35C,1.2700*%
%ADD36C,1.0000*%
%ADD37R,1.0000X1.4000*%
%ADD38C,0.2500*%
%ADD39C,0.2000*%
%ADD40R,1.2032X1.2032*%
%ADD41R,1.2032X1.2032*%
%ADD42R,0.7532X1.7032*%
%ADD43R,1.7032X0.7532*%
%ADD44R,2.2032X5.7032*%
%ADD45R,0.9632X1.9832*%
%ADD46R,0.9232X1.9832*%
%ADD47R,4.5032X2.8032*%
%ADD48R,5.9032X5.7032*%
%ADD49R,2.0532X2.0532*%
%ADD50C,2.0532*%
%ADD51C,2.0032*%
%ADD52C,1.1032*%
%ADD53C,1.5032*%
%ADD54C,1.9032*%
%ADD55C,3.2032*%
%ADD56C,1.4732*%
%ADD57C,1.2032*%
%ADD58R,1.2032X1.6032*%
D27*
X1237000Y1388000D02*
Y1390000D01*
Y1370000D02*
Y1372000D01*
X1238000Y1353000D02*
Y1355000D01*
X1282000Y1366000D02*
X1286000Y1370000D01*
X278500Y750000D02*
X582500D01*
X278500D02*
Y1114000D01*
X1021500D01*
Y750000D02*
Y1114000D01*
X771200Y750000D02*
X1021500D01*
X325000Y20000D02*
X975000D01*
X325000D02*
Y660000D01*
X975000D01*
Y20000D02*
Y660000D01*
X1020318Y1122934D02*
Y1138169D01*
X1012701D01*
X1010161Y1135630D01*
Y1130552D01*
X1012701Y1128012D01*
X1020318D01*
X1005083Y1122934D02*
X1000005D01*
X1002544D01*
Y1138169D01*
X1005083Y1135630D01*
X351536Y684017D02*
Y671321D01*
X348997Y668782D01*
X343919D01*
X341379Y671321D01*
Y684017D01*
X326144D02*
X336301D01*
Y676400D01*
X331223Y678939D01*
X328684D01*
X326144Y676400D01*
Y671321D01*
X328684Y668782D01*
X333762D01*
X336301Y671321D01*
X1285000Y1337235D02*
Y1324539D01*
X1282461Y1322000D01*
X1277383D01*
X1274843Y1324539D01*
Y1337235D01*
X1269765Y1322000D02*
X1264687D01*
X1267226D01*
Y1337235D01*
X1269765Y1334696D01*
X1212000Y1347000D02*
Y1358996D01*
X1206002D01*
X1204003Y1356997D01*
Y1352998D01*
X1206002Y1350999D01*
X1212000D01*
X1208001D02*
X1204003Y1347000D01*
X1192007Y1358996D02*
X1200004D01*
Y1352998D01*
X1196005Y1354997D01*
X1194006D01*
X1192007Y1352998D01*
Y1348999D01*
X1194006Y1347000D01*
X1198005D01*
X1200004Y1348999D01*
X1211000Y1366000D02*
Y1377996D01*
X1205002D01*
X1203003Y1375997D01*
Y1371998D01*
X1205002Y1369999D01*
X1211000D01*
X1207001D02*
X1203003Y1366000D01*
X1193006D02*
Y1377996D01*
X1199004Y1371998D01*
X1191006D01*
X1213000Y1384000D02*
Y1395996D01*
X1207002D01*
X1205003Y1393997D01*
Y1389998D01*
X1207002Y1387999D01*
X1213000D01*
X1209001D02*
X1205003Y1384000D01*
X1201004Y1393997D02*
X1199005Y1395996D01*
X1195006D01*
X1193007Y1393997D01*
Y1391997D01*
X1195006Y1389998D01*
X1197005D01*
X1195006D01*
X1193007Y1387999D01*
Y1385999D01*
X1195006Y1384000D01*
X1199005D01*
X1201004Y1385999D01*
X700000Y639235D02*
Y624000D01*
Y629078D01*
X689843Y639235D01*
X697461Y631618D01*
X689843Y624000D01*
X677147D02*
X682226D01*
X684765Y626539D01*
Y631618D01*
X682226Y634157D01*
X677147D01*
X674608Y631618D01*
Y629078D01*
X684765D01*
X669530Y634157D02*
Y626539D01*
X666991Y624000D01*
X659373D01*
Y621461D01*
X661912Y618922D01*
X664452D01*
X659373Y624000D02*
Y634157D01*
X654295Y618922D02*
Y634157D01*
X646677D01*
X644138Y631618D01*
Y626539D01*
X646677Y624000D01*
X654295D01*
X636521Y634157D02*
X631442D01*
X628903Y631618D01*
Y624000D01*
X636521D01*
X639060Y626539D01*
X636521Y629078D01*
X628903D01*
X613668Y639235D02*
Y624000D01*
X621285D01*
X623825Y626539D01*
Y631618D01*
X621285Y634157D01*
X613668D01*
M02*
