%FSLAX44Y44*%
%MOMM*%
G71*
G01*
G75*
G04 Layer_Color=8421504*
%ADD10R,1.0000X1.0000*%
%ADD11R,1.0000X1.0000*%
%ADD12R,0.5500X1.5000*%
%ADD13R,1.5000X0.5500*%
%ADD14R,2.0000X5.5000*%
%ADD15R,0.7600X1.7800*%
%ADD16R,0.7200X1.7800*%
%ADD17R,4.3000X2.6000*%
%ADD18R,5.7000X5.5000*%
%ADD19C,0.9000*%
%ADD20C,2.0000*%
%ADD21C,1.4000*%
%ADD22C,0.5000*%
%ADD23C,0.3000*%
%ADD24C,0.5400*%
%ADD25C,1.0000*%
%ADD26C,0.4000*%
%ADD27C,0.2540*%
%ADD28R,1.8500X1.8500*%
%ADD29C,1.8500*%
%ADD30C,1.8000*%
%ADD31C,0.9000*%
%ADD32C,1.3000*%
%ADD33C,1.7000*%
%ADD34C,3.0000*%
%ADD35C,1.2700*%
%ADD36C,1.0000*%
%ADD37R,1.0000X1.4000*%
%ADD38C,0.2500*%
%ADD39C,0.2000*%
D10*
X861000Y1039000D02*
D03*
Y1020000D02*
D03*
X669000Y1295000D02*
D03*
Y1314000D02*
D03*
X1088000Y1331000D02*
D03*
Y1312000D02*
D03*
X642000Y729000D02*
D03*
Y710000D02*
D03*
X756000Y729000D02*
D03*
Y710000D02*
D03*
X741000Y729000D02*
D03*
Y710000D02*
D03*
X726000Y729000D02*
D03*
Y710000D02*
D03*
X711000Y729000D02*
D03*
Y710000D02*
D03*
X695000Y729000D02*
D03*
Y710000D02*
D03*
X680000Y729000D02*
D03*
Y710000D02*
D03*
X617000D02*
D03*
Y729000D02*
D03*
X600000Y710000D02*
D03*
Y729000D02*
D03*
X287000Y1267000D02*
D03*
Y1286000D02*
D03*
X219000Y1259000D02*
D03*
Y1278000D02*
D03*
X592000Y1297000D02*
D03*
Y1278000D02*
D03*
X677000Y1113000D02*
D03*
Y1132000D02*
D03*
D11*
X1068000Y1268000D02*
D03*
X1049000D02*
D03*
X1131000D02*
D03*
X1112000D02*
D03*
X784000Y1244000D02*
D03*
X765000D02*
D03*
X784000Y1221000D02*
D03*
X765000D02*
D03*
X519000Y1284000D02*
D03*
X500000D02*
D03*
X518000Y1096000D02*
D03*
X499000D02*
D03*
D12*
X709000Y1155000D02*
D03*
X701000D02*
D03*
X653000Y1154870D02*
D03*
X693000Y1155000D02*
D03*
X661000D02*
D03*
X669000D02*
D03*
X677000D02*
D03*
X685000D02*
D03*
X645000D02*
D03*
X637000D02*
D03*
X629000D02*
D03*
X709000Y1269000D02*
D03*
X701000D02*
D03*
X653000D02*
D03*
X693000D02*
D03*
X661000D02*
D03*
X669000D02*
D03*
X677000D02*
D03*
X685000D02*
D03*
X645000D02*
D03*
X637000D02*
D03*
X629000D02*
D03*
D13*
X726000Y1172000D02*
D03*
Y1180000D02*
D03*
Y1188000D02*
D03*
Y1228000D02*
D03*
Y1220000D02*
D03*
Y1212000D02*
D03*
Y1204000D02*
D03*
Y1236000D02*
D03*
Y1196000D02*
D03*
Y1244000D02*
D03*
Y1252000D02*
D03*
X612000D02*
D03*
Y1244000D02*
D03*
Y1196000D02*
D03*
Y1236000D02*
D03*
Y1204000D02*
D03*
Y1212000D02*
D03*
Y1220000D02*
D03*
Y1228000D02*
D03*
Y1188000D02*
D03*
Y1180000D02*
D03*
Y1172000D02*
D03*
D14*
X519000Y1145000D02*
D03*
Y1240000D02*
D03*
D15*
X790000Y1055800D02*
D03*
X802700D02*
D03*
X815400D02*
D03*
X828100D02*
D03*
X790000Y1003285D02*
D03*
X802700Y1003280D02*
D03*
X828100D02*
D03*
D16*
X815400D02*
D03*
D17*
X218000Y1366000D02*
D03*
Y1320300D02*
D03*
D18*
X284650Y1343150D02*
D03*
M02*
