%FSLAX44Y44*%
%MOMM*%
G71*
G01*
G75*
G04 Layer_Physical_Order=1*
G04 Layer_Color=255*
%ADD10R,1.0000X1.0000*%
%ADD11R,1.0000X1.0000*%
%ADD12R,0.5500X1.5000*%
%ADD13R,1.5000X0.5500*%
%ADD14R,2.0000X5.5000*%
%ADD15R,0.7600X1.7800*%
%ADD16R,0.7200X1.7800*%
%ADD17R,4.3000X2.6000*%
%ADD18R,5.7000X5.5000*%
%ADD19C,0.9000*%
%ADD20C,2.0000*%
%ADD21C,1.4000*%
%ADD22C,0.5000*%
%ADD23C,0.3000*%
%ADD24C,0.5400*%
%ADD25C,1.0000*%
%ADD26C,0.4000*%
%ADD27C,0.2540*%
%ADD28R,1.8500X1.8500*%
%ADD29C,1.8500*%
%ADD30C,1.8000*%
%ADD31C,0.9000*%
%ADD32C,1.3000*%
%ADD33C,1.7000*%
%ADD34C,3.0000*%
%ADD35C,1.2700*%
%ADD36C,1.0000*%
D10*
X861000Y1039000D02*
D03*
Y1020000D02*
D03*
X669000Y1295000D02*
D03*
Y1314000D02*
D03*
X1088000Y1331000D02*
D03*
Y1312000D02*
D03*
X642000Y729000D02*
D03*
Y710000D02*
D03*
X756000Y729000D02*
D03*
Y710000D02*
D03*
X741000Y729000D02*
D03*
Y710000D02*
D03*
X726000Y729000D02*
D03*
Y710000D02*
D03*
X711000Y729000D02*
D03*
Y710000D02*
D03*
X695000Y729000D02*
D03*
Y710000D02*
D03*
X680000Y729000D02*
D03*
Y710000D02*
D03*
X617000D02*
D03*
Y729000D02*
D03*
X600000Y710000D02*
D03*
Y729000D02*
D03*
X287000Y1267000D02*
D03*
Y1286000D02*
D03*
X219000Y1259000D02*
D03*
Y1278000D02*
D03*
X592000Y1297000D02*
D03*
Y1278000D02*
D03*
X677000Y1113000D02*
D03*
Y1132000D02*
D03*
D11*
X1068000Y1268000D02*
D03*
X1049000D02*
D03*
X1131000D02*
D03*
X1112000D02*
D03*
X784000Y1244000D02*
D03*
X765000D02*
D03*
X784000Y1221000D02*
D03*
X765000D02*
D03*
X519000Y1284000D02*
D03*
X500000D02*
D03*
X518000Y1096000D02*
D03*
X499000D02*
D03*
D12*
X709000Y1155000D02*
D03*
X701000D02*
D03*
X653000Y1154870D02*
D03*
X693000Y1155000D02*
D03*
X661000D02*
D03*
X669000D02*
D03*
X677000D02*
D03*
X685000D02*
D03*
X645000D02*
D03*
X637000D02*
D03*
X629000D02*
D03*
X709000Y1269000D02*
D03*
X701000D02*
D03*
X653000D02*
D03*
X693000D02*
D03*
X661000D02*
D03*
X669000D02*
D03*
X677000D02*
D03*
X685000D02*
D03*
X645000D02*
D03*
X637000D02*
D03*
X629000D02*
D03*
D13*
X726000Y1172000D02*
D03*
Y1180000D02*
D03*
Y1188000D02*
D03*
Y1228000D02*
D03*
Y1220000D02*
D03*
Y1212000D02*
D03*
Y1204000D02*
D03*
Y1236000D02*
D03*
Y1196000D02*
D03*
Y1244000D02*
D03*
Y1252000D02*
D03*
X612000D02*
D03*
Y1244000D02*
D03*
Y1196000D02*
D03*
Y1236000D02*
D03*
Y1204000D02*
D03*
Y1212000D02*
D03*
Y1220000D02*
D03*
Y1228000D02*
D03*
Y1188000D02*
D03*
Y1180000D02*
D03*
Y1172000D02*
D03*
D14*
X519000Y1145000D02*
D03*
Y1240000D02*
D03*
D15*
X790000Y1055800D02*
D03*
X802700D02*
D03*
X815400D02*
D03*
X828100D02*
D03*
X790000Y1003285D02*
D03*
X802700Y1003280D02*
D03*
X828100D02*
D03*
D16*
X815400D02*
D03*
D17*
X218000Y1366000D02*
D03*
Y1320300D02*
D03*
D18*
X284650Y1343150D02*
D03*
D19*
X1010000Y1242600D02*
X1184000D01*
X641000Y752500D02*
X643500Y750000D01*
X641000Y752500D02*
Y810000D01*
X667000Y750300D02*
Y784000D01*
X1008400Y1217600D02*
Y1242600D01*
X1178750Y1029700D02*
Y1047250D01*
X1008400Y1217600D02*
X1178750Y1047250D01*
D20*
X392000Y1033000D02*
Y1292400D01*
X345000Y1339400D02*
X392000Y1292400D01*
X345000Y1339400D02*
X442400D01*
X635000Y816000D02*
X641000Y810000D01*
X643500Y807500D02*
X667000Y784000D01*
X473000Y952000D02*
X594000D01*
X635000Y816000D02*
Y911000D01*
X594000Y952000D02*
X635000Y911000D01*
X594000Y952000D02*
X626000D01*
X773000D01*
X1037000Y1331000D02*
X1039000D01*
X742000D02*
X1037000D01*
X392000Y1033000D02*
X473000Y952000D01*
X472000Y1369000D02*
X554000D01*
X554000D02*
X704000D01*
X742000Y1331000D01*
X446150Y1343150D02*
X472000Y1369000D01*
X923000Y1328000D02*
X1008400Y1242600D01*
D21*
X287000Y1286000D02*
Y1340800D01*
Y1286000D02*
X342400D01*
X500000Y1305000D02*
X525000D01*
X72300Y1259300D02*
X128000Y1315000D01*
X72300Y616300D02*
Y1259300D01*
Y590900D02*
Y616300D01*
X561501Y1091501D02*
X582000Y1112000D01*
X560652Y1091501D02*
X561501D01*
X538151Y1069000D02*
X560652Y1091501D01*
X582000Y1112000D02*
X634000D01*
X719000Y1096000D02*
X741708D01*
X650000D02*
X719000D01*
X894000Y976000D02*
Y1021000D01*
X870000Y952000D02*
X894000Y976000D01*
X773000Y952000D02*
X870000D01*
X634000Y1112000D02*
X650000Y1096000D01*
X460000Y1091000D02*
X482000Y1069000D01*
X519000Y1240000D02*
X519000Y1240000D01*
X133300Y1320300D02*
X218000D01*
X108000Y1366000D02*
X218000D01*
X482000Y1069000D02*
X538151D01*
X525000Y1305000D02*
X538000D01*
X741708Y1096000D02*
X779000Y1133292D01*
Y1201500D01*
X782500Y1205000D01*
X460000Y1193000D02*
Y1286000D01*
X479000Y1305000D01*
X460000Y1091000D02*
Y1111000D01*
Y1128000D01*
Y1146000D01*
Y1163000D01*
Y1193000D01*
X479000Y1305000D02*
X500000D01*
X494000Y1305000D02*
X512500D01*
D22*
X748000Y688000D02*
Y695000D01*
X756000Y703000D01*
X727000Y688000D02*
X741000Y702000D01*
Y710000D01*
X677000D02*
X680000D01*
X655000Y688000D02*
X677000Y710000D01*
X689500Y688500D02*
X711000Y710000D01*
X726000Y707000D02*
Y710000D01*
X707000Y688000D02*
X726000Y707000D01*
X673000Y688000D02*
X695000Y710000D01*
X672000Y688000D02*
X673000D01*
X662328Y1137672D02*
X662672D01*
X640000Y1115000D02*
Y1115344D01*
X640850Y1112150D02*
X676150D01*
X677000Y1113000D01*
X640000D02*
X640850Y1112150D01*
X640000Y1115344D02*
X662328Y1137672D01*
X663000Y1123000D02*
X663001D01*
X665000Y1124999D01*
Y1129000D01*
X662672Y1137672D02*
X669000Y1144000D01*
X648000Y1312000D02*
X665000Y1295000D01*
X611000Y1312000D02*
X648000D01*
X756000Y703000D02*
Y710000D01*
X669000Y1155000D02*
Y1163614D01*
X626000Y694000D02*
X642000Y710000D01*
X626000Y688000D02*
Y694000D01*
X179000Y1235000D02*
X182000D01*
X206000Y1259000D01*
X219000D01*
X600000Y710000D02*
X617000D01*
X636000Y729000D01*
X642000D01*
X743500Y748500D02*
Y750000D01*
Y748500D02*
X756000Y736000D01*
Y729000D02*
Y736000D01*
X734500Y746272D02*
X739772Y741000D01*
X734500Y746272D02*
Y746300D01*
X739772Y741000D02*
X739800D01*
X741000Y739800D01*
X730800Y750000D02*
X734500Y746300D01*
X711000Y729000D02*
Y736000D01*
X705400Y741600D02*
X711000Y736000D01*
X705400Y741600D02*
Y750000D01*
X726000Y729000D02*
Y738000D01*
X718100Y745900D02*
X726000Y738000D01*
X718100Y745900D02*
Y750000D01*
X641900Y729100D02*
Y750000D01*
X692700Y731300D02*
X695000Y729000D01*
X692700Y731300D02*
Y750000D01*
X680000Y729000D02*
Y750000D01*
X828100Y1003280D02*
Y1018900D01*
X861000Y1039000D02*
X876000D01*
X894000Y1021000D01*
X815400Y1055800D02*
X828100D01*
X773000Y952000D02*
X815400Y994400D01*
Y1003280D01*
X693000Y1269000D02*
X693750Y1269750D01*
Y1278364D01*
X709386Y1294000D01*
X784000D01*
X802700Y1275300D01*
Y1055800D02*
Y1275300D01*
X726000Y1228000D02*
X742000D01*
X828100Y1003280D02*
X844280D01*
X861000Y1020000D01*
X828100Y1055800D02*
X844200D01*
X861000Y1039000D01*
X665000Y1295000D02*
X669000D01*
X611000Y1297000D02*
Y1312000D01*
X592000Y1278000D02*
X611000Y1297000D01*
X592250Y1227250D02*
X611250D01*
X592000Y1227000D02*
X592250Y1227250D01*
X611250D02*
X612000Y1228000D01*
X575000Y1212000D02*
X612000D01*
X556000Y1231000D02*
X575000Y1212000D01*
X726750Y1220750D02*
X765000D01*
Y1221000D01*
Y1244000D01*
X1040000Y1258000D02*
Y1259000D01*
X1049000Y1268000D01*
X1039000Y1331000D02*
X1088000D01*
X638000Y1338000D02*
X681000D01*
X638000D02*
X662000Y1314000D01*
X669000D01*
X681000Y1338000D02*
X687000Y1332000D01*
Y1292000D02*
Y1332000D01*
X677000Y1282000D02*
X687000Y1292000D01*
X677000Y1269000D02*
Y1282000D01*
X669000Y1144000D02*
Y1155000D01*
X256000Y1236000D02*
X287000Y1267000D01*
X518000Y1096000D02*
Y1144000D01*
X519000Y1240000D02*
Y1284000D01*
X219000Y1278000D02*
Y1319300D01*
X677000Y1132000D02*
Y1155000D01*
X669000Y1269000D02*
Y1295000D01*
X556000Y1231000D02*
Y1287000D01*
X563000Y1294000D01*
X576000D01*
X592000Y1278000D01*
X719000Y1096000D02*
X775000Y1040000D01*
X807000D01*
X828100Y1018900D01*
X802700Y1003280D02*
Y1018300D01*
X794000Y1027000D02*
X802700Y1018300D01*
X772000Y1027000D02*
X794000D01*
X723000Y1076000D02*
X772000Y1027000D01*
X701000Y1194000D02*
X704750D01*
X714000Y1203250D01*
X584000Y1305000D02*
X592000Y1297000D01*
X539000Y1305000D02*
X584000D01*
X726000Y1212000D02*
X737000D01*
X742000Y1228000D02*
Y1256000D01*
X752000Y1266000D01*
X794000D01*
Y1132029D02*
Y1266000D01*
X788706Y1126734D02*
X794000Y1132029D01*
X788706Y1055800D02*
Y1126734D01*
X784000Y1221000D02*
Y1244000D01*
X737000Y1212000D02*
X737500Y1211500D01*
X769000D01*
X779000Y1201500D01*
X668000Y1132000D02*
X677000D01*
X665000Y1129000D02*
X668000Y1132000D01*
D23*
X551000Y896000D02*
Y898000D01*
X685500Y1126500D02*
X698000Y1114000D01*
X738000D01*
X710000Y1137000D02*
Y1154000D01*
X709000Y1155000D02*
X710000Y1154000D01*
X635000Y1290000D02*
X645000Y1280000D01*
X635250Y1270750D02*
Y1277950D01*
X633200Y1280000D02*
X635250Y1277950D01*
X626000Y1280000D02*
X633200D01*
X621100Y1284900D02*
X626000Y1280000D01*
X621100Y1284900D02*
X622200Y1286000D01*
X620000D02*
X622200D01*
X645000Y1269000D02*
Y1280000D01*
X635000Y1290000D02*
Y1298000D01*
X678500Y10000D02*
X713500Y45000D01*
X688100Y41100D02*
Y45000D01*
X738900Y39900D02*
Y45000D01*
X567000Y1270000D02*
X571000D01*
X566000Y907000D02*
X570000Y903000D01*
Y70000D02*
Y903000D01*
X542000Y34929D02*
Y49071D01*
X590002Y1087998D02*
X593999D01*
X588000Y1090000D02*
X590002Y1087998D01*
X578000Y61900D02*
Y919000D01*
X561100Y45000D02*
X578000Y61900D01*
X72300Y514700D02*
X85600Y528000D01*
X110000D01*
X156000Y574000D01*
Y691000D01*
X428000Y963000D01*
X72300Y540100D02*
X85200Y553000D01*
X102171D01*
X137000Y587830D01*
Y706000D01*
X410000Y979000D01*
X469000Y1001000D02*
X472000Y1004000D01*
X535000D01*
X584000Y1053000D01*
X460000Y1026000D02*
X524000D01*
X588000Y1090000D01*
X707000Y1230000D02*
X713000Y1236000D01*
X726000D01*
Y1180000D02*
X742000D01*
X600000Y729000D02*
Y746200D01*
X603800Y750000D01*
X616500Y729500D02*
Y750000D01*
X702000Y1175000D02*
X705000Y1172000D01*
X726000D01*
X693000Y1131000D02*
X697002Y1126998D01*
X693000Y1131000D02*
Y1155000D01*
X696715Y1003285D02*
X790000D01*
X646000Y1054000D02*
X696715Y1003285D01*
X645000Y1137000D02*
Y1155000D01*
X653000Y1269000D02*
Y1286997D01*
X635250Y1270750D02*
X637000Y1269000D01*
X612000Y1267000D02*
X614000Y1269000D01*
X629000D01*
X571000Y1270000D02*
X589000Y1252000D01*
X612000D01*
X571000Y1253000D02*
X577000D01*
X586000Y1244000D01*
X612000D01*
X578150Y1236850D02*
X612000D01*
Y1236000D02*
Y1236850D01*
X685500Y1126500D02*
Y1154500D01*
X685000Y1155000D02*
X685500Y1154500D01*
X1068000Y1268000D02*
X1112000D01*
X1088000Y1312000D02*
X1112000Y1288000D01*
Y1268000D02*
Y1288000D01*
X1131000Y1268000D02*
X1184000D01*
X574515Y1204000D02*
X612000D01*
X549000Y1229515D02*
X574515Y1204000D01*
X549000Y1229515D02*
Y1281000D01*
X525000Y1305000D02*
X549000Y1281000D01*
X697002Y1126998D02*
X749998D01*
X787998Y1127441D02*
X789500Y1128943D01*
X737000Y1155000D02*
Y1158999D01*
X742000Y1163999D01*
Y1180000D01*
X726000Y1188000D02*
X746000D01*
X752000Y1182000D01*
X612000Y1172000D02*
X633000D01*
X643000Y1182000D01*
X713000Y1252000D02*
X726000D01*
X693000Y1217000D02*
Y1233000D01*
X708000Y1248000D01*
X705000Y1244000D02*
X713000Y1252000D01*
X661000Y1250000D02*
Y1269000D01*
Y1250000D02*
X702929D01*
X710929Y1258000D01*
X713200D01*
X734600Y1279400D01*
X736400D01*
X739000Y1282000D01*
X612000Y1180000D02*
X624000D01*
X637000Y1193000D01*
Y1197000D01*
X612000Y1220000D02*
X634000D01*
X1204150Y1004300D02*
X1223000Y1023150D01*
X1079000Y1184000D02*
X1083000D01*
X1223000Y1044000D01*
Y1023150D02*
Y1044000D01*
X517000Y811000D02*
X520000Y814000D01*
X529850Y809920D02*
Y829147D01*
X547000Y47000D02*
X570000Y70000D01*
X517000Y24574D02*
Y811000D01*
X553004Y878000D02*
X554000D01*
X522000Y26645D02*
Y802070D01*
X529850Y809920D01*
X551000Y896000D02*
X563850Y883150D01*
X542000Y49071D02*
X563850Y70921D01*
Y883150D01*
X537000Y32858D02*
Y51142D01*
X554000Y68142D01*
Y878000D01*
X532000Y30787D02*
Y53213D01*
X543999Y864998D02*
X547000Y861997D01*
X532000Y53213D02*
X547000Y68213D01*
Y861997D01*
X527000Y28716D02*
Y55284D01*
X536999Y848998D02*
X538002D01*
X527000Y55284D02*
X538002Y66286D01*
Y848998D01*
X547000Y39000D02*
Y47000D01*
X704000Y5000D02*
X738900Y39900D01*
X662000Y15000D02*
X688100Y41100D01*
X637700Y20000D02*
X662700Y45000D01*
X617300Y25000D02*
X637300Y45000D01*
X596900Y30000D02*
X611900Y45000D01*
X517000Y24574D02*
X536574Y5000D01*
X522000Y26645D02*
X538645Y10000D01*
X527000Y28716D02*
X540716Y15000D01*
X532000Y30787D02*
X542787Y20000D01*
X537000Y32858D02*
X544858Y25000D01*
X542000Y34929D02*
X546929Y30000D01*
X536574Y5000D02*
X704000D01*
X538645Y10000D02*
X678500D01*
X540716Y15000D02*
X662000D01*
X542787Y20000D02*
X637700D01*
X544858Y25000D02*
X617300D01*
X546929Y30000D02*
X596900D01*
X576500Y35000D02*
X586500Y45000D01*
X547000Y39000D02*
X551000Y35000D01*
X576500D01*
D24*
X741000Y729000D02*
Y739800D01*
D25*
X554000Y1369000D02*
X611000Y1312000D01*
D26*
X714000Y1203250D02*
X725250D01*
X499000Y1086000D02*
Y1096000D01*
Y1086000D02*
X509000Y1076000D01*
X782500Y1205000D02*
Y1221000D01*
X726000Y1196000D02*
X747000D01*
X750000Y1199000D01*
X825000Y1198000D02*
X961000D01*
X1154700Y1004300D02*
X1178750D01*
X961000Y1198000D02*
X1154700Y1004300D01*
X479000Y1305000D02*
X500000Y1284000D01*
D27*
X519000Y1240000D02*
X527000D01*
X571000Y1196000D01*
X612000D01*
X571000Y1188000D02*
X612000D01*
X528000Y1145000D02*
X571000Y1188000D01*
X519000Y1145000D02*
X528000D01*
D28*
X345000Y1288600D02*
D03*
D29*
Y1339400D02*
D03*
D30*
X1184000Y1268000D02*
D03*
Y1242600D02*
D03*
Y1217200D02*
D03*
Y1191800D02*
D03*
Y1166400D02*
D03*
Y1141000D02*
D03*
D31*
X756200Y750000D02*
D03*
X730800D02*
D03*
X743500D02*
D03*
X718100D02*
D03*
X705400D02*
D03*
X692700D02*
D03*
X680000D02*
D03*
X667300D02*
D03*
X654600D02*
D03*
X641900D02*
D03*
X629200D02*
D03*
X616500D02*
D03*
X603800D02*
D03*
D32*
X586500Y45000D02*
D03*
X688100D02*
D03*
X662700D02*
D03*
X561100D02*
D03*
X611900D02*
D03*
X637300D02*
D03*
X713500D02*
D03*
X738900D02*
D03*
X1178750Y953500D02*
D03*
X1204150D02*
D03*
X1178750Y978900D02*
D03*
X1204150D02*
D03*
Y1004300D02*
D03*
X1178750D02*
D03*
X1204150Y1029700D02*
D03*
X1178750D02*
D03*
X1204150Y928100D02*
D03*
X1178750D02*
D03*
D33*
X97700Y616300D02*
D03*
X72300D02*
D03*
Y590900D02*
D03*
X97700D02*
D03*
X72300Y565500D02*
D03*
X97700D02*
D03*
X72300Y540100D02*
D03*
X97700D02*
D03*
X72300Y514700D02*
D03*
X97700D02*
D03*
X72300Y489300D02*
D03*
X97700D02*
D03*
X72300Y463900D02*
D03*
X97700D02*
D03*
X72300Y438500D02*
D03*
X97700D02*
D03*
X72300Y413100D02*
D03*
X97700D02*
D03*
Y387700D02*
D03*
X72300D02*
D03*
X97700Y362300D02*
D03*
X72300D02*
D03*
X97700Y336900D02*
D03*
X72300D02*
D03*
X97700Y311500D02*
D03*
X72300D02*
D03*
X97700Y286100D02*
D03*
X72300D02*
D03*
X97700Y260700D02*
D03*
X72300D02*
D03*
X97700Y235300D02*
D03*
X72300D02*
D03*
X97700Y209900D02*
D03*
X72300D02*
D03*
X97700Y184500D02*
D03*
X72300D02*
D03*
X97700Y159100D02*
D03*
X72300D02*
D03*
X97700Y133700D02*
D03*
X72300D02*
D03*
X227000Y1013600D02*
D03*
Y1039000D02*
D03*
D34*
X108000Y1366000D02*
D03*
X128000Y1315000D02*
D03*
D35*
X748000Y688000D02*
D03*
X707000D02*
D03*
X690000D02*
D03*
X672000D02*
D03*
X655000D02*
D03*
X551000Y898000D02*
D03*
X663000Y1123000D02*
D03*
X738000Y1114000D02*
D03*
X710000Y1137000D02*
D03*
X620000Y1286000D02*
D03*
X652000Y1290000D02*
D03*
X635000Y1298000D02*
D03*
X626000Y952000D02*
D03*
X727000Y688000D02*
D03*
X782500Y1205000D02*
D03*
X626000Y688000D02*
D03*
X520000Y814000D02*
D03*
X527999Y830998D02*
D03*
X536999Y848998D02*
D03*
X543999Y864998D02*
D03*
X567000Y1270000D02*
D03*
X566000Y907000D02*
D03*
X593999Y1087998D02*
D03*
X578000Y919000D02*
D03*
X428000Y963000D02*
D03*
X410000Y979000D02*
D03*
X179000Y1235000D02*
D03*
X469000Y1001000D02*
D03*
X460000Y1026000D02*
D03*
X584000Y1053000D02*
D03*
X1037000Y1331000D02*
D03*
X707000Y1230000D02*
D03*
X393000Y1193000D02*
D03*
X702000Y1175000D02*
D03*
X646000Y1054000D02*
D03*
X645000Y1137000D02*
D03*
X612000Y1267000D02*
D03*
X571000Y1253000D02*
D03*
X578150Y1236850D02*
D03*
X592000Y1227000D02*
D03*
X256000Y1236000D02*
D03*
X638000Y1338000D02*
D03*
X1040000Y1258000D02*
D03*
X723000Y1076000D02*
D03*
X701000Y1194000D02*
D03*
X749998Y1126998D02*
D03*
X737000Y1155000D02*
D03*
X750000Y1199000D02*
D03*
X752000Y1182000D02*
D03*
X825000Y1198000D02*
D03*
X693000Y1217000D02*
D03*
X643000Y1182000D02*
D03*
X739000Y1282000D02*
D03*
X637000Y1197000D02*
D03*
X634000Y1220000D02*
D03*
X1078000Y1189000D02*
D03*
X554000Y878000D02*
D03*
D36*
X460000Y1111000D02*
D03*
Y1163000D02*
D03*
Y1128000D02*
D03*
Y1146000D02*
D03*
Y1193000D02*
D03*
X486000Y1069000D02*
D03*
X472000Y1080000D02*
D03*
X502000Y1068000D02*
D03*
X460000Y1223000D02*
D03*
Y1237000D02*
D03*
Y1250000D02*
D03*
Y1264000D02*
D03*
X483000Y1304000D02*
D03*
X539000Y1306000D02*
D03*
X471000Y1297000D02*
D03*
X460000Y1210000D02*
D03*
Y1177000D02*
D03*
X461000Y1090000D02*
D03*
X462000Y1288000D02*
D03*
X460000Y1276000D02*
D03*
X525000Y1305000D02*
D03*
X512500Y1305000D02*
D03*
X497000Y1305000D02*
D03*
M02*
