%FSLAX44Y44*%
%MOMM*%
G71*
G01*
G75*
G04 Layer_Color=16711935*
%ADD10R,1.0000X1.0000*%
%ADD11R,1.0000X1.0000*%
%ADD12R,0.5500X1.5000*%
%ADD13R,1.5000X0.5500*%
%ADD14R,2.0000X5.5000*%
%ADD15R,0.7600X1.7800*%
%ADD16R,0.7200X1.7800*%
%ADD17R,4.3000X2.6000*%
%ADD18R,5.7000X5.5000*%
%ADD19C,0.9000*%
%ADD20C,2.0000*%
%ADD21C,1.4000*%
%ADD22C,0.5000*%
%ADD23C,0.3000*%
%ADD24C,0.5400*%
%ADD25C,1.0000*%
%ADD26C,0.4000*%
%ADD27C,0.2540*%
%ADD28R,1.8500X1.8500*%
%ADD29C,1.8500*%
%ADD30C,1.8000*%
%ADD31C,0.9000*%
%ADD32C,1.3000*%
%ADD33C,1.7000*%
%ADD34C,3.0000*%
%ADD35C,1.2700*%
%ADD36C,1.0000*%
%ADD37R,1.0000X1.4000*%
%ADD38C,0.2500*%
%ADD39C,0.2000*%
%ADD40R,1.2032X1.2032*%
%ADD41R,1.2032X1.2032*%
%ADD42R,0.7532X1.7032*%
%ADD43R,1.7032X0.7532*%
%ADD44R,2.2032X5.7032*%
%ADD45R,0.9632X1.9832*%
%ADD46R,0.9232X1.9832*%
%ADD47R,4.5032X2.8032*%
%ADD48R,5.9032X5.7032*%
%ADD49R,2.0532X2.0532*%
%ADD50C,2.0532*%
%ADD51C,2.0032*%
%ADD52C,1.1032*%
%ADD53C,1.5032*%
%ADD54C,1.9032*%
%ADD55C,3.2032*%
%ADD56C,1.4732*%
%ADD57C,1.2032*%
%ADD58R,1.2032X1.6032*%
%ADD59C,0.1524*%
D27*
X1341000Y0D02*
X1343200Y616452D01*
X1343800Y784548D02*
X1346000Y1401000D01*
X1335974Y15258D02*
X1341000Y0D01*
X1346134Y15222D01*
X1340866Y1385778D02*
X1346000Y1401000D01*
X1351026Y1385742D01*
X1338460Y9D02*
X1343540Y-9D01*
X1343460Y1401009D02*
X1348540Y1400991D01*
X0Y-48000D02*
X578148D01*
X720852D02*
X1299000D01*
X0D02*
X15240Y-42920D01*
X0Y-48000D02*
X15240Y-53080D01*
X1283760Y-42920D02*
X1299000Y-48000D01*
X1283760Y-53080D02*
X1299000Y-48000D01*
X0Y-50540D02*
Y-45460D01*
X1299000Y-50540D02*
Y-45460D01*
D59*
X1352351Y618960D02*
X1352369Y624038D01*
X1352360Y621499D01*
X1337125Y621553D01*
X1339655Y619005D01*
X1352423Y639273D02*
X1337188Y639327D01*
X1344778Y631683D01*
X1344815Y641839D01*
X1339754Y646936D02*
X1337224Y649484D01*
X1337242Y654562D01*
X1339791Y657093D01*
X1349947Y657056D01*
X1352478Y654508D01*
X1352459Y649430D01*
X1349911Y646900D01*
X1339754Y646936D01*
X1352505Y662125D02*
X1349966Y662135D01*
X1349975Y664674D01*
X1352514Y664665D01*
X1352505Y662125D01*
X1352550Y674821D02*
X1352568Y679900D01*
X1352559Y677361D01*
X1337324Y677415D01*
X1339854Y674867D01*
X1339899Y687562D02*
X1337369Y690111D01*
X1337388Y695189D01*
X1339936Y697719D01*
X1350092Y697683D01*
X1352622Y695135D01*
X1352604Y690056D01*
X1350056Y687526D01*
X1339899Y687562D01*
X1352650Y702752D02*
X1352668Y707830D01*
X1352659Y705291D01*
X1337424Y705346D01*
X1339954Y702797D01*
X1352767Y735761D02*
X1347671Y730701D01*
X1342593Y730719D01*
X1337533Y735816D01*
X1352795Y743379D02*
X1342638Y743415D01*
X1342647Y745954D01*
X1345195Y748484D01*
X1352813Y748457D01*
X1345195Y748484D01*
X1342665Y751032D01*
X1345213Y753563D01*
X1352831Y753535D01*
X1352849Y758614D02*
X1342692Y758650D01*
X1342701Y761189D01*
X1345250Y763719D01*
X1352867Y763692D01*
X1345250Y763719D01*
X1342720Y766267D01*
X1345268Y768798D01*
X1352885Y768770D01*
X1352903Y773849D02*
X1347843Y778945D01*
X1342765Y778963D01*
X1337668Y773903D01*
X580688Y-57141D02*
X585766D01*
X583227D01*
Y-41906D01*
X580688Y-44446D01*
X603540Y-57141D02*
X593384D01*
X603540Y-46985D01*
Y-44446D01*
X601001Y-41906D01*
X595923D01*
X593384Y-44446D01*
X608619Y-54602D02*
X611158Y-57141D01*
X616236D01*
X618775Y-54602D01*
Y-44446D01*
X616236Y-41906D01*
X611158D01*
X608619Y-44446D01*
Y-46985D01*
X611158Y-49524D01*
X618775D01*
X623854Y-57141D02*
Y-54602D01*
X626393D01*
Y-57141D01*
X623854D01*
X636550Y-54602D02*
X639089Y-57141D01*
X644167D01*
X646706Y-54602D01*
Y-44446D01*
X644167Y-41906D01*
X639089D01*
X636550Y-44446D01*
Y-46985D01*
X639089Y-49524D01*
X646706D01*
X672098Y-57141D02*
X667020Y-52063D01*
Y-46985D01*
X672098Y-41906D01*
X679716Y-57141D02*
Y-46985D01*
X682255D01*
X684794Y-49524D01*
Y-57141D01*
Y-49524D01*
X687333Y-46985D01*
X689872Y-49524D01*
Y-57141D01*
X694951D02*
Y-46985D01*
X697490D01*
X700029Y-49524D01*
Y-57141D01*
Y-49524D01*
X702568Y-46985D01*
X705107Y-49524D01*
Y-57141D01*
X710186D02*
X715264Y-52063D01*
Y-46985D01*
X710186Y-41906D01*
M02*
