M48
;Layer_Color=9474304
;FILE_FORMAT=4:4
METRIC,LZ
;TYPE=PLATED
T1F00S00C0.5000
T2F00S00C0.7112
T3F00S00C0.8000
T4F00S00C1.1000
T5F00S00C1.2000
T6F00S00C1.3000
T7F00S00C2.5000
;TYPE=NON_PLATED
%
T01
X006038Y0075
X006165
X006292
X006419
X006546
X006673
X0068
X006927
X007054
X007181
X007308
X007435
X007562
X00502Y01068
X00486Y01069
X00472Y0108
X00461Y0109
X0046Y01111
Y01128
Y01146
Y01163
Y01177
Y01193
Y0121
Y01223
Y01237
Y0125
Y01264
Y01276
X00462Y01288
X00471Y01297
X00483Y01304
X00497Y01305
X005125Y01305
X00525Y01305
X00539Y01306
T02
X0052Y00814
X00527999Y00830998
X00536999Y00848998
X00543999Y00864998
X00554Y00878
X00551Y00898
X00566Y00907
X00578Y00919
X00626Y00688
X00655
X00672
X0069
X00707
X00727
X00748
X01078Y01189
X0104Y01258
X01037Y01331
X00825Y01198
X007825Y01205
X0075Y01199
X00752Y01182
X00737Y01155
X00749998Y01126998
X00738Y01114
X0071Y01137
X00702Y01175
X00701Y01194
X00693Y01217
X00707Y0123
X00634Y0122
X00637Y01197
X00643Y01182
X00645Y01137
X00663Y01123
X00646Y01054
X00584Y01053
X00593999Y01087998
X00723Y01076
X00626Y00952
X00592Y01227
X0057815Y0123685
X00571Y01253
X00567Y0127
X00612Y01267
X0062Y01286
X00635Y01298
X00652Y0129
X00739Y01282
X00393Y01193
X00256Y01236
X00179Y01235
X0041Y00979
X00428Y00963
X00469Y01001
X0046Y01026
X00638Y01338
T03
X005611Y00045
X005865
X006119
X006373
X006627
X006881
X007135
X007389
X0117875Y009281
X0120415
Y009535
X0117875
Y009789
X0120415
Y010043
X0117875
Y010297
X0120415
T04
X00345Y012886
Y013394
T05
X000723Y001337
X000977
Y001591
Y001845
Y002099
Y002353
Y002607
Y002861
Y003115
Y003369
Y003623
Y003877
Y004131
Y004385
Y004639
Y004893
Y005147
X000723
Y004893
Y004639
Y004385
Y004131
Y003877
Y003623
Y003369
Y003115
Y002861
Y002607
Y002353
Y002099
Y001845
Y001591
Y005401
Y005655
Y005909
Y006163
X000977
Y005909
Y005655
Y005401
X00227Y010136
Y01039
T06
X01184Y01141
Y011664
Y011918
Y012172
Y012426
Y01268
T07
X00128Y01315
X00108Y01366
M30
