%FSLAX44Y44*%
%MOMM*%
G71*
G01*
G75*
G04 Layer_Color=16711935*
%ADD10R,1.0000X1.0000*%
%ADD11R,0.7600X1.7800*%
%ADD12R,0.7200X1.7800*%
%ADD13R,1.0000X1.0000*%
%ADD14R,5.5000X2.0000*%
%ADD15R,2.6000X4.3000*%
%ADD16R,5.5000X5.7000*%
%ADD17R,1.5000X0.5500*%
%ADD18R,0.5500X1.5000*%
%ADD19C,0.3000*%
%ADD20C,0.6000*%
%ADD21C,1.2000*%
%ADD22C,0.4000*%
%ADD23C,2.0000*%
%ADD24C,0.2540*%
%ADD25C,1.8000*%
%ADD26C,1.7000*%
%ADD27C,2.0000*%
%ADD28R,2.0000X2.0000*%
%ADD29C,0.9000*%
%ADD30C,3.4000*%
%ADD31C,1.2700*%
%ADD32C,1.5000*%
%ADD33R,1.0000X1.4000*%
%ADD34C,0.2500*%
%ADD35C,0.2000*%
%ADD36C,0.5000*%
%ADD37R,1.2032X1.2032*%
%ADD38R,0.9632X1.9832*%
%ADD39R,0.9232X1.9832*%
%ADD40R,1.2032X1.2032*%
%ADD41R,5.7032X2.2032*%
%ADD42R,2.8032X4.5032*%
%ADD43R,5.7032X5.9032*%
%ADD44R,1.7032X0.7532*%
%ADD45R,0.7532X1.7032*%
%ADD46C,2.0032*%
%ADD47C,1.9032*%
%ADD48C,2.2032*%
%ADD49R,2.2032X2.2032*%
%ADD50C,1.1032*%
%ADD51C,3.6032*%
%ADD52C,1.4732*%
%ADD53C,1.7032*%
%ADD54R,1.2032X1.6032*%
%ADD55C,0.1524*%
D24*
X-42540Y1200006D02*
X-37460Y1199994D01*
X-45540Y6D02*
X-40460Y-6D01*
X-40000Y1200000D02*
X-34958Y1184747D01*
X-45118Y1184773D02*
X-40000Y1200000D01*
X-43000Y0D02*
X-37882Y15227D01*
X-48042Y15253D02*
X-43000Y0D01*
X-41357Y657387D02*
X-40000Y1200000D01*
X-43000Y0D02*
X-41644Y542613D01*
X899972Y-30920D02*
X900000Y-36000D01*
X-28Y-35920D02*
X0Y-41000D01*
X884774Y-38625D02*
X899986Y-33460D01*
X884718Y-28465D02*
X899986Y-33460D01*
X-14Y-38460D02*
X15254Y-43455D01*
X-14Y-38460D02*
X15197Y-33296D01*
X528954Y-35521D02*
X899986Y-33460D01*
X-14Y-38460D02*
X371017Y-36399D01*
D55*
X-32496Y545131D02*
X-32483Y550209D01*
X-32489Y547670D01*
X-47724Y547708D01*
X-45191Y545162D01*
X-32438Y567983D02*
X-32464Y557826D01*
X-42595Y568008D01*
X-45134Y568015D01*
X-47680Y565482D01*
X-47692Y560404D01*
X-45160Y557858D01*
X-45122Y573093D02*
X-47654Y575639D01*
X-47642Y580717D01*
X-45096Y583250D01*
X-34940Y583224D01*
X-32407Y580679D01*
X-32419Y575601D01*
X-34965Y573068D01*
X-45122Y573093D01*
X-32337Y608610D02*
X-37428Y603544D01*
X-42506Y603557D01*
X-47572Y608648D01*
X-32318Y616227D02*
X-42474Y616253D01*
X-42468Y618792D01*
X-39923Y621325D01*
X-32305Y621306D01*
X-39923Y621325D01*
X-42456Y623870D01*
X-39910Y626403D01*
X-32292Y626384D01*
X-32280Y631462D02*
X-42436Y631488D01*
X-42430Y634027D01*
X-39885Y636560D01*
X-32267Y636541D01*
X-39885Y636560D01*
X-42417Y639105D01*
X-39872Y641638D01*
X-32254Y641619D01*
X-32242Y646697D02*
X-37307Y651788D01*
X-42386Y651801D01*
X-47477Y646736D01*
X373594Y-42987D02*
X376147Y-45512D01*
X381226Y-45484D01*
X383750Y-42930D01*
X383694Y-32774D01*
X381141Y-30249D01*
X376063Y-30277D01*
X373537Y-32830D01*
X373552Y-35370D01*
X376105Y-37894D01*
X383722Y-37852D01*
X388772Y-32746D02*
X391297Y-30192D01*
X396376Y-30164D01*
X398929Y-32689D01*
X398985Y-42846D01*
X396460Y-45399D01*
X391382Y-45427D01*
X388829Y-42902D01*
X388772Y-32746D01*
X404078Y-45357D02*
X404064Y-42818D01*
X406603Y-42804D01*
X406617Y-45343D01*
X404078Y-45357D01*
X416703Y-32591D02*
X419228Y-30037D01*
X424306Y-30009D01*
X426860Y-32534D01*
X426916Y-42691D01*
X424391Y-45244D01*
X419313Y-45272D01*
X416759Y-42747D01*
X416703Y-32591D01*
X431938Y-32506D02*
X434463Y-29953D01*
X439541Y-29924D01*
X442094Y-32450D01*
X442151Y-42606D01*
X439626Y-45159D01*
X434547Y-45188D01*
X431994Y-42663D01*
X431938Y-32506D01*
X447243Y-45117D02*
X452321Y-45089D01*
X449782Y-45103D01*
X449698Y-29868D01*
X447173Y-32421D01*
X480252Y-44934D02*
X475145Y-39883D01*
X475117Y-34805D01*
X480167Y-29699D01*
X487869Y-44891D02*
X487813Y-34735D01*
X490352Y-34721D01*
X492905Y-37246D01*
X492948Y-44863D01*
X492905Y-37246D01*
X495430Y-34692D01*
X497984Y-37218D01*
X498026Y-44835D01*
X503104Y-44807D02*
X503048Y-34650D01*
X505587Y-34636D01*
X508140Y-37161D01*
X508182Y-44778D01*
X508140Y-37161D01*
X510665Y-34608D01*
X513218Y-37133D01*
X513261Y-44750D01*
X518339Y-44722D02*
X523389Y-39615D01*
X523361Y-34537D01*
X518254Y-29487D01*
M02*
