%FSLAX44Y44*%
%MOMM*%
G71*
G01*
G75*
G04 Layer_Color=255*
%ADD10R,1.0000X1.0000*%
%ADD11R,0.7600X1.7800*%
%ADD12R,0.7200X1.7800*%
%ADD13R,1.0000X1.0000*%
%ADD14R,5.5000X2.0000*%
%ADD15R,2.6000X4.3000*%
%ADD16R,5.5000X5.7000*%
%ADD17R,1.5000X0.5500*%
%ADD18R,0.5500X1.5000*%
%ADD19C,0.3000*%
%ADD20C,0.6000*%
%ADD21C,1.2000*%
%ADD22C,0.4000*%
%ADD23C,2.0000*%
%ADD24C,0.2540*%
%ADD25C,1.8000*%
%ADD26C,1.7000*%
%ADD27C,2.0000*%
%ADD28R,2.0000X2.0000*%
%ADD29C,0.9000*%
%ADD30C,3.4000*%
%ADD31C,1.2700*%
%ADD32C,1.5000*%
%ADD33R,1.0000X1.4000*%
D10*
X29000Y1118000D02*
D03*
Y1137000D02*
D03*
D13*
X101000Y1164000D02*
D03*
X82000D02*
D03*
X11000D02*
D03*
X30000D02*
D03*
D25*
X379500Y64000D02*
D03*
X481100D02*
D03*
X455700D02*
D03*
X354100D02*
D03*
X404900D02*
D03*
X430300D02*
D03*
X506500D02*
D03*
X531900D02*
D03*
D26*
X57700Y576300D02*
D03*
X32300D02*
D03*
Y550900D02*
D03*
X57700D02*
D03*
X32300Y525500D02*
D03*
X57700D02*
D03*
X32300Y500100D02*
D03*
X57700D02*
D03*
X32300Y474700D02*
D03*
X57700D02*
D03*
X32300Y449300D02*
D03*
X57700D02*
D03*
X32300Y423900D02*
D03*
X57700D02*
D03*
X32300Y398500D02*
D03*
X57700D02*
D03*
X32300Y373100D02*
D03*
X57700D02*
D03*
Y347700D02*
D03*
X32300D02*
D03*
X57700Y322300D02*
D03*
X32300D02*
D03*
X57700Y296900D02*
D03*
X32300D02*
D03*
X57700Y271500D02*
D03*
X32300D02*
D03*
X57700Y246100D02*
D03*
X32300D02*
D03*
X57700Y220700D02*
D03*
X32300D02*
D03*
X57700Y195300D02*
D03*
X32300D02*
D03*
X57700Y169900D02*
D03*
X32300D02*
D03*
X57700Y144500D02*
D03*
X32300D02*
D03*
X57700Y119100D02*
D03*
X32300D02*
D03*
X57700Y93700D02*
D03*
X32300D02*
D03*
X829750Y99900D02*
D03*
Y125300D02*
D03*
D27*
X827000Y252000D02*
D03*
Y277400D02*
D03*
Y302800D02*
D03*
Y328200D02*
D03*
Y353600D02*
D03*
Y379000D02*
D03*
X651600Y403000D02*
D03*
X829750Y74500D02*
D03*
X855150D02*
D03*
Y99900D02*
D03*
Y125300D02*
D03*
Y150700D02*
D03*
X829750D02*
D03*
X855150Y49100D02*
D03*
X829750D02*
D03*
X843000Y647400D02*
D03*
Y622000D02*
D03*
D28*
X702400Y403000D02*
D03*
D29*
X553500Y700000D02*
D03*
X528100D02*
D03*
X540800D02*
D03*
X515400D02*
D03*
X502700D02*
D03*
X490000D02*
D03*
X477300D02*
D03*
X464600D02*
D03*
X451900D02*
D03*
X439200D02*
D03*
X426500D02*
D03*
X413800D02*
D03*
X401100D02*
D03*
D30*
X867000Y525000D02*
D03*
X816000Y505000D02*
D03*
D33*
X49000Y1137000D02*
D03*
X64000D02*
D03*
Y1163400D02*
D03*
X49000D02*
D03*
M02*
