%FSLAX44Y44*%
%MOMM*%
G71*
G01*
G75*
G04 Layer_Color=16711935*
%ADD10R,1.0000X1.0000*%
%ADD11R,0.7600X1.7800*%
%ADD12R,0.7200X1.7800*%
%ADD13R,1.0000X1.0000*%
%ADD14R,5.5000X2.0000*%
%ADD15R,2.6000X4.3000*%
%ADD16R,5.5000X5.7000*%
%ADD17R,1.5000X0.5500*%
%ADD18R,0.5500X1.5000*%
%ADD19C,0.3000*%
%ADD20C,0.6000*%
%ADD21C,1.2000*%
%ADD22C,0.4000*%
%ADD23C,2.0000*%
%ADD24C,0.2540*%
%ADD25C,1.8000*%
%ADD26C,1.7000*%
%ADD27C,2.0000*%
%ADD28R,2.0000X2.0000*%
%ADD29C,0.9000*%
%ADD30C,3.4000*%
%ADD31C,1.2700*%
%ADD32C,1.5000*%
%ADD33R,1.0000X1.4000*%
%ADD34C,0.2500*%
%ADD35C,0.2000*%
%ADD36C,0.5000*%
%ADD37R,1.2032X1.2032*%
%ADD38R,0.9632X1.9832*%
%ADD39R,0.9232X1.9832*%
%ADD40R,1.2032X1.2032*%
%ADD41R,5.7032X2.2032*%
%ADD42R,2.8032X4.5032*%
%ADD43R,5.7032X5.9032*%
%ADD44R,1.7032X0.7532*%
%ADD45R,0.7532X1.7032*%
%ADD46C,2.0032*%
%ADD47C,1.9032*%
%ADD48C,2.2032*%
%ADD49R,2.2032X2.2032*%
%ADD50C,1.1032*%
%ADD51C,3.6032*%
%ADD52C,1.4732*%
%ADD53C,1.7032*%
%ADD54R,1.2032X1.6032*%
D37*
X29000Y1118000D02*
D03*
Y1137000D02*
D03*
D40*
X101000Y1164000D02*
D03*
X82000D02*
D03*
X11000D02*
D03*
X30000D02*
D03*
D46*
X379500Y64000D02*
D03*
X481100D02*
D03*
X455700D02*
D03*
X354100D02*
D03*
X404900D02*
D03*
X430300D02*
D03*
X506500D02*
D03*
X531900D02*
D03*
D47*
X57700Y576300D02*
D03*
X32300D02*
D03*
Y550900D02*
D03*
X57700D02*
D03*
X32300Y525500D02*
D03*
X57700D02*
D03*
X32300Y500100D02*
D03*
X57700D02*
D03*
X32300Y474700D02*
D03*
X57700D02*
D03*
X32300Y449300D02*
D03*
X57700D02*
D03*
X32300Y423900D02*
D03*
X57700D02*
D03*
X32300Y398500D02*
D03*
X57700D02*
D03*
X32300Y373100D02*
D03*
X57700D02*
D03*
Y347700D02*
D03*
X32300D02*
D03*
X57700Y322300D02*
D03*
X32300D02*
D03*
X57700Y296900D02*
D03*
X32300D02*
D03*
X57700Y271500D02*
D03*
X32300D02*
D03*
X57700Y246100D02*
D03*
X32300D02*
D03*
X57700Y220700D02*
D03*
X32300D02*
D03*
X57700Y195300D02*
D03*
X32300D02*
D03*
X57700Y169900D02*
D03*
X32300D02*
D03*
X57700Y144500D02*
D03*
X32300D02*
D03*
X57700Y119100D02*
D03*
X32300D02*
D03*
X57700Y93700D02*
D03*
X32300D02*
D03*
X829750Y99900D02*
D03*
Y125300D02*
D03*
D48*
X827000Y252000D02*
D03*
Y277400D02*
D03*
Y302800D02*
D03*
Y328200D02*
D03*
Y353600D02*
D03*
Y379000D02*
D03*
X651600Y403000D02*
D03*
X829750Y74500D02*
D03*
X855150D02*
D03*
Y99900D02*
D03*
Y125300D02*
D03*
Y150700D02*
D03*
X829750D02*
D03*
X855150Y49100D02*
D03*
X829750D02*
D03*
X843000Y647400D02*
D03*
Y622000D02*
D03*
D49*
X702400Y403000D02*
D03*
D50*
X553500Y700000D02*
D03*
X528100D02*
D03*
X540800D02*
D03*
X515400D02*
D03*
X502700D02*
D03*
X490000D02*
D03*
X477300D02*
D03*
X464600D02*
D03*
X451900D02*
D03*
X439200D02*
D03*
X426500D02*
D03*
X413800D02*
D03*
X401100D02*
D03*
D51*
X867000Y525000D02*
D03*
X816000Y505000D02*
D03*
D52*
X693099Y213850D02*
D03*
X577000Y357000D02*
D03*
X29000Y695000D02*
D03*
X687999Y302999D02*
D03*
X476000Y345000D02*
D03*
X537000Y327000D02*
D03*
X681000Y183000D02*
D03*
X664000Y177000D02*
D03*
X504000Y208000D02*
D03*
X572000Y194000D02*
D03*
X446000Y299000D02*
D03*
X462000Y268000D02*
D03*
X462000Y248000D02*
D03*
X64000Y1117000D02*
D03*
X593999Y230000D02*
D03*
X44000Y706000D02*
D03*
X620000Y266000D02*
D03*
X698000Y245000D02*
D03*
X13000Y694000D02*
D03*
X655000Y292000D02*
D03*
X637999Y311999D02*
D03*
X753000Y251000D02*
D03*
X756000Y234000D02*
D03*
X705000Y321000D02*
D03*
X430000Y634000D02*
D03*
X419000Y619000D02*
D03*
X596000Y379000D02*
D03*
X714999Y285999D02*
D03*
X733000Y284000D02*
D03*
X611000Y388000D02*
D03*
X622000Y401000D02*
D03*
X641000Y203000D02*
D03*
D53*
X751000Y19000D02*
D03*
X772000Y27000D02*
D03*
X785000Y44000D02*
D03*
X781000Y112000D02*
D03*
X785000Y85000D02*
D03*
Y65000D02*
D03*
X764000Y121000D02*
D03*
X611000Y18000D02*
D03*
X631000Y17000D02*
D03*
X653000Y18000D02*
D03*
X673000D02*
D03*
X693000Y19000D02*
D03*
X713000D02*
D03*
X732000D02*
D03*
X595000Y32000D02*
D03*
X594000Y53000D02*
D03*
Y72000D02*
D03*
X579000Y648000D02*
D03*
X883000Y205000D02*
D03*
X745000Y120000D02*
D03*
X594000Y94000D02*
D03*
X603000Y115000D02*
D03*
D54*
X49000Y1137000D02*
D03*
X64000D02*
D03*
Y1163400D02*
D03*
X49000D02*
D03*
M02*
