%FSLAX44Y44*%
%MOMM*%
G71*
G01*
G75*
G04 Layer_Color=8421504*
%ADD10R,1.0000X1.0000*%
%ADD11R,0.7600X1.7800*%
%ADD12R,0.7200X1.7800*%
%ADD13R,1.0000X1.0000*%
%ADD14R,5.5000X2.0000*%
%ADD15R,2.6000X4.3000*%
%ADD16R,5.5000X5.7000*%
%ADD17R,1.5000X0.5500*%
%ADD18R,0.5500X1.5000*%
%ADD19C,0.3000*%
%ADD20C,0.6000*%
%ADD21C,1.2000*%
%ADD22C,0.4000*%
%ADD23C,2.0000*%
%ADD24C,0.2540*%
%ADD25C,1.8000*%
%ADD26C,1.7000*%
%ADD27C,2.0000*%
%ADD28R,2.0000X2.0000*%
%ADD29C,0.9000*%
%ADD30C,3.4000*%
%ADD31C,1.2700*%
%ADD32C,1.5000*%
%ADD33R,1.0000X1.4000*%
%ADD34C,0.2500*%
%ADD35C,0.2000*%
D10*
X494000Y356000D02*
D03*
Y337000D02*
D03*
X439000Y669000D02*
D03*
Y650000D02*
D03*
X553000Y668000D02*
D03*
Y649000D02*
D03*
X538000Y668000D02*
D03*
Y649000D02*
D03*
X523000Y668000D02*
D03*
Y649000D02*
D03*
X508000Y668000D02*
D03*
Y649000D02*
D03*
X493000Y668000D02*
D03*
Y649000D02*
D03*
X478000Y668000D02*
D03*
Y649000D02*
D03*
X407000Y650000D02*
D03*
Y669000D02*
D03*
X388000Y650000D02*
D03*
Y669000D02*
D03*
X784000Y259000D02*
D03*
Y240000D02*
D03*
X665000Y325000D02*
D03*
Y306000D02*
D03*
D11*
X523000Y356800D02*
D03*
X535700D02*
D03*
X548400D02*
D03*
X561100D02*
D03*
X523000Y304285D02*
D03*
X535700Y304280D02*
D03*
X561100D02*
D03*
D12*
X548400D02*
D03*
D13*
X684000Y99000D02*
D03*
X665000D02*
D03*
X706000D02*
D03*
X725000D02*
D03*
X827000Y208000D02*
D03*
X808000D02*
D03*
X827000Y225000D02*
D03*
X808000D02*
D03*
X767000Y443000D02*
D03*
X748000D02*
D03*
X583000Y210000D02*
D03*
X564000D02*
D03*
X654000Y116000D02*
D03*
X673000D02*
D03*
X788000Y219000D02*
D03*
X769000D02*
D03*
X720000Y591000D02*
D03*
X701000D02*
D03*
D14*
X737000Y61000D02*
D03*
X642000D02*
D03*
D15*
X725000Y525000D02*
D03*
X679300D02*
D03*
D16*
X702150Y458350D02*
D03*
D17*
X730000Y251000D02*
D03*
Y243000D02*
D03*
X730130Y195000D02*
D03*
X730000Y235000D02*
D03*
Y203000D02*
D03*
Y211000D02*
D03*
Y219000D02*
D03*
Y227000D02*
D03*
Y187000D02*
D03*
Y179000D02*
D03*
Y171000D02*
D03*
X616000Y251000D02*
D03*
Y243000D02*
D03*
Y195000D02*
D03*
Y235000D02*
D03*
Y203000D02*
D03*
Y211000D02*
D03*
Y219000D02*
D03*
Y227000D02*
D03*
Y187000D02*
D03*
Y179000D02*
D03*
Y171000D02*
D03*
D18*
X713000Y268000D02*
D03*
X705000D02*
D03*
X697000D02*
D03*
X657000D02*
D03*
X665000D02*
D03*
X673000D02*
D03*
X681000D02*
D03*
X649000D02*
D03*
X689000D02*
D03*
X641000D02*
D03*
X633000D02*
D03*
Y154000D02*
D03*
X641000D02*
D03*
X689000D02*
D03*
X649000D02*
D03*
X681000D02*
D03*
X673000D02*
D03*
X665000D02*
D03*
X657000D02*
D03*
X697000D02*
D03*
X705000D02*
D03*
X713000D02*
D03*
M02*
