%FSLAX44Y44*%
%MOMM*%
G71*
G01*
G75*
G04 Layer_Color=8388736*
%ADD10R,1.0000X1.0000*%
%ADD11R,0.7600X1.7800*%
%ADD12R,0.7200X1.7800*%
%ADD13R,1.0000X1.0000*%
%ADD14R,5.5000X2.0000*%
%ADD15R,2.6000X4.3000*%
%ADD16R,5.5000X5.7000*%
%ADD17R,1.5000X0.5500*%
%ADD18R,0.5500X1.5000*%
%ADD19C,0.3000*%
%ADD20C,0.6000*%
%ADD21C,1.2000*%
%ADD22C,0.4000*%
%ADD23C,2.0000*%
%ADD24C,0.2540*%
%ADD25C,1.8000*%
%ADD26C,1.7000*%
%ADD27C,2.0000*%
%ADD28R,2.0000X2.0000*%
%ADD29C,0.9000*%
%ADD30C,3.4000*%
%ADD31C,1.2700*%
%ADD32C,1.5000*%
%ADD33R,1.0000X1.4000*%
%ADD34C,0.2500*%
%ADD35C,0.2000*%
%ADD36C,0.5000*%
%ADD37R,1.2032X1.2032*%
%ADD38R,0.9632X1.9832*%
%ADD39R,0.9232X1.9832*%
%ADD40R,1.2032X1.2032*%
%ADD41R,5.7032X2.2032*%
%ADD42R,2.8032X4.5032*%
%ADD43R,5.7032X5.9032*%
%ADD44R,1.7032X0.7532*%
%ADD45R,0.7532X1.7032*%
%ADD46C,2.0032*%
%ADD47C,1.9032*%
%ADD48C,2.2032*%
%ADD49R,2.2032X2.2032*%
%ADD50C,1.1032*%
%ADD51C,3.6032*%
%ADD52C,1.4732*%
%ADD53C,1.7032*%
G36*
X683285Y1172527D02*
X683841D01*
X684466Y1172458D01*
X685230D01*
X685994Y1172388D01*
X686896Y1172319D01*
X687869Y1172249D01*
X688910Y1172111D01*
X690021Y1171972D01*
X691202Y1171833D01*
X692521Y1171694D01*
X690924Y1163222D01*
X690785D01*
X690508Y1163291D01*
X690021Y1163361D01*
X689466Y1163430D01*
X688841Y1163500D01*
X688146Y1163569D01*
X687452Y1163638D01*
X686202D01*
X685785Y1163569D01*
X684883Y1163361D01*
X684466Y1163152D01*
X684119Y1162944D01*
X683980Y1162805D01*
X683633Y1162458D01*
X683285Y1161833D01*
X683077Y1161416D01*
X682938Y1160930D01*
Y1160861D01*
Y1160791D01*
X682869Y1160583D01*
Y1160236D01*
Y1159819D01*
X682799Y1159263D01*
Y1158569D01*
Y1157736D01*
X689535D01*
Y1147389D01*
X682799D01*
Y1121000D01*
X668702D01*
Y1147389D01*
X663425D01*
Y1157736D01*
X668702D01*
Y1159333D01*
Y1159472D01*
Y1159750D01*
Y1160236D01*
X668772Y1160791D01*
Y1161555D01*
X668911Y1162388D01*
X668980Y1163361D01*
X669119Y1164333D01*
Y1164472D01*
X669188Y1164819D01*
X669327Y1165305D01*
X669536Y1165930D01*
X669744Y1166624D01*
X670091Y1167319D01*
X670438Y1168013D01*
X670924Y1168708D01*
X670994Y1168777D01*
X671202Y1168986D01*
X671480Y1169333D01*
X671897Y1169680D01*
X672452Y1170166D01*
X673077Y1170583D01*
X673841Y1171069D01*
X674674Y1171486D01*
X674813Y1171555D01*
X675161Y1171694D01*
X675716Y1171833D01*
X676480Y1172041D01*
X677452Y1172249D01*
X678702Y1172458D01*
X680091Y1172527D01*
X681758Y1172597D01*
X682799D01*
X683285Y1172527D01*
D02*
G37*
G36*
X303760Y1039000D02*
Y1038944D01*
Y1038833D01*
Y1038611D01*
Y1038333D01*
X303705Y1038000D01*
Y1037611D01*
X303594Y1036722D01*
X303427Y1035723D01*
X303149Y1034667D01*
X302816Y1033612D01*
X302316Y1032612D01*
X302261Y1032501D01*
X302038Y1032223D01*
X301705Y1031778D01*
X301261Y1031223D01*
X300650Y1030612D01*
X299872Y1030001D01*
X298928Y1029390D01*
X297872Y1028834D01*
X296150Y1031501D01*
X296261Y1031556D01*
X296483Y1031667D01*
X296817Y1031890D01*
X297261Y1032167D01*
X297761Y1032556D01*
X298261Y1033001D01*
X298705Y1033501D01*
X299094Y1034112D01*
X299150Y1034167D01*
X299261Y1034445D01*
X299428Y1034834D01*
X299594Y1035389D01*
X299761Y1036056D01*
X299928Y1036889D01*
X300094Y1037889D01*
X300150Y1039000D01*
X296595D01*
Y1046166D01*
X303760D01*
Y1039000D01*
D02*
G37*
G36*
X322595Y1158500D02*
X323151D01*
X323706Y1158430D01*
X324470Y1158291D01*
X325234Y1158083D01*
X326068Y1157875D01*
X326970Y1157527D01*
X327943Y1157180D01*
X328845Y1156694D01*
X329818Y1156139D01*
X330720Y1155514D01*
X331623Y1154750D01*
X332526Y1153847D01*
X333290Y1152875D01*
X333359Y1152805D01*
X333498Y1152597D01*
X333637Y1152319D01*
X333915Y1151902D01*
X334262Y1151347D01*
X334609Y1150652D01*
X334956Y1149889D01*
X335373Y1149055D01*
X335720Y1148083D01*
X336067Y1147041D01*
X336415Y1145861D01*
X336762Y1144611D01*
X337040Y1143361D01*
X337178Y1141972D01*
X337317Y1140514D01*
X337387Y1138986D01*
Y1138916D01*
Y1138569D01*
Y1138083D01*
X337317Y1137458D01*
X337248Y1136694D01*
X337178Y1135861D01*
X337040Y1134819D01*
X336831Y1133778D01*
X336276Y1131555D01*
X335928Y1130375D01*
X335512Y1129194D01*
X335026Y1128083D01*
X334401Y1126972D01*
X333706Y1125930D01*
X332942Y1124958D01*
X332873Y1124889D01*
X332734Y1124750D01*
X332526Y1124542D01*
X332178Y1124194D01*
X331692Y1123847D01*
X331206Y1123430D01*
X330581Y1123014D01*
X329887Y1122597D01*
X329123Y1122111D01*
X328290Y1121694D01*
X327387Y1121278D01*
X326415Y1120930D01*
X325373Y1120583D01*
X324262Y1120375D01*
X323081Y1120236D01*
X321831Y1120167D01*
X321276D01*
X320651Y1120236D01*
X319887Y1120306D01*
X318915Y1120444D01*
X317943Y1120653D01*
X316901Y1120930D01*
X315859Y1121278D01*
X315720Y1121347D01*
X315443Y1121486D01*
X314887Y1121764D01*
X314262Y1122111D01*
X313568Y1122597D01*
X312734Y1123153D01*
X311970Y1123778D01*
X311137Y1124542D01*
Y1107042D01*
X296901D01*
Y1157736D01*
X310096D01*
Y1152319D01*
X310234Y1152389D01*
X310582Y1152805D01*
X311068Y1153430D01*
X311762Y1154125D01*
X312526Y1154889D01*
X313359Y1155652D01*
X314193Y1156347D01*
X315095Y1156902D01*
X315165D01*
X315234Y1156972D01*
X315651Y1157180D01*
X316276Y1157458D01*
X317109Y1157736D01*
X318081Y1158013D01*
X319262Y1158291D01*
X320512Y1158500D01*
X321901Y1158569D01*
X322248D01*
X322595Y1158500D01*
D02*
G37*
G36*
X193222Y1172527D02*
X193986Y1172458D01*
X194958Y1172388D01*
X196000Y1172249D01*
X197111Y1172111D01*
X199541Y1171624D01*
X202041Y1170930D01*
X203291Y1170513D01*
X204472Y1170027D01*
X205652Y1169402D01*
X206694Y1168708D01*
X206763Y1168638D01*
X206972Y1168499D01*
X207250Y1168291D01*
X207597Y1167944D01*
X208083Y1167597D01*
X208569Y1167041D01*
X209125Y1166486D01*
X209750Y1165791D01*
X210444Y1164958D01*
X211138Y1164055D01*
X211763Y1163083D01*
X212458Y1162041D01*
X213152Y1160861D01*
X213777Y1159611D01*
X214333Y1158222D01*
X214888Y1156763D01*
X201069Y1153708D01*
Y1153777D01*
X200930Y1154055D01*
X200791Y1154472D01*
X200583Y1155027D01*
X200097Y1156139D01*
X199819Y1156625D01*
X199541Y1157111D01*
X199472Y1157180D01*
X199333Y1157388D01*
X199055Y1157736D01*
X198638Y1158152D01*
X198152Y1158569D01*
X197597Y1159055D01*
X196972Y1159472D01*
X196277Y1159888D01*
X196208Y1159958D01*
X195930Y1160027D01*
X195583Y1160166D01*
X195027Y1160375D01*
X194402Y1160583D01*
X193708Y1160722D01*
X192875Y1160791D01*
X192041Y1160861D01*
X191555D01*
X191139Y1160791D01*
X190722Y1160722D01*
X190236Y1160652D01*
X188986Y1160305D01*
X187666Y1159819D01*
X187041Y1159472D01*
X186347Y1159055D01*
X185653Y1158569D01*
X185028Y1157944D01*
X184403Y1157319D01*
X183847Y1156555D01*
Y1156486D01*
X183778Y1156416D01*
X183639Y1156208D01*
X183500Y1155930D01*
X183361Y1155583D01*
X183153Y1155166D01*
X182944Y1154680D01*
X182805Y1154125D01*
X182597Y1153430D01*
X182389Y1152736D01*
X182180Y1151902D01*
X182041Y1151000D01*
X181903Y1150027D01*
X181764Y1148916D01*
X181694Y1147805D01*
Y1146555D01*
Y1146486D01*
Y1146208D01*
Y1145791D01*
X181764Y1145166D01*
Y1144541D01*
X181833Y1143708D01*
X181903Y1142875D01*
X182041Y1141972D01*
X182319Y1140027D01*
X182736Y1138153D01*
X183014Y1137250D01*
X183361Y1136416D01*
X183778Y1135653D01*
X184194Y1135028D01*
X184333Y1134889D01*
X184680Y1134541D01*
X185236Y1134055D01*
X186069Y1133500D01*
X187111Y1132944D01*
X188361Y1132458D01*
X189750Y1132111D01*
X190583Y1132041D01*
X191416Y1131972D01*
X191833D01*
X192180Y1132041D01*
X192944Y1132111D01*
X193986Y1132319D01*
X195097Y1132597D01*
X196208Y1133014D01*
X197250Y1133639D01*
X198222Y1134472D01*
X198361Y1134611D01*
X198638Y1134958D01*
X199055Y1135514D01*
X199541Y1136347D01*
X200097Y1137389D01*
X200652Y1138639D01*
X201208Y1140097D01*
X201625Y1141833D01*
X215374Y1137666D01*
Y1137597D01*
X215305Y1137389D01*
X215236Y1137111D01*
X215097Y1136694D01*
X214958Y1136208D01*
X214749Y1135653D01*
X214333Y1134264D01*
X213708Y1132736D01*
X212944Y1131139D01*
X212041Y1129472D01*
X211000Y1127944D01*
Y1127875D01*
X210861Y1127805D01*
X210722Y1127597D01*
X210444Y1127319D01*
X209819Y1126625D01*
X208986Y1125792D01*
X207875Y1124819D01*
X206625Y1123847D01*
X205166Y1122944D01*
X203569Y1122111D01*
X203500D01*
X203361Y1122042D01*
X203152Y1121903D01*
X202805Y1121833D01*
X202319Y1121694D01*
X201833Y1121486D01*
X201208Y1121347D01*
X200513Y1121139D01*
X199750Y1120930D01*
X198916Y1120792D01*
X197944Y1120653D01*
X196972Y1120444D01*
X195930Y1120375D01*
X194750Y1120236D01*
X192319Y1120167D01*
X191555D01*
X190930Y1120236D01*
X190236D01*
X189403Y1120306D01*
X188500Y1120375D01*
X187528Y1120444D01*
X185375Y1120722D01*
X183153Y1121139D01*
X180861Y1121764D01*
X179819Y1122111D01*
X178778Y1122528D01*
X178708D01*
X178569Y1122667D01*
X178291Y1122805D01*
X177875Y1123014D01*
X177458Y1123292D01*
X176903Y1123639D01*
X176347Y1124055D01*
X175722Y1124472D01*
X175028Y1125028D01*
X174264Y1125653D01*
X173569Y1126347D01*
X172806Y1127111D01*
X171972Y1127944D01*
X171208Y1128917D01*
X170514Y1129889D01*
X169750Y1131000D01*
X169681Y1131069D01*
X169611Y1131278D01*
X169403Y1131625D01*
X169194Y1132111D01*
X168917Y1132666D01*
X168569Y1133430D01*
X168222Y1134264D01*
X167875Y1135236D01*
X167528Y1136278D01*
X167181Y1137458D01*
X166903Y1138708D01*
X166556Y1140097D01*
X166347Y1141555D01*
X166139Y1143083D01*
X166069Y1144750D01*
X166000Y1146486D01*
Y1146555D01*
Y1146625D01*
Y1147041D01*
X166069Y1147666D01*
X166139Y1148569D01*
X166208Y1149611D01*
X166347Y1150791D01*
X166556Y1152180D01*
X166833Y1153639D01*
X167181Y1155166D01*
X167597Y1156694D01*
X168153Y1158361D01*
X168847Y1159958D01*
X169611Y1161486D01*
X170444Y1163013D01*
X171486Y1164472D01*
X172667Y1165791D01*
X172736Y1165861D01*
X173014Y1166069D01*
X173361Y1166416D01*
X173917Y1166833D01*
X174611Y1167388D01*
X175444Y1167944D01*
X176416Y1168569D01*
X177528Y1169194D01*
X178778Y1169819D01*
X180236Y1170444D01*
X181764Y1170999D01*
X183500Y1171555D01*
X185305Y1171972D01*
X187250Y1172319D01*
X189403Y1172527D01*
X191625Y1172597D01*
X192528D01*
X193222Y1172527D01*
D02*
G37*
G36*
X512183Y1091050D02*
X512628Y1090995D01*
X513128Y1090939D01*
X513739Y1090828D01*
X514350Y1090717D01*
X515738Y1090328D01*
X516405Y1090050D01*
X517183Y1089772D01*
X517849Y1089384D01*
X518572Y1088939D01*
X519238Y1088439D01*
X519905Y1087884D01*
X519960Y1087828D01*
X520071Y1087717D01*
X520238Y1087551D01*
X520460Y1087328D01*
X520682Y1086995D01*
X520960Y1086606D01*
X521293Y1086217D01*
X521627Y1085717D01*
X522238Y1084551D01*
X522793Y1083273D01*
X522960Y1082495D01*
X523127Y1081773D01*
X523238Y1080940D01*
X523293Y1080107D01*
Y1080051D01*
Y1079774D01*
X523238Y1079385D01*
X523127Y1078885D01*
X523016Y1078274D01*
X522793Y1077552D01*
X522460Y1076718D01*
X522071Y1075829D01*
X521571Y1074885D01*
X520905Y1073885D01*
X520127Y1072830D01*
X519183Y1071774D01*
X518072Y1070719D01*
X516738Y1069663D01*
X515238Y1068608D01*
X514405Y1068108D01*
X513516Y1067608D01*
X522793Y1055943D01*
Y1055998D01*
X522849Y1056109D01*
X522960Y1056276D01*
X523071Y1056498D01*
X523182Y1056776D01*
X523349Y1057165D01*
X523682Y1057998D01*
X524071Y1059053D01*
X524460Y1060276D01*
X524904Y1061664D01*
X525238Y1063109D01*
X531792Y1061720D01*
Y1061664D01*
X531737Y1061442D01*
X531626Y1061053D01*
X531459Y1060609D01*
X531292Y1060053D01*
X531070Y1059387D01*
X530848Y1058609D01*
X530570Y1057831D01*
X529904Y1056109D01*
X529126Y1054221D01*
X528237Y1052443D01*
X527737Y1051554D01*
X527182Y1050721D01*
X527237Y1050666D01*
X527348Y1050499D01*
X527515Y1050277D01*
X527793Y1049943D01*
X528126Y1049555D01*
X528570Y1049054D01*
X529015Y1048555D01*
X529515Y1047943D01*
X530737Y1046721D01*
X532070Y1045388D01*
X533625Y1044055D01*
X535236Y1042833D01*
X531015Y1037833D01*
X530959Y1037889D01*
X530848Y1037945D01*
X530626Y1038111D01*
X530348Y1038278D01*
X530015Y1038556D01*
X529570Y1038833D01*
X529126Y1039222D01*
X528570Y1039611D01*
X528015Y1040111D01*
X527404Y1040611D01*
X526737Y1041222D01*
X526071Y1041889D01*
X525349Y1042555D01*
X524626Y1043333D01*
X523904Y1044111D01*
X523127Y1044999D01*
X523071Y1044944D01*
X522960Y1044833D01*
X522793Y1044666D01*
X522571Y1044444D01*
X522293Y1044166D01*
X521960Y1043833D01*
X521127Y1043055D01*
X520127Y1042222D01*
X518960Y1041389D01*
X517683Y1040555D01*
X516349Y1039833D01*
X516294D01*
X516183Y1039778D01*
X515961Y1039667D01*
X515738Y1039556D01*
X515350Y1039444D01*
X514961Y1039333D01*
X514516Y1039167D01*
X513961Y1039000D01*
X512794Y1038722D01*
X511461Y1038445D01*
X509961Y1038222D01*
X508406Y1038167D01*
X508073D01*
X507628Y1038222D01*
X507128Y1038278D01*
X506462Y1038333D01*
X505684Y1038445D01*
X504795Y1038611D01*
X503906Y1038833D01*
X502906Y1039111D01*
X501907Y1039444D01*
X500851Y1039889D01*
X499796Y1040389D01*
X498796Y1041000D01*
X497796Y1041722D01*
X496796Y1042500D01*
X495907Y1043444D01*
X495852Y1043500D01*
X495741Y1043666D01*
X495574Y1043888D01*
X495352Y1044222D01*
X495018Y1044611D01*
X494741Y1045110D01*
X494407Y1045666D01*
X494074Y1046277D01*
X493685Y1046944D01*
X493352Y1047721D01*
X492796Y1049332D01*
X492519Y1050221D01*
X492352Y1051165D01*
X492241Y1052110D01*
X492185Y1053110D01*
Y1053165D01*
Y1053332D01*
Y1053554D01*
X492241Y1053943D01*
X492296Y1054332D01*
X492352Y1054832D01*
X492463Y1055387D01*
X492574Y1055998D01*
X492907Y1057276D01*
X493463Y1058720D01*
X493852Y1059498D01*
X494241Y1060220D01*
X494685Y1060942D01*
X495241Y1061664D01*
X495296Y1061720D01*
X495407Y1061831D01*
X495574Y1062053D01*
X495796Y1062331D01*
X496129Y1062664D01*
X496518Y1063053D01*
X497018Y1063442D01*
X497518Y1063942D01*
X498129Y1064442D01*
X498796Y1064997D01*
X499573Y1065553D01*
X500407Y1066108D01*
X501296Y1066719D01*
X502240Y1067275D01*
X503295Y1067830D01*
X504406Y1068386D01*
X504351Y1068441D01*
X504240Y1068552D01*
X504073Y1068775D01*
X503851Y1069052D01*
X503573Y1069386D01*
X503240Y1069775D01*
X502518Y1070719D01*
X501740Y1071719D01*
X500962Y1072774D01*
X500296Y1073830D01*
X499740Y1074830D01*
Y1074885D01*
X499684Y1074941D01*
X499573Y1075274D01*
X499351Y1075718D01*
X499185Y1076385D01*
X498962Y1077107D01*
X498740Y1077940D01*
X498629Y1078774D01*
X498574Y1079662D01*
Y1079718D01*
Y1079885D01*
Y1080107D01*
X498629Y1080440D01*
X498685Y1080829D01*
X498740Y1081329D01*
X498851Y1081829D01*
X499018Y1082384D01*
X499462Y1083662D01*
X499740Y1084329D01*
X500073Y1084995D01*
X500518Y1085662D01*
X501018Y1086328D01*
X501573Y1086995D01*
X502184Y1087662D01*
X502240Y1087717D01*
X502351Y1087828D01*
X502573Y1087995D01*
X502851Y1088217D01*
X503184Y1088439D01*
X503629Y1088773D01*
X504128Y1089050D01*
X504684Y1089384D01*
X505295Y1089717D01*
X506017Y1089995D01*
X506739Y1090328D01*
X507573Y1090550D01*
X508406Y1090772D01*
X509350Y1090939D01*
X510295Y1091050D01*
X511295Y1091106D01*
X511794D01*
X512183Y1091050D01*
D02*
G37*
G36*
X461411Y1076163D02*
X467799D01*
Y1071274D01*
X461411D01*
Y1049499D01*
Y1049443D01*
Y1049388D01*
Y1049054D01*
Y1048610D01*
X461466Y1048055D01*
Y1047499D01*
X461577Y1046944D01*
X461633Y1046444D01*
X461744Y1046055D01*
Y1045999D01*
X461800Y1045944D01*
X462022Y1045610D01*
X462355Y1045222D01*
X462799Y1044833D01*
X462855D01*
X462966Y1044777D01*
X463133Y1044722D01*
X463355Y1044611D01*
X463688Y1044555D01*
X464022Y1044444D01*
X464466Y1044388D01*
X465410D01*
X465744Y1044444D01*
X466133D01*
X466632Y1044499D01*
X467188Y1044555D01*
X467799Y1044611D01*
X468632Y1039056D01*
X468521D01*
X468188Y1038944D01*
X467688Y1038889D01*
X467021Y1038778D01*
X466299Y1038667D01*
X465521Y1038611D01*
X463855Y1038500D01*
X463299D01*
X462688Y1038556D01*
X461911Y1038611D01*
X461022Y1038778D01*
X460133Y1038944D01*
X459300Y1039222D01*
X458522Y1039556D01*
X458467Y1039611D01*
X458244Y1039778D01*
X457911Y1040000D01*
X457467Y1040333D01*
X457022Y1040722D01*
X456578Y1041222D01*
X456189Y1041777D01*
X455856Y1042389D01*
X455800Y1042500D01*
X455745Y1042777D01*
X455689Y1043000D01*
X455634Y1043277D01*
X455578Y1043611D01*
X455522Y1043999D01*
X455411Y1044444D01*
X455356Y1044999D01*
X455300Y1045610D01*
X455245Y1046277D01*
X455189Y1047055D01*
Y1047888D01*
X455134Y1048832D01*
Y1049832D01*
Y1071274D01*
X450467D01*
Y1076163D01*
X455134D01*
Y1085329D01*
X461411Y1089106D01*
Y1076163D01*
D02*
G37*
G36*
X174885Y1039000D02*
X136000D01*
Y1045055D01*
X174885D01*
Y1039000D01*
D02*
G37*
G36*
X625227Y1076941D02*
X625727D01*
X626394Y1076829D01*
X627116Y1076718D01*
X627949Y1076552D01*
X628838Y1076385D01*
X629782Y1076107D01*
X630727Y1075774D01*
X631782Y1075330D01*
X632782Y1074830D01*
X633782Y1074274D01*
X634782Y1073552D01*
X635782Y1072774D01*
X636670Y1071886D01*
X636726Y1071830D01*
X636893Y1071663D01*
X637115Y1071385D01*
X637393Y1070941D01*
X637781Y1070441D01*
X638170Y1069830D01*
X638615Y1069052D01*
X639059Y1068219D01*
X639448Y1067275D01*
X639892Y1066219D01*
X640281Y1065053D01*
X640670Y1063775D01*
X640948Y1062386D01*
X641170Y1060887D01*
X641337Y1059331D01*
X641392Y1057665D01*
Y1057554D01*
Y1057276D01*
Y1056720D01*
X641337Y1055998D01*
X613617D01*
Y1055943D01*
Y1055721D01*
X613673Y1055387D01*
X613728Y1054998D01*
X613784Y1054443D01*
X613895Y1053887D01*
X614006Y1053221D01*
X614173Y1052499D01*
X614617Y1050999D01*
X615228Y1049388D01*
X615617Y1048666D01*
X616006Y1047888D01*
X616506Y1047221D01*
X617061Y1046555D01*
X617117Y1046499D01*
X617228Y1046444D01*
X617395Y1046277D01*
X617617Y1046055D01*
X617950Y1045833D01*
X618283Y1045555D01*
X618728Y1045222D01*
X619228Y1044944D01*
X620339Y1044333D01*
X621672Y1043833D01*
X622394Y1043611D01*
X623172Y1043500D01*
X624005Y1043388D01*
X624838Y1043333D01*
X625172D01*
X625394Y1043388D01*
X626060Y1043444D01*
X626894Y1043555D01*
X627782Y1043777D01*
X628782Y1044111D01*
X629782Y1044499D01*
X630727Y1045110D01*
X630782D01*
X630838Y1045222D01*
X631115Y1045444D01*
X631560Y1045888D01*
X632115Y1046555D01*
X632726Y1047333D01*
X633393Y1048388D01*
X634059Y1049610D01*
X634615Y1050999D01*
X641170Y1050165D01*
Y1050110D01*
X641114Y1049888D01*
X641003Y1049610D01*
X640837Y1049221D01*
X640670Y1048721D01*
X640448Y1048166D01*
X640170Y1047555D01*
X639892Y1046888D01*
X639114Y1045499D01*
X638115Y1043999D01*
X637504Y1043277D01*
X636893Y1042555D01*
X636226Y1041889D01*
X635448Y1041277D01*
X635393Y1041222D01*
X635282Y1041166D01*
X635004Y1041000D01*
X634726Y1040778D01*
X634282Y1040555D01*
X633782Y1040278D01*
X633226Y1040000D01*
X632560Y1039722D01*
X631838Y1039444D01*
X631004Y1039167D01*
X630171Y1038889D01*
X629227Y1038667D01*
X628227Y1038445D01*
X627171Y1038278D01*
X626005Y1038222D01*
X624838Y1038167D01*
X624505D01*
X624061Y1038222D01*
X623505D01*
X622783Y1038333D01*
X622005Y1038445D01*
X621116Y1038611D01*
X620172Y1038778D01*
X619172Y1039056D01*
X618117Y1039389D01*
X617006Y1039778D01*
X615950Y1040278D01*
X614839Y1040833D01*
X613839Y1041500D01*
X612840Y1042277D01*
X611895Y1043166D01*
X611840Y1043222D01*
X611673Y1043388D01*
X611451Y1043666D01*
X611173Y1044111D01*
X610784Y1044611D01*
X610395Y1045222D01*
X609951Y1045944D01*
X609562Y1046777D01*
X609118Y1047721D01*
X608673Y1048777D01*
X608284Y1049943D01*
X607896Y1051221D01*
X607618Y1052554D01*
X607396Y1053998D01*
X607229Y1055554D01*
X607173Y1057220D01*
Y1057331D01*
Y1057609D01*
X607229Y1058109D01*
Y1058776D01*
X607340Y1059553D01*
X607451Y1060442D01*
X607562Y1061498D01*
X607785Y1062553D01*
X608007Y1063720D01*
X608340Y1064886D01*
X608729Y1066108D01*
X609173Y1067330D01*
X609729Y1068497D01*
X610395Y1069663D01*
X611117Y1070775D01*
X611951Y1071774D01*
X612006Y1071830D01*
X612173Y1071997D01*
X612451Y1072274D01*
X612840Y1072608D01*
X613284Y1072997D01*
X613895Y1073441D01*
X614562Y1073885D01*
X615339Y1074385D01*
X616172Y1074885D01*
X617117Y1075330D01*
X618172Y1075774D01*
X619283Y1076163D01*
X620505Y1076496D01*
X621727Y1076774D01*
X623116Y1076941D01*
X624505Y1076996D01*
X624838D01*
X625227Y1076941D01*
D02*
G37*
G36*
X764546D02*
X765046D01*
X765713Y1076829D01*
X766435Y1076718D01*
X767268Y1076552D01*
X768157Y1076385D01*
X769101Y1076107D01*
X770045Y1075774D01*
X771101Y1075330D01*
X772101Y1074830D01*
X773101Y1074274D01*
X774101Y1073552D01*
X775100Y1072774D01*
X775989Y1071886D01*
X776045Y1071830D01*
X776211Y1071663D01*
X776434Y1071385D01*
X776711Y1070941D01*
X777100Y1070441D01*
X777489Y1069830D01*
X777934Y1069052D01*
X778378Y1068219D01*
X778767Y1067275D01*
X779211Y1066219D01*
X779600Y1065053D01*
X779989Y1063775D01*
X780267Y1062386D01*
X780489Y1060887D01*
X780655Y1059331D01*
X780711Y1057665D01*
Y1057554D01*
Y1057276D01*
Y1056720D01*
X780655Y1055998D01*
X752936D01*
Y1055943D01*
Y1055721D01*
X752992Y1055387D01*
X753047Y1054998D01*
X753103Y1054443D01*
X753214Y1053887D01*
X753325Y1053221D01*
X753492Y1052499D01*
X753936Y1050999D01*
X754547Y1049388D01*
X754936Y1048666D01*
X755325Y1047888D01*
X755825Y1047221D01*
X756380Y1046555D01*
X756436Y1046499D01*
X756547Y1046444D01*
X756713Y1046277D01*
X756936Y1046055D01*
X757269Y1045833D01*
X757602Y1045555D01*
X758047Y1045222D01*
X758547Y1044944D01*
X759658Y1044333D01*
X760991Y1043833D01*
X761713Y1043611D01*
X762491Y1043500D01*
X763324Y1043388D01*
X764157Y1043333D01*
X764490D01*
X764713Y1043388D01*
X765379Y1043444D01*
X766212Y1043555D01*
X767101Y1043777D01*
X768101Y1044111D01*
X769101Y1044499D01*
X770045Y1045110D01*
X770101D01*
X770156Y1045222D01*
X770434Y1045444D01*
X770879Y1045888D01*
X771434Y1046555D01*
X772045Y1047333D01*
X772712Y1048388D01*
X773378Y1049610D01*
X773934Y1050999D01*
X780489Y1050165D01*
Y1050110D01*
X780433Y1049888D01*
X780322Y1049610D01*
X780155Y1049221D01*
X779989Y1048721D01*
X779767Y1048166D01*
X779489Y1047555D01*
X779211Y1046888D01*
X778433Y1045499D01*
X777433Y1043999D01*
X776823Y1043277D01*
X776211Y1042555D01*
X775545Y1041889D01*
X774767Y1041277D01*
X774712Y1041222D01*
X774601Y1041166D01*
X774323Y1041000D01*
X774045Y1040778D01*
X773601Y1040555D01*
X773101Y1040278D01*
X772545Y1040000D01*
X771879Y1039722D01*
X771156Y1039444D01*
X770323Y1039167D01*
X769490Y1038889D01*
X768546Y1038667D01*
X767546Y1038445D01*
X766490Y1038278D01*
X765324Y1038222D01*
X764157Y1038167D01*
X763824D01*
X763379Y1038222D01*
X762824D01*
X762102Y1038333D01*
X761324Y1038445D01*
X760435Y1038611D01*
X759491Y1038778D01*
X758491Y1039056D01*
X757436Y1039389D01*
X756325Y1039778D01*
X755269Y1040278D01*
X754158Y1040833D01*
X753158Y1041500D01*
X752158Y1042277D01*
X751214Y1043166D01*
X751159Y1043222D01*
X750992Y1043388D01*
X750770Y1043666D01*
X750492Y1044111D01*
X750103Y1044611D01*
X749714Y1045222D01*
X749270Y1045944D01*
X748881Y1046777D01*
X748437Y1047721D01*
X747992Y1048777D01*
X747603Y1049943D01*
X747215Y1051221D01*
X746937Y1052554D01*
X746714Y1053998D01*
X746548Y1055554D01*
X746492Y1057220D01*
Y1057331D01*
Y1057609D01*
X746548Y1058109D01*
Y1058776D01*
X746659Y1059553D01*
X746770Y1060442D01*
X746881Y1061498D01*
X747103Y1062553D01*
X747326Y1063720D01*
X747659Y1064886D01*
X748048Y1066108D01*
X748492Y1067330D01*
X749048Y1068497D01*
X749714Y1069663D01*
X750436Y1070775D01*
X751270Y1071774D01*
X751325Y1071830D01*
X751492Y1071997D01*
X751769Y1072274D01*
X752158Y1072608D01*
X752603Y1072997D01*
X753214Y1073441D01*
X753880Y1073885D01*
X754658Y1074385D01*
X755491Y1074885D01*
X756436Y1075330D01*
X757491Y1075774D01*
X758602Y1076163D01*
X759824Y1076496D01*
X761046Y1076774D01*
X762435Y1076941D01*
X763824Y1076996D01*
X764157D01*
X764546Y1076941D01*
D02*
G37*
G36*
X765368Y1158500D02*
X766201Y1158361D01*
X767243Y1158083D01*
X768423Y1157736D01*
X769673Y1157250D01*
X771062Y1156625D01*
X766687Y1146555D01*
X766548Y1146625D01*
X766271Y1146694D01*
X765854Y1146902D01*
X765229Y1147111D01*
X763979Y1147458D01*
X763354Y1147527D01*
X762729Y1147597D01*
X762243D01*
X761757Y1147458D01*
X761132Y1147319D01*
X760437Y1147041D01*
X759743Y1146625D01*
X759048Y1146069D01*
X758423Y1145305D01*
Y1145236D01*
X758354Y1145166D01*
X758215Y1144958D01*
X758076Y1144680D01*
X757937Y1144264D01*
X757729Y1143847D01*
X757521Y1143222D01*
X757382Y1142597D01*
X757173Y1141833D01*
X756965Y1140930D01*
X756757Y1139958D01*
X756618Y1138847D01*
X756479Y1137666D01*
X756340Y1136347D01*
X756271Y1134889D01*
Y1133291D01*
Y1121000D01*
X742104D01*
Y1157736D01*
X755298D01*
Y1151764D01*
X755368Y1151833D01*
X755507Y1152041D01*
X755646Y1152319D01*
X755993Y1153014D01*
X756479Y1153847D01*
X757104Y1154680D01*
X757729Y1155583D01*
X758423Y1156416D01*
X759187Y1157041D01*
X759257Y1157111D01*
X759534Y1157250D01*
X759951Y1157527D01*
X760576Y1157805D01*
X761271Y1158083D01*
X762173Y1158361D01*
X763146Y1158500D01*
X764187Y1158569D01*
X764743D01*
X765368Y1158500D01*
D02*
G37*
G36*
X715021D02*
X715646D01*
X716410Y1158430D01*
X717313Y1158361D01*
X718215Y1158291D01*
X720160Y1157944D01*
X722243Y1157527D01*
X724257Y1156972D01*
X725229Y1156555D01*
X726132Y1156139D01*
X726201D01*
X726340Y1156000D01*
X726549Y1155861D01*
X726896Y1155722D01*
X727729Y1155166D01*
X728701Y1154402D01*
X729813Y1153430D01*
X730993Y1152250D01*
X732104Y1150791D01*
X733076Y1149194D01*
Y1149125D01*
X733215Y1148986D01*
X733285Y1148708D01*
X733493Y1148361D01*
X733632Y1147944D01*
X733840Y1147389D01*
X734049Y1146764D01*
X734326Y1146000D01*
X734535Y1145236D01*
X734743Y1144333D01*
X734951Y1143361D01*
X735160Y1142319D01*
X735299Y1141208D01*
X735437Y1139958D01*
X735507Y1138708D01*
Y1137389D01*
Y1135861D01*
X707243D01*
Y1135791D01*
Y1135722D01*
X707313Y1135305D01*
X707452Y1134680D01*
X707591Y1133986D01*
X707868Y1133153D01*
X708146Y1132319D01*
X708563Y1131486D01*
X709049Y1130791D01*
X709118Y1130722D01*
X709396Y1130444D01*
X709882Y1130028D01*
X710507Y1129611D01*
X711271Y1129194D01*
X712174Y1128778D01*
X713216Y1128500D01*
X714396Y1128430D01*
X714743D01*
X715160Y1128500D01*
X715646Y1128569D01*
X716271Y1128639D01*
X716965Y1128847D01*
X717660Y1129055D01*
X718354Y1129403D01*
X718424Y1129472D01*
X718563Y1129542D01*
X718771Y1129680D01*
X719118Y1129958D01*
X719465Y1130305D01*
X719882Y1130722D01*
X720368Y1131208D01*
X720854Y1131764D01*
X734743Y1130514D01*
X734674Y1130444D01*
X734604Y1130305D01*
X734396Y1129958D01*
X734187Y1129611D01*
X733840Y1129125D01*
X733493Y1128639D01*
X732590Y1127458D01*
X731479Y1126139D01*
X730160Y1124819D01*
X728632Y1123569D01*
X727868Y1123014D01*
X727035Y1122528D01*
X726965D01*
X726826Y1122458D01*
X726549Y1122319D01*
X726201Y1122180D01*
X725715Y1121972D01*
X725160Y1121764D01*
X724465Y1121555D01*
X723701Y1121347D01*
X722868Y1121139D01*
X721896Y1120930D01*
X720854Y1120722D01*
X719674Y1120514D01*
X718424Y1120375D01*
X717104Y1120236D01*
X715646Y1120167D01*
X712938D01*
X712313Y1120236D01*
X711618Y1120306D01*
X710785D01*
X709952Y1120444D01*
X708077Y1120653D01*
X706202Y1121000D01*
X704327Y1121486D01*
X703424Y1121833D01*
X702591Y1122180D01*
X702521D01*
X702382Y1122250D01*
X702174Y1122389D01*
X701896Y1122597D01*
X701132Y1123083D01*
X700160Y1123778D01*
X699049Y1124680D01*
X697938Y1125792D01*
X696757Y1127180D01*
X695646Y1128708D01*
Y1128778D01*
X695507Y1128917D01*
X695369Y1129194D01*
X695230Y1129542D01*
X695021Y1129958D01*
X694813Y1130444D01*
X694535Y1131069D01*
X694327Y1131694D01*
X694049Y1132458D01*
X693771Y1133291D01*
X693355Y1135097D01*
X693077Y1137111D01*
X692938Y1139264D01*
Y1139333D01*
Y1139680D01*
X693008Y1140097D01*
Y1140722D01*
X693077Y1141416D01*
X693216Y1142250D01*
X693424Y1143222D01*
X693633Y1144264D01*
X693910Y1145305D01*
X694258Y1146486D01*
X694744Y1147597D01*
X695230Y1148777D01*
X695855Y1149958D01*
X696618Y1151069D01*
X697452Y1152180D01*
X698424Y1153222D01*
X698493Y1153291D01*
X698702Y1153430D01*
X698980Y1153708D01*
X699466Y1154055D01*
X700021Y1154472D01*
X700646Y1154889D01*
X701480Y1155375D01*
X702382Y1155930D01*
X703424Y1156416D01*
X704535Y1156902D01*
X705854Y1157319D01*
X707174Y1157736D01*
X708632Y1158083D01*
X710229Y1158361D01*
X711896Y1158500D01*
X713702Y1158569D01*
X714466D01*
X715021Y1158500D01*
D02*
G37*
G36*
X491621Y1159263D02*
X475649D01*
Y1121000D01*
X459955D01*
Y1159263D01*
X443983D01*
Y1171763D01*
X491621D01*
Y1159263D01*
D02*
G37*
G36*
X361137Y1157736D02*
X368914D01*
Y1147389D01*
X361137D01*
Y1134403D01*
Y1134333D01*
Y1134055D01*
Y1133639D01*
X361206Y1133153D01*
X361345Y1132111D01*
X361414Y1131625D01*
X361553Y1131278D01*
X361623Y1131208D01*
X361692Y1131139D01*
X361900Y1130930D01*
X362109Y1130722D01*
X362456Y1130514D01*
X362873Y1130375D01*
X363359Y1130236D01*
X363984Y1130166D01*
X364262D01*
X364609Y1130236D01*
X365095Y1130305D01*
X365720Y1130375D01*
X366484Y1130514D01*
X367386Y1130722D01*
X368359Y1131000D01*
X369400Y1121278D01*
X369331D01*
X369192Y1121208D01*
X368914D01*
X368498Y1121139D01*
X368011Y1121000D01*
X367525Y1120930D01*
X366900Y1120861D01*
X366206Y1120722D01*
X364678Y1120514D01*
X363012Y1120375D01*
X361345Y1120236D01*
X359609Y1120167D01*
X358775D01*
X358359Y1120236D01*
X357803D01*
X356692Y1120306D01*
X355442Y1120514D01*
X354192Y1120722D01*
X352942Y1121069D01*
X351900Y1121486D01*
X351762Y1121555D01*
X351484Y1121764D01*
X351067Y1122042D01*
X350512Y1122458D01*
X349887Y1123083D01*
X349262Y1123778D01*
X348706Y1124542D01*
X348220Y1125514D01*
X348151Y1125653D01*
X348012Y1126069D01*
X347942Y1126347D01*
X347873Y1126694D01*
X347734Y1127180D01*
X347664Y1127667D01*
X347526Y1128292D01*
X347387Y1128917D01*
X347317Y1129680D01*
X347248Y1130444D01*
X347178Y1131347D01*
X347109Y1132319D01*
X347039Y1133361D01*
Y1134472D01*
Y1147389D01*
X341831D01*
Y1157736D01*
X347039D01*
Y1164472D01*
X361137Y1171763D01*
Y1157736D01*
D02*
G37*
G36*
X395928Y1158500D02*
X396692D01*
X397594Y1158361D01*
X398705Y1158222D01*
X399817Y1158013D01*
X401136Y1157736D01*
X402455Y1157388D01*
X403775Y1156972D01*
X405164Y1156486D01*
X406553Y1155861D01*
X407942Y1155097D01*
X409192Y1154264D01*
X410442Y1153222D01*
X411553Y1152111D01*
X411622Y1152041D01*
X411761Y1151902D01*
X411969Y1151555D01*
X412247Y1151208D01*
X412594Y1150722D01*
X413011Y1150097D01*
X413428Y1149402D01*
X413844Y1148639D01*
X414261Y1147736D01*
X414678Y1146764D01*
X415094Y1145722D01*
X415441Y1144611D01*
X415719Y1143430D01*
X415928Y1142180D01*
X416066Y1140861D01*
X416136Y1139472D01*
Y1139402D01*
Y1139125D01*
X416066Y1138639D01*
Y1138083D01*
X415997Y1137319D01*
X415858Y1136486D01*
X415650Y1135514D01*
X415441Y1134541D01*
X415094Y1133430D01*
X414747Y1132319D01*
X414261Y1131139D01*
X413705Y1129958D01*
X413080Y1128847D01*
X412316Y1127667D01*
X411414Y1126555D01*
X410442Y1125514D01*
X410372Y1125444D01*
X410164Y1125305D01*
X409886Y1125028D01*
X409400Y1124680D01*
X408844Y1124264D01*
X408150Y1123847D01*
X407317Y1123361D01*
X406414Y1122875D01*
X405372Y1122319D01*
X404192Y1121833D01*
X402872Y1121417D01*
X401483Y1121000D01*
X400025Y1120653D01*
X398428Y1120375D01*
X396692Y1120236D01*
X394886Y1120167D01*
X394053D01*
X393428Y1120236D01*
X392664Y1120306D01*
X391761Y1120375D01*
X390789Y1120514D01*
X389747Y1120722D01*
X387456Y1121278D01*
X386275Y1121625D01*
X385095Y1122042D01*
X383845Y1122528D01*
X382733Y1123153D01*
X381553Y1123847D01*
X380511Y1124611D01*
X380442Y1124680D01*
X380233Y1124889D01*
X379886Y1125167D01*
X379470Y1125653D01*
X378983Y1126208D01*
X378428Y1126833D01*
X377803Y1127667D01*
X377178Y1128500D01*
X376553Y1129542D01*
X375928Y1130653D01*
X375373Y1131833D01*
X374886Y1133153D01*
X374470Y1134541D01*
X374123Y1136000D01*
X373914Y1137597D01*
X373845Y1139264D01*
Y1139333D01*
Y1139611D01*
X373914Y1140097D01*
Y1140652D01*
X374053Y1141347D01*
X374123Y1142180D01*
X374331Y1143152D01*
X374539Y1144125D01*
X374817Y1145236D01*
X375234Y1146347D01*
X375650Y1147458D01*
X376206Y1148639D01*
X376831Y1149819D01*
X377595Y1150930D01*
X378497Y1152041D01*
X379470Y1153083D01*
X379539Y1153152D01*
X379747Y1153291D01*
X380095Y1153569D01*
X380511Y1153916D01*
X381067Y1154333D01*
X381761Y1154819D01*
X382595Y1155305D01*
X383567Y1155861D01*
X384608Y1156347D01*
X385719Y1156833D01*
X387039Y1157319D01*
X388358Y1157736D01*
X389886Y1158083D01*
X391414Y1158361D01*
X393081Y1158500D01*
X394886Y1158569D01*
X395372D01*
X395928Y1158500D01*
D02*
G37*
G36*
X549815D02*
X551204D01*
X552870Y1158361D01*
X554537Y1158222D01*
X556204Y1158083D01*
X557731Y1157805D01*
X557940D01*
X558079Y1157736D01*
X558356Y1157666D01*
X559120Y1157458D01*
X560023Y1157180D01*
X560995Y1156763D01*
X562106Y1156277D01*
X563148Y1155652D01*
X564190Y1154889D01*
X564259Y1154819D01*
X564467Y1154611D01*
X564815Y1154264D01*
X565231Y1153708D01*
X565648Y1153083D01*
X566134Y1152319D01*
X566620Y1151486D01*
X567037Y1150444D01*
X567106Y1150305D01*
X567176Y1149958D01*
X567384Y1149402D01*
X567592Y1148708D01*
X567731Y1147875D01*
X567940Y1146972D01*
X568009Y1146000D01*
X568078Y1145027D01*
Y1128778D01*
Y1128639D01*
Y1128361D01*
Y1127875D01*
X568148Y1127319D01*
Y1126625D01*
X568217Y1126000D01*
X568287Y1125305D01*
X568356Y1124680D01*
Y1124611D01*
X568426Y1124403D01*
X568495Y1124125D01*
X568703Y1123708D01*
X568842Y1123153D01*
X569120Y1122528D01*
X569467Y1121764D01*
X569814Y1121000D01*
X556620D01*
Y1121069D01*
X556481Y1121208D01*
X556343Y1121486D01*
X556204Y1121764D01*
X555787Y1122528D01*
X555509Y1123153D01*
Y1123222D01*
Y1123292D01*
X555440Y1123500D01*
X555370Y1123708D01*
X555301Y1124055D01*
X555231Y1124472D01*
X555162Y1124958D01*
X555093Y1125514D01*
X554954Y1125375D01*
X554606Y1125097D01*
X554051Y1124611D01*
X553356Y1124055D01*
X552523Y1123361D01*
X551551Y1122736D01*
X550579Y1122180D01*
X549537Y1121694D01*
X549468D01*
X549398Y1121625D01*
X549190Y1121555D01*
X548843Y1121486D01*
X548495Y1121347D01*
X548079Y1121208D01*
X547037Y1120930D01*
X545787Y1120653D01*
X544329Y1120375D01*
X542662Y1120236D01*
X540857Y1120167D01*
X540232D01*
X539745Y1120236D01*
X539259D01*
X538565Y1120306D01*
X537107Y1120514D01*
X535509Y1120930D01*
X533843Y1121417D01*
X532245Y1122180D01*
X531551Y1122597D01*
X530857Y1123153D01*
X530787Y1123222D01*
X530718Y1123292D01*
X530301Y1123708D01*
X529815Y1124333D01*
X529190Y1125236D01*
X528565Y1126347D01*
X528009Y1127597D01*
X527593Y1129055D01*
X527523Y1129819D01*
X527454Y1130653D01*
Y1130722D01*
Y1130861D01*
Y1131069D01*
X527523Y1131347D01*
X527593Y1132111D01*
X527732Y1133083D01*
X528079Y1134194D01*
X528496Y1135375D01*
X529051Y1136486D01*
X529884Y1137528D01*
X530023Y1137666D01*
X530371Y1137944D01*
X530648Y1138222D01*
X530996Y1138430D01*
X531482Y1138708D01*
X531968Y1139055D01*
X532523Y1139402D01*
X533218Y1139680D01*
X533982Y1140027D01*
X534745Y1140375D01*
X535718Y1140722D01*
X536690Y1141000D01*
X537801Y1141277D01*
X538982Y1141555D01*
X539051D01*
X539329Y1141625D01*
X539745Y1141694D01*
X540301Y1141833D01*
X540926Y1141972D01*
X541620Y1142111D01*
X543287Y1142458D01*
X545023Y1142805D01*
X546690Y1143152D01*
X547523Y1143361D01*
X548218Y1143500D01*
X548843Y1143639D01*
X549329Y1143777D01*
X549468D01*
X549745Y1143916D01*
X550231Y1144055D01*
X550856Y1144264D01*
X551620Y1144541D01*
X552454Y1144819D01*
X553356Y1145166D01*
X554329Y1145514D01*
Y1145652D01*
Y1145930D01*
X554259Y1146416D01*
X554190Y1146902D01*
X554051Y1147527D01*
X553843Y1148152D01*
X553565Y1148639D01*
X553218Y1149125D01*
X553148Y1149194D01*
X553009Y1149264D01*
X552731Y1149472D01*
X552315Y1149680D01*
X551829Y1149819D01*
X551134Y1150027D01*
X550370Y1150097D01*
X549398Y1150166D01*
X548843D01*
X548218Y1150097D01*
X547454Y1150027D01*
X546620Y1149889D01*
X545718Y1149680D01*
X544884Y1149402D01*
X544190Y1149055D01*
X544120Y1148986D01*
X543982Y1148847D01*
X543704Y1148639D01*
X543426Y1148291D01*
X543079Y1147875D01*
X542732Y1147319D01*
X542384Y1146625D01*
X542037Y1145791D01*
X528565Y1147250D01*
Y1147319D01*
X528634Y1147389D01*
X528704Y1147805D01*
X528843Y1148430D01*
X529121Y1149264D01*
X529398Y1150097D01*
X529746Y1151000D01*
X530232Y1151902D01*
X530718Y1152736D01*
X530787Y1152805D01*
X530996Y1153083D01*
X531343Y1153500D01*
X531759Y1153986D01*
X532384Y1154541D01*
X533079Y1155097D01*
X533912Y1155722D01*
X534884Y1156277D01*
X534954Y1156347D01*
X535232Y1156486D01*
X535648Y1156694D01*
X536273Y1156902D01*
X537037Y1157180D01*
X537940Y1157458D01*
X539051Y1157736D01*
X540232Y1157944D01*
X540370D01*
X540579Y1158013D01*
X540857D01*
X541551Y1158152D01*
X542454Y1158291D01*
X543495Y1158361D01*
X544745Y1158500D01*
X546134Y1158569D01*
X549190D01*
X549815Y1158500D01*
D02*
G37*
G36*
X245443D02*
X246277Y1158361D01*
X247318Y1158083D01*
X248499Y1157736D01*
X249661Y1157284D01*
X249471Y1157736D01*
X264332D01*
X271901Y1133222D01*
X278985Y1157736D01*
X292873D01*
X278221Y1118500D01*
Y1118431D01*
X278082Y1118222D01*
X277943Y1117875D01*
X277804Y1117458D01*
X277596Y1116903D01*
X277318Y1116278D01*
X276624Y1114889D01*
X275860Y1113361D01*
X275026Y1111903D01*
X274124Y1110514D01*
X273638Y1109958D01*
X273151Y1109472D01*
X273082Y1109403D01*
X273013Y1109333D01*
X272735Y1109195D01*
X272457Y1108986D01*
X272040Y1108708D01*
X271624Y1108431D01*
X270999Y1108153D01*
X270374Y1107806D01*
X269610Y1107528D01*
X268776Y1107181D01*
X267874Y1106903D01*
X266901Y1106695D01*
X265791Y1106417D01*
X264610Y1106278D01*
X263360Y1106208D01*
X261971Y1106139D01*
X261068D01*
X260652Y1106208D01*
X260166D01*
X259679Y1106278D01*
X259054D01*
X258291Y1106347D01*
X257527Y1106417D01*
X256693Y1106486D01*
X255791Y1106556D01*
X254749Y1106695D01*
X253707Y1106833D01*
X252527Y1106972D01*
X251485Y1116833D01*
X251555D01*
X251624Y1116764D01*
X252041Y1116694D01*
X252596Y1116556D01*
X253430Y1116347D01*
X254471Y1116139D01*
X255582Y1116000D01*
X256832Y1115931D01*
X258221Y1115861D01*
X258638D01*
X259124Y1115931D01*
X259679Y1116000D01*
X260304Y1116139D01*
X260999Y1116347D01*
X261624Y1116625D01*
X262249Y1117042D01*
X262318Y1117111D01*
X262527Y1117250D01*
X262804Y1117528D01*
X263152Y1117944D01*
X263568Y1118500D01*
X263985Y1119194D01*
X264471Y1120028D01*
X264888Y1121000D01*
X250527Y1155219D01*
X246763Y1146555D01*
X246624Y1146625D01*
X246346Y1146694D01*
X245930Y1146902D01*
X245305Y1147111D01*
X244055Y1147458D01*
X243430Y1147527D01*
X242805Y1147597D01*
X242318D01*
X241832Y1147458D01*
X241207Y1147319D01*
X240513Y1147041D01*
X239818Y1146625D01*
X239124Y1146069D01*
X238499Y1145305D01*
Y1145236D01*
X238430Y1145166D01*
X238291Y1144958D01*
X238152Y1144680D01*
X238013Y1144264D01*
X237805Y1143847D01*
X237596Y1143222D01*
X237458Y1142597D01*
X237249Y1141833D01*
X237041Y1140930D01*
X236833Y1139958D01*
X236694Y1138847D01*
X236555Y1137666D01*
X236416Y1136347D01*
X236346Y1134889D01*
Y1133291D01*
Y1121000D01*
X222180D01*
Y1157736D01*
X235374D01*
Y1151764D01*
X235444Y1151833D01*
X235583Y1152041D01*
X235721Y1152319D01*
X236069Y1153014D01*
X236555Y1153847D01*
X237180Y1154680D01*
X237805Y1155583D01*
X238499Y1156416D01*
X239263Y1157041D01*
X239332Y1157111D01*
X239610Y1157250D01*
X240027Y1157527D01*
X240652Y1157805D01*
X241346Y1158083D01*
X242249Y1158361D01*
X243221Y1158500D01*
X244263Y1158569D01*
X244818D01*
X245443Y1158500D01*
D02*
G37*
G36*
X521135D02*
X521968Y1158361D01*
X523009Y1158083D01*
X524190Y1157736D01*
X525440Y1157250D01*
X526829Y1156625D01*
X522454Y1146555D01*
X522315Y1146625D01*
X522037Y1146694D01*
X521621Y1146902D01*
X520996Y1147111D01*
X519746Y1147458D01*
X519121Y1147527D01*
X518496Y1147597D01*
X518010D01*
X517523Y1147458D01*
X516898Y1147319D01*
X516204Y1147041D01*
X515510Y1146625D01*
X514815Y1146069D01*
X514190Y1145305D01*
Y1145236D01*
X514121Y1145166D01*
X513982Y1144958D01*
X513843Y1144680D01*
X513704Y1144264D01*
X513496Y1143847D01*
X513287Y1143222D01*
X513149Y1142597D01*
X512940Y1141833D01*
X512732Y1140930D01*
X512524Y1139958D01*
X512385Y1138847D01*
X512246Y1137666D01*
X512107Y1136347D01*
X512038Y1134889D01*
Y1133291D01*
Y1121000D01*
X497871D01*
Y1157736D01*
X511065D01*
Y1151764D01*
X511135Y1151833D01*
X511274Y1152041D01*
X511413Y1152319D01*
X511760Y1153014D01*
X512246Y1153847D01*
X512871Y1154680D01*
X513496Y1155583D01*
X514190Y1156416D01*
X514954Y1157041D01*
X515023Y1157111D01*
X515301Y1157250D01*
X515718Y1157527D01*
X516343Y1157805D01*
X517037Y1158083D01*
X517940Y1158361D01*
X518912Y1158500D01*
X519954Y1158569D01*
X520510D01*
X521135Y1158500D01*
D02*
G37*
G36*
X642939D02*
X644397Y1158430D01*
X645994Y1158291D01*
X647591Y1158152D01*
X649119Y1157875D01*
X649814Y1157736D01*
X650439Y1157527D01*
X650508D01*
X650577Y1157458D01*
X650994Y1157319D01*
X651550Y1157111D01*
X652244Y1156763D01*
X653077Y1156347D01*
X653980Y1155791D01*
X654814Y1155166D01*
X655647Y1154402D01*
X655716Y1154333D01*
X655994Y1154055D01*
X656411Y1153569D01*
X656897Y1152944D01*
X657452Y1152111D01*
X658077Y1151139D01*
X658633Y1149958D01*
X659188Y1148708D01*
X645855Y1147389D01*
Y1147458D01*
X645786Y1147666D01*
X645647Y1148014D01*
X645439Y1148361D01*
X644883Y1149194D01*
X644466Y1149611D01*
X644050Y1149958D01*
X643980Y1150027D01*
X643772Y1150166D01*
X643425Y1150305D01*
X642939Y1150583D01*
X642314Y1150791D01*
X641619Y1150930D01*
X640855Y1151069D01*
X640022Y1151139D01*
X639605D01*
X639189Y1151069D01*
X638703Y1151000D01*
X637522Y1150791D01*
X636967Y1150514D01*
X636480Y1150236D01*
X636411Y1150166D01*
X636342Y1150097D01*
X635994Y1149680D01*
X635578Y1149055D01*
X635508Y1148639D01*
X635439Y1148222D01*
Y1148152D01*
Y1148014D01*
X635508Y1147736D01*
X635647Y1147458D01*
X635786Y1147111D01*
X635994Y1146764D01*
X636342Y1146416D01*
X636828Y1146139D01*
X636897D01*
X637105Y1146000D01*
X637522Y1145861D01*
X638078Y1145722D01*
X638911Y1145514D01*
X639953Y1145305D01*
X640578Y1145236D01*
X641272Y1145097D01*
X642036Y1145027D01*
X642869Y1144889D01*
X643147D01*
X643564Y1144819D01*
X644050Y1144750D01*
X644605Y1144680D01*
X645300Y1144541D01*
X645994Y1144472D01*
X646827Y1144333D01*
X648494Y1143986D01*
X650230Y1143639D01*
X651897Y1143152D01*
X652591Y1142944D01*
X653286Y1142666D01*
X653355D01*
X653425Y1142597D01*
X653841Y1142389D01*
X654466Y1142111D01*
X655230Y1141625D01*
X656133Y1141069D01*
X656966Y1140375D01*
X657800Y1139541D01*
X658564Y1138639D01*
X658633Y1138500D01*
X658841Y1138153D01*
X659188Y1137666D01*
X659536Y1136903D01*
X659813Y1136069D01*
X660161Y1135097D01*
X660369Y1134055D01*
X660438Y1132875D01*
Y1132736D01*
Y1132319D01*
X660369Y1131694D01*
X660230Y1130930D01*
X659952Y1129958D01*
X659605Y1128917D01*
X659119Y1127805D01*
X658494Y1126694D01*
X658425Y1126555D01*
X658147Y1126208D01*
X657661Y1125653D01*
X657036Y1124958D01*
X656133Y1124194D01*
X655091Y1123430D01*
X653841Y1122597D01*
X652383Y1121903D01*
X652314D01*
X652175Y1121833D01*
X651966Y1121764D01*
X651619Y1121625D01*
X651202Y1121486D01*
X650716Y1121347D01*
X650091Y1121208D01*
X649466Y1121069D01*
X648702Y1120861D01*
X647869Y1120722D01*
X646897Y1120583D01*
X645925Y1120444D01*
X644814Y1120306D01*
X643702Y1120236D01*
X642452Y1120167D01*
X640161D01*
X639467Y1120236D01*
X638703D01*
X637730Y1120306D01*
X636689Y1120375D01*
X635578Y1120514D01*
X633217Y1120861D01*
X630855Y1121347D01*
X629675Y1121694D01*
X628633Y1122042D01*
X627661Y1122528D01*
X626758Y1123014D01*
X626689Y1123083D01*
X626550Y1123153D01*
X626342Y1123292D01*
X626064Y1123569D01*
X625369Y1124194D01*
X624467Y1125097D01*
X623564Y1126278D01*
X622661Y1127667D01*
X621897Y1129333D01*
X621619Y1130236D01*
X621342Y1131208D01*
X635300Y1132528D01*
X635369Y1132389D01*
X635439Y1132111D01*
X635647Y1131694D01*
X635925Y1131139D01*
X636272Y1130583D01*
X636619Y1129958D01*
X637105Y1129403D01*
X637661Y1128917D01*
X637730Y1128847D01*
X637939Y1128778D01*
X638286Y1128569D01*
X638772Y1128430D01*
X639397Y1128222D01*
X640091Y1128014D01*
X640994Y1127944D01*
X641897Y1127875D01*
X642383D01*
X642869Y1127944D01*
X643494Y1128014D01*
X644189Y1128153D01*
X644952Y1128361D01*
X645647Y1128639D01*
X646272Y1129055D01*
X646341Y1129125D01*
X646480Y1129194D01*
X646689Y1129403D01*
X646897Y1129680D01*
X647314Y1130375D01*
X647452Y1130791D01*
X647522Y1131278D01*
Y1131347D01*
Y1131555D01*
X647452Y1131833D01*
X647314Y1132180D01*
X647105Y1132528D01*
X646827Y1132944D01*
X646411Y1133291D01*
X645855Y1133639D01*
X645786D01*
X645577Y1133778D01*
X645230Y1133916D01*
X644675Y1134055D01*
X643911Y1134264D01*
X643425Y1134403D01*
X642869Y1134541D01*
X642175Y1134680D01*
X641480Y1134819D01*
X640716Y1134958D01*
X639814Y1135097D01*
X639744D01*
X639467Y1135166D01*
X639119Y1135236D01*
X638633Y1135305D01*
X638008Y1135444D01*
X637314Y1135583D01*
X635786Y1135861D01*
X634119Y1136208D01*
X632383Y1136625D01*
X631619Y1136833D01*
X630855Y1137041D01*
X630161Y1137250D01*
X629605Y1137458D01*
X629467Y1137528D01*
X629119Y1137666D01*
X628633Y1137944D01*
X627939Y1138361D01*
X627175Y1138847D01*
X626411Y1139472D01*
X625578Y1140236D01*
X624814Y1141139D01*
X624744Y1141277D01*
X624536Y1141625D01*
X624189Y1142111D01*
X623842Y1142875D01*
X623494Y1143708D01*
X623147Y1144750D01*
X622939Y1145861D01*
X622869Y1147041D01*
Y1147111D01*
Y1147180D01*
Y1147389D01*
X622939Y1147666D01*
X623008Y1148361D01*
X623147Y1149194D01*
X623355Y1150166D01*
X623772Y1151208D01*
X624258Y1152319D01*
X624953Y1153291D01*
X625022Y1153430D01*
X625369Y1153708D01*
X625786Y1154194D01*
X626480Y1154750D01*
X627244Y1155444D01*
X628286Y1156069D01*
X629397Y1156694D01*
X630717Y1157250D01*
X630786D01*
X630925Y1157319D01*
X631133Y1157388D01*
X631411Y1157458D01*
X631758Y1157527D01*
X632244Y1157666D01*
X632800Y1157805D01*
X633355Y1157944D01*
X634050Y1158013D01*
X634814Y1158152D01*
X635647Y1158291D01*
X636550Y1158361D01*
X638494Y1158500D01*
X640716Y1158569D01*
X642314D01*
X642939Y1158500D01*
D02*
G37*
G36*
X603842D02*
X604328Y1158430D01*
X604884Y1158361D01*
X606203Y1158152D01*
X607661Y1157736D01*
X609189Y1157111D01*
X609953Y1156694D01*
X610717Y1156208D01*
X611411Y1155652D01*
X612036Y1155027D01*
X612106Y1154958D01*
X612175Y1154889D01*
X612314Y1154680D01*
X612592Y1154402D01*
X612800Y1153986D01*
X613078Y1153569D01*
X613425Y1153014D01*
X613703Y1152389D01*
X614050Y1151694D01*
X614328Y1150861D01*
X614606Y1150027D01*
X614883Y1149055D01*
X615092Y1148014D01*
X615231Y1146902D01*
X615300Y1145652D01*
X615369Y1144333D01*
Y1121000D01*
X601203D01*
Y1141139D01*
Y1141208D01*
Y1141277D01*
Y1141694D01*
X601134Y1142319D01*
X601064Y1143083D01*
X600856Y1143847D01*
X600648Y1144680D01*
X600300Y1145444D01*
X599884Y1146069D01*
X599814Y1146139D01*
X599675Y1146277D01*
X599398Y1146555D01*
X598981Y1146833D01*
X598425Y1147041D01*
X597870Y1147319D01*
X597106Y1147458D01*
X596273Y1147527D01*
X595856D01*
X595370Y1147458D01*
X594814Y1147319D01*
X594120Y1147041D01*
X593425Y1146694D01*
X592731Y1146208D01*
X592106Y1145583D01*
X592037Y1145514D01*
X591898Y1145236D01*
X591620Y1144680D01*
X591342Y1143986D01*
X591064Y1143014D01*
X590787Y1141833D01*
X590648Y1140375D01*
X590578Y1139541D01*
Y1138639D01*
Y1121000D01*
X576481D01*
Y1157736D01*
X589606D01*
Y1151694D01*
X589675Y1151764D01*
X589745Y1151833D01*
X590092Y1152319D01*
X590717Y1152944D01*
X591412Y1153708D01*
X592314Y1154611D01*
X593356Y1155444D01*
X594398Y1156277D01*
X595509Y1156972D01*
X595578D01*
X595648Y1157041D01*
X596064Y1157250D01*
X596689Y1157458D01*
X597592Y1157805D01*
X598634Y1158083D01*
X599884Y1158291D01*
X601342Y1158500D01*
X602870Y1158569D01*
X603425D01*
X603842Y1158500D01*
D02*
G37*
G36*
X200327Y1076941D02*
X200827D01*
X201882Y1076829D01*
X203104Y1076718D01*
X204382Y1076496D01*
X205660Y1076218D01*
X206826Y1075829D01*
X206882D01*
X206937Y1075774D01*
X207104Y1075718D01*
X207326Y1075607D01*
X207826Y1075385D01*
X208493Y1075052D01*
X209215Y1074663D01*
X209937Y1074163D01*
X210603Y1073607D01*
X211214Y1072997D01*
X211270Y1072941D01*
X211437Y1072719D01*
X211714Y1072330D01*
X211992Y1071830D01*
X212325Y1071219D01*
X212659Y1070497D01*
X212992Y1069663D01*
X213214Y1068719D01*
Y1068664D01*
X213270Y1068386D01*
X213325Y1067997D01*
X213381Y1067386D01*
X213436Y1066608D01*
X213492Y1065608D01*
Y1064997D01*
X213547Y1064386D01*
Y1063720D01*
Y1062942D01*
Y1054554D01*
Y1054443D01*
Y1054165D01*
Y1053721D01*
Y1053165D01*
Y1052443D01*
Y1051665D01*
X213603Y1050777D01*
Y1049888D01*
X213659Y1047999D01*
Y1047055D01*
X213714Y1046166D01*
X213770Y1045333D01*
X213825Y1044611D01*
X213881Y1043944D01*
X213936Y1043444D01*
Y1043333D01*
X213992Y1043055D01*
X214103Y1042611D01*
X214270Y1042000D01*
X214492Y1041333D01*
X214770Y1040611D01*
X215103Y1039778D01*
X215492Y1039000D01*
X208937D01*
X208881Y1039111D01*
X208770Y1039333D01*
X208604Y1039778D01*
X208437Y1040333D01*
X208215Y1041000D01*
X207992Y1041777D01*
X207826Y1042666D01*
X207715Y1043666D01*
X207659Y1043611D01*
X207548Y1043555D01*
X207381Y1043388D01*
X207104Y1043166D01*
X206770Y1042944D01*
X206437Y1042611D01*
X205548Y1042000D01*
X204493Y1041277D01*
X203382Y1040555D01*
X202160Y1039944D01*
X200938Y1039389D01*
X200882D01*
X200771Y1039333D01*
X200604Y1039278D01*
X200382Y1039222D01*
X200105Y1039111D01*
X199716Y1039000D01*
X198882Y1038778D01*
X197827Y1038556D01*
X196660Y1038333D01*
X195383Y1038222D01*
X193994Y1038167D01*
X193383D01*
X192994Y1038222D01*
X192494Y1038278D01*
X191883Y1038333D01*
X191217Y1038389D01*
X190550Y1038556D01*
X188995Y1038889D01*
X187439Y1039389D01*
X186717Y1039722D01*
X185939Y1040167D01*
X185273Y1040611D01*
X184606Y1041111D01*
X184550Y1041166D01*
X184439Y1041277D01*
X184328Y1041444D01*
X184106Y1041666D01*
X183828Y1041944D01*
X183551Y1042333D01*
X183273Y1042722D01*
X182995Y1043222D01*
X182384Y1044277D01*
X181829Y1045610D01*
X181606Y1046333D01*
X181495Y1047110D01*
X181384Y1047943D01*
X181329Y1048777D01*
Y1048832D01*
Y1048888D01*
Y1049221D01*
X181384Y1049777D01*
X181495Y1050443D01*
X181606Y1051221D01*
X181829Y1052054D01*
X182162Y1052887D01*
X182551Y1053776D01*
X182606Y1053887D01*
X182773Y1054165D01*
X183051Y1054554D01*
X183440Y1055109D01*
X183884Y1055665D01*
X184439Y1056276D01*
X185051Y1056832D01*
X185773Y1057387D01*
X185884Y1057442D01*
X186161Y1057609D01*
X186550Y1057887D01*
X187106Y1058165D01*
X187772Y1058498D01*
X188550Y1058831D01*
X189439Y1059165D01*
X190328Y1059442D01*
X190439D01*
X190661Y1059553D01*
X191105Y1059609D01*
X191716Y1059776D01*
X192494Y1059887D01*
X193494Y1060053D01*
X194605Y1060220D01*
X195938Y1060387D01*
X196049D01*
X196271Y1060442D01*
X196660Y1060498D01*
X197160Y1060553D01*
X197827Y1060664D01*
X198549Y1060776D01*
X199327Y1060887D01*
X200216Y1060998D01*
X202049Y1061331D01*
X203882Y1061720D01*
X204771Y1061942D01*
X205660Y1062164D01*
X206437Y1062386D01*
X207159Y1062609D01*
Y1062664D01*
Y1062831D01*
Y1063053D01*
X207215Y1063275D01*
Y1063831D01*
Y1064053D01*
Y1064220D01*
Y1064275D01*
Y1064386D01*
Y1064609D01*
Y1064831D01*
X207104Y1065497D01*
X206993Y1066330D01*
X206770Y1067219D01*
X206437Y1068108D01*
X205993Y1068941D01*
X205382Y1069608D01*
X205271Y1069719D01*
X205159Y1069830D01*
X204937Y1069941D01*
X204660Y1070108D01*
X204382Y1070275D01*
X203604Y1070719D01*
X202604Y1071108D01*
X201382Y1071441D01*
X199938Y1071663D01*
X198271Y1071774D01*
X197549D01*
X197160Y1071719D01*
X196772D01*
X195772Y1071608D01*
X194716Y1071385D01*
X193661Y1071108D01*
X192605Y1070719D01*
X191716Y1070219D01*
X191605Y1070163D01*
X191383Y1069941D01*
X190994Y1069497D01*
X190550Y1068941D01*
X190050Y1068219D01*
X189494Y1067219D01*
X189050Y1066108D01*
X188828Y1065442D01*
X188606Y1064720D01*
X182440Y1065553D01*
Y1065608D01*
X182495Y1065720D01*
X182551Y1065942D01*
X182606Y1066219D01*
X182717Y1066553D01*
X182829Y1066942D01*
X183106Y1067830D01*
X183495Y1068830D01*
X183939Y1069886D01*
X184495Y1070941D01*
X185162Y1071886D01*
Y1071941D01*
X185273Y1071997D01*
X185550Y1072274D01*
X185995Y1072719D01*
X186606Y1073274D01*
X187384Y1073885D01*
X188328Y1074496D01*
X189439Y1075107D01*
X190717Y1075663D01*
X190772D01*
X190883Y1075718D01*
X191105Y1075774D01*
X191383Y1075885D01*
X191716Y1075996D01*
X192105Y1076107D01*
X192605Y1076218D01*
X193161Y1076329D01*
X193716Y1076441D01*
X194383Y1076552D01*
X195827Y1076774D01*
X197438Y1076941D01*
X199160Y1076996D01*
X199938D01*
X200327Y1076941D01*
D02*
G37*
G36*
X236601D02*
X237045D01*
X238100Y1076829D01*
X239267Y1076663D01*
X240600Y1076441D01*
X241878Y1076163D01*
X243156Y1075718D01*
X243211D01*
X243322Y1075663D01*
X243489Y1075607D01*
X243711Y1075496D01*
X244267Y1075219D01*
X245044Y1074830D01*
X245822Y1074330D01*
X246600Y1073719D01*
X247377Y1073052D01*
X248044Y1072274D01*
X248099Y1072163D01*
X248322Y1071886D01*
X248599Y1071385D01*
X248933Y1070775D01*
X249322Y1069941D01*
X249655Y1068941D01*
X249988Y1067830D01*
X250266Y1066553D01*
X244100Y1065720D01*
Y1065775D01*
Y1065831D01*
X243989Y1066164D01*
X243878Y1066719D01*
X243655Y1067330D01*
X243322Y1068053D01*
X242878Y1068775D01*
X242322Y1069497D01*
X241656Y1070163D01*
X241545Y1070219D01*
X241267Y1070441D01*
X240823Y1070719D01*
X240211Y1070997D01*
X239378Y1071330D01*
X238378Y1071552D01*
X237267Y1071774D01*
X235934Y1071830D01*
X235212D01*
X234879Y1071774D01*
X234490D01*
X233545Y1071663D01*
X232546Y1071497D01*
X231490Y1071219D01*
X230546Y1070886D01*
X230157Y1070663D01*
X229768Y1070386D01*
X229713Y1070330D01*
X229490Y1070108D01*
X229213Y1069830D01*
X228879Y1069441D01*
X228490Y1068941D01*
X228213Y1068330D01*
X227990Y1067719D01*
X227935Y1066997D01*
Y1066942D01*
Y1066775D01*
X227990Y1066553D01*
X228046Y1066275D01*
X228268Y1065553D01*
X228435Y1065164D01*
X228657Y1064775D01*
X228713Y1064720D01*
X228824Y1064609D01*
X228990Y1064442D01*
X229268Y1064220D01*
X229601Y1063942D01*
X230046Y1063664D01*
X230546Y1063386D01*
X231101Y1063109D01*
X231157D01*
X231324Y1063053D01*
X231657Y1062942D01*
X232157Y1062775D01*
X232490Y1062664D01*
X232879Y1062553D01*
X233323Y1062442D01*
X233823Y1062275D01*
X234434Y1062109D01*
X235101Y1061942D01*
X235823Y1061720D01*
X236656Y1061498D01*
X236712D01*
X236934Y1061442D01*
X237267Y1061331D01*
X237767Y1061220D01*
X238267Y1061053D01*
X238878Y1060887D01*
X239600Y1060664D01*
X240322Y1060442D01*
X241878Y1059998D01*
X243378Y1059498D01*
X244100Y1059276D01*
X244767Y1058998D01*
X245378Y1058776D01*
X245933Y1058553D01*
X245989D01*
X246044Y1058498D01*
X246378Y1058331D01*
X246877Y1058109D01*
X247433Y1057720D01*
X248099Y1057276D01*
X248822Y1056720D01*
X249488Y1056054D01*
X250099Y1055276D01*
X250155Y1055165D01*
X250322Y1054887D01*
X250599Y1054443D01*
X250877Y1053776D01*
X251155Y1052999D01*
X251432Y1052110D01*
X251599Y1051054D01*
X251655Y1049888D01*
Y1049832D01*
Y1049721D01*
Y1049555D01*
Y1049332D01*
X251544Y1048721D01*
X251432Y1047943D01*
X251210Y1047055D01*
X250877Y1046055D01*
X250377Y1044999D01*
X249766Y1043944D01*
Y1043888D01*
X249655Y1043833D01*
X249433Y1043500D01*
X248988Y1043000D01*
X248433Y1042389D01*
X247655Y1041666D01*
X246766Y1040944D01*
X245711Y1040278D01*
X244489Y1039667D01*
X244433D01*
X244322Y1039611D01*
X244156Y1039556D01*
X243878Y1039444D01*
X243544Y1039333D01*
X243156Y1039167D01*
X242711Y1039056D01*
X242211Y1038944D01*
X241045Y1038667D01*
X239711Y1038389D01*
X238267Y1038222D01*
X236656Y1038167D01*
X235934D01*
X235434Y1038222D01*
X234879Y1038278D01*
X234156Y1038333D01*
X233379Y1038389D01*
X232546Y1038556D01*
X230768Y1038889D01*
X228879Y1039389D01*
X227990Y1039722D01*
X227102Y1040167D01*
X226324Y1040611D01*
X225546Y1041111D01*
X225491Y1041166D01*
X225380Y1041277D01*
X225213Y1041444D01*
X224935Y1041666D01*
X224657Y1042000D01*
X224324Y1042389D01*
X223935Y1042833D01*
X223547Y1043333D01*
X223102Y1043944D01*
X222713Y1044611D01*
X222324Y1045333D01*
X221936Y1046166D01*
X221602Y1046999D01*
X221269Y1047943D01*
X220991Y1048999D01*
X220769Y1050054D01*
X226991Y1051054D01*
Y1050999D01*
X227046Y1050888D01*
Y1050721D01*
X227102Y1050443D01*
X227157Y1050110D01*
X227268Y1049777D01*
X227546Y1048943D01*
X227935Y1047999D01*
X228435Y1046999D01*
X229046Y1046110D01*
X229879Y1045277D01*
X229935D01*
X229990Y1045222D01*
X230324Y1044999D01*
X230879Y1044666D01*
X231657Y1044333D01*
X232601Y1043944D01*
X233768Y1043666D01*
X235101Y1043444D01*
X236601Y1043333D01*
X237045D01*
X237323Y1043388D01*
X237712D01*
X238100Y1043444D01*
X239045Y1043555D01*
X240100Y1043777D01*
X241211Y1044055D01*
X242211Y1044499D01*
X243100Y1045055D01*
X243211Y1045110D01*
X243433Y1045388D01*
X243767Y1045722D01*
X244156Y1046221D01*
X244544Y1046833D01*
X244878Y1047555D01*
X245100Y1048332D01*
X245211Y1049221D01*
Y1049332D01*
Y1049555D01*
X245100Y1049999D01*
X244989Y1050443D01*
X244767Y1050999D01*
X244433Y1051554D01*
X243933Y1052110D01*
X243322Y1052610D01*
X243267Y1052665D01*
X243044Y1052776D01*
X242656Y1052943D01*
X242378Y1053054D01*
X242045Y1053165D01*
X241600Y1053332D01*
X241156Y1053499D01*
X240656Y1053665D01*
X240045Y1053832D01*
X239378Y1054054D01*
X238601Y1054276D01*
X237767Y1054498D01*
X236878Y1054721D01*
X236823D01*
X236601Y1054776D01*
X236212Y1054887D01*
X235767Y1054998D01*
X235212Y1055165D01*
X234545Y1055332D01*
X233823Y1055554D01*
X233046Y1055776D01*
X231490Y1056276D01*
X229879Y1056776D01*
X229102Y1056998D01*
X228435Y1057276D01*
X227768Y1057554D01*
X227213Y1057776D01*
X227157D01*
X227102Y1057831D01*
X226768Y1057998D01*
X226324Y1058276D01*
X225713Y1058720D01*
X225046Y1059220D01*
X224380Y1059776D01*
X223713Y1060498D01*
X223158Y1061275D01*
X223102Y1061387D01*
X222935Y1061664D01*
X222713Y1062164D01*
X222491Y1062775D01*
X222269Y1063497D01*
X222047Y1064331D01*
X221880Y1065275D01*
X221824Y1066275D01*
Y1066330D01*
Y1066386D01*
Y1066719D01*
X221880Y1067164D01*
X221991Y1067775D01*
X222102Y1068497D01*
X222269Y1069275D01*
X222547Y1070108D01*
X222935Y1070886D01*
X222991Y1070997D01*
X223158Y1071219D01*
X223380Y1071608D01*
X223769Y1072108D01*
X224158Y1072663D01*
X224713Y1073274D01*
X225324Y1073830D01*
X226046Y1074385D01*
X226102Y1074441D01*
X226324Y1074552D01*
X226657Y1074774D01*
X227102Y1074996D01*
X227657Y1075274D01*
X228324Y1075607D01*
X229157Y1075941D01*
X230046Y1076218D01*
X230101D01*
X230157Y1076274D01*
X230490Y1076329D01*
X230990Y1076441D01*
X231712Y1076607D01*
X232490Y1076774D01*
X233434Y1076885D01*
X234434Y1076941D01*
X235490Y1076996D01*
X236212D01*
X236601Y1076941D01*
D02*
G37*
G36*
X431581D02*
X432025D01*
X433080Y1076829D01*
X434247Y1076663D01*
X435580Y1076441D01*
X436858Y1076163D01*
X438135Y1075718D01*
X438191D01*
X438302Y1075663D01*
X438469Y1075607D01*
X438691Y1075496D01*
X439246Y1075219D01*
X440024Y1074830D01*
X440802Y1074330D01*
X441580Y1073719D01*
X442357Y1073052D01*
X443024Y1072274D01*
X443079Y1072163D01*
X443302Y1071886D01*
X443579Y1071385D01*
X443913Y1070775D01*
X444301Y1069941D01*
X444635Y1068941D01*
X444968Y1067830D01*
X445246Y1066553D01*
X439080Y1065720D01*
Y1065775D01*
Y1065831D01*
X438969Y1066164D01*
X438857Y1066719D01*
X438635Y1067330D01*
X438302Y1068053D01*
X437858Y1068775D01*
X437302Y1069497D01*
X436636Y1070163D01*
X436524Y1070219D01*
X436247Y1070441D01*
X435802Y1070719D01*
X435191Y1070997D01*
X434358Y1071330D01*
X433358Y1071552D01*
X432247Y1071774D01*
X430914Y1071830D01*
X430192D01*
X429858Y1071774D01*
X429470D01*
X428525Y1071663D01*
X427525Y1071497D01*
X426470Y1071219D01*
X425526Y1070886D01*
X425137Y1070663D01*
X424748Y1070386D01*
X424692Y1070330D01*
X424470Y1070108D01*
X424192Y1069830D01*
X423859Y1069441D01*
X423470Y1068941D01*
X423192Y1068330D01*
X422970Y1067719D01*
X422915Y1066997D01*
Y1066942D01*
Y1066775D01*
X422970Y1066553D01*
X423026Y1066275D01*
X423248Y1065553D01*
X423415Y1065164D01*
X423637Y1064775D01*
X423692Y1064720D01*
X423803Y1064609D01*
X423970Y1064442D01*
X424248Y1064220D01*
X424581Y1063942D01*
X425026Y1063664D01*
X425526Y1063386D01*
X426081Y1063109D01*
X426137D01*
X426303Y1063053D01*
X426637Y1062942D01*
X427136Y1062775D01*
X427470Y1062664D01*
X427859Y1062553D01*
X428303Y1062442D01*
X428803Y1062275D01*
X429414Y1062109D01*
X430081Y1061942D01*
X430803Y1061720D01*
X431636Y1061498D01*
X431692D01*
X431914Y1061442D01*
X432247Y1061331D01*
X432747Y1061220D01*
X433247Y1061053D01*
X433858Y1060887D01*
X434580Y1060664D01*
X435302Y1060442D01*
X436858Y1059998D01*
X438358Y1059498D01*
X439080Y1059276D01*
X439746Y1058998D01*
X440357Y1058776D01*
X440913Y1058553D01*
X440968D01*
X441024Y1058498D01*
X441357Y1058331D01*
X441857Y1058109D01*
X442413Y1057720D01*
X443079Y1057276D01*
X443801Y1056720D01*
X444468Y1056054D01*
X445079Y1055276D01*
X445135Y1055165D01*
X445301Y1054887D01*
X445579Y1054443D01*
X445857Y1053776D01*
X446134Y1052999D01*
X446412Y1052110D01*
X446579Y1051054D01*
X446634Y1049888D01*
Y1049832D01*
Y1049721D01*
Y1049555D01*
Y1049332D01*
X446523Y1048721D01*
X446412Y1047943D01*
X446190Y1047055D01*
X445857Y1046055D01*
X445357Y1044999D01*
X444746Y1043944D01*
Y1043888D01*
X444635Y1043833D01*
X444412Y1043500D01*
X443968Y1043000D01*
X443413Y1042389D01*
X442635Y1041666D01*
X441746Y1040944D01*
X440691Y1040278D01*
X439469Y1039667D01*
X439413D01*
X439302Y1039611D01*
X439135Y1039556D01*
X438857Y1039444D01*
X438524Y1039333D01*
X438135Y1039167D01*
X437691Y1039056D01*
X437191Y1038944D01*
X436025Y1038667D01*
X434691Y1038389D01*
X433247Y1038222D01*
X431636Y1038167D01*
X430914D01*
X430414Y1038222D01*
X429858Y1038278D01*
X429136Y1038333D01*
X428359Y1038389D01*
X427525Y1038556D01*
X425748Y1038889D01*
X423859Y1039389D01*
X422970Y1039722D01*
X422081Y1040167D01*
X421304Y1040611D01*
X420526Y1041111D01*
X420471Y1041166D01*
X420359Y1041277D01*
X420193Y1041444D01*
X419915Y1041666D01*
X419637Y1042000D01*
X419304Y1042389D01*
X418915Y1042833D01*
X418526Y1043333D01*
X418082Y1043944D01*
X417693Y1044611D01*
X417304Y1045333D01*
X416915Y1046166D01*
X416582Y1046999D01*
X416249Y1047943D01*
X415971Y1048999D01*
X415749Y1050054D01*
X421970Y1051054D01*
Y1050999D01*
X422026Y1050888D01*
Y1050721D01*
X422081Y1050443D01*
X422137Y1050110D01*
X422248Y1049777D01*
X422526Y1048943D01*
X422915Y1047999D01*
X423415Y1046999D01*
X424026Y1046110D01*
X424859Y1045277D01*
X424915D01*
X424970Y1045222D01*
X425303Y1044999D01*
X425859Y1044666D01*
X426637Y1044333D01*
X427581Y1043944D01*
X428747Y1043666D01*
X430081Y1043444D01*
X431581Y1043333D01*
X432025D01*
X432303Y1043388D01*
X432691D01*
X433080Y1043444D01*
X434025Y1043555D01*
X435080Y1043777D01*
X436191Y1044055D01*
X437191Y1044499D01*
X438080Y1045055D01*
X438191Y1045110D01*
X438413Y1045388D01*
X438746Y1045722D01*
X439135Y1046221D01*
X439524Y1046833D01*
X439857Y1047555D01*
X440080Y1048332D01*
X440191Y1049221D01*
Y1049332D01*
Y1049555D01*
X440080Y1049999D01*
X439968Y1050443D01*
X439746Y1050999D01*
X439413Y1051554D01*
X438913Y1052110D01*
X438302Y1052610D01*
X438246Y1052665D01*
X438024Y1052776D01*
X437635Y1052943D01*
X437358Y1053054D01*
X437024Y1053165D01*
X436580Y1053332D01*
X436136Y1053499D01*
X435636Y1053665D01*
X435025Y1053832D01*
X434358Y1054054D01*
X433580Y1054276D01*
X432747Y1054498D01*
X431858Y1054721D01*
X431803D01*
X431581Y1054776D01*
X431192Y1054887D01*
X430747Y1054998D01*
X430192Y1055165D01*
X429525Y1055332D01*
X428803Y1055554D01*
X428025Y1055776D01*
X426470Y1056276D01*
X424859Y1056776D01*
X424081Y1056998D01*
X423415Y1057276D01*
X422748Y1057554D01*
X422193Y1057776D01*
X422137D01*
X422081Y1057831D01*
X421748Y1057998D01*
X421304Y1058276D01*
X420693Y1058720D01*
X420026Y1059220D01*
X419360Y1059776D01*
X418693Y1060498D01*
X418137Y1061275D01*
X418082Y1061387D01*
X417915Y1061664D01*
X417693Y1062164D01*
X417471Y1062775D01*
X417249Y1063497D01*
X417026Y1064331D01*
X416860Y1065275D01*
X416804Y1066275D01*
Y1066330D01*
Y1066386D01*
Y1066719D01*
X416860Y1067164D01*
X416971Y1067775D01*
X417082Y1068497D01*
X417249Y1069275D01*
X417526Y1070108D01*
X417915Y1070886D01*
X417971Y1070997D01*
X418137Y1071219D01*
X418360Y1071608D01*
X418749Y1072108D01*
X419137Y1072663D01*
X419693Y1073274D01*
X420304Y1073830D01*
X421026Y1074385D01*
X421082Y1074441D01*
X421304Y1074552D01*
X421637Y1074774D01*
X422081Y1074996D01*
X422637Y1075274D01*
X423304Y1075607D01*
X424137Y1075941D01*
X425026Y1076218D01*
X425081D01*
X425137Y1076274D01*
X425470Y1076329D01*
X425970Y1076441D01*
X426692Y1076607D01*
X427470Y1076774D01*
X428414Y1076885D01*
X429414Y1076941D01*
X430470Y1076996D01*
X431192D01*
X431581Y1076941D01*
D02*
G37*
G36*
X170663Y1061609D02*
X140222D01*
Y1067664D01*
X170663D01*
Y1061609D01*
D02*
G37*
G36*
X665112Y1076941D02*
X665612Y1076885D01*
X666223Y1076829D01*
X666889Y1076718D01*
X667612Y1076607D01*
X669167Y1076218D01*
X670834Y1075663D01*
X671667Y1075330D01*
X672500Y1074941D01*
X673278Y1074441D01*
X674000Y1073885D01*
X674055Y1073830D01*
X674166Y1073719D01*
X674389Y1073552D01*
X674611Y1073330D01*
X674944Y1072997D01*
X675277Y1072608D01*
X675666Y1072163D01*
X676055Y1071663D01*
X676500Y1071052D01*
X676888Y1070441D01*
X677333Y1069719D01*
X677722Y1068941D01*
X678055Y1068108D01*
X678388Y1067219D01*
X678722Y1066219D01*
X678944Y1065219D01*
X672833Y1064275D01*
Y1064331D01*
X672778Y1064442D01*
X672722Y1064609D01*
X672667Y1064886D01*
X672444Y1065553D01*
X672111Y1066386D01*
X671667Y1067275D01*
X671167Y1068219D01*
X670500Y1069108D01*
X669723Y1069886D01*
X669611Y1069997D01*
X669334Y1070219D01*
X668834Y1070497D01*
X668223Y1070886D01*
X667445Y1071219D01*
X666556Y1071552D01*
X665501Y1071774D01*
X664390Y1071830D01*
X663945D01*
X663612Y1071774D01*
X663168Y1071719D01*
X662723Y1071663D01*
X661612Y1071385D01*
X660390Y1070997D01*
X659779Y1070719D01*
X659112Y1070386D01*
X658501Y1069997D01*
X657835Y1069497D01*
X657224Y1068997D01*
X656668Y1068386D01*
X656613Y1068330D01*
X656557Y1068219D01*
X656391Y1068053D01*
X656224Y1067719D01*
X656002Y1067386D01*
X655724Y1066942D01*
X655446Y1066386D01*
X655224Y1065775D01*
X654946Y1065053D01*
X654669Y1064275D01*
X654391Y1063386D01*
X654168Y1062386D01*
X654002Y1061331D01*
X653835Y1060220D01*
X653780Y1058942D01*
X653724Y1057609D01*
Y1057554D01*
Y1057276D01*
Y1056887D01*
X653780Y1056387D01*
X653835Y1055776D01*
X653891Y1055054D01*
X653946Y1054276D01*
X654057Y1053443D01*
X654391Y1051665D01*
X654946Y1049832D01*
X655224Y1048999D01*
X655613Y1048166D01*
X656057Y1047388D01*
X656557Y1046721D01*
X656613Y1046666D01*
X656668Y1046555D01*
X656835Y1046388D01*
X657057Y1046221D01*
X657390Y1045944D01*
X657724Y1045666D01*
X658113Y1045333D01*
X658557Y1045055D01*
X659668Y1044388D01*
X660946Y1043888D01*
X661668Y1043666D01*
X662390Y1043500D01*
X663223Y1043388D01*
X664056Y1043333D01*
X664390D01*
X664668Y1043388D01*
X665001D01*
X665334Y1043444D01*
X666223Y1043611D01*
X667167Y1043888D01*
X668223Y1044277D01*
X669222Y1044833D01*
X670222Y1045555D01*
X670278Y1045610D01*
X670333Y1045666D01*
X670611Y1045999D01*
X671056Y1046555D01*
X671278Y1046888D01*
X671556Y1047277D01*
X671833Y1047777D01*
X672111Y1048277D01*
X672333Y1048832D01*
X672611Y1049499D01*
X672833Y1050165D01*
X673055Y1050943D01*
X673222Y1051721D01*
X673389Y1052610D01*
X679555Y1051777D01*
Y1051721D01*
X679499Y1051499D01*
X679444Y1051165D01*
X679333Y1050721D01*
X679166Y1050165D01*
X678999Y1049555D01*
X678777Y1048888D01*
X678499Y1048110D01*
X677833Y1046555D01*
X677388Y1045722D01*
X676888Y1044888D01*
X676388Y1044055D01*
X675777Y1043222D01*
X675055Y1042500D01*
X674333Y1041777D01*
X674278Y1041722D01*
X674166Y1041611D01*
X673889Y1041444D01*
X673611Y1041222D01*
X673167Y1040944D01*
X672722Y1040611D01*
X672111Y1040333D01*
X671500Y1040000D01*
X670778Y1039611D01*
X670000Y1039333D01*
X669167Y1039000D01*
X668278Y1038722D01*
X667278Y1038500D01*
X666278Y1038333D01*
X665223Y1038222D01*
X664112Y1038167D01*
X663779D01*
X663390Y1038222D01*
X662834D01*
X662223Y1038333D01*
X661446Y1038445D01*
X660612Y1038556D01*
X659724Y1038778D01*
X658779Y1039056D01*
X657779Y1039389D01*
X656779Y1039778D01*
X655724Y1040278D01*
X654724Y1040833D01*
X653724Y1041500D01*
X652780Y1042222D01*
X651891Y1043111D01*
X651835Y1043166D01*
X651669Y1043333D01*
X651447Y1043611D01*
X651169Y1044055D01*
X650836Y1044555D01*
X650447Y1045166D01*
X650002Y1045944D01*
X649613Y1046777D01*
X649169Y1047721D01*
X648725Y1048777D01*
X648336Y1049943D01*
X648002Y1051221D01*
X647725Y1052610D01*
X647503Y1054110D01*
X647336Y1055721D01*
X647280Y1057387D01*
Y1057442D01*
Y1057665D01*
Y1057998D01*
X647336Y1058387D01*
Y1058942D01*
X647392Y1059553D01*
X647447Y1060220D01*
X647503Y1060998D01*
X647780Y1062609D01*
X648114Y1064386D01*
X648558Y1066219D01*
X649225Y1067942D01*
Y1067997D01*
X649336Y1068164D01*
X649447Y1068386D01*
X649613Y1068664D01*
X649836Y1069052D01*
X650058Y1069497D01*
X650724Y1070497D01*
X651558Y1071552D01*
X652613Y1072719D01*
X653835Y1073774D01*
X655279Y1074718D01*
X655335D01*
X655446Y1074830D01*
X655668Y1074941D01*
X656002Y1075052D01*
X656391Y1075274D01*
X656835Y1075441D01*
X657335Y1075663D01*
X657890Y1075885D01*
X658557Y1076052D01*
X659224Y1076274D01*
X660723Y1076663D01*
X662390Y1076885D01*
X664112Y1076996D01*
X664723D01*
X665112Y1076941D01*
D02*
G37*
G36*
X581454Y1091106D02*
X582065Y1091050D01*
X582676Y1090995D01*
X583398Y1090939D01*
X584953Y1090717D01*
X586675Y1090384D01*
X588398Y1089884D01*
X590064Y1089273D01*
X590120D01*
X590231Y1089162D01*
X590508Y1089106D01*
X590786Y1088939D01*
X591119Y1088717D01*
X591564Y1088495D01*
X592508Y1087939D01*
X593619Y1087162D01*
X594730Y1086217D01*
X595786Y1085162D01*
X596730Y1083884D01*
X596786Y1083829D01*
X596841Y1083718D01*
X596952Y1083551D01*
X597119Y1083273D01*
X597285Y1082940D01*
X597508Y1082551D01*
X597674Y1082051D01*
X597952Y1081551D01*
X598396Y1080385D01*
X598785Y1078996D01*
X599119Y1077496D01*
X599285Y1075829D01*
X592786Y1075330D01*
Y1075385D01*
X592730Y1075552D01*
Y1075774D01*
X592675Y1076107D01*
X592564Y1076552D01*
X592453Y1076996D01*
X592119Y1078052D01*
X591675Y1079218D01*
X591008Y1080440D01*
X590231Y1081607D01*
X589731Y1082107D01*
X589175Y1082607D01*
X589120Y1082662D01*
X589064Y1082718D01*
X588842Y1082829D01*
X588620Y1082995D01*
X588287Y1083162D01*
X587898Y1083384D01*
X587453Y1083606D01*
X586953Y1083884D01*
X586342Y1084106D01*
X585676Y1084329D01*
X584953Y1084551D01*
X584176Y1084717D01*
X583287Y1084884D01*
X582343Y1084995D01*
X581343Y1085106D01*
X579732D01*
X579287Y1085051D01*
X578787D01*
X578232Y1084995D01*
X577565Y1084940D01*
X576899Y1084829D01*
X575399Y1084551D01*
X573955Y1084162D01*
X572566Y1083606D01*
X571899Y1083218D01*
X571344Y1082829D01*
X571288D01*
X571233Y1082718D01*
X570899Y1082440D01*
X570455Y1081940D01*
X569955Y1081273D01*
X569455Y1080496D01*
X569011Y1079551D01*
X568677Y1078551D01*
X568622Y1077996D01*
X568566Y1077385D01*
Y1077329D01*
Y1077274D01*
X568622Y1076941D01*
X568677Y1076441D01*
X568788Y1075829D01*
X569066Y1075107D01*
X569399Y1074330D01*
X569844Y1073607D01*
X570510Y1072885D01*
X570622Y1072830D01*
X570733Y1072719D01*
X570955Y1072552D01*
X571233Y1072385D01*
X571566Y1072219D01*
X572010Y1071997D01*
X572510Y1071719D01*
X573121Y1071441D01*
X573843Y1071163D01*
X574677Y1070886D01*
X575621Y1070552D01*
X576732Y1070219D01*
X577899Y1069886D01*
X579232Y1069497D01*
X580732Y1069164D01*
X580843D01*
X581121Y1069108D01*
X581509Y1068997D01*
X582065Y1068830D01*
X582732Y1068719D01*
X583509Y1068497D01*
X584342Y1068330D01*
X585231Y1068053D01*
X587120Y1067553D01*
X589009Y1067053D01*
X589897Y1066775D01*
X590675Y1066497D01*
X591453Y1066219D01*
X592064Y1065942D01*
X592119D01*
X592286Y1065831D01*
X592508Y1065720D01*
X592786Y1065553D01*
X593175Y1065386D01*
X593619Y1065108D01*
X594564Y1064497D01*
X595675Y1063775D01*
X596730Y1062886D01*
X597785Y1061831D01*
X598230Y1061275D01*
X598674Y1060720D01*
Y1060664D01*
X598785Y1060553D01*
X598896Y1060387D01*
X599008Y1060164D01*
X599174Y1059887D01*
X599341Y1059498D01*
X599785Y1058609D01*
X600174Y1057554D01*
X600507Y1056331D01*
X600730Y1054943D01*
X600841Y1053443D01*
Y1053387D01*
Y1053276D01*
Y1053054D01*
X600785Y1052776D01*
Y1052387D01*
X600730Y1051999D01*
X600563Y1050943D01*
X600285Y1049777D01*
X599841Y1048499D01*
X599230Y1047166D01*
X598896Y1046444D01*
X598452Y1045777D01*
Y1045722D01*
X598341Y1045610D01*
X598230Y1045444D01*
X598008Y1045166D01*
X597508Y1044555D01*
X596730Y1043722D01*
X595786Y1042833D01*
X594619Y1041889D01*
X593286Y1041000D01*
X591731Y1040167D01*
X591675D01*
X591508Y1040055D01*
X591286Y1040000D01*
X590953Y1039833D01*
X590564Y1039722D01*
X590064Y1039556D01*
X589509Y1039333D01*
X588842Y1039167D01*
X588175Y1039000D01*
X587398Y1038778D01*
X585731Y1038500D01*
X583898Y1038278D01*
X581898Y1038167D01*
X581232D01*
X580732Y1038222D01*
X580121D01*
X579454Y1038278D01*
X578676Y1038333D01*
X577788Y1038445D01*
X575954Y1038667D01*
X574010Y1039000D01*
X572066Y1039500D01*
X570177Y1040167D01*
X570122D01*
X569955Y1040278D01*
X569733Y1040389D01*
X569399Y1040555D01*
X569011Y1040778D01*
X568566Y1041000D01*
X567511Y1041666D01*
X566344Y1042500D01*
X565122Y1043555D01*
X563900Y1044777D01*
X562845Y1046221D01*
X562789Y1046277D01*
X562734Y1046388D01*
X562622Y1046610D01*
X562456Y1046944D01*
X562234Y1047333D01*
X562011Y1047777D01*
X561734Y1048332D01*
X561511Y1048943D01*
X561234Y1049555D01*
X561012Y1050277D01*
X560567Y1051888D01*
X560234Y1053610D01*
X560123Y1054554D01*
X560067Y1055498D01*
X566455Y1056054D01*
Y1055998D01*
Y1055887D01*
X566511Y1055665D01*
X566567Y1055387D01*
X566622Y1055054D01*
X566678Y1054721D01*
X566900Y1053776D01*
X567178Y1052776D01*
X567511Y1051721D01*
X567955Y1050666D01*
X568511Y1049666D01*
X568566Y1049555D01*
X568844Y1049277D01*
X569233Y1048832D01*
X569788Y1048277D01*
X570510Y1047610D01*
X571399Y1046999D01*
X572455Y1046333D01*
X573677Y1045722D01*
X573732D01*
X573843Y1045666D01*
X574010Y1045610D01*
X574288Y1045499D01*
X574621Y1045388D01*
X575010Y1045222D01*
X575454Y1045110D01*
X575954Y1044999D01*
X577121Y1044722D01*
X578510Y1044444D01*
X579954Y1044277D01*
X581565Y1044222D01*
X582232D01*
X582565Y1044277D01*
X582954D01*
X583843Y1044388D01*
X584898Y1044499D01*
X586064Y1044666D01*
X587231Y1044944D01*
X588342Y1045333D01*
X588398D01*
X588453Y1045388D01*
X588620Y1045444D01*
X588842Y1045555D01*
X589342Y1045833D01*
X590009Y1046166D01*
X590731Y1046610D01*
X591508Y1047166D01*
X592175Y1047777D01*
X592786Y1048499D01*
X592842Y1048610D01*
X593008Y1048832D01*
X593286Y1049277D01*
X593564Y1049832D01*
X593786Y1050499D01*
X594064Y1051221D01*
X594230Y1052054D01*
X594286Y1052887D01*
Y1052943D01*
Y1052999D01*
Y1053276D01*
X594230Y1053776D01*
X594119Y1054332D01*
X593953Y1054998D01*
X593675Y1055721D01*
X593341Y1056443D01*
X592842Y1057109D01*
X592786Y1057165D01*
X592564Y1057387D01*
X592230Y1057720D01*
X591731Y1058165D01*
X591119Y1058609D01*
X590286Y1059109D01*
X589342Y1059609D01*
X588231Y1060109D01*
X588120Y1060164D01*
X588009Y1060220D01*
X587786Y1060276D01*
X587564Y1060331D01*
X587231Y1060442D01*
X586787Y1060609D01*
X586342Y1060720D01*
X585731Y1060887D01*
X585120Y1061109D01*
X584342Y1061275D01*
X583509Y1061498D01*
X582565Y1061775D01*
X581565Y1061998D01*
X580398Y1062331D01*
X579121Y1062609D01*
X579065D01*
X578843Y1062664D01*
X578454Y1062775D01*
X578010Y1062886D01*
X577399Y1063053D01*
X576732Y1063220D01*
X576065Y1063442D01*
X575288Y1063664D01*
X573621Y1064164D01*
X572010Y1064720D01*
X571233Y1064997D01*
X570510Y1065275D01*
X569844Y1065553D01*
X569288Y1065831D01*
X569233D01*
X569122Y1065942D01*
X568955Y1066053D01*
X568677Y1066164D01*
X568011Y1066553D01*
X567233Y1067108D01*
X566289Y1067830D01*
X565400Y1068608D01*
X564511Y1069552D01*
X563789Y1070552D01*
Y1070608D01*
X563733Y1070663D01*
X563622Y1070830D01*
X563511Y1071052D01*
X563233Y1071663D01*
X562900Y1072441D01*
X562567Y1073385D01*
X562289Y1074496D01*
X562067Y1075718D01*
X562011Y1076996D01*
Y1077052D01*
Y1077163D01*
Y1077385D01*
X562067Y1077663D01*
Y1077996D01*
X562122Y1078385D01*
X562289Y1079385D01*
X562567Y1080496D01*
X562900Y1081662D01*
X563456Y1082940D01*
X564178Y1084218D01*
Y1084273D01*
X564289Y1084384D01*
X564400Y1084551D01*
X564567Y1084773D01*
X565122Y1085384D01*
X565844Y1086162D01*
X566733Y1086995D01*
X567844Y1087828D01*
X569122Y1088661D01*
X570622Y1089384D01*
X570677D01*
X570788Y1089439D01*
X571066Y1089550D01*
X571344Y1089661D01*
X571733Y1089772D01*
X572233Y1089939D01*
X572788Y1090106D01*
X573399Y1090273D01*
X574066Y1090439D01*
X574788Y1090606D01*
X576343Y1090883D01*
X578121Y1091106D01*
X580010Y1091161D01*
X580954D01*
X581454Y1091106D01*
D02*
G37*
G36*
X173996Y1084218D02*
X136889D01*
Y1090273D01*
X173996D01*
Y1084218D01*
D02*
G37*
G36*
X738938Y1076941D02*
X739215D01*
X739549Y1076885D01*
X740382Y1076718D01*
X741382Y1076496D01*
X742437Y1076107D01*
X743659Y1075607D01*
X744881Y1074941D01*
X742659Y1069108D01*
X742548Y1069164D01*
X742271Y1069330D01*
X741826Y1069552D01*
X741215Y1069830D01*
X740548Y1070052D01*
X739771Y1070275D01*
X738938Y1070441D01*
X738049Y1070497D01*
X737715D01*
X737327Y1070441D01*
X736827Y1070330D01*
X736216Y1070163D01*
X735604Y1069941D01*
X734994Y1069663D01*
X734327Y1069219D01*
X734271Y1069164D01*
X734049Y1068997D01*
X733771Y1068719D01*
X733438Y1068330D01*
X733049Y1067830D01*
X732660Y1067275D01*
X732327Y1066553D01*
X731994Y1065775D01*
Y1065720D01*
X731938Y1065608D01*
X731883Y1065442D01*
X731827Y1065219D01*
X731772Y1064886D01*
X731661Y1064497D01*
X731494Y1063609D01*
X731327Y1062498D01*
X731161Y1061275D01*
X731049Y1059887D01*
X730994Y1058442D01*
Y1039000D01*
X724717D01*
Y1076163D01*
X730383D01*
Y1070552D01*
X730494Y1070663D01*
X730605Y1070886D01*
X730772Y1071108D01*
X731161Y1071830D01*
X731716Y1072608D01*
X732327Y1073496D01*
X732994Y1074385D01*
X733660Y1075107D01*
X734049Y1075441D01*
X734382Y1075718D01*
X734494Y1075774D01*
X734716Y1075941D01*
X735105Y1076107D01*
X735549Y1076385D01*
X736160Y1076607D01*
X736827Y1076774D01*
X737604Y1076941D01*
X738382Y1076996D01*
X738715D01*
X738938Y1076941D01*
D02*
G37*
G36*
X818318Y1039000D02*
X812486D01*
Y1043666D01*
X812430Y1043611D01*
X812319Y1043444D01*
X812097Y1043166D01*
X811819Y1042833D01*
X811430Y1042389D01*
X810986Y1041944D01*
X810486Y1041444D01*
X809875Y1040944D01*
X809153Y1040389D01*
X808375Y1039889D01*
X807542Y1039444D01*
X806597Y1039056D01*
X805542Y1038667D01*
X804486Y1038389D01*
X803320Y1038222D01*
X802042Y1038167D01*
X801598D01*
X801264Y1038222D01*
X800876D01*
X800431Y1038278D01*
X799931Y1038389D01*
X799376Y1038500D01*
X798098Y1038778D01*
X796709Y1039222D01*
X795321Y1039833D01*
X794598Y1040167D01*
X793876Y1040611D01*
X793821Y1040667D01*
X793710Y1040722D01*
X793543Y1040889D01*
X793265Y1041055D01*
X792932Y1041333D01*
X792599Y1041611D01*
X791765Y1042389D01*
X790821Y1043333D01*
X789877Y1044499D01*
X788932Y1045888D01*
X788099Y1047444D01*
Y1047499D01*
X787988Y1047666D01*
X787933Y1047888D01*
X787766Y1048221D01*
X787655Y1048610D01*
X787488Y1049110D01*
X787266Y1049721D01*
X787099Y1050332D01*
X786933Y1051054D01*
X786710Y1051832D01*
X786544Y1052665D01*
X786433Y1053554D01*
X786210Y1055443D01*
X786099Y1057498D01*
Y1057554D01*
Y1057776D01*
Y1058054D01*
X786155Y1058442D01*
Y1058942D01*
X786210Y1059498D01*
X786266Y1060164D01*
X786321Y1060887D01*
X786544Y1062442D01*
X786877Y1064109D01*
X787321Y1065886D01*
X787933Y1067608D01*
Y1067664D01*
X788044Y1067830D01*
X788155Y1068053D01*
X788266Y1068386D01*
X788488Y1068719D01*
X788710Y1069164D01*
X789321Y1070163D01*
X790099Y1071330D01*
X791043Y1072441D01*
X792154Y1073552D01*
X793487Y1074552D01*
X793543Y1074607D01*
X793654Y1074663D01*
X793876Y1074774D01*
X794154Y1074941D01*
X794487Y1075107D01*
X794932Y1075330D01*
X795376Y1075552D01*
X795932Y1075774D01*
X797154Y1076218D01*
X798542Y1076607D01*
X800098Y1076885D01*
X800931Y1076996D01*
X802320D01*
X802987Y1076941D01*
X803764Y1076829D01*
X804708Y1076663D01*
X805708Y1076385D01*
X806764Y1076052D01*
X807764Y1075552D01*
X807819D01*
X807875Y1075496D01*
X808208Y1075274D01*
X808652Y1074996D01*
X809264Y1074552D01*
X809930Y1073996D01*
X810652Y1073385D01*
X811375Y1072663D01*
X812041Y1071830D01*
Y1090273D01*
X818318D01*
Y1039000D01*
D02*
G37*
G36*
X275430Y1038389D02*
Y1038333D01*
X275319Y1038111D01*
X275208Y1037833D01*
X275041Y1037389D01*
X274874Y1036889D01*
X274652Y1036334D01*
X274375Y1035723D01*
X274152Y1035056D01*
X273541Y1033667D01*
X272986Y1032279D01*
X272652Y1031612D01*
X272375Y1031001D01*
X272153Y1030445D01*
X271875Y1030001D01*
Y1029945D01*
X271819Y1029890D01*
X271708Y1029723D01*
X271597Y1029501D01*
X271208Y1028945D01*
X270764Y1028279D01*
X270208Y1027501D01*
X269542Y1026779D01*
X268820Y1026057D01*
X268042Y1025446D01*
X267931Y1025390D01*
X267653Y1025224D01*
X267209Y1024946D01*
X266598Y1024724D01*
X265820Y1024446D01*
X264931Y1024168D01*
X263987Y1024002D01*
X262876Y1023946D01*
X262542D01*
X262154Y1024002D01*
X261709Y1024057D01*
X261098Y1024113D01*
X260376Y1024279D01*
X259654Y1024446D01*
X258821Y1024724D01*
X258099Y1030612D01*
X258210D01*
X258432Y1030501D01*
X258821Y1030445D01*
X259321Y1030334D01*
X259876Y1030223D01*
X260487Y1030112D01*
X261098Y1030057D01*
X261654Y1030001D01*
X261987D01*
X262376Y1030057D01*
X262876Y1030112D01*
X263376Y1030168D01*
X263931Y1030334D01*
X264487Y1030501D01*
X264987Y1030723D01*
X265042Y1030779D01*
X265209Y1030834D01*
X265431Y1031001D01*
X265709Y1031223D01*
X266042Y1031501D01*
X266431Y1031834D01*
X267097Y1032667D01*
X267153Y1032723D01*
X267209Y1032889D01*
X267375Y1033167D01*
X267542Y1033612D01*
X267820Y1034223D01*
X268153Y1035056D01*
X268320Y1035556D01*
X268542Y1036111D01*
X268764Y1036722D01*
X268986Y1037389D01*
X269042Y1037500D01*
X269153Y1037778D01*
X269319Y1038278D01*
X269597Y1038944D01*
X255543Y1076163D01*
X262209D01*
X269931Y1054610D01*
Y1054554D01*
X269986Y1054443D01*
X270097Y1054221D01*
X270208Y1053887D01*
X270319Y1053499D01*
X270486Y1053054D01*
X270653Y1052554D01*
X270875Y1051999D01*
X271264Y1050721D01*
X271764Y1049221D01*
X272208Y1047666D01*
X272652Y1045999D01*
Y1046055D01*
X272708Y1046221D01*
X272764Y1046444D01*
X272875Y1046721D01*
X272930Y1047110D01*
X273097Y1047610D01*
X273208Y1048110D01*
X273375Y1048666D01*
X273764Y1049943D01*
X274208Y1051388D01*
X274708Y1052887D01*
X275263Y1054443D01*
X283263Y1076163D01*
X289540D01*
X275430Y1038389D01*
D02*
G37*
G36*
X714884Y1039000D02*
X709274D01*
Y1044444D01*
X709218Y1044388D01*
X709052Y1044166D01*
X708829Y1043888D01*
X708496Y1043444D01*
X708052Y1043000D01*
X707496Y1042444D01*
X706885Y1041889D01*
X706163Y1041333D01*
X705330Y1040722D01*
X704441Y1040167D01*
X703497Y1039611D01*
X702441Y1039167D01*
X701275Y1038722D01*
X700108Y1038445D01*
X698831Y1038222D01*
X697442Y1038167D01*
X696886D01*
X696275Y1038222D01*
X695442Y1038333D01*
X694498Y1038445D01*
X693442Y1038667D01*
X692387Y1039000D01*
X691276Y1039389D01*
X691220D01*
X691165Y1039444D01*
X690831Y1039611D01*
X690331Y1039889D01*
X689665Y1040278D01*
X688998Y1040722D01*
X688276Y1041277D01*
X687609Y1041889D01*
X687054Y1042555D01*
X686999Y1042666D01*
X686832Y1042888D01*
X686610Y1043333D01*
X686332Y1043888D01*
X685999Y1044555D01*
X685665Y1045333D01*
X685387Y1046221D01*
X685110Y1047221D01*
Y1047333D01*
X685054Y1047555D01*
X684999Y1048055D01*
X684943Y1048666D01*
X684888Y1049499D01*
X684832Y1050499D01*
X684777Y1051721D01*
Y1053110D01*
Y1076163D01*
X691054D01*
Y1055554D01*
Y1055498D01*
Y1055332D01*
Y1055109D01*
Y1054776D01*
Y1054332D01*
Y1053887D01*
X691109Y1052887D01*
Y1051777D01*
X691220Y1050666D01*
X691276Y1049666D01*
X691331Y1049221D01*
X691387Y1048888D01*
X691442Y1048777D01*
X691498Y1048499D01*
X691665Y1047999D01*
X691942Y1047444D01*
X692276Y1046833D01*
X692720Y1046221D01*
X693276Y1045555D01*
X693942Y1044999D01*
X694053Y1044944D01*
X694276Y1044777D01*
X694720Y1044555D01*
X695275Y1044333D01*
X695942Y1044055D01*
X696775Y1043833D01*
X697720Y1043666D01*
X698719Y1043611D01*
X699219D01*
X699719Y1043666D01*
X700442Y1043777D01*
X701275Y1043944D01*
X702164Y1044222D01*
X703052Y1044555D01*
X703997Y1045055D01*
X704052D01*
X704108Y1045110D01*
X704386Y1045333D01*
X704830Y1045666D01*
X705386Y1046110D01*
X705941Y1046666D01*
X706552Y1047333D01*
X707107Y1048110D01*
X707552Y1048999D01*
Y1049054D01*
X707607Y1049110D01*
X707663Y1049277D01*
X707719Y1049443D01*
X707774Y1049721D01*
X707885Y1050054D01*
X707996Y1050388D01*
X708107Y1050832D01*
X708274Y1051888D01*
X708441Y1053110D01*
X708552Y1054554D01*
X708607Y1056220D01*
Y1076163D01*
X714884D01*
Y1039000D01*
D02*
G37*
G36*
X370420Y1084218D02*
X342645D01*
Y1068330D01*
X366698D01*
Y1062275D01*
X342645D01*
Y1039000D01*
X335868D01*
Y1090273D01*
X370420D01*
Y1084218D01*
D02*
G37*
G36*
X395307Y1076941D02*
X395806D01*
X396862Y1076829D01*
X398084Y1076718D01*
X399362Y1076496D01*
X400639Y1076218D01*
X401806Y1075829D01*
X401861D01*
X401917Y1075774D01*
X402084Y1075718D01*
X402306Y1075607D01*
X402806Y1075385D01*
X403472Y1075052D01*
X404194Y1074663D01*
X404917Y1074163D01*
X405583Y1073607D01*
X406194Y1072997D01*
X406250Y1072941D01*
X406416Y1072719D01*
X406694Y1072330D01*
X406972Y1071830D01*
X407305Y1071219D01*
X407639Y1070497D01*
X407972Y1069663D01*
X408194Y1068719D01*
Y1068664D01*
X408250Y1068386D01*
X408305Y1067997D01*
X408361Y1067386D01*
X408416Y1066608D01*
X408472Y1065608D01*
Y1064997D01*
X408527Y1064386D01*
Y1063720D01*
Y1062942D01*
Y1054554D01*
Y1054443D01*
Y1054165D01*
Y1053721D01*
Y1053165D01*
Y1052443D01*
Y1051665D01*
X408583Y1050777D01*
Y1049888D01*
X408638Y1047999D01*
Y1047055D01*
X408694Y1046166D01*
X408750Y1045333D01*
X408805Y1044611D01*
X408861Y1043944D01*
X408916Y1043444D01*
Y1043333D01*
X408972Y1043055D01*
X409083Y1042611D01*
X409249Y1042000D01*
X409472Y1041333D01*
X409749Y1040611D01*
X410083Y1039778D01*
X410472Y1039000D01*
X403917D01*
X403861Y1039111D01*
X403750Y1039333D01*
X403583Y1039778D01*
X403417Y1040333D01*
X403195Y1041000D01*
X402972Y1041777D01*
X402806Y1042666D01*
X402695Y1043666D01*
X402639Y1043611D01*
X402528Y1043555D01*
X402361Y1043388D01*
X402084Y1043166D01*
X401750Y1042944D01*
X401417Y1042611D01*
X400528Y1042000D01*
X399473Y1041277D01*
X398362Y1040555D01*
X397140Y1039944D01*
X395918Y1039389D01*
X395862D01*
X395751Y1039333D01*
X395584Y1039278D01*
X395362Y1039222D01*
X395084Y1039111D01*
X394695Y1039000D01*
X393862Y1038778D01*
X392807Y1038556D01*
X391640Y1038333D01*
X390363Y1038222D01*
X388974Y1038167D01*
X388363D01*
X387974Y1038222D01*
X387474Y1038278D01*
X386863Y1038333D01*
X386196Y1038389D01*
X385530Y1038556D01*
X383974Y1038889D01*
X382419Y1039389D01*
X381697Y1039722D01*
X380919Y1040167D01*
X380252Y1040611D01*
X379586Y1041111D01*
X379530Y1041166D01*
X379419Y1041277D01*
X379308Y1041444D01*
X379086Y1041666D01*
X378808Y1041944D01*
X378530Y1042333D01*
X378253Y1042722D01*
X377975Y1043222D01*
X377364Y1044277D01*
X376808Y1045610D01*
X376586Y1046333D01*
X376475Y1047110D01*
X376364Y1047943D01*
X376308Y1048777D01*
Y1048832D01*
Y1048888D01*
Y1049221D01*
X376364Y1049777D01*
X376475Y1050443D01*
X376586Y1051221D01*
X376808Y1052054D01*
X377142Y1052887D01*
X377531Y1053776D01*
X377586Y1053887D01*
X377753Y1054165D01*
X378031Y1054554D01*
X378419Y1055109D01*
X378864Y1055665D01*
X379419Y1056276D01*
X380030Y1056832D01*
X380752Y1057387D01*
X380863Y1057442D01*
X381141Y1057609D01*
X381530Y1057887D01*
X382086Y1058165D01*
X382752Y1058498D01*
X383530Y1058831D01*
X384419Y1059165D01*
X385308Y1059442D01*
X385419D01*
X385641Y1059553D01*
X386085Y1059609D01*
X386696Y1059776D01*
X387474Y1059887D01*
X388474Y1060053D01*
X389585Y1060220D01*
X390918Y1060387D01*
X391029D01*
X391251Y1060442D01*
X391640Y1060498D01*
X392140Y1060553D01*
X392807Y1060664D01*
X393529Y1060776D01*
X394307Y1060887D01*
X395195Y1060998D01*
X397029Y1061331D01*
X398862Y1061720D01*
X399751Y1061942D01*
X400639Y1062164D01*
X401417Y1062386D01*
X402139Y1062609D01*
Y1062664D01*
Y1062831D01*
Y1063053D01*
X402195Y1063275D01*
Y1063831D01*
Y1064053D01*
Y1064220D01*
Y1064275D01*
Y1064386D01*
Y1064609D01*
Y1064831D01*
X402084Y1065497D01*
X401972Y1066330D01*
X401750Y1067219D01*
X401417Y1068108D01*
X400973Y1068941D01*
X400362Y1069608D01*
X400250Y1069719D01*
X400139Y1069830D01*
X399917Y1069941D01*
X399639Y1070108D01*
X399362Y1070275D01*
X398584Y1070719D01*
X397584Y1071108D01*
X396362Y1071441D01*
X394918Y1071663D01*
X393251Y1071774D01*
X392529D01*
X392140Y1071719D01*
X391751D01*
X390751Y1071608D01*
X389696Y1071385D01*
X388641Y1071108D01*
X387585Y1070719D01*
X386696Y1070219D01*
X386585Y1070163D01*
X386363Y1069941D01*
X385974Y1069497D01*
X385530Y1068941D01*
X385030Y1068219D01*
X384474Y1067219D01*
X384030Y1066108D01*
X383808Y1065442D01*
X383586Y1064720D01*
X377419Y1065553D01*
Y1065608D01*
X377475Y1065720D01*
X377531Y1065942D01*
X377586Y1066219D01*
X377697Y1066553D01*
X377808Y1066942D01*
X378086Y1067830D01*
X378475Y1068830D01*
X378919Y1069886D01*
X379475Y1070941D01*
X380141Y1071886D01*
Y1071941D01*
X380252Y1071997D01*
X380530Y1072274D01*
X380975Y1072719D01*
X381586Y1073274D01*
X382363Y1073885D01*
X383308Y1074496D01*
X384419Y1075107D01*
X385696Y1075663D01*
X385752D01*
X385863Y1075718D01*
X386085Y1075774D01*
X386363Y1075885D01*
X386696Y1075996D01*
X387085Y1076107D01*
X387585Y1076218D01*
X388140Y1076329D01*
X388696Y1076441D01*
X389363Y1076552D01*
X390807Y1076774D01*
X392418Y1076941D01*
X394140Y1076996D01*
X394918D01*
X395307Y1076941D01*
D02*
G37*
%LPC*%
G36*
X402195Y1057665D02*
X402139D01*
X402028Y1057609D01*
X401806Y1057554D01*
X401528Y1057442D01*
X401195Y1057276D01*
X400750Y1057165D01*
X400195Y1056998D01*
X399639Y1056832D01*
X398917Y1056665D01*
X398139Y1056443D01*
X397306Y1056276D01*
X396362Y1056054D01*
X395362Y1055832D01*
X394307Y1055665D01*
X393140Y1055443D01*
X391862Y1055276D01*
X391696D01*
X391474Y1055220D01*
X391251Y1055165D01*
X390529Y1055054D01*
X389696Y1054887D01*
X388807Y1054721D01*
X387918Y1054498D01*
X387085Y1054276D01*
X386363Y1053998D01*
X386307Y1053943D01*
X386085Y1053887D01*
X385807Y1053721D01*
X385474Y1053499D01*
X385030Y1053165D01*
X384641Y1052832D01*
X384252Y1052443D01*
X383863Y1051943D01*
X383808Y1051888D01*
X383752Y1051721D01*
X383586Y1051443D01*
X383474Y1051054D01*
X383308Y1050610D01*
X383141Y1050110D01*
X383086Y1049555D01*
X383030Y1048943D01*
Y1048832D01*
X383086Y1048555D01*
X383141Y1048055D01*
X383252Y1047499D01*
X383474Y1046833D01*
X383808Y1046110D01*
X384308Y1045444D01*
X384919Y1044777D01*
X385030Y1044722D01*
X385252Y1044499D01*
X385696Y1044277D01*
X386307Y1043944D01*
X387085Y1043666D01*
X388085Y1043388D01*
X389196Y1043166D01*
X390474Y1043111D01*
X391085D01*
X391418Y1043166D01*
X391807Y1043222D01*
X392640Y1043333D01*
X393695Y1043500D01*
X394751Y1043777D01*
X395862Y1044166D01*
X396973Y1044666D01*
X397029D01*
X397084Y1044722D01*
X397417Y1044944D01*
X397917Y1045333D01*
X398584Y1045833D01*
X399250Y1046444D01*
X399917Y1047221D01*
X400584Y1048055D01*
X401139Y1049054D01*
X401195Y1049166D01*
X401306Y1049443D01*
X401473Y1049943D01*
X401639Y1050610D01*
X401806Y1051499D01*
X401972Y1052610D01*
X402084Y1053887D01*
X402139Y1055332D01*
X402195Y1057665D01*
D02*
G37*
G36*
X554329Y1138430D02*
X554190Y1138361D01*
X553843Y1138291D01*
X553218Y1138083D01*
X552454Y1137805D01*
X551551Y1137528D01*
X550509Y1137180D01*
X549398Y1136903D01*
X548218Y1136555D01*
X548148D01*
X548009Y1136486D01*
X547801Y1136416D01*
X547523Y1136347D01*
X546759Y1136139D01*
X545926Y1135861D01*
X544954Y1135514D01*
X544051Y1135166D01*
X543287Y1134750D01*
X543009Y1134541D01*
X542732Y1134333D01*
X542662Y1134264D01*
X542523Y1134125D01*
X542384Y1133916D01*
X542176Y1133569D01*
X541759Y1132805D01*
X541620Y1132319D01*
X541551Y1131764D01*
Y1131694D01*
Y1131486D01*
X541620Y1131208D01*
X541690Y1130791D01*
X541829Y1130375D01*
X542037Y1129889D01*
X542315Y1129472D01*
X542662Y1129055D01*
X542732Y1128986D01*
X542870Y1128917D01*
X543148Y1128708D01*
X543565Y1128569D01*
X544051Y1128361D01*
X544607Y1128153D01*
X545301Y1128083D01*
X546134Y1128014D01*
X546551D01*
X546968Y1128083D01*
X547593Y1128153D01*
X548218Y1128292D01*
X548982Y1128500D01*
X549745Y1128778D01*
X550509Y1129125D01*
X550579Y1129194D01*
X550856Y1129333D01*
X551204Y1129542D01*
X551690Y1129889D01*
X552106Y1130305D01*
X552593Y1130722D01*
X553079Y1131278D01*
X553426Y1131833D01*
X553495Y1131903D01*
X553565Y1132111D01*
X553704Y1132528D01*
X553912Y1133014D01*
X554051Y1133639D01*
X554190Y1134333D01*
X554259Y1135166D01*
X554329Y1136139D01*
Y1138430D01*
D02*
G37*
G36*
X207215Y1057665D02*
X207159D01*
X207048Y1057609D01*
X206826Y1057554D01*
X206548Y1057442D01*
X206215Y1057276D01*
X205771Y1057165D01*
X205215Y1056998D01*
X204660Y1056832D01*
X203937Y1056665D01*
X203160Y1056443D01*
X202327Y1056276D01*
X201382Y1056054D01*
X200382Y1055832D01*
X199327Y1055665D01*
X198160Y1055443D01*
X196883Y1055276D01*
X196716D01*
X196494Y1055220D01*
X196271Y1055165D01*
X195549Y1055054D01*
X194716Y1054887D01*
X193827Y1054721D01*
X192939Y1054498D01*
X192105Y1054276D01*
X191383Y1053998D01*
X191328Y1053943D01*
X191105Y1053887D01*
X190828Y1053721D01*
X190494Y1053499D01*
X190050Y1053165D01*
X189661Y1052832D01*
X189272Y1052443D01*
X188883Y1051943D01*
X188828Y1051888D01*
X188772Y1051721D01*
X188606Y1051443D01*
X188495Y1051054D01*
X188328Y1050610D01*
X188161Y1050110D01*
X188106Y1049555D01*
X188050Y1048943D01*
Y1048832D01*
X188106Y1048555D01*
X188161Y1048055D01*
X188272Y1047499D01*
X188495Y1046833D01*
X188828Y1046110D01*
X189328Y1045444D01*
X189939Y1044777D01*
X190050Y1044722D01*
X190272Y1044499D01*
X190717Y1044277D01*
X191328Y1043944D01*
X192105Y1043666D01*
X193105Y1043388D01*
X194216Y1043166D01*
X195494Y1043111D01*
X196105D01*
X196438Y1043166D01*
X196827Y1043222D01*
X197660Y1043333D01*
X198716Y1043500D01*
X199771Y1043777D01*
X200882Y1044166D01*
X201993Y1044666D01*
X202049D01*
X202104Y1044722D01*
X202438Y1044944D01*
X202938Y1045333D01*
X203604Y1045833D01*
X204271Y1046444D01*
X204937Y1047221D01*
X205604Y1048055D01*
X206159Y1049054D01*
X206215Y1049166D01*
X206326Y1049443D01*
X206493Y1049943D01*
X206659Y1050610D01*
X206826Y1051499D01*
X206993Y1052610D01*
X207104Y1053887D01*
X207159Y1055332D01*
X207215Y1057665D01*
D02*
G37*
G36*
X510961Y1085940D02*
X510517D01*
X510072Y1085828D01*
X509461Y1085717D01*
X508795Y1085551D01*
X508073Y1085217D01*
X507350Y1084829D01*
X506684Y1084273D01*
X506628Y1084218D01*
X506406Y1083995D01*
X506184Y1083606D01*
X505851Y1083162D01*
X505573Y1082551D01*
X505295Y1081885D01*
X505073Y1081107D01*
X505017Y1080218D01*
Y1080162D01*
Y1079996D01*
X505073Y1079774D01*
Y1079496D01*
X505184Y1079107D01*
X505295Y1078663D01*
X505406Y1078218D01*
X505628Y1077718D01*
X505684Y1077663D01*
X505740Y1077496D01*
X505906Y1077218D01*
X506073Y1076885D01*
X506351Y1076496D01*
X506684Y1075996D01*
X507017Y1075496D01*
X507462Y1074941D01*
X510295Y1071719D01*
X510350Y1071774D01*
X510461Y1071830D01*
X510683Y1071941D01*
X510961Y1072108D01*
X511683Y1072552D01*
X512517Y1073163D01*
X513405Y1073774D01*
X514294Y1074496D01*
X515072Y1075219D01*
X515350Y1075607D01*
X515627Y1075941D01*
X515683Y1076052D01*
X515794Y1076274D01*
X516016Y1076663D01*
X516238Y1077107D01*
X516461Y1077718D01*
X516683Y1078385D01*
X516794Y1079163D01*
X516849Y1079940D01*
Y1079996D01*
Y1080051D01*
Y1080385D01*
X516738Y1080885D01*
X516627Y1081496D01*
X516405Y1082162D01*
X516127Y1082884D01*
X515683Y1083606D01*
X515127Y1084273D01*
X515072Y1084329D01*
X514850Y1084551D01*
X514461Y1084829D01*
X513961Y1085106D01*
X513405Y1085440D01*
X512683Y1085662D01*
X511850Y1085884D01*
X510961Y1085940D01*
D02*
G37*
G36*
X395025Y1148847D02*
X394886D01*
X394539Y1148777D01*
X393983Y1148708D01*
X393219Y1148569D01*
X392456Y1148222D01*
X391622Y1147805D01*
X390719Y1147250D01*
X389956Y1146416D01*
X389886Y1146277D01*
X389678Y1146000D01*
X389331Y1145444D01*
X388983Y1144611D01*
X388567Y1143639D01*
X388289Y1142389D01*
X388011Y1140930D01*
X387942Y1139264D01*
Y1139194D01*
Y1139055D01*
Y1138778D01*
Y1138430D01*
X388011Y1138083D01*
X388081Y1137597D01*
X388219Y1136486D01*
X388428Y1135305D01*
X388775Y1134125D01*
X389261Y1132944D01*
X389886Y1131972D01*
X389956Y1131903D01*
X390233Y1131625D01*
X390719Y1131278D01*
X391275Y1130861D01*
X392039Y1130375D01*
X392872Y1130028D01*
X393844Y1129750D01*
X394955Y1129680D01*
X395094D01*
X395442Y1129750D01*
X395997Y1129819D01*
X396761Y1129958D01*
X397525Y1130236D01*
X398358Y1130653D01*
X399192Y1131208D01*
X399955Y1131972D01*
X400025Y1132111D01*
X400303Y1132389D01*
X400580Y1132944D01*
X400997Y1133778D01*
X401344Y1134819D01*
X401692Y1136069D01*
X401900Y1137597D01*
X401969Y1139402D01*
Y1139472D01*
Y1139611D01*
Y1139889D01*
Y1140166D01*
X401900Y1141000D01*
X401692Y1142041D01*
X401483Y1143222D01*
X401136Y1144402D01*
X400650Y1145514D01*
X399955Y1146486D01*
X399886Y1146555D01*
X399608Y1146833D01*
X399192Y1147250D01*
X398567Y1147666D01*
X397872Y1148083D01*
X397039Y1148500D01*
X396067Y1148777D01*
X395025Y1148847D01*
D02*
G37*
G36*
X507684Y1064331D02*
X507628Y1064275D01*
X507462Y1064220D01*
X507184Y1064053D01*
X506851Y1063831D01*
X506406Y1063553D01*
X505962Y1063220D01*
X504906Y1062498D01*
X503740Y1061609D01*
X502573Y1060664D01*
X501573Y1059665D01*
X501129Y1059165D01*
X500740Y1058665D01*
Y1058609D01*
X500684Y1058553D01*
X500462Y1058220D01*
X500185Y1057720D01*
X499851Y1057054D01*
X499518Y1056276D01*
X499240Y1055387D01*
X499018Y1054443D01*
X498962Y1053499D01*
Y1053443D01*
Y1053387D01*
Y1053165D01*
X499018Y1052943D01*
Y1052665D01*
X499073Y1052332D01*
X499296Y1051554D01*
X499573Y1050554D01*
X500018Y1049443D01*
X500629Y1048277D01*
X500962Y1047666D01*
X501407Y1047055D01*
X501462Y1046999D01*
X501518Y1046888D01*
X501684Y1046721D01*
X501851Y1046555D01*
X502129Y1046277D01*
X502462Y1045999D01*
X503240Y1045388D01*
X504240Y1044777D01*
X505462Y1044222D01*
X506128Y1044055D01*
X506851Y1043888D01*
X507628Y1043777D01*
X508461Y1043722D01*
X508739D01*
X508961Y1043777D01*
X509517Y1043833D01*
X510239Y1043944D01*
X511128Y1044166D01*
X512128Y1044444D01*
X513183Y1044888D01*
X514294Y1045444D01*
X514350D01*
X514405Y1045555D01*
X514572Y1045610D01*
X514794Y1045777D01*
X515350Y1046166D01*
X516072Y1046666D01*
X516794Y1047333D01*
X517627Y1048110D01*
X518405Y1048999D01*
X519127Y1049999D01*
X507684Y1064331D01*
D02*
G37*
G36*
X763824Y1071830D02*
X763379D01*
X763102Y1071774D01*
X762713Y1071719D01*
X762324Y1071663D01*
X761269Y1071441D01*
X760158Y1071108D01*
X758880Y1070608D01*
X758269Y1070275D01*
X757658Y1069886D01*
X757047Y1069386D01*
X756491Y1068886D01*
X756436Y1068830D01*
X756380Y1068775D01*
X756214Y1068608D01*
X756047Y1068386D01*
X755825Y1068053D01*
X755547Y1067719D01*
X755269Y1067330D01*
X754991Y1066831D01*
X754714Y1066330D01*
X754436Y1065720D01*
X753880Y1064386D01*
X753492Y1062886D01*
X753381Y1062053D01*
X753269Y1061164D01*
X774045D01*
Y1061220D01*
Y1061387D01*
X773989Y1061609D01*
X773934Y1061942D01*
X773878Y1062331D01*
X773823Y1062775D01*
X773601Y1063775D01*
X773267Y1064942D01*
X772878Y1066108D01*
X772323Y1067219D01*
X771656Y1068164D01*
X771601Y1068219D01*
X771545Y1068330D01*
X771323Y1068497D01*
X771101Y1068719D01*
X770823Y1068997D01*
X770434Y1069330D01*
X769990Y1069663D01*
X769546Y1069997D01*
X768990Y1070330D01*
X768379Y1070663D01*
X767046Y1071274D01*
X766324Y1071497D01*
X765546Y1071663D01*
X764713Y1071774D01*
X763824Y1071830D01*
D02*
G37*
G36*
X624505D02*
X624061D01*
X623783Y1071774D01*
X623394Y1071719D01*
X623005Y1071663D01*
X621950Y1071441D01*
X620839Y1071108D01*
X619561Y1070608D01*
X618950Y1070275D01*
X618339Y1069886D01*
X617728Y1069386D01*
X617172Y1068886D01*
X617117Y1068830D01*
X617061Y1068775D01*
X616895Y1068608D01*
X616728Y1068386D01*
X616506Y1068053D01*
X616228Y1067719D01*
X615950Y1067330D01*
X615672Y1066831D01*
X615395Y1066330D01*
X615117Y1065720D01*
X614562Y1064386D01*
X614173Y1062886D01*
X614062Y1062053D01*
X613951Y1061164D01*
X634726D01*
Y1061220D01*
Y1061387D01*
X634671Y1061609D01*
X634615Y1061942D01*
X634560Y1062331D01*
X634504Y1062775D01*
X634282Y1063775D01*
X633948Y1064942D01*
X633560Y1066108D01*
X633004Y1067219D01*
X632337Y1068164D01*
X632282Y1068219D01*
X632226Y1068330D01*
X632004Y1068497D01*
X631782Y1068719D01*
X631504Y1068997D01*
X631115Y1069330D01*
X630671Y1069663D01*
X630227Y1069997D01*
X629671Y1070330D01*
X629060Y1070663D01*
X627727Y1071274D01*
X627005Y1071497D01*
X626227Y1071663D01*
X625394Y1071774D01*
X624505Y1071830D01*
D02*
G37*
G36*
X317318Y1148222D02*
X316901D01*
X316345Y1148083D01*
X315720Y1147944D01*
X315026Y1147666D01*
X314262Y1147319D01*
X313498Y1146764D01*
X312804Y1146069D01*
X312734Y1146000D01*
X312526Y1145652D01*
X312248Y1145166D01*
X311901Y1144472D01*
X311554Y1143500D01*
X311276Y1142319D01*
X311068Y1140930D01*
X310998Y1139264D01*
Y1139194D01*
Y1139055D01*
Y1138847D01*
Y1138569D01*
X311068Y1137805D01*
X311207Y1136833D01*
X311415Y1135791D01*
X311762Y1134680D01*
X312179Y1133708D01*
X312804Y1132805D01*
X312873Y1132736D01*
X313151Y1132458D01*
X313568Y1132180D01*
X314123Y1131764D01*
X314748Y1131416D01*
X315581Y1131069D01*
X316484Y1130791D01*
X317456Y1130722D01*
X317873D01*
X318359Y1130861D01*
X318915Y1131000D01*
X319609Y1131208D01*
X320304Y1131555D01*
X320998Y1132041D01*
X321623Y1132736D01*
X321693Y1132805D01*
X321901Y1133153D01*
X322179Y1133639D01*
X322456Y1134333D01*
X322734Y1135305D01*
X323012Y1136486D01*
X323220Y1137875D01*
X323290Y1139541D01*
Y1139611D01*
Y1139750D01*
Y1139958D01*
Y1140305D01*
X323220Y1141069D01*
X323081Y1142041D01*
X322873Y1143083D01*
X322526Y1144194D01*
X322109Y1145166D01*
X321554Y1146069D01*
X321484Y1146139D01*
X321276Y1146416D01*
X320859Y1146764D01*
X320373Y1147180D01*
X319748Y1147527D01*
X319054Y1147875D01*
X318220Y1148152D01*
X317318Y1148222D01*
D02*
G37*
G36*
X714257Y1150236D02*
X714118D01*
X713702Y1150166D01*
X713077Y1150097D01*
X712313Y1149889D01*
X711479Y1149611D01*
X710577Y1149125D01*
X709743Y1148430D01*
X708910Y1147527D01*
X708841Y1147458D01*
X708702Y1147250D01*
X708493Y1146833D01*
X708216Y1146277D01*
X707938Y1145583D01*
X707660Y1144750D01*
X707382Y1143777D01*
X707243Y1142597D01*
X721202D01*
Y1142666D01*
Y1142805D01*
X721132Y1143014D01*
Y1143291D01*
X720993Y1143986D01*
X720785Y1144889D01*
X720507Y1145791D01*
X720090Y1146764D01*
X719604Y1147666D01*
X718979Y1148430D01*
X718910Y1148500D01*
X718632Y1148708D01*
X718285Y1148986D01*
X717729Y1149333D01*
X717035Y1149680D01*
X716202Y1149958D01*
X715299Y1150166D01*
X714257Y1150236D01*
D02*
G37*
G36*
X802375Y1071774D02*
X801987D01*
X801653Y1071719D01*
X801320Y1071663D01*
X800876Y1071608D01*
X799931Y1071330D01*
X798820Y1070941D01*
X798209Y1070663D01*
X797598Y1070330D01*
X797043Y1069941D01*
X796432Y1069441D01*
X795876Y1068941D01*
X795321Y1068330D01*
X795265Y1068275D01*
X795210Y1068164D01*
X795043Y1067942D01*
X794876Y1067664D01*
X794654Y1067330D01*
X794432Y1066831D01*
X794210Y1066330D01*
X793932Y1065664D01*
X793654Y1064997D01*
X793432Y1064164D01*
X793210Y1063275D01*
X792988Y1062331D01*
X792821Y1061220D01*
X792654Y1060109D01*
X792599Y1058831D01*
X792543Y1057498D01*
Y1057442D01*
Y1057165D01*
Y1056832D01*
X792599Y1056331D01*
X792654Y1055721D01*
X792710Y1055054D01*
X792821Y1054332D01*
X792932Y1053499D01*
X793265Y1051777D01*
X793821Y1049999D01*
X794154Y1049166D01*
X794543Y1048332D01*
X795043Y1047555D01*
X795543Y1046833D01*
X795598Y1046777D01*
X795654Y1046666D01*
X795876Y1046499D01*
X796098Y1046277D01*
X796376Y1045999D01*
X796709Y1045722D01*
X797543Y1045110D01*
X798598Y1044444D01*
X799820Y1043888D01*
X800487Y1043666D01*
X801153Y1043500D01*
X801876Y1043388D01*
X802653Y1043333D01*
X803042D01*
X803375Y1043388D01*
X803709Y1043444D01*
X804153Y1043500D01*
X805097Y1043777D01*
X806208Y1044166D01*
X806819Y1044444D01*
X807375Y1044722D01*
X807986Y1045110D01*
X808597Y1045555D01*
X809153Y1046055D01*
X809708Y1046666D01*
X809763Y1046721D01*
X809819Y1046833D01*
X809986Y1046999D01*
X810152Y1047333D01*
X810375Y1047666D01*
X810652Y1048110D01*
X810930Y1048610D01*
X811208Y1049221D01*
X811430Y1049888D01*
X811708Y1050666D01*
X811985Y1051554D01*
X812208Y1052443D01*
X812374Y1053443D01*
X812541Y1054554D01*
X812597Y1055721D01*
X812652Y1056998D01*
Y1057109D01*
Y1057331D01*
Y1057720D01*
X812597Y1058220D01*
X812541Y1058887D01*
X812486Y1059609D01*
X812430Y1060387D01*
X812263Y1061275D01*
X811930Y1063053D01*
X811375Y1064942D01*
X811041Y1065831D01*
X810652Y1066664D01*
X810208Y1067441D01*
X809652Y1068164D01*
X809597Y1068219D01*
X809541Y1068330D01*
X809375Y1068497D01*
X809153Y1068719D01*
X808819Y1068997D01*
X808486Y1069330D01*
X807653Y1069997D01*
X806597Y1070608D01*
X805320Y1071219D01*
X804653Y1071441D01*
X803931Y1071608D01*
X803153Y1071719D01*
X802375Y1071774D01*
D02*
G37*
%LPD*%
D36*
X287658Y809987D02*
X274329D01*
X280993D01*
Y776665D01*
X274329Y770000D01*
X267665D01*
X261000Y776665D01*
X300987Y770000D02*
Y776665D01*
X307652D01*
Y770000D01*
X300987D01*
X374297D02*
Y809987D01*
X387626Y796658D01*
X400955Y809987D01*
Y770000D01*
X414284Y796658D02*
Y776665D01*
X420948Y770000D01*
X440942D01*
Y796658D01*
X454271D02*
Y770000D01*
Y783329D01*
X460935Y789994D01*
X467600Y796658D01*
X474264D01*
X500922Y803323D02*
Y796658D01*
X494258D01*
X507587D01*
X500922D01*
Y776665D01*
X507587Y770000D01*
X547574D02*
X534245D01*
X527580Y776665D01*
Y789994D01*
X534245Y796658D01*
X547574D01*
X554239Y789994D01*
Y783329D01*
X527580D01*
X262000Y872987D02*
Y833000D01*
X288658D01*
X301987D02*
Y839665D01*
X308652D01*
Y833000D01*
X301987D01*
X401955Y872987D02*
X375297D01*
Y852993D01*
X388626D01*
X375297D01*
Y833000D01*
X415284Y859658D02*
Y839665D01*
X421948Y833000D01*
X441942D01*
Y859658D01*
X455271Y819671D02*
X461935D01*
X468600Y826336D01*
Y859658D01*
X495258Y833000D02*
X508587D01*
X501922D01*
Y859658D01*
X495258D01*
X528581Y833000D02*
Y859658D01*
X535245D01*
X541909Y852993D01*
Y833000D01*
Y852993D01*
X548574Y859658D01*
X555238Y852993D01*
Y833000D01*
X575232D02*
X588561D01*
X595226Y839665D01*
Y852993D01*
X588561Y859658D01*
X575232D01*
X568568Y852993D01*
Y839665D01*
X575232Y833000D01*
X615219Y866323D02*
Y859658D01*
X608555D01*
X621884D01*
X615219D01*
Y839665D01*
X621884Y833000D01*
X648542D02*
X661871D01*
X668535Y839665D01*
Y852993D01*
X661871Y859658D01*
X648542D01*
X641877Y852993D01*
Y839665D01*
X648542Y833000D01*
X261000Y895000D02*
Y921658D01*
X274329Y934987D01*
X287658Y921658D01*
Y895000D01*
Y914994D01*
X261000D01*
X300987Y895000D02*
Y901665D01*
X307652D01*
Y895000D01*
X300987D01*
X400955Y928323D02*
X394290Y934987D01*
X380961D01*
X374297Y928323D01*
Y901665D01*
X380961Y895000D01*
X394290D01*
X400955Y901665D01*
X420948Y921658D02*
X434277D01*
X440942Y914994D01*
Y895000D01*
X420948D01*
X414284Y901665D01*
X420948Y908329D01*
X440942D01*
X454271Y895000D02*
X467600D01*
X460935D01*
Y934987D01*
X454271D01*
X487593Y895000D02*
X500922D01*
X494258D01*
Y934987D01*
X487593D01*
X540910Y895000D02*
X527580D01*
X520916Y901665D01*
Y914994D01*
X527580Y921658D01*
X540910D01*
X547574Y914994D01*
Y908329D01*
X520916D01*
X560903Y881671D02*
X567567D01*
X574232Y888335D01*
Y921658D01*
X607555D02*
X620884D01*
X627548Y914994D01*
Y895000D01*
X607555D01*
X600890Y901665D01*
X607555Y908329D01*
X627548D01*
X285658Y999987D02*
X259000D01*
Y960000D01*
X285658D01*
X259000Y979994D02*
X272329D01*
X298987Y960000D02*
Y966665D01*
X305652D01*
Y960000D01*
X298987D01*
X372297D02*
Y999987D01*
X385626Y986658D01*
X398955Y999987D01*
Y960000D01*
X432277D02*
X418948D01*
X412284Y966665D01*
Y979994D01*
X418948Y986658D01*
X432277D01*
X438942Y979994D01*
Y973329D01*
X412284D01*
X452271Y986658D02*
Y960000D01*
Y973329D01*
X458935Y979994D01*
X465600Y986658D01*
X472264D01*
X498922D02*
X512251D01*
X518916Y979994D01*
Y960000D01*
X498922D01*
X492258Y966665D01*
X498922Y973329D01*
X518916D01*
X532245Y999987D02*
Y960000D01*
X552239D01*
X558903Y966665D01*
Y973329D01*
Y979994D01*
X552239Y986658D01*
X532245D01*
X592226Y960000D02*
X578896D01*
X572232Y966665D01*
Y979994D01*
X578896Y986658D01*
X592226D01*
X598890Y979994D01*
Y973329D01*
X572232D01*
X618884Y993323D02*
Y986658D01*
X612219D01*
X625548D01*
X618884D01*
Y966665D01*
X625548Y960000D01*
D37*
X494000Y356000D02*
D03*
Y337000D02*
D03*
X439000Y669000D02*
D03*
Y650000D02*
D03*
X553000Y668000D02*
D03*
Y649000D02*
D03*
X538000Y668000D02*
D03*
Y649000D02*
D03*
X523000Y668000D02*
D03*
Y649000D02*
D03*
X508000Y668000D02*
D03*
Y649000D02*
D03*
X493000Y668000D02*
D03*
Y649000D02*
D03*
X478000Y668000D02*
D03*
Y649000D02*
D03*
X407000Y650000D02*
D03*
Y669000D02*
D03*
X388000Y650000D02*
D03*
Y669000D02*
D03*
X784000Y259000D02*
D03*
Y240000D02*
D03*
X665000Y325000D02*
D03*
Y306000D02*
D03*
D38*
X523000Y356800D02*
D03*
X535700D02*
D03*
X548400D02*
D03*
X561100D02*
D03*
X523000Y304285D02*
D03*
X535700Y304280D02*
D03*
X561100D02*
D03*
D39*
X548400D02*
D03*
D40*
X684000Y99000D02*
D03*
X665000D02*
D03*
X706000D02*
D03*
X725000D02*
D03*
X827000Y208000D02*
D03*
X808000D02*
D03*
X827000Y225000D02*
D03*
X808000D02*
D03*
X767000Y443000D02*
D03*
X748000D02*
D03*
X583000Y210000D02*
D03*
X564000D02*
D03*
X654000Y116000D02*
D03*
X673000D02*
D03*
X788000Y219000D02*
D03*
X769000D02*
D03*
X720000Y591000D02*
D03*
X701000D02*
D03*
D41*
X737000Y61000D02*
D03*
X642000D02*
D03*
D42*
X725000Y525000D02*
D03*
X679300D02*
D03*
D43*
X702150Y458350D02*
D03*
D44*
X730000Y251000D02*
D03*
Y243000D02*
D03*
X730130Y195000D02*
D03*
X730000Y235000D02*
D03*
Y203000D02*
D03*
Y211000D02*
D03*
Y219000D02*
D03*
Y227000D02*
D03*
Y187000D02*
D03*
Y179000D02*
D03*
Y171000D02*
D03*
X616000Y251000D02*
D03*
Y243000D02*
D03*
Y195000D02*
D03*
Y235000D02*
D03*
Y203000D02*
D03*
Y211000D02*
D03*
Y219000D02*
D03*
Y227000D02*
D03*
Y187000D02*
D03*
Y179000D02*
D03*
Y171000D02*
D03*
D45*
X713000Y268000D02*
D03*
X705000D02*
D03*
X697000D02*
D03*
X657000D02*
D03*
X665000D02*
D03*
X673000D02*
D03*
X681000D02*
D03*
X649000D02*
D03*
X689000D02*
D03*
X641000D02*
D03*
X633000D02*
D03*
Y154000D02*
D03*
X641000D02*
D03*
X689000D02*
D03*
X649000D02*
D03*
X681000D02*
D03*
X673000D02*
D03*
X665000D02*
D03*
X657000D02*
D03*
X697000D02*
D03*
X705000D02*
D03*
X713000D02*
D03*
D46*
X379500Y64000D02*
D03*
X481100D02*
D03*
X455700D02*
D03*
X354100D02*
D03*
X404900D02*
D03*
X430300D02*
D03*
X506500D02*
D03*
X531900D02*
D03*
D47*
X57700Y576300D02*
D03*
X32300D02*
D03*
Y550900D02*
D03*
X57700D02*
D03*
X32300Y525500D02*
D03*
X57700D02*
D03*
X32300Y500100D02*
D03*
X57700D02*
D03*
X32300Y474700D02*
D03*
X57700D02*
D03*
X32300Y449300D02*
D03*
X57700D02*
D03*
X32300Y423900D02*
D03*
X57700D02*
D03*
X32300Y398500D02*
D03*
X57700D02*
D03*
X32300Y373100D02*
D03*
X57700D02*
D03*
Y347700D02*
D03*
X32300D02*
D03*
X57700Y322300D02*
D03*
X32300D02*
D03*
X57700Y296900D02*
D03*
X32300D02*
D03*
X57700Y271500D02*
D03*
X32300D02*
D03*
X57700Y246100D02*
D03*
X32300D02*
D03*
X57700Y220700D02*
D03*
X32300D02*
D03*
X57700Y195300D02*
D03*
X32300D02*
D03*
X57700Y169900D02*
D03*
X32300D02*
D03*
X57700Y144500D02*
D03*
X32300D02*
D03*
X57700Y119100D02*
D03*
X32300D02*
D03*
X57700Y93700D02*
D03*
X32300D02*
D03*
X829750Y99900D02*
D03*
Y125300D02*
D03*
D48*
X827000Y252000D02*
D03*
Y277400D02*
D03*
Y302800D02*
D03*
Y328200D02*
D03*
Y353600D02*
D03*
Y379000D02*
D03*
X651600Y403000D02*
D03*
X829750Y74500D02*
D03*
X855150D02*
D03*
Y99900D02*
D03*
Y125300D02*
D03*
Y150700D02*
D03*
X829750D02*
D03*
X855150Y49100D02*
D03*
X829750D02*
D03*
X843000Y647400D02*
D03*
Y622000D02*
D03*
D49*
X702400Y403000D02*
D03*
D50*
X553500Y700000D02*
D03*
X528100D02*
D03*
X540800D02*
D03*
X515400D02*
D03*
X502700D02*
D03*
X490000D02*
D03*
X477300D02*
D03*
X464600D02*
D03*
X451900D02*
D03*
X439200D02*
D03*
X426500D02*
D03*
X413800D02*
D03*
X401100D02*
D03*
D51*
X867000Y525000D02*
D03*
X816000Y505000D02*
D03*
D52*
X693099Y213850D02*
D03*
X577000Y357000D02*
D03*
X29000Y695000D02*
D03*
X687999Y302999D02*
D03*
X476000Y345000D02*
D03*
X537000Y327000D02*
D03*
X681000Y183000D02*
D03*
X664000Y177000D02*
D03*
X504000Y208000D02*
D03*
X572000Y194000D02*
D03*
X446000Y299000D02*
D03*
X462000Y268000D02*
D03*
X462000Y248000D02*
D03*
X64000Y1117000D02*
D03*
X593999Y230000D02*
D03*
X44000Y706000D02*
D03*
X620000Y266000D02*
D03*
X698000Y245000D02*
D03*
X13000Y694000D02*
D03*
X655000Y292000D02*
D03*
X637999Y311999D02*
D03*
X753000Y251000D02*
D03*
X756000Y234000D02*
D03*
X705000Y321000D02*
D03*
X430000Y634000D02*
D03*
X419000Y619000D02*
D03*
X596000Y379000D02*
D03*
X714999Y285999D02*
D03*
X733000Y284000D02*
D03*
X611000Y388000D02*
D03*
X622000Y401000D02*
D03*
X641000Y203000D02*
D03*
D53*
X751000Y19000D02*
D03*
X772000Y27000D02*
D03*
X785000Y44000D02*
D03*
X781000Y112000D02*
D03*
X785000Y85000D02*
D03*
Y65000D02*
D03*
X764000Y121000D02*
D03*
X611000Y18000D02*
D03*
X631000Y17000D02*
D03*
X653000Y18000D02*
D03*
X673000D02*
D03*
X693000Y19000D02*
D03*
X713000D02*
D03*
X732000D02*
D03*
X595000Y32000D02*
D03*
X594000Y53000D02*
D03*
Y72000D02*
D03*
X579000Y648000D02*
D03*
X883000Y205000D02*
D03*
X745000Y120000D02*
D03*
X594000Y94000D02*
D03*
X603000Y115000D02*
D03*
M02*
