%FSLAX44Y44*%
%MOMM*%
G71*
G01*
G75*
G04 Layer_Physical_Order=1*
G04 Layer_Color=255*
%ADD10R,1.0000X1.0000*%
%ADD11R,0.7600X1.7800*%
%ADD12R,0.7200X1.7800*%
%ADD13R,1.0000X1.0000*%
%ADD14R,5.5000X2.0000*%
%ADD15R,2.6000X4.3000*%
%ADD16R,5.5000X5.7000*%
%ADD17R,1.5000X0.5500*%
%ADD18R,0.5500X1.5000*%
%ADD19C,0.3000*%
%ADD20C,0.6000*%
%ADD21C,1.2000*%
%ADD22C,0.4000*%
%ADD23C,2.0000*%
%ADD24C,0.2540*%
%ADD25C,1.8000*%
%ADD26C,1.7000*%
%ADD27C,2.0000*%
%ADD28R,2.0000X2.0000*%
%ADD29C,0.9000*%
%ADD30C,3.4000*%
%ADD31C,1.2700*%
%ADD32C,1.5000*%
G36*
X566006Y132364D02*
X508656Y75013D01*
X506500Y75906D01*
X498081Y72419D01*
X494854Y64629D01*
X492746D01*
X491088Y68631D01*
X556669Y134212D01*
X565241D01*
X566006Y132364D01*
D02*
G37*
G36*
X628250Y146788D02*
X534700D01*
X534700Y146788D01*
X532021Y145679D01*
X460331Y73988D01*
X455700Y75906D01*
X447281Y72419D01*
X444054Y64629D01*
X441946D01*
X440288Y68631D01*
X521869Y150212D01*
X628250D01*
Y146788D01*
D02*
G37*
G36*
X507156Y171614D02*
X409531Y73988D01*
X404900Y75906D01*
X396481Y72419D01*
X393254Y64629D01*
X391146D01*
X389488Y68631D01*
X494319Y173462D01*
X506391D01*
X507156Y171614D01*
D02*
G37*
G36*
X549106Y137364D02*
X485731Y73988D01*
X481100Y75906D01*
X472681Y72419D01*
X469454Y64629D01*
X467346D01*
X465688Y68631D01*
X536269Y139212D01*
X548341D01*
X549106Y137364D01*
D02*
G37*
G36*
X898000Y2000D02*
X898152Y1848D01*
X897387Y0D01*
X1415D01*
X2Y1415D01*
X1000Y706000D01*
X34962D01*
X36095Y703264D01*
X34565Y701733D01*
X29000Y704038D01*
X22609Y701391D01*
X21793Y699420D01*
X19793D01*
X19391Y700391D01*
X13000Y703038D01*
X6609Y700391D01*
X3962Y694000D01*
X6609Y687609D01*
X13000Y684962D01*
X15061Y685816D01*
X453022Y247855D01*
X455609Y241609D01*
X462000Y238962D01*
X468391Y241609D01*
X471038Y248000D01*
X468391Y254391D01*
X462000Y257038D01*
X457817Y255306D01*
X29250Y683873D01*
X29797Y685788D01*
X31547Y686330D01*
X453938Y263939D01*
X454790Y263586D01*
X455609Y261609D01*
X462000Y258962D01*
X468391Y261609D01*
X471038Y268000D01*
X468391Y274391D01*
X462000Y277038D01*
X455696Y274427D01*
X439728Y290395D01*
X440860Y292091D01*
X446000Y289962D01*
X452391Y292609D01*
X455038Y299000D01*
X452391Y305391D01*
X449559Y306564D01*
X52184Y703939D01*
X53038Y706000D01*
X366141D01*
X366906Y704152D01*
X358877Y696123D01*
X356341Y690000D01*
Y662000D01*
X358877Y655877D01*
X370877Y643877D01*
X377000Y641341D01*
X381006Y643000D01*
X395000D01*
Y644588D01*
X400000D01*
Y643000D01*
X414000D01*
Y649005D01*
X414412Y650000D01*
X414000Y650995D01*
Y657000D01*
X400000D01*
Y655412D01*
X395000D01*
Y657000D01*
X382246D01*
X373659Y665587D01*
Y686413D01*
X391123Y703877D01*
X392002Y706000D01*
X394537D01*
X395721Y704000D01*
X394064Y700000D01*
X394527Y698884D01*
X385321Y689679D01*
X384212Y687000D01*
X384212Y687000D01*
Y676000D01*
X381000D01*
Y662000D01*
X395000D01*
Y676000D01*
X391788D01*
Y685431D01*
X399843Y693485D01*
X401100Y692964D01*
X402626Y693596D01*
X404049Y692021D01*
X403212Y690000D01*
X403212Y690000D01*
Y676000D01*
X400000D01*
Y662000D01*
X414000D01*
Y676000D01*
X410788D01*
Y688431D01*
X416398Y694041D01*
X418775Y695025D01*
X418858Y695225D01*
X420858D01*
X421112Y694612D01*
X425230Y692906D01*
Y700000D01*
X427770D01*
Y692906D01*
X431888Y694612D01*
X433788Y693972D01*
Y676000D01*
X432000D01*
Y662000D01*
X446000D01*
Y676000D01*
X444612D01*
Y693972D01*
X446512Y694612D01*
X450630Y692906D01*
Y700000D01*
X453170D01*
Y692906D01*
X457288Y694612D01*
X457542Y695225D01*
X459542D01*
X459625Y695025D01*
X464600Y692964D01*
X469575Y695025D01*
X469950Y695931D01*
X471950D01*
X472325Y695025D01*
X473512Y694534D01*
Y675000D01*
X471000D01*
Y661000D01*
X485000D01*
Y661000D01*
X486000D01*
Y661000D01*
X500000D01*
Y661000D01*
X501000D01*
Y661000D01*
X515000D01*
Y661000D01*
X516000D01*
Y661000D01*
X530000D01*
Y661000D01*
X531000D01*
Y661000D01*
X545000D01*
Y661000D01*
X546000D01*
Y661000D01*
X560000D01*
Y675000D01*
X556788D01*
Y685000D01*
X555679Y687679D01*
X555679Y687679D01*
X552094Y691264D01*
X553057Y692983D01*
X553361Y693022D01*
X553500Y692964D01*
X553763Y693073D01*
X554921Y693222D01*
X620212Y627931D01*
Y409297D01*
X615609Y407391D01*
X612962Y401000D01*
X614349Y397651D01*
X612935Y396236D01*
X611000Y397038D01*
X606983Y395374D01*
X433788Y568569D01*
Y626531D01*
X436391Y627609D01*
X439038Y634000D01*
X436391Y640391D01*
X436224Y640460D01*
X436622Y642460D01*
X437730D01*
Y648730D01*
X431460D01*
Y644598D01*
X430948Y644051D01*
X429460Y642814D01*
X429460D01*
Y642814D01*
X423609Y640391D01*
X420962Y634000D01*
X423267Y628435D01*
X421736Y626905D01*
X419000Y628038D01*
X412609Y625391D01*
X409962Y619000D01*
X412609Y612609D01*
X415212Y611531D01*
Y556000D01*
X415212Y556000D01*
X416321Y553321D01*
X586745Y382897D01*
X586682Y382687D01*
X584420Y382120D01*
X577417Y389123D01*
X571294Y391659D01*
X472000D01*
X465877Y389123D01*
X450877Y374123D01*
X448341Y368000D01*
Y316000D01*
X450877Y309877D01*
X495341Y265413D01*
Y208915D01*
X494962Y208000D01*
X497609Y201609D01*
X504000Y198962D01*
X510391Y201609D01*
X513038Y208000D01*
X512659Y208915D01*
Y269000D01*
X510123Y275123D01*
X465659Y319587D01*
Y341508D01*
X467659Y341906D01*
X469196Y338196D01*
X474730Y335904D01*
Y345000D01*
Y354096D01*
X469196Y351804D01*
X467659Y348094D01*
X465659Y348492D01*
Y364413D01*
X475587Y374341D01*
X491074D01*
X491839Y372493D01*
X490173Y370827D01*
X488588Y367000D01*
X488588Y367000D01*
Y363000D01*
X487000D01*
Y349000D01*
X501000D01*
Y363000D01*
X499995D01*
X499654Y365000D01*
X508994Y374341D01*
X516692D01*
X517588Y373000D01*
X517588Y373000D01*
Y367700D01*
X517200D01*
Y345900D01*
X528800D01*
Y345900D01*
X529900D01*
X531344Y344558D01*
X531873Y343281D01*
X537268Y337886D01*
X536496Y335829D01*
X530609Y333391D01*
X527962Y327000D01*
X530609Y320609D01*
X531912Y320070D01*
Y315180D01*
X529900D01*
X529900Y315180D01*
D01*
X529900Y315180D01*
X529900D01*
X529898D01*
X528937Y315184D01*
X528800Y315185D01*
X528436Y315185D01*
X527902Y315185D01*
X525902Y315185D01*
X517200D01*
Y293385D01*
X519212D01*
Y222000D01*
X519212Y222000D01*
X520321Y219321D01*
X556756Y182886D01*
X555991Y181038D01*
X492750D01*
X492750Y181038D01*
X490856Y180254D01*
X490071Y179929D01*
X490071Y179929D01*
X384131Y73988D01*
X379500Y75906D01*
X371081Y72419D01*
X367854Y64629D01*
X365746D01*
X362519Y72419D01*
X354100Y75906D01*
X345681Y72419D01*
X342194Y64000D01*
X345681Y55581D01*
X354100Y52094D01*
X358731Y54012D01*
X409421Y3321D01*
X409421Y3321D01*
X412100Y2212D01*
X769000D01*
X769000Y2212D01*
X771679Y3321D01*
X800679Y32321D01*
X800679Y32321D01*
X801788Y35000D01*
Y111000D01*
X801788Y111000D01*
X801004Y112894D01*
X800679Y113679D01*
X800679Y113679D01*
X777679Y136679D01*
X775000Y137788D01*
X775000Y137788D01*
X733569D01*
X717750Y153608D01*
Y163500D01*
X686290D01*
Y164040D01*
X682270D01*
Y154000D01*
X679730D01*
Y164040D01*
X678412D01*
Y169000D01*
X678412Y169000D01*
X677619Y170913D01*
X676827Y172827D01*
X677678Y174589D01*
X677764Y174718D01*
X679730Y173904D01*
Y183000D01*
Y192096D01*
X674196Y189804D01*
X671968Y184426D01*
X670399Y183396D01*
X669530Y183748D01*
X664000Y186038D01*
X657609Y183391D01*
X654962Y177000D01*
X657609Y170609D01*
X664000Y167962D01*
X665686Y168660D01*
X667588Y166758D01*
Y163500D01*
X628250D01*
Y157788D01*
X520300D01*
X520300Y157788D01*
X518406Y157004D01*
X517621Y156679D01*
X517621Y156679D01*
X434931Y73988D01*
X430300Y75906D01*
X421881Y72419D01*
X418654Y64629D01*
X416546D01*
X414888Y68631D01*
X513469Y167212D01*
X606500D01*
Y166250D01*
X625500D01*
Y174250D01*
Y182250D01*
Y190250D01*
Y198250D01*
Y199212D01*
X633531D01*
X634609Y196609D01*
X641000Y193962D01*
X647391Y196609D01*
X650038Y203000D01*
X647391Y209391D01*
X641000Y212038D01*
X634609Y209391D01*
X633531Y206788D01*
X625500D01*
Y213710D01*
X626040D01*
Y217730D01*
X605960D01*
Y216412D01*
X590000D01*
Y217000D01*
X576000D01*
Y205654D01*
X573540Y203194D01*
X571540Y203987D01*
Y204138D01*
Y208730D01*
X565270D01*
Y202460D01*
X565479D01*
X565869Y200499D01*
X565609Y200391D01*
X562962Y194000D01*
X564484Y190325D01*
X563208Y188181D01*
X562274Y188084D01*
X526788Y223569D01*
Y293385D01*
X528800D01*
X528800Y293385D01*
D01*
X528800Y293385D01*
X528800D01*
X528802D01*
X529763Y293381D01*
X529900Y293380D01*
X530264Y293380D01*
X530798Y293380D01*
X532798Y293380D01*
X541500D01*
Y293380D01*
X541500Y293380D01*
X542800D01*
Y293380D01*
X542800Y293380D01*
X552760D01*
X552984D01*
X554760Y292840D01*
X554902D01*
X555776Y292840D01*
X559830D01*
Y304280D01*
Y315720D01*
X555812D01*
X555776D01*
X554820Y315720D01*
X554760D01*
X553812Y317327D01*
Y330217D01*
X555660Y330983D01*
X591212Y295431D01*
Y248800D01*
X591212Y248800D01*
X592321Y246122D01*
X599533Y238910D01*
X598400Y237215D01*
X593999Y239037D01*
X587608Y236390D01*
X584961Y230000D01*
X587608Y223609D01*
X593999Y220962D01*
X598124Y222670D01*
X605960D01*
Y220270D01*
X626040D01*
Y224290D01*
X625500D01*
Y230250D01*
Y238250D01*
Y246250D01*
Y255750D01*
X622300D01*
X621902Y257750D01*
X626391Y259609D01*
X628250Y258871D01*
Y258500D01*
X667710D01*
Y257960D01*
X671730D01*
Y268000D01*
Y278040D01*
X668788D01*
Y299000D01*
X672000D01*
Y313000D01*
X658000D01*
Y301595D01*
X656337Y300484D01*
X655000Y301038D01*
X648609Y298391D01*
X645962Y292000D01*
X648609Y285609D01*
X651462Y284428D01*
Y282509D01*
X649614Y281744D01*
X641788Y289569D01*
Y304531D01*
X644389Y305609D01*
X647037Y311999D01*
X644389Y318390D01*
X637999Y321037D01*
X631608Y318390D01*
X628961Y311999D01*
X631608Y305609D01*
X634212Y304530D01*
Y288000D01*
X634212Y288000D01*
X635321Y285321D01*
X641295Y279348D01*
X640529Y277500D01*
X628250D01*
Y273129D01*
X626391Y272391D01*
X620000Y275038D01*
X613609Y272391D01*
X610962Y266000D01*
X613609Y259609D01*
X618098Y257750D01*
X617700Y255750D01*
X606500D01*
Y246250D01*
Y245271D01*
X604652Y244506D01*
X598788Y250369D01*
Y297000D01*
X597679Y299679D01*
X597679Y299679D01*
X553457Y343900D01*
X554200Y345900D01*
X555300D01*
Y345900D01*
X566900D01*
Y353212D01*
X569531D01*
X570609Y350609D01*
X577000Y347962D01*
X583391Y350609D01*
X585868Y356589D01*
X591294Y354341D01*
X611600D01*
X617723Y356877D01*
X651075Y390229D01*
X651600Y390011D01*
X652125Y390229D01*
X754877Y287477D01*
X756584Y286770D01*
X762877Y280477D01*
X763588Y280183D01*
Y252484D01*
X761588Y252086D01*
X759391Y257391D01*
X753000Y260038D01*
X746609Y257391D01*
X743962Y251000D01*
X746609Y244609D01*
X746716Y244073D01*
X741500Y238857D01*
X739500Y238955D01*
Y239750D01*
Y246250D01*
Y255750D01*
X736788D01*
Y276531D01*
X739391Y277609D01*
X742038Y284000D01*
X739391Y290391D01*
X733000Y293038D01*
X726609Y290391D01*
X725496Y287703D01*
X723331D01*
X721389Y292390D01*
X714999Y295037D01*
X710451Y293154D01*
X708788Y294265D01*
Y313531D01*
X711391Y314609D01*
X714038Y321000D01*
X711391Y327391D01*
X705000Y330038D01*
X698609Y327391D01*
X695962Y321000D01*
X698609Y314609D01*
X701212Y313531D01*
Y277500D01*
X698834D01*
X697497Y279500D01*
X697786Y280198D01*
X697786Y280198D01*
Y297000D01*
X697786Y297000D01*
X696677Y299679D01*
X695959Y300397D01*
X697037Y302999D01*
X694389Y309390D01*
X687999Y312037D01*
X681608Y309390D01*
X678961Y302999D01*
X681608Y296609D01*
X687999Y293961D01*
X688547Y294188D01*
X690210Y293077D01*
Y281767D01*
X686321Y277878D01*
X686164Y277500D01*
X678290D01*
Y278040D01*
X674270D01*
Y268000D01*
Y257960D01*
X678290D01*
Y258500D01*
X692670D01*
Y251830D01*
X691609Y251391D01*
X688962Y245000D01*
X691609Y238609D01*
X698000Y235962D01*
X704391Y238609D01*
X707038Y245000D01*
X704391Y251391D01*
X701329Y252659D01*
Y258500D01*
X717750D01*
Y277500D01*
X719245Y278720D01*
X721389Y279609D01*
X722503Y282297D01*
X724668D01*
X726609Y277609D01*
X729212Y276531D01*
Y255750D01*
X720500D01*
Y246250D01*
Y238250D01*
Y230250D01*
Y222250D01*
Y216290D01*
X719960D01*
Y212270D01*
X740040D01*
Y213588D01*
X762000D01*
Y212000D01*
X776000D01*
Y226000D01*
X774412D01*
Y280183D01*
X775123Y280477D01*
X776972Y284941D01*
X792213D01*
X796250Y280904D01*
Y278904D01*
X783346Y266000D01*
X777000D01*
Y252000D01*
X791000D01*
Y258346D01*
X803598Y270945D01*
X805877Y271277D01*
X812000Y268741D01*
X817598D01*
X817816Y268216D01*
X823889Y265700D01*
Y263700D01*
X817816Y261184D01*
X814011Y252000D01*
X817816Y242816D01*
X823212Y240581D01*
Y232000D01*
X820000D01*
Y222971D01*
X818152Y222205D01*
X815000Y225358D01*
Y232000D01*
X801000D01*
Y231186D01*
X799000Y230358D01*
X791000Y238358D01*
Y247000D01*
X777000D01*
Y233000D01*
X785642D01*
X790255Y228388D01*
X789489Y226540D01*
X789270D01*
Y220270D01*
X795540D01*
Y220489D01*
X797540Y221816D01*
X799000Y221212D01*
X801000D01*
Y218000D01*
X810343D01*
X810656Y217540D01*
X809596Y215540D01*
X809270D01*
Y209270D01*
X815540D01*
Y211489D01*
X817388Y212255D01*
X820000Y209642D01*
Y201000D01*
X834000D01*
Y215000D01*
X825666D01*
X824818Y216063D01*
X825676Y218000D01*
X834000D01*
Y232000D01*
X830788D01*
Y240581D01*
X836184Y242816D01*
X839989Y252000D01*
X836184Y261184D01*
X830111Y263700D01*
Y265700D01*
X836184Y268216D01*
X839989Y277400D01*
X836184Y286584D01*
X830793Y288818D01*
X830989Y290808D01*
X831893Y290988D01*
X836041Y293759D01*
X838812Y297907D01*
X839533Y301530D01*
X814467D01*
X815188Y297907D01*
X817959Y293759D01*
X822107Y290988D01*
X823011Y290808D01*
X823207Y288818D01*
X817816Y286584D01*
X817598Y286059D01*
X815587D01*
X801923Y299723D01*
X795800Y302259D01*
X764587D01*
X664371Y402475D01*
X664589Y403000D01*
X660784Y412184D01*
X660259Y412402D01*
Y593013D01*
X680587Y613341D01*
X833598D01*
X833816Y612816D01*
X843000Y609011D01*
X852184Y612816D01*
X855989Y622000D01*
X852184Y631184D01*
X846793Y633418D01*
X846989Y635408D01*
X847893Y635588D01*
X852041Y638359D01*
X854812Y642507D01*
X855533Y646130D01*
X830467D01*
X831188Y642507D01*
X833959Y638359D01*
X838107Y635588D01*
X839011Y635408D01*
X839207Y633418D01*
X833816Y631184D01*
X833598Y630659D01*
X677000D01*
X677000Y630659D01*
X672670Y628866D01*
X670877Y628123D01*
X670877Y628123D01*
X662107Y619353D01*
X660259Y620118D01*
Y693400D01*
X657723Y699523D01*
X653094Y704152D01*
X653859Y706000D01*
X898000D01*
Y2000D01*
D02*
G37*
G36*
X642941Y689813D02*
Y596600D01*
Y412402D01*
X642416Y412184D01*
X638611Y403000D01*
X638829Y402475D01*
X630267Y393913D01*
X628572Y395046D01*
X631038Y401000D01*
X628391Y407391D01*
X627788Y407640D01*
Y629500D01*
X626679Y632179D01*
X626679Y632179D01*
X560044Y698813D01*
X560536Y700000D01*
X558879Y704000D01*
X560063Y706000D01*
X626754D01*
X642941Y689813D01*
D02*
G37*
G36*
X575027Y367021D02*
X574637Y365059D01*
X570609Y363391D01*
X569531Y360788D01*
X566900D01*
Y367700D01*
X555300D01*
Y367700D01*
X554200D01*
Y367700D01*
X545182D01*
X544354Y369700D01*
X548994Y374341D01*
X567707D01*
X575027Y367021D01*
D02*
G37*
G36*
X426212Y610777D02*
Y567000D01*
X426212Y567000D01*
X427321Y564321D01*
X602003Y389640D01*
X601856Y387469D01*
X600303Y386256D01*
X596000Y388038D01*
X593397Y386960D01*
X422788Y557569D01*
Y610929D01*
X424619Y611801D01*
X426212Y610777D01*
D02*
G37*
G36*
X606500Y198250D02*
Y190788D01*
X603000D01*
X603000Y190788D01*
X601106Y190004D01*
X600321Y189679D01*
X600321Y189679D01*
X597431Y186788D01*
X580183D01*
X578879Y188788D01*
X581038Y194000D01*
X580633Y194979D01*
X586827Y201173D01*
X586827Y201173D01*
X587584Y203000D01*
X590000D01*
Y205588D01*
X606500D01*
Y198250D01*
D02*
G37*
G36*
X44000Y696962D02*
X46061Y697816D01*
X439280Y304597D01*
X436962Y299000D01*
X439091Y293860D01*
X437395Y292728D01*
X37184Y692939D01*
X38038Y695000D01*
X36905Y697736D01*
X38435Y699267D01*
X44000Y696962D01*
D02*
G37*
G36*
X729321Y131321D02*
X729321Y131321D01*
X732000Y130212D01*
X738291D01*
X738682Y128250D01*
X737316Y127684D01*
X734659Y121270D01*
X745000D01*
Y120000D01*
X746270D01*
Y109659D01*
X752684Y112316D01*
X753707Y114785D01*
X755707D01*
X756316Y113316D01*
X762730Y110659D01*
Y121000D01*
X765270D01*
Y110659D01*
X769657Y112476D01*
X770133Y112000D01*
X773316Y104316D01*
X779730Y101659D01*
Y112000D01*
X782270D01*
Y101659D01*
X788684Y104316D01*
X790942Y109766D01*
X792960Y110208D01*
X794212Y109106D01*
Y93770D01*
X792212Y92880D01*
X786270Y95341D01*
Y85000D01*
X785000D01*
Y83730D01*
X774659D01*
X777316Y77316D01*
X780492Y76000D01*
Y74000D01*
X777316Y72684D01*
X774659Y66270D01*
X785000D01*
Y63730D01*
X774659D01*
X777316Y57316D01*
X781699Y55500D01*
Y53500D01*
X777316Y51684D01*
X774659Y45270D01*
X785000D01*
Y42730D01*
X774659D01*
X776559Y38144D01*
X775028Y36613D01*
X773270Y37341D01*
Y27000D01*
X772000D01*
Y25730D01*
X761659D01*
X764316Y19316D01*
X771255Y16441D01*
X771927Y14285D01*
X767431Y9788D01*
X759770D01*
X758880Y11788D01*
X761341Y17730D01*
X751000D01*
Y19000D01*
X749730D01*
Y29341D01*
X743316Y26684D01*
X742500Y24715D01*
X740500D01*
X739684Y26684D01*
X733270Y29341D01*
Y19000D01*
X730730D01*
Y29341D01*
X724316Y26684D01*
X723500Y24715D01*
X721500D01*
X720684Y26684D01*
X714270Y29341D01*
Y19000D01*
X711730D01*
Y29341D01*
X705316Y26684D01*
X704000Y23508D01*
X702000D01*
X700684Y26684D01*
X694270Y29341D01*
Y19000D01*
X691730D01*
Y29341D01*
X685316Y26684D01*
X683793Y23008D01*
X681793D01*
X680684Y25684D01*
X674270Y28341D01*
Y18000D01*
X671730D01*
Y28341D01*
X665316Y25684D01*
X664000Y22508D01*
X662000D01*
X660684Y25684D01*
X654270Y28341D01*
Y18000D01*
X651730D01*
Y28341D01*
X645316Y25684D01*
X642875Y19792D01*
X640711D01*
X638684Y24684D01*
X632270Y27341D01*
Y17000D01*
X629730D01*
Y27341D01*
X623316Y24684D01*
X622207Y22008D01*
X620207D01*
X618684Y25684D01*
X612270Y28341D01*
Y18000D01*
X611000D01*
Y16730D01*
X600659D01*
X602706Y11788D01*
X601369Y9788D01*
X413669D01*
X364088Y59369D01*
X365746Y63371D01*
X367854D01*
X371081Y55581D01*
X379500Y52094D01*
X387919Y55581D01*
X391146Y63371D01*
X393254D01*
X396481Y55581D01*
X404900Y52094D01*
X413319Y55581D01*
X416546Y63371D01*
X418654D01*
X421881Y55581D01*
X430300Y52094D01*
X438719Y55581D01*
X441946Y63371D01*
X444054D01*
X447281Y55581D01*
X455700Y52094D01*
X464119Y55581D01*
X467346Y63371D01*
X469454D01*
X472681Y55581D01*
X481100Y52094D01*
X489519Y55581D01*
X492746Y63371D01*
X494854D01*
X498081Y55581D01*
X506500Y52094D01*
X514919Y55581D01*
X518146Y63371D01*
X520254D01*
X523481Y55581D01*
X531900Y52094D01*
X540319Y55581D01*
X543806Y64000D01*
X540319Y72419D01*
X535688Y74337D01*
Y84260D01*
X575555Y124126D01*
X594144D01*
X595084Y122126D01*
X592659Y116270D01*
X613341D01*
X610915Y122126D01*
X611856Y124126D01*
X644703D01*
X646460Y123540D01*
X646460Y122126D01*
Y117270D01*
X661540D01*
Y123540D01*
X653953D01*
X653649Y124101D01*
X653340Y125540D01*
X665740Y137940D01*
X667588Y137175D01*
Y123000D01*
X666000D01*
Y109000D01*
X678369D01*
X679406Y107000D01*
X678701Y106000D01*
X677000D01*
Y101357D01*
X674388Y98745D01*
X672540Y99511D01*
Y106540D01*
X666270D01*
Y99000D01*
X665000D01*
Y97730D01*
X657460D01*
Y91460D01*
X664489D01*
X665255Y89612D01*
X648642Y73000D01*
X612500D01*
Y49000D01*
X671500D01*
Y73000D01*
X661971D01*
X661205Y74848D01*
X678358Y92000D01*
X691000D01*
Y106000D01*
X687788D01*
Y122431D01*
X691679Y126321D01*
X691679Y126321D01*
X691918Y126898D01*
X694082D01*
X694321Y126321D01*
X702212Y118431D01*
Y106000D01*
X699000D01*
Y92000D01*
X707642D01*
X724795Y74848D01*
X724029Y73000D01*
X707500D01*
Y49000D01*
X766500D01*
Y73000D01*
X737358D01*
X720745Y89612D01*
X721511Y91460D01*
X723730D01*
Y97730D01*
X717460D01*
Y95511D01*
X715612Y94745D01*
X713000Y97358D01*
Y106000D01*
X709788D01*
Y120000D01*
X709788Y120000D01*
X709234Y121339D01*
X708679Y122679D01*
X708679Y122679D01*
X700788Y130569D01*
Y144500D01*
X716142D01*
X729321Y131321D01*
D02*
G37*
%LPC*%
G36*
X32300Y232065D02*
X24264Y228736D01*
X20935Y220700D01*
X24264Y212664D01*
X32300Y209335D01*
X40336Y212664D01*
X43665Y220700D01*
X40336Y228736D01*
X32300Y232065D01*
D02*
G37*
G36*
X57700D02*
X49664Y228736D01*
X46335Y220700D01*
X49664Y212664D01*
X57700Y209335D01*
X65736Y212664D01*
X69065Y220700D01*
X65736Y228736D01*
X57700Y232065D01*
D02*
G37*
G36*
X881730Y203730D02*
X872659D01*
X875316Y197316D01*
X881730Y194659D01*
Y203730D01*
D02*
G37*
G36*
X57700Y206665D02*
X49664Y203336D01*
X46335Y195300D01*
X49664Y187264D01*
X57700Y183935D01*
X65736Y187264D01*
X69065Y195300D01*
X65736Y203336D01*
X57700Y206665D01*
D02*
G37*
G36*
X682270Y192096D02*
Y184270D01*
X690096D01*
X687804Y189804D01*
X682270Y192096D01*
D02*
G37*
G36*
X562730Y217540D02*
X556460D01*
Y211270D01*
X562730D01*
Y217540D01*
D02*
G37*
G36*
X893341Y203730D02*
X884270D01*
Y194659D01*
X890684Y197316D01*
X893341Y203730D01*
D02*
G37*
G36*
X806730Y206730D02*
X800460D01*
Y200460D01*
X806730D01*
Y206730D01*
D02*
G37*
G36*
X815540D02*
X809270D01*
Y200460D01*
X815540D01*
Y206730D01*
D02*
G37*
G36*
X562730Y208730D02*
X556460D01*
Y202460D01*
X562730D01*
Y208730D01*
D02*
G37*
G36*
X806730Y215540D02*
X800460D01*
Y209270D01*
X806730D01*
Y215540D01*
D02*
G37*
G36*
X884270Y215341D02*
Y206270D01*
X893341D01*
X890684Y212684D01*
X884270Y215341D01*
D02*
G37*
G36*
X881730D02*
X875316Y212684D01*
X872659Y206270D01*
X881730D01*
Y215341D01*
D02*
G37*
G36*
X32300Y308265D02*
X24264Y304936D01*
X20935Y296900D01*
X24264Y288864D01*
X32300Y285535D01*
X40336Y288864D01*
X43665Y296900D01*
X40336Y304936D01*
X32300Y308265D01*
D02*
G37*
G36*
X57700D02*
X49664Y304936D01*
X46335Y296900D01*
X49664Y288864D01*
X57700Y285535D01*
X65736Y288864D01*
X69065Y296900D01*
X65736Y304936D01*
X57700Y308265D01*
D02*
G37*
G36*
X56430Y282924D02*
X49250Y279950D01*
X46276Y272770D01*
X56430D01*
Y282924D01*
D02*
G37*
G36*
X58970D02*
Y272770D01*
X69124D01*
X66150Y279950D01*
X58970Y282924D01*
D02*
G37*
G36*
X562370Y315720D02*
Y305550D01*
X567440D01*
Y315720D01*
X562370D01*
D02*
G37*
G36*
X32300Y333665D02*
X24264Y330336D01*
X20935Y322300D01*
X24264Y314264D01*
X32300Y310935D01*
X40336Y314264D01*
X43665Y322300D01*
X40336Y330336D01*
X32300Y333665D01*
D02*
G37*
G36*
X567440Y303010D02*
X562370D01*
Y292840D01*
X567440D01*
Y303010D01*
D02*
G37*
G36*
X827000Y391989D02*
X817816Y388184D01*
X814011Y379000D01*
X817816Y369816D01*
X823889Y367300D01*
Y365300D01*
X817816Y362784D01*
X814011Y353600D01*
X817816Y344416D01*
X823889Y341900D01*
Y339900D01*
X817816Y337384D01*
X814011Y328200D01*
X817816Y319016D01*
X823207Y316782D01*
X823011Y314792D01*
X822107Y314612D01*
X817959Y311841D01*
X815188Y307693D01*
X814467Y304070D01*
X839533D01*
X838812Y307693D01*
X836041Y311841D01*
X831893Y314612D01*
X830989Y314792D01*
X830793Y316782D01*
X836184Y319016D01*
X839989Y328200D01*
X836184Y337384D01*
X830111Y339900D01*
Y341900D01*
X836184Y344416D01*
X839989Y353600D01*
X836184Y362784D01*
X830111Y365300D01*
Y367300D01*
X836184Y369816D01*
X839989Y379000D01*
X836184Y388184D01*
X827000Y391989D01*
D02*
G37*
G36*
X32300Y282865D02*
X24264Y279536D01*
X20935Y271500D01*
X24264Y263464D01*
X32300Y260135D01*
X40336Y263464D01*
X43665Y271500D01*
X40336Y279536D01*
X32300Y282865D01*
D02*
G37*
G36*
X795540Y217730D02*
X789270D01*
Y211460D01*
X795540D01*
Y217730D01*
D02*
G37*
G36*
X786730Y226540D02*
X780460D01*
Y220270D01*
X786730D01*
Y226540D01*
D02*
G37*
G36*
X571540Y217540D02*
X565270D01*
Y211270D01*
X571540D01*
Y217540D01*
D02*
G37*
G36*
X786730Y217730D02*
X780460D01*
Y211460D01*
X786730D01*
Y217730D01*
D02*
G37*
G36*
X56430Y270230D02*
X46276D01*
X49250Y263050D01*
X56430Y260077D01*
Y270230D01*
D02*
G37*
G36*
X69124D02*
X58970D01*
Y260077D01*
X66150Y263050D01*
X69124Y270230D01*
D02*
G37*
G36*
X32300Y257465D02*
X24264Y254136D01*
X20935Y246100D01*
X24264Y238064D01*
X32300Y234735D01*
X40336Y238064D01*
X43665Y246100D01*
X40336Y254136D01*
X32300Y257465D01*
D02*
G37*
G36*
X57700D02*
X49664Y254136D01*
X46335Y246100D01*
X49664Y238064D01*
X57700Y234735D01*
X65736Y238064D01*
X69065Y246100D01*
X65736Y254136D01*
X57700Y257465D01*
D02*
G37*
G36*
X783730Y95341D02*
X777316Y92684D01*
X774659Y86270D01*
X783730D01*
Y95341D01*
D02*
G37*
G36*
X732540Y97730D02*
X726270D01*
Y91460D01*
X732540D01*
Y97730D01*
D02*
G37*
G36*
X69124Y92430D02*
X58970D01*
Y82276D01*
X66150Y85250D01*
X69124Y92430D01*
D02*
G37*
G36*
X32300Y105065D02*
X24264Y101736D01*
X20935Y93700D01*
X24264Y85664D01*
X32300Y82335D01*
X40336Y85664D01*
X43665Y93700D01*
X40336Y101736D01*
X32300Y105065D01*
D02*
G37*
G36*
X56430Y105124D02*
X49250Y102150D01*
X46276Y94970D01*
X56430D01*
Y105124D01*
D02*
G37*
G36*
X595270Y104341D02*
Y95270D01*
X604341D01*
X601684Y101684D01*
X595270Y104341D01*
D02*
G37*
G36*
X661540Y114730D02*
X655270D01*
Y108460D01*
X657267D01*
Y108460D01*
X657460Y106540D01*
X657460Y106460D01*
Y100270D01*
X663730D01*
Y106540D01*
X661733D01*
X661540Y108460D01*
X661540Y108540D01*
Y114730D01*
D02*
G37*
G36*
X58970Y105124D02*
Y94970D01*
X69124D01*
X66150Y102150D01*
X58970Y105124D01*
D02*
G37*
G36*
X592730Y104341D02*
X586316Y101684D01*
X583659Y95270D01*
X592730D01*
Y104341D01*
D02*
G37*
G36*
X593730Y30730D02*
X584659D01*
X587316Y24316D01*
X593730Y21659D01*
Y30730D01*
D02*
G37*
G36*
X770730Y37341D02*
X764316Y34684D01*
X761659Y28270D01*
X770730D01*
Y37341D01*
D02*
G37*
G36*
X605341Y30730D02*
X596270D01*
Y21659D01*
X600149Y23266D01*
X601680Y21735D01*
X600659Y19270D01*
X609730D01*
Y28341D01*
X605851Y26734D01*
X604320Y28265D01*
X605341Y30730D01*
D02*
G37*
G36*
X752270Y29341D02*
Y20270D01*
X761341D01*
X758684Y26684D01*
X752270Y29341D01*
D02*
G37*
G36*
X604341Y51730D02*
X583659D01*
X586316Y45316D01*
X591199Y43293D01*
Y41293D01*
X587316Y39684D01*
X584659Y33270D01*
X605341D01*
X602684Y39684D01*
X597801Y41707D01*
Y43707D01*
X601684Y45316D01*
X604341Y51730D01*
D02*
G37*
G36*
Y92730D02*
X583659D01*
X586316Y86316D01*
X591707Y84082D01*
Y81918D01*
X586316Y79684D01*
X583659Y73270D01*
X604341D01*
X601684Y79684D01*
X596292Y81918D01*
Y84082D01*
X601684Y86316D01*
X604341Y92730D01*
D02*
G37*
G36*
X56430Y92430D02*
X46276D01*
X49250Y85250D01*
X56430Y82276D01*
Y92430D01*
D02*
G37*
G36*
X693099Y222888D02*
X686708Y220241D01*
X684061Y213850D01*
X686708Y207459D01*
X689310Y206381D01*
Y200099D01*
X689310Y200099D01*
X690420Y197420D01*
X711519Y176321D01*
X711519Y176321D01*
X712303Y175996D01*
X714197Y175212D01*
X714198Y175212D01*
X720500D01*
Y174250D01*
Y166250D01*
X739500D01*
Y167212D01*
X754431D01*
X811321Y110321D01*
X811321Y110321D01*
X812106Y109996D01*
X814000Y109212D01*
X814000Y109212D01*
X820376D01*
X821413Y107212D01*
X818385Y99900D01*
X821714Y91864D01*
X828400Y89094D01*
Y86929D01*
X820566Y83684D01*
X816761Y74500D01*
X820566Y65316D01*
X826639Y62800D01*
Y60800D01*
X820566Y58284D01*
X816761Y49100D01*
X820566Y39916D01*
X829750Y36111D01*
X838934Y39916D01*
X841450Y45989D01*
X843450D01*
X845966Y39916D01*
X855150Y36111D01*
X864334Y39916D01*
X868139Y49100D01*
X864334Y58284D01*
X858261Y60800D01*
Y62800D01*
X864334Y65316D01*
X868139Y74500D01*
X864334Y83684D01*
X858261Y86200D01*
Y88200D01*
X864334Y90716D01*
X868139Y99900D01*
X864334Y109084D01*
X858261Y111600D01*
Y113600D01*
X864334Y116116D01*
X868139Y125300D01*
X864334Y134484D01*
X858943Y136718D01*
X859139Y138708D01*
X860043Y138888D01*
X864191Y141659D01*
X866962Y145807D01*
X867683Y149430D01*
X855150D01*
Y150700D01*
X853880D01*
Y163233D01*
X850257Y162512D01*
X846109Y159741D01*
X843338Y155593D01*
X843158Y154689D01*
X841168Y154493D01*
X838934Y159884D01*
X829750Y163689D01*
X820566Y159884D01*
X816761Y150700D01*
X820566Y141516D01*
X828400Y138271D01*
Y136106D01*
X821714Y133336D01*
X820302Y133056D01*
X747679Y205679D01*
X745000Y206788D01*
X745000Y206788D01*
X740040D01*
Y209730D01*
X719960D01*
Y205710D01*
X720500D01*
Y198250D01*
X720630D01*
Y191750D01*
X720500D01*
Y183750D01*
Y182788D01*
X715767D01*
X696887Y201668D01*
Y206381D01*
X699490Y207459D01*
X702137Y213850D01*
X699490Y220241D01*
X693099Y222888D01*
D02*
G37*
G36*
X604341Y70730D02*
X583659D01*
X586316Y64316D01*
X588285Y63500D01*
Y61500D01*
X586316Y60684D01*
X583659Y54270D01*
X604341D01*
X601684Y60684D01*
X599715Y61500D01*
Y63500D01*
X601684Y64316D01*
X604341Y70730D01*
D02*
G37*
G36*
X31030Y168630D02*
X20877D01*
X23850Y161450D01*
X31030Y158476D01*
Y168630D01*
D02*
G37*
G36*
X43724D02*
X33570D01*
Y158476D01*
X40750Y161450D01*
X43724Y168630D01*
D02*
G37*
G36*
X57700Y155865D02*
X49664Y152536D01*
X46335Y144500D01*
X49664Y136464D01*
X57700Y133135D01*
X65736Y136464D01*
X69065Y144500D01*
X65736Y152536D01*
X57700Y155865D01*
D02*
G37*
G36*
X856420Y163233D02*
Y151970D01*
X867683D01*
X866962Y155593D01*
X864191Y159741D01*
X860043Y162512D01*
X856420Y163233D01*
D02*
G37*
G36*
X57700Y181265D02*
X49664Y177936D01*
X46335Y169900D01*
X49664Y161864D01*
X57700Y158535D01*
X65736Y161864D01*
X69065Y169900D01*
X65736Y177936D01*
X57700Y181265D01*
D02*
G37*
G36*
X690096Y181730D02*
X682270D01*
Y173904D01*
X687804Y176196D01*
X690096Y181730D01*
D02*
G37*
G36*
X32300Y206665D02*
X24264Y203336D01*
X20935Y195300D01*
X24264Y187264D01*
X32300Y183935D01*
X40336Y187264D01*
X43665Y195300D01*
X40336Y203336D01*
X32300Y206665D01*
D02*
G37*
G36*
X31030Y181324D02*
X23850Y178350D01*
X20877Y171170D01*
X31030D01*
Y181324D01*
D02*
G37*
G36*
X33570D02*
Y171170D01*
X43724D01*
X40750Y178350D01*
X33570Y181324D01*
D02*
G37*
G36*
X601730Y113730D02*
X592659D01*
X595316Y107316D01*
X601730Y104659D01*
Y113730D01*
D02*
G37*
G36*
X613341D02*
X604270D01*
Y104659D01*
X610684Y107316D01*
X613341Y113730D01*
D02*
G37*
G36*
X723730Y106540D02*
X717460D01*
Y100270D01*
X723730D01*
Y106540D01*
D02*
G37*
G36*
X732540D02*
X726270D01*
Y100270D01*
X732540D01*
Y106540D01*
D02*
G37*
G36*
X32300Y130465D02*
X24264Y127136D01*
X20935Y119100D01*
X24264Y111064D01*
X32300Y107735D01*
X40336Y111064D01*
X43665Y119100D01*
X40336Y127136D01*
X32300Y130465D01*
D02*
G37*
G36*
X743730Y118730D02*
X734659D01*
X737316Y112316D01*
X743730Y109659D01*
Y118730D01*
D02*
G37*
G36*
X32300Y155865D02*
X24264Y152536D01*
X20935Y144500D01*
X24264Y136464D01*
X32300Y133135D01*
X40336Y136464D01*
X43665Y144500D01*
X40336Y152536D01*
X32300Y155865D01*
D02*
G37*
G36*
X57700Y130465D02*
X49664Y127136D01*
X46335Y119100D01*
X49664Y111064D01*
X57700Y107735D01*
X65736Y111064D01*
X69065Y119100D01*
X65736Y127136D01*
X57700Y130465D01*
D02*
G37*
G36*
X652730Y114730D02*
X646460D01*
Y108460D01*
X652730D01*
Y114730D01*
D02*
G37*
G36*
X32300Y562265D02*
X24264Y558936D01*
X20935Y550900D01*
X24264Y542864D01*
X32300Y539535D01*
X40336Y542864D01*
X43665Y550900D01*
X40336Y558936D01*
X32300Y562265D01*
D02*
G37*
G36*
X57700D02*
X49664Y558936D01*
X46335Y550900D01*
X49664Y542864D01*
X57700Y539535D01*
X65736Y542864D01*
X69065Y550900D01*
X65736Y558936D01*
X57700Y562265D01*
D02*
G37*
G36*
X31030Y536923D02*
X23850Y533950D01*
X20877Y526770D01*
X31030D01*
Y536923D01*
D02*
G37*
G36*
X33570D02*
Y526770D01*
X43724D01*
X40750Y533950D01*
X33570Y536923D01*
D02*
G37*
G36*
X32300Y587665D02*
X24264Y584336D01*
X20935Y576300D01*
X24264Y568264D01*
X32300Y564935D01*
X40336Y568264D01*
X43665Y576300D01*
X40336Y584336D01*
X32300Y587665D01*
D02*
G37*
G36*
X718730Y598540D02*
X712460D01*
Y592270D01*
X718730D01*
Y598540D01*
D02*
G37*
G36*
X727540D02*
X721270D01*
Y592270D01*
X727540D01*
Y598540D01*
D02*
G37*
G36*
X57700Y587665D02*
X49664Y584336D01*
X46335Y576300D01*
X49664Y568264D01*
X57700Y564935D01*
X65736Y568264D01*
X69065Y576300D01*
X65736Y584336D01*
X57700Y587665D01*
D02*
G37*
G36*
X727540Y589730D02*
X721270D01*
Y583460D01*
X727540D01*
Y589730D01*
D02*
G37*
G36*
X31030Y524230D02*
X20877D01*
X23850Y517050D01*
X31030Y514076D01*
Y524230D01*
D02*
G37*
G36*
X43724D02*
X33570D01*
Y514076D01*
X40750Y517050D01*
X43724Y524230D01*
D02*
G37*
G36*
X865730Y523730D02*
X847330D01*
X848594Y517376D01*
X852912Y510912D01*
X859376Y506594D01*
X865730Y505330D01*
Y523730D01*
D02*
G37*
G36*
X886670D02*
X868270D01*
Y505330D01*
X874624Y506594D01*
X881087Y510912D01*
X885406Y517376D01*
X886670Y523730D01*
D02*
G37*
G36*
X57700Y536865D02*
X49664Y533536D01*
X46335Y525500D01*
X49664Y517464D01*
X57700Y514135D01*
X65736Y517464D01*
X69065Y525500D01*
X65736Y533536D01*
X57700Y536865D01*
D02*
G37*
G36*
X865730Y544670D02*
X859376Y543406D01*
X852912Y539087D01*
X848594Y532624D01*
X847330Y526270D01*
X865730D01*
Y544670D01*
D02*
G37*
G36*
X868270D02*
Y526270D01*
X886670D01*
X885406Y532624D01*
X881087Y539087D01*
X874624Y543406D01*
X868270Y544670D01*
D02*
G37*
G36*
X723730Y549040D02*
X709460D01*
Y526270D01*
X723730D01*
Y549040D01*
D02*
G37*
G36*
X740540D02*
X726270D01*
Y526270D01*
X740540D01*
Y549040D01*
D02*
G37*
G36*
X844270Y659933D02*
Y648670D01*
X855533D01*
X854812Y652293D01*
X852041Y656441D01*
X847893Y659212D01*
X844270Y659933D01*
D02*
G37*
G36*
X577730Y658341D02*
X571316Y655684D01*
X568659Y649270D01*
X577730D01*
Y658341D01*
D02*
G37*
G36*
X446540Y648730D02*
X440270D01*
Y642460D01*
X446540D01*
Y648730D01*
D02*
G37*
G36*
X841730Y659933D02*
X838107Y659212D01*
X833959Y656441D01*
X831188Y652293D01*
X830467Y648670D01*
X841730D01*
Y659933D01*
D02*
G37*
G36*
X580270Y658341D02*
Y649270D01*
X589341D01*
X586684Y655684D01*
X580270Y658341D01*
D02*
G37*
G36*
X437730Y657540D02*
X431460D01*
Y651270D01*
X437730D01*
Y657540D01*
D02*
G37*
G36*
X446540D02*
X440270D01*
Y651270D01*
X446540D01*
Y657540D01*
D02*
G37*
G36*
X476730Y656540D02*
X470460D01*
Y650270D01*
X476730D01*
Y656540D01*
D02*
G37*
G36*
X560540D02*
X554270D01*
Y650270D01*
X560540D01*
Y656540D01*
D02*
G37*
G36*
X476730Y647730D02*
X470460D01*
Y641460D01*
X476730D01*
Y647730D01*
D02*
G37*
G36*
X491730Y656540D02*
X479270D01*
Y649000D01*
Y641460D01*
X491730D01*
Y649000D01*
Y656540D01*
D02*
G37*
G36*
X577730Y646730D02*
X568659D01*
X571316Y640316D01*
X577730Y637659D01*
Y646730D01*
D02*
G37*
G36*
X589341D02*
X580270D01*
Y637659D01*
X586684Y640316D01*
X589341Y646730D01*
D02*
G37*
G36*
X506730Y656540D02*
X494270D01*
Y649000D01*
Y641460D01*
X506730D01*
Y649000D01*
Y656540D01*
D02*
G37*
G36*
X551730D02*
X539270D01*
Y649000D01*
Y641460D01*
X551730D01*
Y649000D01*
Y656540D01*
D02*
G37*
G36*
X560540Y647730D02*
X554270D01*
Y641460D01*
X560540D01*
Y647730D01*
D02*
G37*
G36*
X521730Y656540D02*
X509270D01*
Y649000D01*
Y641460D01*
X521730D01*
Y649000D01*
Y656540D01*
D02*
G37*
G36*
X536730D02*
X524270D01*
Y649000D01*
Y641460D01*
X536730D01*
Y649000D01*
Y656540D01*
D02*
G37*
G36*
X740540Y523730D02*
X726270D01*
Y500960D01*
X740540D01*
Y523730D01*
D02*
G37*
G36*
X31030Y359123D02*
X23850Y356150D01*
X20877Y348970D01*
X31030D01*
Y359123D01*
D02*
G37*
G36*
X33570D02*
Y348970D01*
X43724D01*
X40750Y356150D01*
X33570Y359123D01*
D02*
G37*
G36*
X477270Y354096D02*
Y345000D01*
Y335904D01*
X482804Y338196D01*
X484460Y342194D01*
X486460Y341796D01*
Y338270D01*
X492730D01*
Y344540D01*
X487470D01*
X486188Y344859D01*
X485201Y346018D01*
X482804Y351804D01*
X477270Y354096D01*
D02*
G37*
G36*
X501540Y344540D02*
X495270D01*
Y338270D01*
X501540D01*
Y344540D01*
D02*
G37*
G36*
X32300Y384465D02*
X24264Y381136D01*
X20935Y373100D01*
X24264Y365064D01*
X32300Y361735D01*
X40336Y365064D01*
X43665Y373100D01*
X40336Y381136D01*
X32300Y384465D01*
D02*
G37*
G36*
X57700Y409865D02*
X49664Y406536D01*
X46335Y398500D01*
X49664Y390464D01*
X57700Y387135D01*
X65736Y390464D01*
X69065Y398500D01*
X65736Y406536D01*
X57700Y409865D01*
D02*
G37*
G36*
X31030Y422630D02*
X20877D01*
X23850Y415450D01*
X31030Y412477D01*
Y422630D01*
D02*
G37*
G36*
X57700Y384465D02*
X49664Y381136D01*
X46335Y373100D01*
X49664Y365064D01*
X57700Y361735D01*
X65736Y365064D01*
X69065Y373100D01*
X65736Y381136D01*
X57700Y384465D01*
D02*
G37*
G36*
X32300Y409865D02*
X24264Y406536D01*
X20935Y398500D01*
X24264Y390464D01*
X32300Y387135D01*
X40336Y390464D01*
X43665Y398500D01*
X40336Y406536D01*
X32300Y409865D01*
D02*
G37*
G36*
X57700Y359065D02*
X49664Y355736D01*
X46335Y347700D01*
X49664Y339664D01*
X57700Y336335D01*
X65736Y339664D01*
X69065Y347700D01*
X65736Y355736D01*
X57700Y359065D01*
D02*
G37*
G36*
X672540Y323730D02*
X666270D01*
Y317460D01*
X672540D01*
Y323730D01*
D02*
G37*
G36*
X663730Y332540D02*
X657460D01*
Y326270D01*
X663730D01*
Y332540D01*
D02*
G37*
G36*
X57700Y333665D02*
X49664Y330336D01*
X46335Y322300D01*
X49664Y314264D01*
X57700Y310935D01*
X65736Y314264D01*
X69065Y322300D01*
X65736Y330336D01*
X57700Y333665D01*
D02*
G37*
G36*
X663730Y323730D02*
X657460D01*
Y317460D01*
X663730D01*
Y323730D01*
D02*
G37*
G36*
X672540Y332540D02*
X666270D01*
Y326270D01*
X672540D01*
Y332540D01*
D02*
G37*
G36*
X31030Y346430D02*
X20877D01*
X23850Y339250D01*
X31030Y336277D01*
Y346430D01*
D02*
G37*
G36*
X43724D02*
X33570D01*
Y336277D01*
X40750Y339250D01*
X43724Y346430D01*
D02*
G37*
G36*
X492730Y335730D02*
X486460D01*
Y329460D01*
X492730D01*
Y335730D01*
D02*
G37*
G36*
X501540D02*
X495270D01*
Y329460D01*
X501540D01*
Y335730D01*
D02*
G37*
G36*
X774540Y450540D02*
X768270D01*
Y444270D01*
X774540D01*
Y450540D01*
D02*
G37*
G36*
X32300Y486065D02*
X24264Y482736D01*
X20935Y474700D01*
X24264Y466664D01*
X32300Y463335D01*
X40336Y466664D01*
X43665Y474700D01*
X40336Y482736D01*
X32300Y486065D01*
D02*
G37*
G36*
X57700Y460665D02*
X49664Y457336D01*
X46335Y449300D01*
X49664Y441264D01*
X57700Y437935D01*
X65736Y441264D01*
X69065Y449300D01*
X65736Y457336D01*
X57700Y460665D01*
D02*
G37*
G36*
X765730Y450540D02*
X759460D01*
Y444270D01*
X765730D01*
Y450540D01*
D02*
G37*
G36*
X57700Y486065D02*
X49664Y482736D01*
X46335Y474700D01*
X49664Y466664D01*
X57700Y463335D01*
X65736Y466664D01*
X69065Y474700D01*
X65736Y482736D01*
X57700Y486065D01*
D02*
G37*
G36*
Y511465D02*
X49664Y508136D01*
X46335Y500100D01*
X49664Y492064D01*
X57700Y488735D01*
X65736Y492064D01*
X69065Y500100D01*
X65736Y508136D01*
X57700Y511465D01*
D02*
G37*
G36*
X723730Y523730D02*
X709460D01*
Y500960D01*
X723730D01*
Y523730D01*
D02*
G37*
G36*
X701000Y599659D02*
X696994Y598000D01*
X694000D01*
Y595005D01*
X692341Y591000D01*
Y583000D01*
X693237Y580836D01*
X692008Y578578D01*
X683816Y575184D01*
X670116Y561484D01*
X666311Y552300D01*
Y548500D01*
X664300D01*
Y501500D01*
X694300D01*
Y548500D01*
X694300Y548500D01*
X694300D01*
X695376Y550008D01*
X698380Y553011D01*
X748620D01*
X796628Y505003D01*
X796628Y505000D01*
X798102Y497587D01*
X802302Y491302D01*
X808587Y487102D01*
X816000Y485628D01*
X823413Y487102D01*
X829698Y491302D01*
X833898Y497587D01*
X835372Y505000D01*
X833898Y512413D01*
X829698Y518698D01*
X823413Y522898D01*
X816000Y524372D01*
X814329Y524040D01*
X763184Y575184D01*
X754000Y578989D01*
X717257D01*
X714634Y581612D01*
X715399Y583460D01*
X718730D01*
Y589730D01*
X712460D01*
Y587667D01*
X710460Y586680D01*
X709659Y587294D01*
Y591000D01*
X708000Y595005D01*
Y598000D01*
X705005D01*
X701000Y599659D01*
D02*
G37*
G36*
X32300Y511465D02*
X24264Y508136D01*
X20935Y500100D01*
X24264Y492064D01*
X32300Y488735D01*
X40336Y492064D01*
X43665Y500100D01*
X40336Y508136D01*
X32300Y511465D01*
D02*
G37*
G36*
X33570Y435323D02*
Y425170D01*
X43724D01*
X40750Y432350D01*
X33570Y435323D01*
D02*
G37*
G36*
X731650Y488850D02*
X672650D01*
Y427850D01*
X693491D01*
Y415000D01*
X690400D01*
Y391000D01*
X714400D01*
Y415000D01*
X710809D01*
Y427850D01*
X731650D01*
Y444491D01*
X733498Y445256D01*
X741000Y437754D01*
Y436000D01*
X743995D01*
X748000Y434341D01*
X752005Y436000D01*
X755000D01*
Y438994D01*
X756659Y443000D01*
X755000Y447006D01*
Y450000D01*
X753246D01*
X738773Y464473D01*
X732650Y467009D01*
X731650D01*
Y488850D01*
D02*
G37*
G36*
X31030Y435323D02*
X23850Y432350D01*
X20877Y425170D01*
X31030D01*
Y435323D01*
D02*
G37*
G36*
X43724Y422630D02*
X33570D01*
Y412477D01*
X40750Y415450D01*
X43724Y422630D01*
D02*
G37*
G36*
X57700Y435265D02*
X49664Y431936D01*
X46335Y423900D01*
X49664Y415864D01*
X57700Y412535D01*
X65736Y415864D01*
X69065Y423900D01*
X65736Y431936D01*
X57700Y435265D01*
D02*
G37*
G36*
X765730Y441730D02*
X759460D01*
Y435460D01*
X765730D01*
Y441730D01*
D02*
G37*
G36*
X774540D02*
X768270D01*
Y435460D01*
X774540D01*
Y441730D01*
D02*
G37*
G36*
X32300Y460665D02*
X24264Y457336D01*
X20935Y449300D01*
X24264Y441264D01*
X32300Y437935D01*
X40336Y441264D01*
X43665Y449300D01*
X40336Y457336D01*
X32300Y460665D01*
D02*
G37*
%LPD*%
G36*
X843158Y146711D02*
X843338Y145807D01*
X846109Y141659D01*
X850257Y138888D01*
X851161Y138708D01*
X851357Y136718D01*
X845966Y134484D01*
X842721Y126650D01*
X840556D01*
X837786Y133336D01*
X831100Y136106D01*
Y138271D01*
X838934Y141516D01*
X841168Y146907D01*
X843158Y146711D01*
D02*
G37*
G36*
X842721Y98550D02*
X845966Y90716D01*
X852039Y88200D01*
Y86200D01*
X845966Y83684D01*
X843450Y77611D01*
X841450D01*
X838934Y83684D01*
X831100Y86929D01*
Y89094D01*
X837786Y91864D01*
X840556Y98550D01*
X842721D01*
D02*
G37*
G36*
X819122Y123520D02*
X821082Y118788D01*
X819746Y116789D01*
X815569D01*
X758679Y173679D01*
X756000Y174788D01*
X756000Y174788D01*
X739500D01*
Y182250D01*
Y190250D01*
X739630D01*
Y199212D01*
X743431D01*
X819122Y123520D01*
D02*
G37*
D10*
X494000Y356000D02*
D03*
Y337000D02*
D03*
X439000Y669000D02*
D03*
Y650000D02*
D03*
X553000Y668000D02*
D03*
Y649000D02*
D03*
X538000Y668000D02*
D03*
Y649000D02*
D03*
X523000Y668000D02*
D03*
Y649000D02*
D03*
X508000Y668000D02*
D03*
Y649000D02*
D03*
X493000Y668000D02*
D03*
Y649000D02*
D03*
X478000Y668000D02*
D03*
Y649000D02*
D03*
X407000Y650000D02*
D03*
Y669000D02*
D03*
X388000Y650000D02*
D03*
Y669000D02*
D03*
X784000Y259000D02*
D03*
Y240000D02*
D03*
X665000Y325000D02*
D03*
Y306000D02*
D03*
D11*
X523000Y356800D02*
D03*
X535700D02*
D03*
X548400D02*
D03*
X561100D02*
D03*
X523000Y304285D02*
D03*
X535700Y304280D02*
D03*
X561100D02*
D03*
D12*
X548400D02*
D03*
D13*
X684000Y99000D02*
D03*
X665000D02*
D03*
X706000D02*
D03*
X725000D02*
D03*
X827000Y208000D02*
D03*
X808000D02*
D03*
X827000Y225000D02*
D03*
X808000D02*
D03*
X767000Y443000D02*
D03*
X748000D02*
D03*
X583000Y210000D02*
D03*
X564000D02*
D03*
X654000Y116000D02*
D03*
X673000D02*
D03*
X788000Y219000D02*
D03*
X769000D02*
D03*
X720000Y591000D02*
D03*
X701000D02*
D03*
D14*
X737000Y61000D02*
D03*
X642000D02*
D03*
D15*
X725000Y525000D02*
D03*
X679300D02*
D03*
D16*
X702150Y458350D02*
D03*
D17*
X730000Y251000D02*
D03*
Y243000D02*
D03*
X730130Y195000D02*
D03*
X730000Y235000D02*
D03*
Y203000D02*
D03*
Y211000D02*
D03*
Y219000D02*
D03*
Y227000D02*
D03*
Y187000D02*
D03*
Y179000D02*
D03*
Y171000D02*
D03*
X616000Y251000D02*
D03*
Y243000D02*
D03*
Y195000D02*
D03*
Y235000D02*
D03*
Y203000D02*
D03*
Y211000D02*
D03*
Y219000D02*
D03*
Y227000D02*
D03*
Y187000D02*
D03*
Y179000D02*
D03*
Y171000D02*
D03*
D18*
X713000Y268000D02*
D03*
X705000D02*
D03*
X697000D02*
D03*
X657000D02*
D03*
X665000D02*
D03*
X673000D02*
D03*
X681000D02*
D03*
X649000D02*
D03*
X689000D02*
D03*
X641000D02*
D03*
X633000D02*
D03*
Y154000D02*
D03*
X641000D02*
D03*
X689000D02*
D03*
X649000D02*
D03*
X681000D02*
D03*
X673000D02*
D03*
X665000D02*
D03*
X657000D02*
D03*
X697000D02*
D03*
X705000D02*
D03*
X713000D02*
D03*
D19*
X714197Y179000D02*
X730000D01*
X693099Y200099D02*
X714197Y179000D01*
X693099Y200099D02*
Y213850D01*
X561300Y357000D02*
X577000D01*
X561100Y356800D02*
X561300Y357000D01*
X689000Y275200D02*
X693998Y280198D01*
Y297000D01*
X687999Y302999D02*
X693998Y297000D01*
X705000Y268000D02*
Y321000D01*
X689000Y268000D02*
Y275200D01*
X537000Y327000D02*
Y327400D01*
X535700Y328700D02*
X537000Y327400D01*
X603000Y187000D02*
X616000D01*
X599000Y183000D02*
X603000Y187000D01*
X562000Y183000D02*
X599000D01*
X523000Y222000D02*
X562000Y183000D01*
X822700Y125300D02*
X829750D01*
X745000Y203000D02*
X822700Y125300D01*
X730000Y203000D02*
X745000D01*
X655250Y269750D02*
Y291750D01*
X655000Y292000D02*
X655250Y291750D01*
X637999Y311001D02*
Y311999D01*
X650000Y269000D02*
Y276000D01*
X638000Y288000D02*
X650000Y276000D01*
X638000Y288000D02*
Y311001D01*
X649000Y268000D02*
X650000Y269000D01*
X665000Y268000D02*
Y306000D01*
X535700Y304280D02*
Y328700D01*
Y299530D02*
Y304280D01*
X548400Y343600D02*
X595000Y297000D01*
X548400Y343600D02*
Y356800D01*
X523000Y222000D02*
Y304285D01*
X595000Y248800D02*
Y297000D01*
Y248800D02*
X607050Y236750D01*
X614250D01*
X616000Y235000D01*
X798000Y35000D02*
Y111000D01*
X769000Y6000D02*
X798000Y35000D01*
X412100Y6000D02*
X769000D01*
X354100Y64000D02*
X412100Y6000D01*
X775000Y134000D02*
X798000Y111000D01*
X712000Y154000D02*
X732000Y134000D01*
X775000D01*
X712000Y154000D02*
X713000D01*
X730000Y235000D02*
X743000D01*
X753000Y245000D01*
Y251000D01*
X750997Y233997D02*
Y234000D01*
X744000Y227000D02*
X750997Y233997D01*
Y234000D02*
X756000D01*
X379500Y64000D02*
X492750Y177250D01*
X614250D01*
X616000Y179000D01*
X705000Y321000D02*
X705000Y321000D01*
X608714Y388286D02*
X611000Y388000D01*
X430000Y567000D02*
X608714Y388286D01*
X430000Y567000D02*
Y634000D01*
X419000Y556000D02*
Y619000D01*
Y556000D02*
X596000Y379000D01*
X713000Y284001D02*
X714999Y285999D01*
X713000Y268000D02*
Y284001D01*
X553000Y668000D02*
Y685000D01*
X540800Y697200D02*
X553000Y685000D01*
X540800Y697200D02*
Y700000D01*
X490000D02*
X493000Y697000D01*
Y668000D02*
Y697000D01*
X538000Y668000D02*
Y684000D01*
X528100Y693900D02*
X538000Y684000D01*
X528100Y693900D02*
Y700000D01*
X523000Y668000D02*
Y687000D01*
X515400Y694600D02*
X523000Y687000D01*
X515400Y694600D02*
Y700000D01*
X508000Y668000D02*
Y688000D01*
X502700Y693300D02*
X508000Y688000D01*
X502700Y693300D02*
Y700000D01*
X477300Y668700D02*
Y700000D01*
X388000Y669000D02*
Y687000D01*
X401000Y700000D01*
X401100D01*
X407000Y669000D02*
Y690000D01*
X413800Y696800D01*
Y700000D01*
X733000Y254000D02*
Y284000D01*
X407000Y668065D02*
Y669000D01*
X624000Y399000D02*
Y629500D01*
X622000Y401000D02*
X624000Y399000D01*
X553500Y700000D02*
X624000Y629500D01*
X730000Y227000D02*
X744000D01*
X618000Y203000D02*
X641000D01*
X617000Y202000D02*
X618000Y203000D01*
X616000D02*
X617000Y202000D01*
X842850Y113000D02*
X855150Y125300D01*
X814000Y113000D02*
X842850D01*
X756000Y171000D02*
X814000Y113000D01*
X730000Y171000D02*
X756000D01*
X724000Y99000D02*
X745000Y120000D01*
X404900Y64000D02*
X511900Y171000D01*
X616000D01*
X737000Y61000D02*
Y68000D01*
X706000Y99000D02*
X737000Y68000D01*
X642000Y61000D02*
X680000Y99000D01*
X684000D01*
X706000D02*
Y120000D01*
X697000Y129000D02*
X706000Y120000D01*
X684000Y99000D02*
Y124000D01*
X689000Y129000D01*
X697000Y129000D02*
Y154000D01*
X689000Y129000D02*
Y154000D01*
X594000Y94000D02*
X599000Y99000D01*
X665000D01*
X724000D02*
X725000D01*
X531900Y64000D02*
Y85829D01*
X573985Y127914D01*
X650357D01*
X665000Y142558D01*
Y154000D01*
X571914Y132914D02*
X648286D01*
X506500Y67500D02*
X571914Y132914D01*
X506500Y64000D02*
Y67500D01*
X648286Y132914D02*
X655250Y139879D01*
Y152250D01*
X657000Y154000D01*
X534700Y143000D02*
X641000D01*
X455700Y64000D02*
X534700Y143000D01*
X481100Y64000D02*
X555100Y138000D01*
X645371D01*
X647250Y139879D01*
Y152250D01*
X649000Y154000D01*
X641000Y143000D02*
Y154000D01*
X430300Y64000D02*
X520300Y154000D01*
X633000D01*
X810000Y225000D02*
X827000Y208000D01*
X808000Y225000D02*
X810000D01*
X784000Y240000D02*
X799000Y225000D01*
X808000D01*
X827000D02*
Y252000D01*
D20*
X712000Y211000D02*
X730000D01*
X673000Y250000D02*
X712000Y211000D01*
X673000Y250000D02*
Y268000D01*
X476000Y650000D02*
X477000Y649000D01*
X451900Y674100D02*
X476000Y650000D01*
X477000Y649000D02*
X478000D01*
X451900Y674100D02*
Y700000D01*
X476000Y341000D02*
Y345000D01*
Y341000D02*
X480000Y337000D01*
X494000D01*
X535700Y347108D02*
Y356800D01*
Y347108D02*
X548400Y334408D01*
Y304280D02*
Y334408D01*
X664000Y177000D02*
X665000D01*
X673000Y169000D01*
Y154000D02*
Y169000D01*
X585000Y211000D02*
X617000D01*
X583000Y205000D02*
Y210000D01*
X572000Y194000D02*
X583000Y205000D01*
X681000Y154000D02*
Y190000D01*
X652000Y219000D02*
X681000Y190000D01*
X616000Y219000D02*
X652000D01*
X494000Y356000D02*
Y367000D01*
X510000Y383000D01*
X523000Y373000D02*
X533000Y383000D01*
X523000Y356800D02*
Y373000D01*
X535700Y368700D02*
X550000Y383000D01*
X535700Y356800D02*
Y368700D01*
X769000Y219000D02*
Y286600D01*
X730000Y219000D02*
X769000D01*
X802400Y277400D02*
X812000D01*
X426500Y662500D02*
X439000Y650000D01*
X426500Y662500D02*
Y700000D01*
X377000Y650000D02*
X409000D01*
X439200Y669200D02*
Y700000D01*
X464600Y705600D02*
X474000Y715000D01*
X464600Y700000D02*
Y705600D01*
X439200Y706200D02*
X447000Y714000D01*
X439200Y700000D02*
Y706200D01*
X762000Y201000D02*
X781000D01*
X752000Y211000D02*
X762000Y201000D01*
X730000Y211000D02*
X752000D01*
X603000Y116000D02*
X654000D01*
X673000D02*
Y154000D01*
X822000Y194000D02*
X855000D01*
X808000Y208000D02*
X822000Y194000D01*
X784000Y259000D02*
X802400Y277400D01*
D21*
X478000Y650000D02*
X577000D01*
X439000D02*
X476000D01*
X550000Y383000D02*
X571294D01*
X591294Y363000D01*
X611600D01*
X457000Y316000D02*
X504000Y269000D01*
Y208000D02*
Y269000D01*
X457000Y316000D02*
Y368000D01*
X472000Y383000D01*
X510000D01*
X97000Y716000D02*
X629000D01*
X64000Y749000D02*
X97000Y716000D01*
X64000Y749000D02*
Y1117000D01*
X629000Y716000D02*
X651600Y693400D01*
X365000Y690000D02*
X385000Y710000D01*
X533000Y383000D02*
X550000D01*
X510000D02*
X533000D01*
X611600Y363000D02*
X651600Y403000D01*
X781000Y199000D02*
X798000Y182000D01*
X788000Y197000D02*
Y219000D01*
X762000Y293600D02*
X769000Y286600D01*
X762000Y293600D02*
X795800D01*
X812000Y277400D02*
X827000D01*
X795800Y293600D02*
X812000Y277400D01*
X651600Y403000D02*
X761000Y293600D01*
X365000Y662000D02*
X377000Y650000D01*
X365000Y662000D02*
Y690000D01*
X651600Y596600D02*
Y693400D01*
X677000Y622000D02*
X843000D01*
X651600Y596600D02*
X677000Y622000D01*
X651600Y403000D02*
Y596600D01*
X577000Y650000D02*
X579000Y648000D01*
X718000Y566000D02*
X719000Y565000D01*
X701000Y583000D02*
X718000Y566000D01*
X798000Y182000D02*
X851000D01*
X874000Y205000D01*
X883000D01*
X702150Y403250D02*
Y458350D01*
X767000Y443000D02*
X810000Y449000D01*
X732650Y458350D02*
X748000Y443000D01*
X702150Y458350D02*
X732650D01*
X720000Y591000D02*
X801000D01*
X701000Y583000D02*
Y591000D01*
D22*
X29000Y695000D02*
X457000Y267000D01*
X671000Y280000D02*
Y293000D01*
Y280000D02*
X673000Y278000D01*
X671000Y293000D02*
X675000Y297000D01*
X673000Y268000D02*
Y278000D01*
X675000Y297000D02*
Y315000D01*
X665000Y325000D02*
X675000Y315000D01*
X665000Y325000D02*
X665000D01*
X446000Y299000D02*
Y302000D01*
X447000Y303000D01*
X44000Y706000D02*
X447000Y303000D01*
X458000Y268000D02*
X462000D01*
X457000Y267000D02*
X458000Y268000D01*
X459000Y248000D02*
X462000D01*
X596998Y227000D02*
X616000D01*
X593999Y230000D02*
X596998Y227000D01*
X622000Y268000D02*
X633000D01*
X620000Y266000D02*
X622000Y268000D01*
X697000Y246000D02*
Y268000D01*
Y246000D02*
X698000Y245000D01*
X13000Y694000D02*
X459000Y248000D01*
X573000Y219000D02*
X616000D01*
X561100Y238900D02*
X581000Y219000D01*
X561100Y238900D02*
Y304280D01*
X564000Y210000D02*
X573000Y219000D01*
D23*
X810000Y449000D02*
X826000D01*
X801000D02*
X810000D01*
X843000Y647400D02*
X866600D01*
X883000Y631000D01*
Y577000D02*
Y631000D01*
X867000Y561000D02*
X883000Y577000D01*
X867000Y525000D02*
Y561000D01*
X718000Y566000D02*
X754000D01*
X693000D02*
X718000D01*
X883000Y205000D02*
Y339000D01*
Y177000D02*
Y205000D01*
X856700Y150700D02*
X883000Y177000D01*
Y339000D02*
Y474000D01*
X846800Y302800D02*
X883000Y339000D01*
X827000Y302800D02*
X846800D01*
X867000Y490000D02*
X883000Y474000D01*
X725000Y525000D02*
X801000Y449000D01*
X801000Y591000D02*
X867000Y525000D01*
X826000Y449000D02*
X867000Y490000D01*
Y525000D01*
X679300D02*
Y552300D01*
X693000Y566000D01*
X754000D02*
X815000Y505000D01*
D24*
X816000D01*
D25*
X379500Y64000D02*
D03*
X481100D02*
D03*
X455700D02*
D03*
X354100D02*
D03*
X404900D02*
D03*
X430300D02*
D03*
X506500D02*
D03*
X531900D02*
D03*
D26*
X57700Y576300D02*
D03*
X32300D02*
D03*
Y550900D02*
D03*
X57700D02*
D03*
X32300Y525500D02*
D03*
X57700D02*
D03*
X32300Y500100D02*
D03*
X57700D02*
D03*
X32300Y474700D02*
D03*
X57700D02*
D03*
X32300Y449300D02*
D03*
X57700D02*
D03*
X32300Y423900D02*
D03*
X57700D02*
D03*
X32300Y398500D02*
D03*
X57700D02*
D03*
X32300Y373100D02*
D03*
X57700D02*
D03*
Y347700D02*
D03*
X32300D02*
D03*
X57700Y322300D02*
D03*
X32300D02*
D03*
X57700Y296900D02*
D03*
X32300D02*
D03*
X57700Y271500D02*
D03*
X32300D02*
D03*
X57700Y246100D02*
D03*
X32300D02*
D03*
X57700Y220700D02*
D03*
X32300D02*
D03*
X57700Y195300D02*
D03*
X32300D02*
D03*
X57700Y169900D02*
D03*
X32300D02*
D03*
X57700Y144500D02*
D03*
X32300D02*
D03*
X57700Y119100D02*
D03*
X32300D02*
D03*
X57700Y93700D02*
D03*
X32300D02*
D03*
X829750Y99900D02*
D03*
Y125300D02*
D03*
D27*
X827000Y252000D02*
D03*
Y277400D02*
D03*
Y302800D02*
D03*
Y328200D02*
D03*
Y353600D02*
D03*
Y379000D02*
D03*
X651600Y403000D02*
D03*
X829750Y74500D02*
D03*
X855150D02*
D03*
Y99900D02*
D03*
Y125300D02*
D03*
Y150700D02*
D03*
X829750D02*
D03*
X855150Y49100D02*
D03*
X829750D02*
D03*
X843000Y647400D02*
D03*
Y622000D02*
D03*
D28*
X702400Y403000D02*
D03*
D29*
X553500Y700000D02*
D03*
X528100D02*
D03*
X540800D02*
D03*
X515400D02*
D03*
X502700D02*
D03*
X490000D02*
D03*
X477300D02*
D03*
X464600D02*
D03*
X451900D02*
D03*
X439200D02*
D03*
X426500D02*
D03*
X413800D02*
D03*
X401100D02*
D03*
D30*
X867000Y525000D02*
D03*
X816000Y505000D02*
D03*
D31*
X693099Y213850D02*
D03*
X577000Y357000D02*
D03*
X29000Y695000D02*
D03*
X687999Y302999D02*
D03*
X476000Y345000D02*
D03*
X537000Y327000D02*
D03*
X681000Y183000D02*
D03*
X664000Y177000D02*
D03*
X504000Y208000D02*
D03*
X572000Y194000D02*
D03*
X446000Y299000D02*
D03*
X462000Y268000D02*
D03*
X462000Y248000D02*
D03*
X64000Y1117000D02*
D03*
X593999Y230000D02*
D03*
X44000Y706000D02*
D03*
X620000Y266000D02*
D03*
X698000Y245000D02*
D03*
X13000Y694000D02*
D03*
X655000Y292000D02*
D03*
X637999Y311999D02*
D03*
X753000Y251000D02*
D03*
X756000Y234000D02*
D03*
X705000Y321000D02*
D03*
X430000Y634000D02*
D03*
X419000Y619000D02*
D03*
X596000Y379000D02*
D03*
X714999Y285999D02*
D03*
X733000Y284000D02*
D03*
X611000Y388000D02*
D03*
X622000Y401000D02*
D03*
X641000Y203000D02*
D03*
D32*
X751000Y19000D02*
D03*
X772000Y27000D02*
D03*
X785000Y44000D02*
D03*
X781000Y112000D02*
D03*
X785000Y85000D02*
D03*
Y65000D02*
D03*
X764000Y121000D02*
D03*
X611000Y18000D02*
D03*
X631000Y17000D02*
D03*
X653000Y18000D02*
D03*
X673000D02*
D03*
X693000Y19000D02*
D03*
X713000D02*
D03*
X732000D02*
D03*
X595000Y32000D02*
D03*
X594000Y53000D02*
D03*
Y72000D02*
D03*
X579000Y648000D02*
D03*
X883000Y205000D02*
D03*
X745000Y120000D02*
D03*
X594000Y94000D02*
D03*
X603000Y115000D02*
D03*
M02*
