%FSLAX44Y44*%
%MOMM*%
G71*
G01*
G75*
%ADD10R,1.0000X1.0000*%
%ADD11R,0.7600X1.7800*%
%ADD12R,0.7200X1.7800*%
%ADD13R,1.0000X1.0000*%
%ADD14R,5.5000X2.0000*%
%ADD15R,2.6000X4.3000*%
%ADD16R,5.5000X5.7000*%
%ADD17R,1.5000X0.5500*%
%ADD18R,0.5500X1.5000*%
%ADD19C,0.3000*%
%ADD20C,0.6000*%
%ADD21C,1.2000*%
%ADD22C,0.4000*%
%ADD23C,2.0000*%
%ADD24C,0.2540*%
%ADD25C,1.8000*%
%ADD26C,1.7000*%
%ADD27C,2.0000*%
%ADD28R,2.0000X2.0000*%
%ADD29C,0.9000*%
%ADD30C,3.4000*%
%ADD31C,1.2700*%
%ADD32C,1.5000*%
%ADD33R,1.0000X1.4000*%
D10*
X494000Y356000D02*
D03*
Y337000D02*
D03*
X439000Y669000D02*
D03*
Y650000D02*
D03*
X553000Y668000D02*
D03*
Y649000D02*
D03*
X538000Y668000D02*
D03*
Y649000D02*
D03*
X523000Y668000D02*
D03*
Y649000D02*
D03*
X508000Y668000D02*
D03*
Y649000D02*
D03*
X493000Y668000D02*
D03*
Y649000D02*
D03*
X478000Y668000D02*
D03*
Y649000D02*
D03*
X407000Y650000D02*
D03*
Y669000D02*
D03*
X388000Y650000D02*
D03*
Y669000D02*
D03*
X784000Y259000D02*
D03*
Y240000D02*
D03*
X665000Y325000D02*
D03*
Y306000D02*
D03*
D11*
X523000Y356800D02*
D03*
X535700D02*
D03*
X548400D02*
D03*
X561100D02*
D03*
X523000Y304285D02*
D03*
X535700Y304280D02*
D03*
X561100D02*
D03*
D12*
X548400D02*
D03*
D13*
X684000Y99000D02*
D03*
X665000D02*
D03*
X706000D02*
D03*
X725000D02*
D03*
X827000Y208000D02*
D03*
X808000D02*
D03*
X827000Y225000D02*
D03*
X808000D02*
D03*
X767000Y443000D02*
D03*
X748000D02*
D03*
X583000Y210000D02*
D03*
X564000D02*
D03*
X654000Y116000D02*
D03*
X673000D02*
D03*
X788000Y219000D02*
D03*
X769000D02*
D03*
X720000Y591000D02*
D03*
X701000D02*
D03*
D14*
X737000Y61000D02*
D03*
X642000D02*
D03*
D15*
X725000Y525000D02*
D03*
X679300D02*
D03*
D16*
X702150Y458350D02*
D03*
D17*
X730000Y251000D02*
D03*
Y243000D02*
D03*
X730130Y195000D02*
D03*
X730000Y235000D02*
D03*
Y203000D02*
D03*
Y211000D02*
D03*
Y219000D02*
D03*
Y227000D02*
D03*
Y187000D02*
D03*
Y179000D02*
D03*
Y171000D02*
D03*
X616000Y251000D02*
D03*
Y243000D02*
D03*
Y195000D02*
D03*
Y235000D02*
D03*
Y203000D02*
D03*
Y211000D02*
D03*
Y219000D02*
D03*
Y227000D02*
D03*
Y187000D02*
D03*
Y179000D02*
D03*
Y171000D02*
D03*
D18*
X713000Y268000D02*
D03*
X705000D02*
D03*
X697000D02*
D03*
X657000D02*
D03*
X665000D02*
D03*
X673000D02*
D03*
X681000D02*
D03*
X649000D02*
D03*
X689000D02*
D03*
X641000D02*
D03*
X633000D02*
D03*
Y154000D02*
D03*
X641000D02*
D03*
X689000D02*
D03*
X649000D02*
D03*
X681000D02*
D03*
X673000D02*
D03*
X665000D02*
D03*
X657000D02*
D03*
X697000D02*
D03*
X705000D02*
D03*
X713000D02*
D03*
D25*
X379500Y64000D02*
D03*
X481100D02*
D03*
X455700D02*
D03*
X354100D02*
D03*
X404900D02*
D03*
X430300D02*
D03*
X506500D02*
D03*
X531900D02*
D03*
D26*
X57700Y576300D02*
D03*
X32300D02*
D03*
Y550900D02*
D03*
X57700D02*
D03*
X32300Y525500D02*
D03*
X57700D02*
D03*
X32300Y500100D02*
D03*
X57700D02*
D03*
X32300Y474700D02*
D03*
X57700D02*
D03*
X32300Y449300D02*
D03*
X57700D02*
D03*
X32300Y423900D02*
D03*
X57700D02*
D03*
X32300Y398500D02*
D03*
X57700D02*
D03*
X32300Y373100D02*
D03*
X57700D02*
D03*
Y347700D02*
D03*
X32300D02*
D03*
X57700Y322300D02*
D03*
X32300D02*
D03*
X57700Y296900D02*
D03*
X32300D02*
D03*
X57700Y271500D02*
D03*
X32300D02*
D03*
X57700Y246100D02*
D03*
X32300D02*
D03*
X57700Y220700D02*
D03*
X32300D02*
D03*
X57700Y195300D02*
D03*
X32300D02*
D03*
X57700Y169900D02*
D03*
X32300D02*
D03*
X57700Y144500D02*
D03*
X32300D02*
D03*
X57700Y119100D02*
D03*
X32300D02*
D03*
X57700Y93700D02*
D03*
X32300D02*
D03*
X829750Y99900D02*
D03*
Y125300D02*
D03*
D27*
X827000Y252000D02*
D03*
Y277400D02*
D03*
Y302800D02*
D03*
Y328200D02*
D03*
Y353600D02*
D03*
Y379000D02*
D03*
X651600Y403000D02*
D03*
X829750Y74500D02*
D03*
X855150D02*
D03*
Y99900D02*
D03*
Y125300D02*
D03*
Y150700D02*
D03*
X829750D02*
D03*
X855150Y49100D02*
D03*
X829750D02*
D03*
X843000Y647400D02*
D03*
Y622000D02*
D03*
D28*
X702400Y403000D02*
D03*
D29*
X553500Y700000D02*
D03*
X528100D02*
D03*
X540800D02*
D03*
X515400D02*
D03*
X502700D02*
D03*
X490000D02*
D03*
X477300D02*
D03*
X464600D02*
D03*
X451900D02*
D03*
X439200D02*
D03*
X426500D02*
D03*
X413800D02*
D03*
X401100D02*
D03*
D30*
X867000Y525000D02*
D03*
X816000Y505000D02*
D03*
M02*
