%FSLAX44Y44*%
%MOMM*%
G71*
G01*
G75*
G04 Layer_Color=32896*
%ADD10R,1.0000X1.0000*%
%ADD11R,0.7600X1.7800*%
%ADD12R,0.7200X1.7800*%
%ADD13R,1.0000X1.0000*%
%ADD14R,5.5000X2.0000*%
%ADD15R,2.6000X4.3000*%
%ADD16R,5.5000X5.7000*%
%ADD17R,1.5000X0.5500*%
%ADD18R,0.5500X1.5000*%
%ADD19C,0.3000*%
%ADD20C,0.6000*%
%ADD21C,1.2000*%
%ADD22C,0.4000*%
%ADD23C,2.0000*%
%ADD24C,0.2540*%
%ADD25C,1.8000*%
%ADD26C,1.7000*%
%ADD27C,2.0000*%
%ADD28R,2.0000X2.0000*%
%ADD29C,0.9000*%
%ADD30C,3.4000*%
%ADD31C,1.2700*%
%ADD32C,1.5000*%
%ADD33R,1.0000X1.4000*%
%ADD34C,0.2500*%
%ADD35C,0.2000*%
%ADD36C,0.5000*%
%ADD37R,1.2032X1.2032*%
%ADD38R,0.9632X1.9832*%
%ADD39R,0.9232X1.9832*%
%ADD40R,1.2032X1.2032*%
%ADD41R,5.7032X2.2032*%
%ADD42R,2.8032X4.5032*%
%ADD43R,5.7032X5.9032*%
%ADD44R,1.7032X0.7532*%
%ADD45R,0.7532X1.7032*%
%ADD46C,2.0032*%
%ADD47C,1.9032*%
%ADD48C,2.2032*%
%ADD49R,2.2032X2.2032*%
%ADD50C,1.1032*%
%ADD51C,3.6032*%
%ADD52C,1.4732*%
%ADD53C,1.7032*%
%ADD54R,1.2032X1.6032*%
D24*
X118000Y39000D02*
X768000D01*
X118000D02*
Y679000D01*
X768000D01*
Y39000D02*
Y679000D01*
X28000Y1127000D02*
X30000D01*
X92000Y1163000D02*
Y1165000D01*
X20000Y1163000D02*
Y1165000D01*
X63000Y1148000D02*
X67000Y1152000D01*
X75800Y700000D02*
X379800D01*
X75800D02*
Y1064000D01*
X818800D01*
Y700000D02*
Y1064000D01*
X568500Y700000D02*
X818800D01*
X745000Y667235D02*
Y654539D01*
X742461Y652000D01*
X737383D01*
X734843Y654539D01*
Y667235D01*
X719608D02*
X729765D01*
Y659617D01*
X724687Y662157D01*
X722147D01*
X719608Y659617D01*
Y654539D01*
X722147Y652000D01*
X727226D01*
X729765Y654539D01*
X493000Y658235D02*
Y643000D01*
Y648078D01*
X482843Y658235D01*
X490461Y650618D01*
X482843Y643000D01*
X470147D02*
X475226D01*
X477765Y645539D01*
Y650618D01*
X475226Y653157D01*
X470147D01*
X467608Y650618D01*
Y648078D01*
X477765D01*
X462530Y653157D02*
Y645539D01*
X459991Y643000D01*
X452373D01*
Y640461D01*
X454912Y637922D01*
X457452D01*
X452373Y643000D02*
Y653157D01*
X447295Y637922D02*
Y653157D01*
X439677D01*
X437138Y650618D01*
Y645539D01*
X439677Y643000D01*
X447295D01*
X429520Y653157D02*
X424442D01*
X421903Y650618D01*
Y643000D01*
X429520D01*
X432060Y645539D01*
X429520Y648078D01*
X421903D01*
X406668Y658235D02*
Y643000D01*
X414285D01*
X416825Y645539D01*
Y650618D01*
X414285Y653157D01*
X406668D01*
X38000Y1092000D02*
Y1101997D01*
X33002D01*
X31335Y1100331D01*
Y1096998D01*
X33002Y1095332D01*
X38000D01*
X34668D02*
X31335Y1092000D01*
X21339Y1101997D02*
X28003D01*
Y1096998D01*
X24671Y1098664D01*
X23005D01*
X21339Y1096998D01*
Y1093666D01*
X23005Y1092000D01*
X26337D01*
X28003Y1093666D01*
X104394Y1177544D02*
Y1187541D01*
X99396D01*
X97730Y1185875D01*
Y1182542D01*
X99396Y1180876D01*
X104394D01*
X101062D02*
X97730Y1177544D01*
X94397Y1185875D02*
X92731Y1187541D01*
X89399D01*
X87733Y1185875D01*
Y1184209D01*
X89399Y1182542D01*
X91065D01*
X89399D01*
X87733Y1180876D01*
Y1179210D01*
X89399Y1177544D01*
X92731D01*
X94397Y1179210D01*
X33528Y1177544D02*
Y1187541D01*
X28530D01*
X26864Y1185875D01*
Y1182542D01*
X28530Y1180876D01*
X33528D01*
X30196D02*
X26864Y1177544D01*
X18533D02*
Y1187541D01*
X23531Y1182542D01*
X16867D01*
X67546Y1194337D02*
Y1181641D01*
X65007Y1179102D01*
X59929D01*
X57389Y1181641D01*
Y1194337D01*
X52311Y1179102D02*
X47233D01*
X49772D01*
Y1194337D01*
X52311Y1191798D01*
X817626Y1072896D02*
Y1088131D01*
X810009D01*
X807469Y1085592D01*
Y1080514D01*
X810009Y1077974D01*
X817626D01*
X802391Y1072896D02*
X797313D01*
X799852D01*
Y1088131D01*
X802391Y1085592D01*
M02*
