M48
;Layer_Color=9474304
;FILE_FORMAT=2:5
INCH,LZ
;TYPE=PLATED
T1F00S00C0.02756
T2F00S00C0.02800
T3F00S00C0.03150
%
T01
X006811Y0036614
X0074016
X0079921
X0085827
X0091732
X0097638
X0103543
X0109449
X0119902Y0039173
Y0033268
X0129705
Y0039173
T02
X0077559Y0053937
X009252Y0053543
X0099213Y0056693
X0100787Y0061811
X0111417Y0058268
X010952Y0074803
X0113386Y0082283
X0105512Y0089764
X0099606Y0096457
X008809Y0101083
X0085827Y0089764
X0081535Y0075138
X0070866Y0072441
X0094488Y007559
X0156299Y0044488
X0155905Y0036614
X0156299Y0029134
X0053937Y0105512
X0048031Y0109055
X0042913Y0119685
X0048819Y0127559
X0059055Y0130315
X0074016Y013189
X0083071Y0134645
X0094488Y0134252
X0093307Y0145669
X0101575Y0148819
X010748Y0137402
X0114173Y0127559
X0103937Y0114567
X0097638Y0112598
X0084646Y0120079
X0079134Y0115748
X0062795Y0115945
X005748Y0151575
X0110236Y0167717
X0129921Y0115354
X0177953Y0140551
T03
X0085039Y0064173
X0092913
X0164961Y0063386
X0172835
Y007126
Y0079134
X0164961
Y007126
Y0087008
Y0094882
X0172835
Y0087008
X016063Y0112205
Y0120079
Y0127953
Y0135827
Y0143701
Y0151575
X0162598Y0170866
Y017874
X0153937
X0146063
X0138189
X0130315
X0122441
X0114567
X0106693
X0098819
X0090945
X0083071
X0075197
X0067323
X0059449
X0127165Y0139764
X0137165
Y0129764
X0127165
M30
