M48
;Layer_Color=9474304
;FILE_FORMAT=4:4
METRIC,LZ
T8F00S00C5.0800
%
G90
G05
T08
G00X01305048Y-00024893
M15
G01X01309895Y-00023393
G01X01314347Y-0002096
G01X01318227Y-0001769
G01X01321379Y-00013715
G01X01323678Y-00009192
G01X01325033Y-00004302
G01X013254Y0
G01X013254Y014
G01X01324893Y01405048
G01X01323393Y01409895
G01X0132096Y01414347
G01X0131769Y01418227
G01X01313715Y01421379
G01X01309192Y01423678
G01X01304303Y01425033
G01X013Y014254
G01X0Y014254
G01X-00005048Y01424893
G01X-00009895Y01423393
G01X-00014347Y0142096
G01X-00018227Y0141769
G01X-00021379Y01413715
G01X-00023678Y01409192
G01X-00025033Y01404302
G01X-000254Y014
G01X-000254Y0
G01X-00024893Y-00005048
G01X-00023393Y-00009895
G01X-0002096Y-00014347
G01X-0001769Y-00018227
G01X-00013715Y-00021379
G01X-00009192Y-00023678
G01X-00004302Y-00025033
G01X0Y-000254
G01X013Y-000254
G01X01305048Y-00024893
M16
M17
M30
