M48
;Layer_Color=9474304
;FILE_FORMAT=2:5
INCH,LZ
;TYPE=PLATED
T1F00S00C0.01968
T2F00S00C0.02800
T3F00S00C0.03150
T4F00S00C0.04724
T5F00S00C0.05118
T6F00S00C0.09843
%
T01
X0237717Y0295276
X0242717
X0247716
X0252716
X0257716
X0262717
X0267717
X0272716
X0277716
X0282716
X0287717
X0292717
X0297716
X0197638Y0420472
X0191339Y0420866
X0185827Y0425197
X0181102Y0437402
Y0444095
Y0451181
Y0457874
X0181496Y0463779
X0181102Y0469685
X0180315Y0475984
X0175197Y0479528
X0170079Y0482677
X0164173Y0486614
Y0494882
Y0502362
X0165354Y0509055
X0170079Y0513386
X0176772Y0513779
X0183858Y0513386
X0190157
X019685
X0203937Y0513779
X0212205Y0514173
T02
X0204724Y0320472
X0207874Y0327165
X0211417Y0334251
X0214173Y034055
X021811Y0345669
X0216929Y0353543
X0222835Y0357087
X0227559Y0361811
X0246457Y0270866
X0257874
X0264567
X0271654
X0278346
X0286221
X0294488
X0424409Y046811
X0409449Y0495276
X0408268Y0524016
X0324803Y0471654
X0308071Y0474409
X0295276Y0472047
X0296063Y0465354
X0290158Y0454724
X0295275Y04437
X0290551Y0438583
X0279528Y0447638
X0276378Y0462598
X0275984Y0470079
X0272835Y0479134
X0278346Y0484252
X0249606Y0480315
X0250787Y047126
X025315Y0465354
X0253937Y0447638
X0261024Y0442126
X0254331Y0414961
X0229921Y0414567
X0233858Y0428346
X0284646Y0423622
X0246457Y0374803
X0233071Y0483071
X0227618Y0486949
X0224803Y0493307
X0223228Y05
X0240945Y0498819
X0244094Y0506299
X025Y0511024
X0256693Y0507874
X0290945Y0504724
X0154724Y0469685
X0100787Y0486614
X0070472Y0486221
X0161417Y0385433
X0168504Y0379134
X0184646Y0394094
X0181102Y0403937
X0251181Y0526772
T03
X0220905Y0017717
X0230906
X0240905
X0250905
X0260906
X0270905
X0280906
X0290905
X0464075Y0365394
X0474075
Y0375394
X0464075
Y0385394
X0474075
Y0395394
X0464075
Y0405394
X0474075
T04
X0028465Y0052638
X0038465
Y0062638
Y0072638
Y0082638
Y0092638
Y0102638
Y0112638
Y0122638
Y0132638
Y0142638
Y0152638
Y0162638
Y0172638
Y0182638
Y0192638
Y0202638
X0028465
Y0192638
Y0182638
Y0172638
Y0162638
Y0152638
Y0142638
Y0132638
Y0122638
Y0112638
Y0102638
Y0092638
Y0082638
Y0072638
Y0062638
Y0212638
Y0222638
Y0232638
Y0242638
X0038465
Y0232638
Y0222638
Y0212638
X008937Y0399055
Y0409055
T05
X0466142Y0449213
Y0459213
Y0469213
Y0479213
Y0489213
Y0499213
T06
X0050394Y0517717
X004252Y0537795
M30
